<?xml version="1.0" encoding="utf-8"?>
<!-- Generator: Adobe Illustrator 19.0.0, SVG Export Plug-In . SVG Version: 6.00 Build 0)  -->
<svg version="1.1" id="Layer_1" xmlns="http://www.w3.org/2000/svg" xmlns:xlink="http://www.w3.org/1999/xlink" x="0px" y="0px"
	 viewBox="325 -132.5 800 300" style="enable-background:new 325 -132.5 800 300;" xml:space="preserve">
<style type="text/css">
	.st0{clip-path:url(#SVGID_2_);fill:url(#SVGID_3_);}
	.st1{opacity:0.75;}
	.st2{fill:#BEDAFF;}
	.st3{fill:#00E9FF;}
	.st4{fill:#3A55CA;}
	.st5{fill:#0382FF;}
	.st6{fill:#C3E0FE;}
	.st7{fill:url(#XMLID_2_);}
	.st8{fill:url(#XMLID_9_);}
	.st9{fill:url(#XMLID_10_);}
	.st10{fill:url(#XMLID_17_);}
	.st11{fill:url(#XMLID_18_);}
	.st12{fill:url(#XMLID_19_);}
	.st13{fill:url(#XMLID_27_);}
	.st14{fill:url(#XMLID_28_);}
	.st15{fill:url(#XMLID_151_);}
	.st16{fill:#A9BDEA;}
	.st17{fill:url(#XMLID_157_);}
	.st18{fill:url(#XMLID_160_);}
	.st19{fill:#A3B9E8;}
	.st20{fill:#7B97C9;}
	.st21{fill:#90A9D6;}
	.st22{opacity:0.32;}
	.st23{fill:#FFFFFF;}
	.st24{display:none;fill:url(#XMLID_170_);}
	.st25{fill:url(#XMLID_176_);}
	.st26{fill:url(#XMLID_182_);}
	.st27{fill:#2645B5;}
	.st28{fill:#335185;}
	.st29{fill:#9CC0E8;}
	.st30{fill:url(#XMLID_189_);}
	.st31{fill:url(#XMLID_191_);}
	.st32{fill:url(#XMLID_193_);}
	.st33{fill:url(#XMLID_194_);}
	.st34{fill:#BDCEFA;}
	.st35{fill:url(#XMLID_197_);}
	.st36{fill:url(#XMLID_198_);}
	.st37{fill:url(#XMLID_200_);}
	.st38{fill:url(#XMLID_201_);}
	.st39{fill:url(#XMLID_205_);}
	.st40{fill:url(#XMLID_211_);}
	.st41{fill:url(#XMLID_212_);}
	.st42{fill:url(#XMLID_213_);}
	.st43{fill:url(#XMLID_217_);}
	.st44{fill:url(#XMLID_218_);}
	.st45{fill:url(#XMLID_220_);}
	.st46{fill:url(#XMLID_221_);}
	.st47{fill:url(#XMLID_222_);}
	.st48{fill:#2D0D60;}
	.st49{fill:#FCC4B7;}
	.st50{fill:#293677;}
	.st51{fill:#DD936F;}
	.st52{fill:#6BD8DD;}
	.st53{fill:#FEFEFE;}
	.st54{fill:url(#XMLID_223_);}
	.st55{fill:url(#XMLID_224_);}
	.st56{fill:url(#XMLID_227_);}
	.st57{fill:url(#XMLID_228_);}
	.st58{fill:url(#XMLID_229_);}
	.st59{fill:url(#XMLID_230_);}
	.st60{fill:url(#XMLID_234_);}
	.st61{fill:url(#XMLID_241_);}
	.st62{fill:url(#XMLID_242_);}
	.st63{fill:url(#XMLID_243_);}
	.st64{fill:url(#XMLID_244_);}
	.st65{fill:url(#XMLID_245_);}
	.st66{fill:url(#XMLID_246_);}
	.st67{fill:url(#XMLID_247_);}
	.st68{fill:url(#XMLID_248_);}
	.st69{fill:url(#XMLID_249_);}
	.st70{fill:url(#XMLID_250_);}
	.st71{fill:url(#XMLID_251_);}
	.st72{fill:url(#XMLID_253_);}
	.st73{fill:url(#XMLID_254_);}
	.st74{fill:url(#XMLID_255_);}
	.st75{fill:url(#XMLID_256_);}
	.st76{fill:url(#XMLID_258_);}
	.st77{fill:url(#XMLID_259_);}
	.st78{fill:url(#XMLID_260_);}
	.st79{fill:url(#XMLID_265_);}
	.st80{fill:url(#XMLID_267_);}
	.st81{fill:url(#XMLID_269_);}
	.st82{fill:#484968;}
	.st83{fill:#F1AC85;}
	.st84{fill:#943BBB;}
	.st85{fill:#B04EDD;}
	.st86{fill:#FFFFEB;}
	.st87{fill:#AE7BC9;}
	.st88{fill:#1F1F1F;}
	.st89{fill:#54A5F8;}
	.st90{fill:url(#XMLID_271_);}
	.st91{fill:#010400;}
	.st92{fill:#E28C66;}
	.st93{fill:url(#XMLID_273_);}
	.st94{fill:url(#XMLID_275_);}
	.st95{fill:url(#XMLID_278_);}
	.st96{fill:url(#XMLID_285_);}
	.st97{fill:url(#XMLID_290_);}
	.st98{fill:url(#XMLID_291_);}
	.st99{fill:#B6B9FE;}
	.st100{fill:#F9AB83;}
	.st101{fill:#2D2D4F;}
	.st102{fill:#1C1C38;}
	.st103{fill:#46466C;}
	.st104{fill:#E5A89C;}
	.st105{fill:#1773BF;}
	.st106{fill:none;}
</style>
<g>
	<defs>
		<rect id="SVGID_1_" x="721.5" y="-132.5" width="403.5" height="300.7"/>
	</defs>
	<clipPath id="SVGID_2_">
		<use xlink:href="#SVGID_1_"  style="overflow:visible;"/>
	</clipPath>
	
		<radialGradient id="SVGID_3_" cx="973.8797" cy="22.05" r="248" gradientTransform="matrix(1.0421 0 0 1 -30.3938 0)" gradientUnits="userSpaceOnUse">
		<stop  offset="0" style="stop-color:#1D154B"/>
		<stop  offset="0.3143" style="stop-color:#281F5E"/>
		<stop  offset="0.7041" style="stop-color:#32286E"/>
		<stop  offset="1" style="stop-color:#362B74"/>
	</radialGradient>
	<ellipse class="st0" cx="984.5" cy="22" rx="258.4" ry="248"/>
</g>
<g>
	<g id="XMLID_495_" class="st1">
		<g id="XMLID_3_">
			<path id="XMLID_501_" class="st2" d="M962.5-1.3L960.2,0c-1.2,0.7-1.2,1.8,0,2.5l2.3,1.3c1.2,0.7,3.2,0.7,4.3,0l2.3-1.3
				c1.2-0.7,1.2-1.8,0-2.5l-2.3-1.3C965.5-2,963.6-2,962.5-1.3z"/>
			<path id="XMLID_500_" class="st2" d="M961.3,21.9L961.3,21.9c1.2,0.7,1.2,1.8,0,2.5l-1.6,0.9c-1.2,0.7-1.2,1.8,0,2.5l2.3,1.3
				c1.2,0.7,3.2,0.7,4.3,0l2.3-1.3c1.2-0.7,1.2-1.8,0-2.5l-1.8-1.1c-1.2-0.7-1.2-1.8,0-2.5l8.2-4.8c1.2-0.7,3.2-0.7,4.3,0l0.6,0.4
				c1.2,0.7,3.2,0.7,4.3,0l2.3-1.3c1.2-0.7,1.2-1.8,0-2.5l-2.3-1.3c-1.2-0.7-3.2-0.7-4.3,0l-1.4,0.8c-1.2,0.7-3.2,0.7-4.3,0L966,8.4
				c-1.2-0.7-3.2-0.7-4.3,0l-3.2,1.8c-1.2,0.7-3.2,0.7-4.3,0l-2.1-1.3c-1.2-0.7-3.2-0.7-4.3,0l-2.3,1.3c-1.2,0.7-1.2,1.8,0,2.5
				l2.1,1.3c1.2,0.7,1.2,1.8,0,2.5l-3.3,1.9c-1.2,0.7-1.2,1.8,0,2.5l4.9,2.8c1.2,0.7,3.2,0.7,4.3,0l3.3-1.9
				C958.1,21.4,960,21.4,961.3,21.9z"/>
		</g>
		<g id="XMLID_4_">
			<path id="XMLID_498_" class="st2" d="M819.3,108.7l2.5-1.4c1.3-0.7,1.3-2,0-2.7l-2.5-1.4c-1.3-0.7-3.4-0.7-4.7,0l-2.5,1.4
				c-1.3,0.7-1.3,2,0,2.7l2.5,1.4C815.9,109.5,818,109.5,819.3,108.7z"/>
			<path id="XMLID_497_" class="st2" d="M820.6,83.2L820.6,83.2c-1.3-0.7-1.3-2,0-2.7l1.8-1.1c1.3-0.7,1.3-2,0-2.7l-2.5-1.4
				c-1.3-0.7-3.4-0.7-4.7,0l-2.5,1.4c-1.3,0.7-1.3,2,0,2.7l1.9,1.1c1.3,0.7,1.3,2,0,2.7l-9,5.2c-1.3,0.7-3.4,0.7-4.7,0l-0.6-0.4
				c-1.3-0.7-3.4-0.7-4.7,0l-2.5,1.4c-1.3,0.7-1.3,2,0,2.7l2.5,1.4c1.3,0.7,3.4,0.7,4.7,0l1.6-0.9c1.3-0.7,3.4-0.7,4.7,0l8.8,5
				c1.3,0.7,3.4,0.7,4.7,0l3.4-2c1.3-0.7,3.4-0.7,4.7,0l2.3,1.3c1.3,0.7,3.4,0.7,4.7,0l2.5-1.4c1.3-0.7,1.3-2,0-2.7l-2.3-1.3
				c-1.3-0.7-1.3-2,0-2.7l3.6-2.1c1.3-0.7,1.3-2,0-2.7l-5.4-3.1c-1.3-0.7-3.4-0.7-4.7,0l-3.6,2.1C824,84,821.9,84,820.6,83.2z"/>
		</g>
	</g>
	<g id="XMLID_478_">
		<g id="XMLID_487_">
			<path id="XMLID_6_" class="st3" d="M826.8-36.2c-2.6,1.5-4.7,5-4.7,8.1s2.1,4.1,4.7,2.7c2.6-1.5,4.7-5,4.7-8.1
				C831.4-36.4,829.4-37.7,826.8-36.2z M826.8-27.2c-1.6,0.9-3.1,0.2-3.1-1.8s1.4-4.3,3.1-5.3c1.6-0.9,3.1-0.2,3.1,1.8
				C829.8-30.6,828.4-28.3,826.8-27.2z"/>
			<path id="XMLID_491_" class="st4" d="M824.8-16.2c0,1.6-1.2,3.6-2.6,4.3c-1.4,0.8-2.6,0.1-2.6-1.4s1.2-3.6,2.6-4.3
				C823.6-18.4,824.8-17.8,824.8-16.2z"/>
			<path id="XMLID_490_" class="st4" d="M827.5-46.1c0,1.6-1.2,3.6-2.6,4.3c-1.4,0.8-2.6,0.1-2.6-1.4s1.2-3.6,2.6-4.3
				C826.3-48.4,827.5-47.8,827.5-46.1z"/>
			
				<rect id="XMLID_489_" x="811.5" y="-23.9" transform="matrix(0.5 -0.866 0.866 0.5 426.4555 695.0073)" class="st5" width="7.3" height="4.2"/>
			<path id="XMLID_488_" class="st6" d="M816.6-37.1l-2.1,1.2v-2.5c0-0.5-0.4-0.6-0.7-0.4c-0.4,0.2-0.7,0.8-0.7,1.2v2.5l-2.1,1.2
				c-0.4,0.2-0.7,0.8-0.7,1.2c0,0.5,0.4,0.6,0.7,0.4l2.1-1.2v2.5c0,0.5,0.4,0.6,0.7,0.4c0.4-0.2,0.7-0.8,0.7-1.2v-2.5l2.1-1.2
				c0.4-0.2,0.7-0.8,0.7-1.2S816.9-37.3,816.6-37.1z"/>
		</g>
		<g id="XMLID_479_">
			<path id="XMLID_7_" class="st2" d="M932.8-79.8c-2.6,1.5-4.7,5-4.7,8.1c0,2.9,2.1,4.1,4.7,2.7c2.6-1.5,4.7-5,4.7-8.1
				C937.4-80.2,935.4-81.3,932.8-79.8z M932.8-71c-1.6,0.9-3.1,0.2-3.1-1.8s1.4-4.3,3.1-5.3c1.6-0.9,3.1-0.2,3.1,1.8
				C935.9-74.3,934.4-72,932.8-71z"/>
			<path id="XMLID_483_" class="st3" d="M929.4-62.8c0,1.6-1.2,3.6-2.6,4.3c-1.4,0.8-2.6,0.1-2.6-1.4s1.2-3.6,2.6-4.3
				C928.2-65.1,929.4-64.4,929.4-62.8z"/>
			<path id="XMLID_482_" class="st4" d="M933.1-90.1c0,1.6-1.2,3.6-2.6,4.3c-1.4,0.8-2.6,0.1-2.6-1.4c0-1.6,1.2-3.6,2.6-4.3
				C932-92.4,933.1-91.8,933.1-90.1z"/>
			
				<rect id="XMLID_481_" x="916" y="-70.6" transform="matrix(0.5 -0.866 0.866 0.5 519.1157 762.2263)" class="st5" width="7.3" height="4.2"/>
			<path id="XMLID_480_" class="st6" d="M924.6-83.9l-2.1,1.2v-2.5c0-0.5-0.4-0.6-0.7-0.4c-0.4,0.2-0.7,0.8-0.7,1.2v2.5l-2.1,1.2
				c-0.4,0.2-0.7,0.8-0.7,1.2c0,0.4,0.4,0.6,0.7,0.4l2.1-1.2v2.5c0,0.5,0.4,0.6,0.7,0.4c0.4-0.2,0.7-0.8,0.7-1.2v-2.5l2.1-1.2
				c0.4-0.2,0.7-0.8,0.7-1.2S925-84.2,924.6-83.9z"/>
		</g>
	</g>
	<g id="XMLID_458_">
		<linearGradient id="XMLID_2_" gradientUnits="userSpaceOnUse" x1="904.2821" y1="11.6384" x2="1056.8964" y2="-79.8408">
			<stop  offset="0" style="stop-color:#E4F2FF;stop-opacity:0"/>
			<stop  offset="5.554383e-002" style="stop-color:#E1EFFF;stop-opacity:5.558312e-002"/>
			<stop  offset="0.6478" style="stop-color:#C7D7FB;stop-opacity:0.6483"/>
			<stop  offset="0.9993" style="stop-color:#BDCEFA"/>
		</linearGradient>
		<path id="XMLID_471_" class="st7" d="M1038,20.8l-80-46.2c-2.9-1.8-4.8-4.8-4.8-8.3v-73.6c0-7.4,8-12,14.3-8.3l80.2,46.2
			c2.9,1.8,4.8,4.8,4.8,8.3v73.6C1052.5,19.8,1044.5,24.4,1038,20.8z"/>
		<g id="XMLID_459_">
			<linearGradient id="XMLID_9_" gradientUnits="userSpaceOnUse" x1="1088.6074" y1="-91.7149" x2="853.8036" y2="29.6893">
				<stop  offset="0" style="stop-color:#FFFFFF"/>
				<stop  offset="0.3656" style="stop-color:#E1E9FD;stop-opacity:0.6341"/>
				<stop  offset="0.7632" style="stop-color:#C7D5FB;stop-opacity:0.2363"/>
				<stop  offset="0.9993" style="stop-color:#BDCEFA;stop-opacity:0"/>
			</linearGradient>
			<path id="XMLID_468_" class="st8" d="M1042.9,18.9c-1.1,0-2.1-0.2-3.2-0.8l-80.2-46.2c-2-1.2-3.2-3.3-3.2-5.5v-73.6
				c0-4,3.3-6.3,6.3-6.3c1.1,0,2.1,0.2,3.2,0.8l80.2,46.2c2,1.2,3.2,3.3,3.2,5.5v73.5C1049.2,16.4,1045.9,18.9,1042.9,18.9z
				 M962.7-113.1c-2.8,0-5.8,2.2-5.8,5.8v73.6c0,2,1.1,4,2.8,4.9l80.3,46.4c0.9,0.5,1.9,0.8,2.8,0.8c2.8,0,5.8-2.2,5.8-5.8V-61
				c0-2-1.1-4-2.8-4.9l-80.2-46.4C964.7-112.9,963.8-113.1,962.7-113.1z"/>
			<g id="XMLID_460_">
				<linearGradient id="XMLID_10_" gradientUnits="userSpaceOnUse" x1="1078.0288" y1="-112.1745" x2="843.2249" y2="9.2296">
					<stop  offset="0" style="stop-color:#FFFFFF"/>
					<stop  offset="0.3656" style="stop-color:#E1E9FD;stop-opacity:0.6341"/>
					<stop  offset="0.7632" style="stop-color:#C7D5FB;stop-opacity:0.2363"/>
					<stop  offset="0.9993" style="stop-color:#BDCEFA;stop-opacity:0"/>
				</linearGradient>
				<path id="XMLID_467_" class="st9" d="M1039-50.4l-69.2-39.9c-1.5-0.9-2.8-3.3-2.8-5.4l0,0c0-2.1,1.3-3.1,2.8-2.1l69.2,39.9
					c1.5,0.9,2.8,3.3,2.8,5.4l0,0C1041.8-50.5,1040.6-49.4,1039-50.4z"/>
				<linearGradient id="XMLID_17_" gradientUnits="userSpaceOnUse" x1="1078.6254" y1="-111.0206" x2="843.8217" y2="10.3836">
					<stop  offset="0" style="stop-color:#FFFFFF"/>
					<stop  offset="0.3656" style="stop-color:#E1E9FD;stop-opacity:0.6341"/>
					<stop  offset="0.7632" style="stop-color:#C7D5FB;stop-opacity:0.2363"/>
					<stop  offset="0.9993" style="stop-color:#BDCEFA;stop-opacity:0"/>
				</linearGradient>
				<path id="XMLID_466_" class="st10" d="M992.9-38.7l-22.1-12.7c-1.5-0.9-2.8-3.3-2.8-5.4v-24.3c0-2.1,1.3-3.1,2.8-2.1l21.9,12.7
					c1.5,0.9,2.8,3.3,2.8,5.4v24.3C995.6-38.7,994.4-37.8,992.9-38.7z"/>
				<linearGradient id="XMLID_18_" gradientUnits="userSpaceOnUse" x1="1097.0524" y1="-75.3816" x2="862.2485" y2="46.0226">
					<stop  offset="0" style="stop-color:#FFFFFF"/>
					<stop  offset="0.3656" style="stop-color:#E1E9FD;stop-opacity:0.6341"/>
					<stop  offset="0.7632" style="stop-color:#C7D5FB;stop-opacity:0.2363"/>
					<stop  offset="0.9993" style="stop-color:#BDCEFA;stop-opacity:0"/>
				</linearGradient>
				<path id="XMLID_465_" class="st11" d="M1034.1-14.9l-21.9-12.7c-1.5-0.9-2.8-3.3-2.8-5.4v-24.3c0-2.1,1.3-3.1,2.8-2.1l21.9,12.7
					c1.5,0.9,2.8,3.3,2.8,5.4V-17C1036.9-14.9,1035.6-14,1034.1-14.9z"/>
				<g id="XMLID_11_">
					<linearGradient id="XMLID_19_" gradientUnits="userSpaceOnUse" x1="1098.2607" y1="-73.0451" x2="863.4568" y2="48.3591">
						<stop  offset="0" style="stop-color:#FFFFFF"/>
						<stop  offset="0.3656" style="stop-color:#E1E9FD;stop-opacity:0.6341"/>
						<stop  offset="0.7632" style="stop-color:#C7D5FB;stop-opacity:0.2363"/>
						<stop  offset="0.9993" style="stop-color:#BDCEFA;stop-opacity:0"/>
					</linearGradient>
					<path id="XMLID_464_" class="st12" d="M1038-1.9L966.8-43c-0.5-0.2-0.8-0.9-0.8-1.5l0,0c0-0.6,0.4-0.8,0.8-0.6L1038-4
						c0.5,0.2,0.8,0.9,0.8,1.5l0,0C1038.9-1.9,1038.5-1.7,1038-1.9z"/>
					<linearGradient id="XMLID_27_" gradientUnits="userSpaceOnUse" x1="1099.9417" y1="-69.7937" x2="865.1377" y2="51.6103">
						<stop  offset="0" style="stop-color:#FFFFFF"/>
						<stop  offset="0.3656" style="stop-color:#E1E9FD;stop-opacity:0.6341"/>
						<stop  offset="0.7632" style="stop-color:#C7D5FB;stop-opacity:0.2363"/>
						<stop  offset="0.9993" style="stop-color:#BDCEFA;stop-opacity:0"/>
					</linearGradient>
					<path id="XMLID_463_" class="st13" d="M1038,2.2l-71.2-41.1c-0.5-0.2-0.8-0.9-0.8-1.5l0,0c0-0.6,0.4-0.8,0.8-0.6L1038,0.1
						c0.5,0.2,0.8,0.9,0.8,1.5l0,0C1038.9,2.2,1038.5,2.5,1038,2.2z"/>
					<linearGradient id="XMLID_28_" gradientUnits="userSpaceOnUse" x1="1101.5818" y1="-66.621" x2="866.778" y2="54.7832">
						<stop  offset="0" style="stop-color:#FFFFFF"/>
						<stop  offset="0.3656" style="stop-color:#E1E9FD;stop-opacity:0.6341"/>
						<stop  offset="0.7632" style="stop-color:#C7D5FB;stop-opacity:0.2363"/>
						<stop  offset="0.9993" style="stop-color:#BDCEFA;stop-opacity:0"/>
					</linearGradient>
					<path id="XMLID_462_" class="st14" d="M1038,6.2l-71.2-41.1c-0.5-0.2-0.8-0.9-0.8-1.5l0,0c0-0.6,0.4-0.8,0.8-0.6L1038,4.1
						c0.5,0.2,0.8,0.9,0.8,1.5l0,0C1038.9,6.2,1038.5,6.6,1038,6.2z"/>
				</g>
			</g>
		</g>
	</g>
	<g id="XMLID_385_">
		<g id="XMLID_431_">
			<g id="XMLID_432_">
				<linearGradient id="XMLID_151_" gradientUnits="userSpaceOnUse" x1="916.1172" y1="-110.9605" x2="838.4589" y2="85.4917">
					<stop  offset="0" style="stop-color:#C3E0FE"/>
					<stop  offset="5.553947e-002" style="stop-color:#C1DDFC"/>
					<stop  offset="0.6478" style="stop-color:#ABC3EE"/>
					<stop  offset="0.9993" style="stop-color:#A3B9E8"/>
				</linearGradient>
				<path id="XMLID_457_" class="st15" d="M842.2,77.2V-63.6c0-3.9,2.3-8.5,5.3-10.1l60.3-34.9c2.9-1.6,5.3,0.1,5.3,4V36.3
					c0,3.9-2.3,8.5-5.3,10.1l-60.3,34.9C844.5,82.9,842.2,81.1,842.2,77.2z"/>
				<g id="XMLID_12_">
					<path id="XMLID_13_" class="st16" d="M911.2-108.8L911.2-108.8L911.2-108.8C911.2-108.9,911.2-108.8,911.2-108.8z"/>
					<path id="XMLID_14_" class="st16" d="M843.6,81.2c-0.9-0.7-1.4-2.1-1.4-4V-63.6c0-3.9,2.3-8.5,5.3-10.1l60.3-34.9
						c1.3-0.7,2.5-0.8,3.4-0.4l-3.2-1.9c-0.9-0.7-2.3-0.8-3.8,0L843.9-76c-2.9,1.6-5.3,6.2-5.3,10.1V75c0,2.3,0.8,3.9,2.1,4.5l0,0
						L843.6,81.2z"/>
					<path id="XMLID_15_" class="st16" d="M844.4,81.7L844.4,81.7L844.4,81.7z"/>
				</g>
				<linearGradient id="XMLID_157_" gradientUnits="userSpaceOnUse" x1="896.6546" y1="-138.9916" x2="822.8408" y2="63.2278">
					<stop  offset="0" style="stop-color:#BEDAFF"/>
					<stop  offset="1" style="stop-color:#FFFFFF;stop-opacity:0"/>
				</linearGradient>
				<path id="XMLID_449_" class="st17" d="M844.4,81.7L844.4,81.7L844.4,81.7L844.4,81.7z M907.2-108.7l-60.3,34.9
					c-2.9,1.6-5.3,6.2-5.3,10.1V77.1c0,1.6,0.5,2.9,1.2,3.8l0.8,0.5c-0.9-0.7-1.4-2.1-1.4-4V-63.5c0-3.9,2.3-8.5,5.3-10.1l60.3-34.9
					c0.9-0.6,1.9-0.7,2.7-0.6C909.5-109.5,908.5-109.4,907.2-108.7z M911.1-108.9C911.2-108.9,911.2-108.8,911.1-108.9L911.1-108.9
					L911.1-108.9z"/>
				<linearGradient id="XMLID_160_" gradientUnits="userSpaceOnUse" x1="917.2492" y1="-118.7536" x2="794.1495" y2="207.3078">
					<stop  offset="0" style="stop-color:#E4F2FF"/>
					<stop  offset="5.554383e-002" style="stop-color:#E1EFFF"/>
					<stop  offset="0.6478" style="stop-color:#C7D7FB"/>
					<stop  offset="0.9993" style="stop-color:#BDCEFA"/>
				</linearGradient>
				<path id="XMLID_448_" class="st18" d="M907.3-105.6l-10.4,6l-1.5,3.9c-0.7,1.9-2.1,3.6-3.6,4.5l-28.4,16.4
					c-1.5,0.8-2.8,0.7-3.6-0.2l-1.5-2.1l-10.4,6c-1.9,1.1-3.4,3.6-3.4,5.9V76.3c0,2.1,1.5,3.1,3.4,2l59.3-34.4
					c1.9-1.1,3.4-3.6,3.4-5.9v-141.8C910.7-105.9,909.2-106.7,907.3-105.6z"/>
				<path id="XMLID_447_" class="st19" d="M886.8-91.3l-18.4,10.7c-0.4,0.2-0.6,0-0.6-0.5l0,0c0-0.5,0.2-0.9,0.6-1.2L886.8-93
					c0.4-0.2,0.6,0,0.6,0.5l0,0C887.4-92,887.1-91.6,886.8-91.3z"/>
				<path id="XMLID_446_" class="st20" d="M840.6-26.6L840.6-26.6c-0.5-0.2-0.7-0.8-0.7-1.2v-12.9c0-0.5,0.2-0.7,0.6-0.5h0.1
					c0.4,0.2,0.6,0.7,0.6,1.2v12.9C841.2-26.6,841-26.4,840.6-26.6z"/>
				<path id="XMLID_445_" class="st21" d="M839.9-26.6L839.9-26.6c-0.5-0.2-0.7-0.8-0.7-1.2v-12.9c0-0.5,0.2-0.7,0.6-0.5h0.1
					c0.4,0.2,0.6,0.7,0.6,1.2v12.9C840.5-26.6,840.3-26.4,839.9-26.6z"/>
				<g id="XMLID_442_">
					<path id="XMLID_444_" class="st21" d="M900-106.6c0.6,0.4,0.6,0.8,0,1.2c-0.6,0.4-1.5,0.4-2.1,0s-0.6-0.8,0-1.2
						C898.5-106.9,899.4-106.9,900-106.6z"/>
					<path id="XMLID_20_" class="st20" d="M900-106.6c-0.6-0.4-1.5-0.4-2.1,0c-0.1,0.1-0.2,0.2-0.4,0.4l0.1-0.1
						c0.6-0.4,1.5-0.4,2.1,0c0.5,0.2,0.6,0.6,0.4,0.9C900.6-105.8,900.5-106.2,900-106.6z"/>
				</g>
				<g id="XMLID_16_" class="st22">
					<polygon id="XMLID_21_" class="st23" points="910.7,-36.6 910.7,-83.9 844.4,-17.6 844.4,29.6 					"/>
					<path id="XMLID_22_" class="st23" d="M844.4-31.5l66.3-66.3v-6c0-2.1-1.5-3.1-3.4-2l-5.3,3.1l-6.5,6.5l-0.1,0.4
						c-0.7,1.9-2.1,3.6-3.6,4.5l-2.5,1.4l-44.8,44.8v13.7L844.4-31.5L844.4-31.5z"/>
					<polygon id="XMLID_23_" class="st23" points="910.7,1 910.7,-26.1 844.4,40.2 844.4,67.4 					"/>
					<polygon id="XMLID_24_" class="st23" points="910.7,25.5 910.7,19.4 857.1,72.9 871.7,64.4 					"/>
				</g>
				<linearGradient id="XMLID_170_" gradientUnits="userSpaceOnUse" x1="875.3287" y1="-95.0789" x2="918.2502" y2="39.5596">
					<stop  offset="0" style="stop-color:#53F0E7"/>
					<stop  offset="1" style="stop-color:#FFFFFF;stop-opacity:0"/>
				</linearGradient>
				<path id="XMLID_25_" class="st24" d="M910.7-103.8c0-2.1-1.5-3.1-3.4-2l-10.4,6l-1.5,3.9c-0.7,1.9-2.1,3.6-3.6,4.5L863.4-75
					c-1.5,0.8-2.8,0.7-3.6-0.2l-1.5-2.1l-10.4,6c-0.9,0.6-1.8,1.5-2.5,2.6l0,0l63.7,111l0,0c0.9-1.3,1.6-2.8,1.6-4.2L910.7-103.8
					L910.7-103.8z"/>
				<linearGradient id="XMLID_176_" gradientUnits="userSpaceOnUse" x1="878" y1="-106.0933" x2="878" y2="54.2445">
					<stop  offset="6.674000e-004" style="stop-color:#A9BDEA"/>
					<stop  offset="1" style="stop-color:#FFFFFF;stop-opacity:0"/>
				</linearGradient>
				<path id="XMLID_433_" class="st25" d="M891.7-91.3l-28.4,16.4c-1.5,0.8-2.8,0.7-3.6-0.2l-1.5-2.1l-10.4,6
					c-0.9,0.6-1.8,1.5-2.5,2.6c0.5-0.7,1.1-1.2,1.8-1.5l10.4-6L859-74c0.7,1.1,2.1,1.2,3.6,0.2L891-90.2c1.2-0.7,2.2-1.8,2.9-3.2
					C893.3-92.5,892.6-91.8,891.7-91.3z M907.3-105.6l-10.4,6l-0.4,0.8l10.1-5.8c1.9-1.1,3.4-0.2,3.4,2V39.1c0,1.1-0.4,2.2-0.9,3.3
					c0.9-1.3,1.6-2.8,1.6-4.2v-142C910.7-105.9,909.2-106.7,907.3-105.6z"/>
			</g>
		</g>
		<g id="XMLID_386_">
			<g id="XMLID_427_">
				<path id="XMLID_430_" class="st6" d="M868.8-25.1l-18.3,10.5c-1.3,0.7-2.3,0-2.3-1.8l0,0c0-1.6,1.1-3.6,2.3-4.5l18.3-10.6
					c1.3-0.7,2.3,0,2.3,1.8l0,0C871.2-27.8,870.1-25.8,868.8-25.1z"/>
				<path id="XMLID_429_" class="st6" d="M875.4-20.3L850.6-6c-1.3,0.7-2.3,0-2.3-1.8l0,0c0-1.6,1.1-3.6,2.3-4.5l24.8-14.2
					c1.3-0.7,2.3,0,2.3,1.8l0,0C877.6-23,876.7-21,875.4-20.3z"/>
				<path id="XMLID_428_" class="st6" d="M864.5-5.4l-14,8c-1.3,0.7-2.3,0-2.3-1.8l0,0c0-1.6,1.1-3.6,2.3-4.5l14-8
					c1.3-0.7,2.3,0,2.3,1.8l0,0C866.7-8.1,865.8-6.1,864.5-5.4z"/>
			</g>
			<linearGradient id="XMLID_182_" gradientUnits="userSpaceOnUse" x1="850.5615" y1="13.0269" x2="915.463" y2="60.6563">
				<stop  offset="0" style="stop-color:#00E9FF"/>
				<stop  offset="0.1813" style="stop-color:#01D1FF"/>
				<stop  offset="0.5456" style="stop-color:#02A6FF"/>
				<stop  offset="0.8306" style="stop-color:#038CFF"/>
				<stop  offset="0.9993" style="stop-color:#0382FF"/>
			</linearGradient>
			<path id="XMLID_426_" class="st26" d="M904.3,37.3l-52.5,30.3c-2,1.2-3.8-0.1-3.8-2.8V36.1c0-2.7,1.6-5.9,3.8-7l52.5-30.3
				c2-1.2,3.8,0.1,3.8,2.8v28.6C908,33,906.4,36.1,904.3,37.3z"/>
			<g id="XMLID_420_">
				<path id="XMLID_425_" class="st5" d="M908-83.9v-2.6c0-2.2-1.5-3.2-3.5-2L851.7-58c-2,1.2-3.5,3.9-3.5,6.1v2.6L908-83.9z"/>
				<g id="XMLID_26_">
					<path id="XMLID_424_" class="st3" d="M854.4-56.2c0,0.9-0.6,2-1.4,2.5c-0.8,0.5-1.4,0.1-1.4-0.8c0-0.9,0.6-2,1.4-2.5
						C853.8-57.5,854.4-57.2,854.4-56.2z"/>
					<path id="XMLID_423_" class="st3" d="M859.4-59.2c0,0.9-0.6,2-1.4,2.5c-0.8,0.5-1.4,0.1-1.4-0.8c0-0.9,0.6-2,1.4-2.5
						C858.7-60.3,859.4-60,859.4-59.2z"/>
					<path id="XMLID_422_" class="st3" d="M864.4-62c0,0.9-0.6,2-1.4,2.5c-0.8,0.5-1.4,0.1-1.4-0.8s0.6-2,1.4-2.5
						S864.4-62.9,864.4-62z"/>
				</g>
			</g>
			<g id="XMLID_410_">
				<path id="XMLID_419_" class="st23" d="M857.4-38.7l4.9,6.2c-4,5.2-9.2,7.2-12.1,4.7c-1.3-1.1-2-2.8-2.1-5L857.4-38.7z"/>
				<path id="XMLID_418_" class="st3" d="M857.4-38.7l-9.3,5.9c-0.1-3.3,1.2-7.4,3.4-10.8s5.2-5.9,8-6.7L857.4-38.7z"/>
				<g id="XMLID_411_">
					<path id="XMLID_417_" class="st5" d="M862.4-35.9l2.1-11.6c2-0.6,3.8-0.4,5.2,0.7c3.2,2.7,2.6,9.9-1.4,15.8
						c-0.2,0.5-0.6,0.8-0.9,1.3L862.4-35.9z"/>
					<g id="XMLID_412_">
						<polygon id="XMLID_31_" class="st27" points="864.5,-47.5 859.5,-50.4 857.4,-38.7 862.4,-35.9 						"/>
						<path id="XMLID_32_" class="st28" d="M869-47.2L869-47.2L869-47.2z"/>
						<path id="XMLID_33_" class="st4" d="M869-47.2l-4.9-2.8c-1.3-0.8-2.8-0.9-4.6-0.4l4.9,2.8C866.2-48.1,867.8-48,869-47.2z"/>
						<polygon id="XMLID_34_" class="st4" points="862.4,-32.5 867.3,-29.7 862.4,-35.9 857.4,-38.7 						"/>
					</g>
				</g>
			</g>
			<g id="XMLID_402_">
				<polygon id="XMLID_409_" class="st6" points="908,-7.3 848.6,27 848.6,25.7 908,-8.6 				"/>
				<polygon id="XMLID_408_" class="st6" points="908,-24.2 848.6,10.2 848.6,8.8 908,-25.5 				"/>
				<g id="XMLID_403_">
					<path id="XMLID_407_" class="st2" d="M883.5,2.3l-10.8,6.2c-0.8,0.5-1.5,0-1.5-1.2V2.9c0-1.2,0.7-2.5,1.5-3.1l10.8-6.2
						c0.8-0.5,1.5,0,1.5,1.2v4.5C885,0.5,884.3,1.9,883.5,2.3z"/>
					<path id="XMLID_406_" class="st2" d="M903.3-9l-10.8,6.2c-0.8,0.5-1.5,0-1.5-1.2v-4.5c0-1.2,0.7-2.5,1.5-3.1l10.8-6.2
						c0.8-0.5,1.5,0,1.5,1.2v4.5C904.8-10.9,904.1-9.6,903.3-9z"/>
					<path id="XMLID_30_" class="st29" d="M857.1,23.8c0.2,0.2,0.7,0.2,1.2,0l10.8-6.2c0.8-0.5,1.5-1.9,1.5-3.1V10
						c0-0.6-0.2-1.1-0.5-1.2L864.8,5c-0.2-0.2-0.7-0.2-1.2,0l-10.8,6.2c-0.8,0.5-1.5,1.9-1.5,3.1v4.6c0,0.6,0.2,1.1,0.5,1.2
						L857.1,23.8z"/>
					<path id="XMLID_404_" class="st2" d="M868.9,17.6l-10.8,6.2c-0.8,0.5-1.5,0-1.5-1.2v-4.5c0-1.2,0.7-2.5,1.5-3.1l10.8-6.2
						c0.8-0.5,1.5,0,1.5,1.2v4.5C870.5,15.7,869.8,17.1,868.9,17.6z"/>
				</g>
			</g>
			<g id="XMLID_392_">
				<g id="XMLID_396_">
					<path id="XMLID_401_" class="st6" d="M905.9-60.1l-30.4,17.6c-1.2,0.7-2.1,0-2.1-1.5v-7.9c0-1.5,0.9-3.3,2.1-4l30.4-17.6
						c1.2-0.7,2.1,0,2.1,1.5v7.9C908-62.6,907.1-60.8,905.9-60.1z"/>
					<g id="XMLID_35_">
						<linearGradient id="XMLID_189_" gradientUnits="userSpaceOnUse" x1="891.1548" y1="-59.5424" x2="863.9742" y2="-33.1496">
							<stop  offset="0" style="stop-color:#FFFFFF"/>
							<stop  offset="0.3656" style="stop-color:#E1E9FD;stop-opacity:0.6341"/>
							<stop  offset="0.7632" style="stop-color:#C7D5FB;stop-opacity:0.2363"/>
							<stop  offset="0.9993" style="stop-color:#BDCEFA;stop-opacity:0"/>
						</linearGradient>
						<path id="XMLID_400_" class="st30" d="M887-52.6l-11.5,6.7c-0.2,0.1-0.5,0-0.5-0.4l0,0c0-0.4,0.2-0.8,0.5-0.9l11.5-6.7
							c0.2-0.1,0.5,0,0.5,0.4l0,0C887.5-53.2,887.2-52.7,887-52.6z"/>
						<linearGradient id="XMLID_191_" gradientUnits="userSpaceOnUse" x1="890.1593" y1="-60.5674" x2="862.9788" y2="-34.1748">
							<stop  offset="0" style="stop-color:#FFFFFF"/>
							<stop  offset="0.3656" style="stop-color:#E1E9FD;stop-opacity:0.6341"/>
							<stop  offset="0.7632" style="stop-color:#C7D5FB;stop-opacity:0.2363"/>
							<stop  offset="0.9993" style="stop-color:#BDCEFA;stop-opacity:0"/>
						</linearGradient>
						<path id="XMLID_399_" class="st31" d="M890.2-57l-14.8,8.5c-0.2,0.1-0.5,0-0.5-0.4l0,0c0-0.4,0.2-0.8,0.5-0.9l14.8-8.6
							c0.2-0.1,0.5,0,0.5,0.4l0,0C890.8-57.6,890.5-57.2,890.2-57z"/>
						<linearGradient id="XMLID_193_" gradientUnits="userSpaceOnUse" x1="888.8701" y1="-61.8952" x2="861.6896" y2="-35.5025">
							<stop  offset="0" style="stop-color:#FFFFFF"/>
							<stop  offset="0.3656" style="stop-color:#E1E9FD;stop-opacity:0.6341"/>
							<stop  offset="0.7632" style="stop-color:#C7D5FB;stop-opacity:0.2363"/>
							<stop  offset="0.9993" style="stop-color:#BDCEFA;stop-opacity:0"/>
						</linearGradient>
						<path id="XMLID_398_" class="st32" d="M890.2-59.6l-14.8,8.5c-0.2,0.1-0.5,0-0.5-0.4l0,0c0-0.4,0.2-0.8,0.5-0.9l14.8-8.6
							c0.2-0.1,0.5,0,0.5,0.4l0,0C890.8-60.2,890.5-59.7,890.2-59.6z"/>
					</g>
				</g>
				<g id="XMLID_393_">
					<linearGradient id="XMLID_194_" gradientUnits="userSpaceOnUse" x1="912.4363" y1="-66.16" x2="904.7132" y2="-53.0542">
						<stop  offset="0" style="stop-color:#E4F2FF"/>
						<stop  offset="5.554383e-002" style="stop-color:#E1EFFF"/>
						<stop  offset="0.6478" style="stop-color:#C7D7FB"/>
						<stop  offset="0.9993" style="stop-color:#BDCEFA"/>
					</linearGradient>
					<polygon id="XMLID_395_" class="st33" points="912.4,-58.3 904.8,-54 904.8,-61 912.4,-65.4 					"/>
					<polygon id="XMLID_36_" class="st34" points="912.4,-65.4 912.4,-65.3 905,-69.7 905,-69.7 897.4,-65.4 897.4,-58.3 904.8,-54 
						904.8,-61 					"/>
				</g>
			</g>
			<g id="XMLID_387_">
				<path id="XMLID_391_" class="st5" d="M911.8-25.6l-15.3,8.8c-1.4,0.8-2.5,0-2.5-1.9v-16.8c0-1.9,1.1-4,2.5-4.7l15.3-8.8
					c1.4-0.8,2.5,0,2.5,1.9v16.8C914.2-28.5,913.2-26.4,911.8-25.6z"/>
				<g id="XMLID_29_">
					<path id="XMLID_37_" class="st4" d="M894-18.7v-16.8c0-1.9,1.1-4,2.5-4.7l15.3-8.8c0.6-0.4,1.2-0.4,1.5-0.1l0,0l-6.2-3.5
						c-0.5-0.2-0.9-0.2-1.6,0.1l-15.3,8.8c-1.4,0.8-2.5,2.9-2.5,4.7v16.8c0,1.1,0.4,1.8,0.9,2l6.2,3.5l0,0
						C894.4-17,894-17.7,894-18.7z"/>
				</g>
				<linearGradient id="XMLID_197_" gradientUnits="userSpaceOnUse" x1="908.3156" y1="-38.2769" x2="893.6812" y2="-1.306">
					<stop  offset="0" style="stop-color:#FFFFFF"/>
					<stop  offset="0.3656" style="stop-color:#E1E9FD;stop-opacity:0.6341"/>
					<stop  offset="0.7632" style="stop-color:#C7D5FB;stop-opacity:0.2363"/>
					<stop  offset="0.9993" style="stop-color:#BDCEFA;stop-opacity:0"/>
				</linearGradient>
				<path id="XMLID_388_" class="st35" d="M905.5-33.5c1.3-1.4,2.3-3.5,2.3-5.3c0-2.3-1.6-3.3-3.6-2.1c-2,1.2-3.6,4-3.6,6.3
					c0,1.8,0.9,2.7,2.3,2.6c-3.2,2.6-5.5,7-5.6,10.9l14.1-8C911.1-32.8,908.7-34.5,905.5-33.5z"/>
			</g>
		</g>
	</g>
	<g id="XMLID_347_">
		<g id="XMLID_379_">
			<path id="XMLID_384_" class="st23" d="M929.5-7.1L907.9,5c-0.9,0.6-2.6,0.5-3.8-0.1l-12.6-7.3c-1.1-0.6-1.2-1.6-0.2-2.1l21.5-12
				c0.9-0.6,2.6-0.5,3.8,0.1l12.6,7.3C930.3-8.5,930.4-7.5,929.5-7.1z"/>
			<g id="XMLID_380_">
				<linearGradient id="XMLID_198_" gradientUnits="userSpaceOnUse" x1="934.6511" y1="13.5529" x2="877.1807" y2="65.1404">
					<stop  offset="0" style="stop-color:#E4F2FF"/>
					<stop  offset="5.554383e-002" style="stop-color:#E1EFFF"/>
					<stop  offset="0.6478" style="stop-color:#C7D7FB"/>
					<stop  offset="0.9993" style="stop-color:#BDCEFA"/>
				</linearGradient>
				<path id="XMLID_38_" class="st36" d="M930.1,50.8V-7.8l0,0l0,0c0,0.2-0.2,0.6-0.6,0.7L907.9,5c-0.5,0.2-1.1,0.4-1.8,0.4v58.9
					c0.7,0,1.3-0.1,1.8-0.4l21.6-12C930,51.6,930.2,51.3,930.1,50.8z"/>
				<linearGradient id="XMLID_200_" gradientUnits="userSpaceOnUse" x1="898.5406" y1="78.2641" x2="898.5406" y2="-9.3054">
					<stop  offset="7.151770e-002" style="stop-color:#55D1FF"/>
					<stop  offset="0.1638" style="stop-color:#4FC3EE;stop-opacity:0.9006"/>
					<stop  offset="0.3466" style="stop-color:#41A0C2;stop-opacity:0.7038"/>
					<stop  offset="0.6024" style="stop-color:#29677B;stop-opacity:0.4282"/>
					<stop  offset="0.9186" style="stop-color:#0A191A;stop-opacity:8.763379e-002"/>
					<stop  offset="1" style="stop-color:#010400;stop-opacity:0"/>
				</linearGradient>
				<path id="XMLID_39_" class="st37" d="M904.3,4.8l-12.6-7.3c-0.5-0.4-0.8-0.7-0.9-1.1V55c-0.1,0.5,0.2,0.9,0.9,1.4l12.6,7.3
					c0.6,0.4,1.3,0.5,2,0.5V5.4C905.5,5.4,904.8,5.2,904.3,4.8z"/>
				<path id="XMLID_40_" class="st34" d="M904.3,4.8l-12.6-7.3c-0.5-0.4-0.8-0.7-0.9-1.1V55c-0.1,0.5,0.2,0.9,0.9,1.4l12.6,7.3
					c0.6,0.4,1.3,0.5,2,0.5V5.4C905.5,5.4,904.8,5.2,904.3,4.8z"/>
			</g>
		</g>
		<g id="XMLID_5_">
			<g id="XMLID_8_">
				<path id="XMLID_378_" class="st23" d="M941.9,9.7L920.4,22c-0.9,0.6-2.6,0.5-3.8-0.1l-7.2-4.2c-1.1-0.6-1.2-1.6-0.2-2.1
					l21.5-12.3c0.9-0.6,2.6-0.5,3.8,0.1l7.3,4.2C942.8,8.2,942.9,9.3,941.9,9.7z"/>
				<g id="XMLID_41_">
					<linearGradient id="XMLID_201_" gradientUnits="userSpaceOnUse" x1="942.2947" y1="9.2073" x2="909.6111" y2="31.4916">
						<stop  offset="0" style="stop-color:#E4F2FF"/>
						<stop  offset="5.554383e-002" style="stop-color:#E1EFFF"/>
						<stop  offset="0.6478" style="stop-color:#C7D7FB"/>
						<stop  offset="0.9993" style="stop-color:#BDCEFA"/>
					</linearGradient>
					<path id="XMLID_42_" class="st38" d="M942.6,11.1V9l0,0l0,0c0,0.2-0.2,0.6-0.6,0.7L920.5,22c-0.5,0.2-1.1,0.4-1.8,0.4V25
						c0.7,0,1.3-0.1,1.8-0.4L942,12.3C942.5,12,942.6,11.5,942.6,11.1z"/>
					<linearGradient id="XMLID_205_" gradientUnits="userSpaceOnUse" x1="913.6406" y1="26.6474" x2="913.6406" y2="15.9339">
						<stop  offset="7.151770e-002" style="stop-color:#55D1FF"/>
						<stop  offset="0.1638" style="stop-color:#4FC3EE;stop-opacity:0.9006"/>
						<stop  offset="0.3466" style="stop-color:#41A0C2;stop-opacity:0.7038"/>
						<stop  offset="0.6024" style="stop-color:#29677B;stop-opacity:0.4282"/>
						<stop  offset="0.9186" style="stop-color:#0A191A;stop-opacity:8.763379e-002"/>
						<stop  offset="1" style="stop-color:#010400;stop-opacity:0"/>
					</linearGradient>
					<path id="XMLID_43_" class="st39" d="M916.7,21.9l-7.2-4.2c-0.5-0.4-0.8-0.7-0.9-1.1v2.1c-0.1,0.5,0.2,0.9,0.9,1.4l7.2,4.2
						c0.6,0.4,1.3,0.5,2,0.5v-2.5C918,22.5,917.3,22.3,916.7,21.9z"/>
					<path id="XMLID_44_" class="st34" d="M916.7,21.9l-7.2-4.2c-0.5-0.4-0.8-0.7-0.9-1.1v2.1c-0.1,0.5,0.2,0.9,0.9,1.4l7.2,4.2
						c0.6,0.4,1.3,0.5,2,0.5v-2.5C918,22.5,917.3,22.3,916.7,21.9z"/>
				</g>
			</g>
			<g id="XMLID_45_">
				<path id="XMLID_372_" class="st23" d="M951.2,22.6l-21.5,12.3c-0.9,0.6-2.6,0.5-3.8-0.1l-7.2-4.2c-1.1-0.6-1.2-1.6-0.2-2.1
					L940,16.2c0.9-0.6,2.6-0.5,3.8,0.1l7.3,4.2C952,21.1,952.1,22.1,951.2,22.6z"/>
				<g id="XMLID_46_">
					<linearGradient id="XMLID_211_" gradientUnits="userSpaceOnUse" x1="951.1554" y1="22.2026" x2="918.4715" y2="44.487">
						<stop  offset="0" style="stop-color:#E4F2FF"/>
						<stop  offset="5.554383e-002" style="stop-color:#E1EFFF"/>
						<stop  offset="0.6478" style="stop-color:#C7D7FB"/>
						<stop  offset="0.9993" style="stop-color:#BDCEFA"/>
					</linearGradient>
					<path id="XMLID_47_" class="st40" d="M951.8,23.9v-2.1l0,0l0,0c0,0.2-0.2,0.6-0.6,0.7l-21.5,12.3c-0.5,0.2-1.1,0.4-1.8,0.4v2.5
						c0.7,0,1.3-0.1,1.8-0.4L951.2,25C951.7,24.8,951.9,24.3,951.8,23.9z"/>
					<linearGradient id="XMLID_212_" gradientUnits="userSpaceOnUse" x1="922.9406" y1="39.4557" x2="922.9406" y2="28.7421">
						<stop  offset="7.151770e-002" style="stop-color:#55D1FF"/>
						<stop  offset="0.1638" style="stop-color:#4FC3EE;stop-opacity:0.9006"/>
						<stop  offset="0.3466" style="stop-color:#41A0C2;stop-opacity:0.7038"/>
						<stop  offset="0.6024" style="stop-color:#29677B;stop-opacity:0.4282"/>
						<stop  offset="0.9186" style="stop-color:#0A191A;stop-opacity:8.763379e-002"/>
						<stop  offset="1" style="stop-color:#010400;stop-opacity:0"/>
					</linearGradient>
					<path id="XMLID_48_" class="st41" d="M926,34.7l-7.2-4.2c-0.5-0.4-0.8-0.7-0.9-1.1v2.1c-0.1,0.5,0.2,0.9,0.9,1.4l7.2,4.2
						c0.6,0.4,1.3,0.5,2,0.5v-2.5C927.3,35.3,926.6,35.1,926,34.7z"/>
					<path id="XMLID_49_" class="st34" d="M926,34.7l-7.2-4.2c-0.5-0.4-0.8-0.7-0.9-1.1v2.1c-0.1,0.5,0.2,0.9,0.9,1.4l7.2,4.2
						c0.6,0.4,1.3,0.5,2,0.5v-2.5C927.3,35.3,926.6,35.1,926,34.7z"/>
				</g>
			</g>
			<g id="XMLID_50_">
				<path id="XMLID_366_" class="st23" d="M960.4,35.4l-21.5,12.3c-0.9,0.6-2.6,0.5-3.8-0.1l-7.2-4.2c-1.1-0.6-1.2-1.6-0.2-2.1
					L949.2,29c0.9-0.6,2.6-0.5,3.8,0.1l7.3,4.2C961.2,33.9,961.3,34.8,960.4,35.4z"/>
				<g id="XMLID_51_">
					<linearGradient id="XMLID_213_" gradientUnits="userSpaceOnUse" x1="960.0096" y1="35.189" x2="927.326" y2="57.4732">
						<stop  offset="0" style="stop-color:#E4F2FF"/>
						<stop  offset="5.554383e-002" style="stop-color:#E1EFFF"/>
						<stop  offset="0.6478" style="stop-color:#C7D7FB"/>
						<stop  offset="0.9993" style="stop-color:#BDCEFA"/>
					</linearGradient>
					<path id="XMLID_52_" class="st42" d="M960.9,36.7v-2.1l0,0l0,0c0,0.2-0.2,0.6-0.6,0.7l-21.5,12.3c-0.5,0.2-1.1,0.4-1.8,0.4v2.5
						c0.7,0,1.3-0.1,1.8-0.4l21.6-12.3C960.8,37.5,961.1,37.2,960.9,36.7z"/>
					<linearGradient id="XMLID_217_" gradientUnits="userSpaceOnUse" x1="932.0406" y1="52.2637" x2="932.0406" y2="41.5502">
						<stop  offset="7.151770e-002" style="stop-color:#55D1FF"/>
						<stop  offset="0.1638" style="stop-color:#4FC3EE;stop-opacity:0.9006"/>
						<stop  offset="0.3466" style="stop-color:#41A0C2;stop-opacity:0.7038"/>
						<stop  offset="0.6024" style="stop-color:#29677B;stop-opacity:0.4282"/>
						<stop  offset="0.9186" style="stop-color:#0A191A;stop-opacity:8.763379e-002"/>
						<stop  offset="1" style="stop-color:#010400;stop-opacity:0"/>
					</linearGradient>
					<path id="XMLID_53_" class="st43" d="M935.1,47.6l-7.2-4.2c-0.5-0.4-0.8-0.7-0.9-1.1v2.1c-0.1,0.5,0.2,0.9,0.9,1.4l7.2,4.2
						c0.6,0.4,1.3,0.5,2,0.5V48C936.4,48.1,935.7,47.9,935.1,47.6z"/>
					<path id="XMLID_54_" class="st34" d="M935.1,47.6l-7.2-4.2c-0.5-0.4-0.8-0.7-0.9-1.1v2.1c-0.1,0.5,0.2,0.9,0.9,1.4l7.2,4.2
						c0.6,0.4,1.3,0.5,2,0.5V48C936.4,48.1,935.7,47.9,935.1,47.6z"/>
				</g>
			</g>
			<g id="XMLID_55_">
				<path id="XMLID_360_" class="st23" d="M969.5,48.2L948,60.5c-0.9,0.6-2.6,0.5-3.8-0.1l-7.2-4.2c-1.1-0.6-1.2-1.6-0.2-2.1
					l21.6-12.3c0.9-0.6,2.6-0.5,3.8,0.1l7.3,4.2C970.3,46.7,970.4,47.6,969.5,48.2z"/>
				<g id="XMLID_56_">
					<linearGradient id="XMLID_218_" gradientUnits="userSpaceOnUse" x1="968.9039" y1="48.2338" x2="936.22" y2="70.5181">
						<stop  offset="0" style="stop-color:#E4F2FF"/>
						<stop  offset="5.554383e-002" style="stop-color:#E1EFFF"/>
						<stop  offset="0.6478" style="stop-color:#C7D7FB"/>
						<stop  offset="0.9993" style="stop-color:#BDCEFA"/>
					</linearGradient>
					<path id="XMLID_57_" class="st44" d="M970.2,49.5v-2.1l0,0l0,0c0,0.2-0.2,0.6-0.6,0.7l-21.5,12.3c-0.5,0.2-1.1,0.4-1.8,0.4v2.5
						c0.7,0,1.3-0.1,1.8-0.4l21.5-12.3C970.1,50.3,970.2,50,970.2,49.5z"/>
					<linearGradient id="XMLID_220_" gradientUnits="userSpaceOnUse" x1="941.2407" y1="65.072" x2="941.2407" y2="54.3584">
						<stop  offset="7.151770e-002" style="stop-color:#55D1FF"/>
						<stop  offset="0.1638" style="stop-color:#4FC3EE;stop-opacity:0.9006"/>
						<stop  offset="0.3466" style="stop-color:#41A0C2;stop-opacity:0.7038"/>
						<stop  offset="0.6024" style="stop-color:#29677B;stop-opacity:0.4282"/>
						<stop  offset="0.9186" style="stop-color:#0A191A;stop-opacity:8.763379e-002"/>
						<stop  offset="1" style="stop-color:#010400;stop-opacity:0"/>
					</linearGradient>
					<path id="XMLID_58_" class="st45" d="M944.3,60.4l-7.2-4.2c-0.5-0.4-0.8-0.7-0.9-1.1v2.1c-0.1,0.5,0.2,0.9,0.9,1.4l7.2,4.2
						c0.6,0.4,1.3,0.5,2,0.5v-2.4C945.6,60.9,944.9,60.7,944.3,60.4z"/>
					<path id="XMLID_59_" class="st34" d="M944.3,60.4l-7.2-4.2c-0.5-0.4-0.8-0.7-0.9-1.1v2.1c-0.1,0.5,0.2,0.9,0.9,1.4l7.2,4.2
						c0.6,0.4,1.3,0.5,2,0.5v-2.4C945.6,60.9,944.9,60.7,944.3,60.4z"/>
				</g>
			</g>
			<g id="XMLID_60_">
				<path id="XMLID_354_" class="st23" d="M978.8,61l-21.5,12.3c-0.9,0.6-2.6,0.5-3.8-0.1l-7.2-4.2c-1.1-0.6-1.2-1.6-0.2-2.1
					l21.5-12.3c0.9-0.6,2.6-0.5,3.8,0.1l7.3,4.2C979.6,59.5,979.7,60.4,978.8,61z"/>
				<g id="XMLID_61_">
					<linearGradient id="XMLID_221_" gradientUnits="userSpaceOnUse" x1="977.7814" y1="61.2543" x2="945.0977" y2="83.5388">
						<stop  offset="0" style="stop-color:#E4F2FF"/>
						<stop  offset="5.554383e-002" style="stop-color:#E1EFFF"/>
						<stop  offset="0.6478" style="stop-color:#C7D7FB"/>
						<stop  offset="0.9993" style="stop-color:#BDCEFA"/>
					</linearGradient>
					<path id="XMLID_62_" class="st46" d="M979.4,62.3v-2.1l0,0l0,0c0,0.2-0.2,0.6-0.6,0.7l-21.5,12.3c-0.5,0.2-1.1,0.4-1.8,0.4v2.5
						c0.7,0,1.3-0.1,1.8-0.4l21.5-12.3C979.3,63.1,979.5,62.8,979.4,62.3z"/>
					<linearGradient id="XMLID_222_" gradientUnits="userSpaceOnUse" x1="950.4406" y1="77.8802" x2="950.4406" y2="67.1665">
						<stop  offset="7.151770e-002" style="stop-color:#55D1FF"/>
						<stop  offset="0.1638" style="stop-color:#4FC3EE;stop-opacity:0.9006"/>
						<stop  offset="0.3466" style="stop-color:#41A0C2;stop-opacity:0.7038"/>
						<stop  offset="0.6024" style="stop-color:#29677B;stop-opacity:0.4282"/>
						<stop  offset="0.9186" style="stop-color:#0A191A;stop-opacity:8.763379e-002"/>
						<stop  offset="1" style="stop-color:#010400;stop-opacity:0"/>
					</linearGradient>
					<path id="XMLID_63_" class="st47" d="M953.5,73.2l-7.2-4.2c-0.5-0.4-0.8-0.7-0.9-1.1V70c-0.1,0.5,0.2,0.9,0.9,1.4l7.2,4.2
						c0.6,0.4,1.3,0.5,2,0.5v-2.5C954.8,73.7,954,73.6,953.5,73.2z"/>
					<path id="XMLID_64_" class="st34" d="M953.5,73.2l-7.2-4.2c-0.5-0.4-0.8-0.7-0.9-1.1V70c-0.1,0.5,0.2,0.9,0.9,1.4l7.2,4.2
						c0.6,0.4,1.3,0.5,2,0.5v-2.5C954.8,73.7,954,73.6,953.5,73.2z"/>
				</g>
			</g>
		</g>
	</g>
	<g id="XMLID_325_">
		<g id="XMLID_65_">
			<path id="XMLID_346_" d="M905.9-3.2c0,0.5,0.7,1.3,1.9,1.9c1.5,0.9,2.1,2.1,4.1,0.9c0.6-0.4,0.8-0.6,0.8-0.8v-1.2
				c0-0.6-1.3-0.9-2.5-1.5c-1.5-0.9-3.3-1.4-4.1-0.9c-0.2,0.1-0.4,0.2-0.4,0.5v1.2L905.9-3.2L905.9-3.2z"/>
			<path id="XMLID_345_" class="st48" d="M907.8-2.5c-1.5-0.9-2.5-1.9-1.6-2.3c0.8-0.5,2.5,0,4.1,0.9c1.5,0.9,3.5,1.3,1.6,2.3
				C910-0.5,909.4-1.7,907.8-2.5z"/>
		</g>
		<g id="XMLID_66_">
			<path id="XMLID_343_" d="M910.2-6.2c0,0.5,0.7,1.3,1.9,1.9c1.5,0.9,2.1,2.1,4.1,0.9c0.6-0.4,0.8-0.6,0.8-0.8v-1.2
				c0-0.6-1.3-0.9-2.5-1.5c-1.5-0.9-3.3-1.4-4.1-0.9c-0.2,0.1-0.4,0.2-0.4,0.5v1.2L910.2-6.2L910.2-6.2z"/>
			<path id="XMLID_342_" class="st48" d="M912.2-5.5c-1.5-0.9-2.5-1.9-1.6-2.3c0.8-0.5,2.5,0,4.1,0.9c1.5,0.9,3.5,1.3,1.6,2.3
				C914.3-3.5,913.8-4.6,912.2-5.5z"/>
		</g>
		<g id="XMLID_338_">
			<path id="XMLID_340_" class="st49" d="M908.6-42.5L908.6-42.5c0.6-0.4,1.4-0.2,1.8,0.4l5.4,8.6c0.4,0.6,0.2,1.4-0.4,1.8l0,0
				c-0.6,0.4-1.4,0.2-1.8-0.4l-5.4-8.6C907.8-41.3,907.9-42.1,908.6-42.5z"/>
			<path id="XMLID_339_" class="st5" d="M912.1-33.1l1.8,2.8c0.6,0.9,1.9,1.2,2.8,0.6l0,0c0.9-0.6,1.2-1.9,0.6-2.8l-1.8-2.8
				C915.4-35.2,913.3-36,912.1-33.1z"/>
		</g>
		<g id="XMLID_67_">
			<path id="XMLID_337_" class="st50" d="M912.7-2.9c0.1-0.1,0.1-0.2,0.1-0.4v-13.5c0-0.8-0.9-1.5-2-1.5l0,0c-1.1,0-2,0.7-2,1.5
				v14.7c0,0.2,0.1,0.4,0.4,0.5C909.9-1.4,911.8-1.1,912.7-2.9z"/>
		</g>
		<g id="XMLID_68_">
			<path id="XMLID_335_" class="st4" d="M917-6.1c0.1-0.1,0.1-0.2,0.1-0.4l-0.3-13.6c0-0.8-0.9-1.5-2-1.5l0,0c-1.1,0-2,0.7-1.9,1.6
				l0.4,14.7c0,0.2,0.1,0.4,0.4,0.5C914.3-4.6,916.1-4.2,917-6.1z"/>
		</g>
		<path id="XMLID_333_" class="st2" d="M909.4-14.4L909.4-14.4c0.9,0.1,4.1-0.6,7.3-4.1c0.2-0.2,0.5-0.7,0.5-1.1v-10
			c0-0.7-0.2-1.3-0.7-1.5l-2.3-1.4c-0.5-0.2-1.1-0.2-1.6,0.1l-3.2,1.9c-1.3,0.7-2.3,2.6-2.3,4.1v10c0,0.2,0.1,0.4,0.2,0.5
			L909.4-14.4z"/>
		<path id="XMLID_332_" class="st51" d="M910.4-29.7c0,0.2,0.1,0.5,0.5,0.7c0.7,0.4,1.6,0.4,2.3,0c0.4-0.2,0.5-0.5,0.5-0.7v-2.2
			c0-0.2-0.1-0.5-0.5-0.7c-0.7-0.4-1.6-0.4-2.3,0c-0.4,0.2-0.5,0.5-0.5,0.7V-29.7z"/>
		<circle id="XMLID_331_" class="st49" cx="912" cy="-35.3" r="4.6"/>
		<g id="XMLID_328_">
			<path id="XMLID_330_" class="st49" d="M898.6-36.2L898.6-36.2c0.5-0.6,1.3-0.6,1.9-0.1l7.3,6.6c0.6,0.5,0.6,1.3,0.1,1.9l0,0
				c-0.5,0.6-1.3,0.6-1.9,0.1l-7.3-6.6C898.3-34.7,898.2-35.6,898.6-36.2z"/>
			<path id="XMLID_329_" class="st5" d="M904.4-28.2l2.5,2.1c0.8,0.7,2.1,0.6,2.8-0.2l0,0c0.7-0.8,0.6-2.1-0.2-2.8l-2.5-2.1
				C907-31.2,904.7-31.3,904.4-28.2z"/>
		</g>
		<path id="XMLID_327_" class="st52" d="M914.6-31.2c-1.4,0.8-2.6,0.2-2.9-0.4c-0.9-1.5-1.2-0.5-1.8-1.2c-0.8-1.3-0.6-2.9-1.6-3.8
			c-1.5-1.2-1.1-3.4,2.8-4.5c5.4-1.4,7.5,5.4,4.1,9.3C915.1-31.5,914.9-31.5,914.6-31.2z"/>
		<path id="XMLID_326_" class="st49" d="M910.5-32.6c-0.4,0.4-0.8,0.2-0.9-0.2s0-1.3,0.5-1.6c0.4-0.4,0.8-0.2,0.9,0.2
			C911.1-33.8,910.8-33.1,910.5-32.6z"/>
	</g>
	<g id="XMLID_263_">
		<g id="XMLID_288_">
			<g id="XMLID_313_">
				<path id="XMLID_324_" class="st53" d="M913.9,80l-24.6,14.2c-0.9,0.6-2.7,0.5-3.9-0.1l-25.7-14.9c-1.2-0.7-1.3-1.6-0.2-2.2
					l24.6-14.2c0.9-0.6,2.7-0.5,3.9,0.1l25.7,14.9C914.8,78.4,914.9,79.4,913.9,80z"/>
				<g id="XMLID_71_">
					<path id="XMLID_72_" class="st34" d="M913.9,80l-24.6,14.2c-0.9,0.6-2.7,0.5-3.9-0.1l-25.7-14.9c-0.6-0.4-0.9-0.8-0.9-1.3l0,0
						v1c0,0.5,0.4,0.9,0.9,1.3l25.7,14.9c1.2,0.7,2.9,0.7,3.9,0.1L913.9,81c0.5-0.2,0.7-0.6,0.7-0.9v-0.9l0,0
						C914.6,79.4,914.3,79.8,913.9,80z"/>
				</g>
				<g id="XMLID_73_">
					<linearGradient id="XMLID_223_" gradientUnits="userSpaceOnUse" x1="924.0781" y1="76.5613" x2="856.8619" y2="77.5047">
						<stop  offset="0" style="stop-color:#FFFFFF"/>
						<stop  offset="0.5824" style="stop-color:#DAE4FC"/>
						<stop  offset="0.9993" style="stop-color:#BDCEFA"/>
					</linearGradient>
					<path id="XMLID_321_" class="st54" d="M880.4,76.7l-9.9,5.8c-0.4,0.2-0.9,0.1-1.3,0l-6.6-3.8c-0.4-0.2-0.5-0.6-0.1-0.8l9.9-5.8
						c0.4-0.2,0.9-0.1,1.3,0l6.6,3.8C880.7,76.2,880.8,76.5,880.4,76.7z"/>
					<linearGradient id="XMLID_224_" gradientUnits="userSpaceOnUse" x1="924.085" y1="77.0515" x2="856.8688" y2="77.9948">
						<stop  offset="0" style="stop-color:#FFFFFF"/>
						<stop  offset="0.5824" style="stop-color:#DAE4FC"/>
						<stop  offset="0.9993" style="stop-color:#BDCEFA"/>
					</linearGradient>
					<path id="XMLID_320_" class="st55" d="M897.2,71.3l-23,13.3c-0.4,0.2-0.8,0.1-1.3,0l0,0c-0.4-0.2-0.4-0.6-0.1-0.7l23-13.3
						c0.4-0.2,0.8-0.1,1.3,0l0,0C897.6,70.9,897.6,71.2,897.2,71.3z"/>
					<linearGradient id="XMLID_227_" gradientUnits="userSpaceOnUse" x1="924.108" y1="78.6876" x2="856.8918" y2="79.631">
						<stop  offset="0" style="stop-color:#FFFFFF"/>
						<stop  offset="0.5824" style="stop-color:#DAE4FC"/>
						<stop  offset="0.9993" style="stop-color:#BDCEFA"/>
					</linearGradient>
					<path id="XMLID_319_" class="st56" d="M899.8,72.9l-23,13.3c-0.4,0.2-0.8,0.1-1.3,0l0,0c-0.4-0.2-0.4-0.6-0.1-0.7l23-13.3
						c0.4-0.2,0.8-0.1,1.3,0l0,0C900,72.3,900.1,72.6,899.8,72.9z"/>
					<linearGradient id="XMLID_228_" gradientUnits="userSpaceOnUse" x1="924.1283" y1="80.1225" x2="856.9118" y2="81.0658">
						<stop  offset="0" style="stop-color:#FFFFFF"/>
						<stop  offset="0.5824" style="stop-color:#DAE4FC"/>
						<stop  offset="0.9993" style="stop-color:#BDCEFA"/>
					</linearGradient>
					<path id="XMLID_318_" class="st57" d="M902.3,74.3l-23,13.3c-0.4,0.2-0.8,0.1-1.3,0l0,0c-0.4-0.2-0.4-0.6-0.1-0.7l23-13.3
						c0.4-0.2,0.8-0.1,1.3,0l0,0C902.6,73.8,902.6,74,902.3,74.3z"/>
					<linearGradient id="XMLID_229_" gradientUnits="userSpaceOnUse" x1="924.1996" y1="85.2153" x2="856.9833" y2="86.1586">
						<stop  offset="0" style="stop-color:#FFFFFF"/>
						<stop  offset="0.5824" style="stop-color:#DAE4FC"/>
						<stop  offset="0.9993" style="stop-color:#BDCEFA"/>
					</linearGradient>
					<path id="XMLID_317_" class="st58" d="M891.8,83.2l-10,5.8c-0.4,0.2-0.8,0.1-1.3,0l0,0c-0.4-0.2-0.4-0.6-0.1-0.7l10-5.8
						c0.4-0.2,0.8-0.1,1.3,0l0,0C892.2,82.7,892.2,83.1,891.8,83.2z"/>
					<linearGradient id="XMLID_230_" gradientUnits="userSpaceOnUse" x1="923.9755" y1="69.2438" x2="856.7593" y2="70.1872">
						<stop  offset="0" style="stop-color:#FFFFFF"/>
						<stop  offset="0.5824" style="stop-color:#DAE4FC"/>
						<stop  offset="0.9993" style="stop-color:#BDCEFA"/>
					</linearGradient>
					<path id="XMLID_316_" class="st59" d="M893.3,69.2l-9.9,5.8c-0.4,0.2-0.9,0.1-1.3,0l-6.6-3.8c-0.4-0.2-0.5-0.6-0.1-0.8l9.9-5.8
						c0.4-0.2,0.9-0.1,1.3,0l6.7,3.8C893.7,68.6,893.7,69,893.3,69.2z"/>
					<linearGradient id="XMLID_234_" gradientUnits="userSpaceOnUse" x1="924.1849" y1="84.1692" x2="856.9688" y2="85.1125">
						<stop  offset="0" style="stop-color:#FFFFFF"/>
						<stop  offset="0.5824" style="stop-color:#DAE4FC"/>
						<stop  offset="0.9993" style="stop-color:#BDCEFA"/>
					</linearGradient>
					<path id="XMLID_315_" class="st60" d="M910.8,79.2l-22.9,13.3c-0.4,0.2-0.9,0.1-1.3,0l-3.2-1.8c-0.4-0.2-0.5-0.6-0.1-0.8
						l22.9-13.3c0.4-0.2,0.9-0.1,1.3,0l3.2,1.8C911.2,78.7,911.2,79.1,910.8,79.2z"/>
				</g>
			</g>
			<g id="XMLID_309_">
				<g id="XMLID_74_">
					<path id="XMLID_75_" class="st34" d="M913.9,81.8L889.3,96c-0.9,0.6-2.7,0.5-3.9-0.1L859.7,81c-0.6-0.4-0.9-0.8-0.9-1.3l0,0
						v0.9c0,0.5,0.4,0.9,0.9,1.3l25.7,14.9c1.2,0.7,2.9,0.7,3.9,0.1l24.6-14.2c0.5-0.2,0.7-0.6,0.7-0.9v-0.9l0,0
						C914.6,81.2,914.3,81.6,913.9,81.8z"/>
				</g>
				<linearGradient id="XMLID_241_" gradientUnits="userSpaceOnUse" x1="914.8382" y1="87.8191" x2="859.0911" y2="87.8191">
					<stop  offset="0" style="stop-color:#FFFFFF"/>
					<stop  offset="0.5824" style="stop-color:#DAE4FC"/>
					<stop  offset="0.9993" style="stop-color:#BDCEFA"/>
				</linearGradient>
				<path id="XMLID_76_" class="st61" d="M913.9,81l-24.6,14.2c-0.9,0.6-2.7,0.5-3.9-0.1l-25.7-14.9c-0.5-0.2-0.7-0.6-0.8-0.9
					c-0.2,0.6,0,1.2,0.8,1.6l25.7,14.9c1.2,0.7,2.9,0.7,3.9,0.1l24.6-14.2c0.6-0.4,0.8-0.8,0.6-1.4C914.3,80.6,914.2,80.9,913.9,81z
					"/>
			</g>
			<g id="XMLID_305_">
				<g id="XMLID_77_">
					<path id="XMLID_78_" class="st34" d="M913.9,83.6l-24.6,14.2c-0.9,0.6-2.7,0.5-3.9-0.1l-25.7-14.9c-0.6-0.4-0.9-0.8-0.9-1.3
						l0,0v0.9c0,0.5,0.4,0.9,0.9,1.3l25.7,14.9c1.2,0.7,2.9,0.7,3.9,0.1l24.6-14.2c0.5-0.2,0.7-0.6,0.7-0.9v-0.9l0,0
						C914.6,83,914.3,83.3,913.9,83.6z"/>
				</g>
				<linearGradient id="XMLID_242_" gradientUnits="userSpaceOnUse" x1="915.7367" y1="88.9732" x2="858.487" y2="89.7082">
					<stop  offset="0" style="stop-color:#FFFFFF"/>
					<stop  offset="0.5824" style="stop-color:#DAE4FC"/>
					<stop  offset="0.9993" style="stop-color:#BDCEFA"/>
				</linearGradient>
				<path id="XMLID_306_" class="st62" d="M913.9,82.7l-24.7,14.2c-0.9,0.6-2.7,0.5-3.9-0.1l-25.6-14.9c-0.5-0.2-0.7-0.6-0.8-0.9
					c-0.2,0.6,0,1.2,0.8,1.6l25.7,14.9c1.2,0.7,2.9,0.7,3.9,0.1l24.6-14.2c0.6-0.4,0.8-0.8,0.6-1.4
					C914.3,82.4,914.2,82.6,913.9,82.7z"/>
			</g>
			<g id="XMLID_301_">
				<g id="XMLID_79_">
					<path id="XMLID_80_" class="st34" d="M913.9,85.3l-24.6,14.2c-0.9,0.6-2.7,0.5-3.9-0.1l-25.7-14.9c-0.6-0.4-0.9-0.8-0.9-1.3
						l0,0v0.9c0,0.5,0.4,0.9,0.9,1.3l25.7,14.9c1.2,0.7,2.9,0.7,3.9,0.1l24.6-14.2c0.5-0.2,0.7-0.6,0.7-0.9v-0.9l0,0
						C914.6,84.7,914.3,85.1,913.9,85.3z"/>
				</g>
				<linearGradient id="XMLID_243_" gradientUnits="userSpaceOnUse" x1="914.5266" y1="92.1472" x2="859.0162" y2="90.8032">
					<stop  offset="0" style="stop-color:#FFFFFF"/>
					<stop  offset="0.5824" style="stop-color:#DAE4FC"/>
					<stop  offset="0.9993" style="stop-color:#BDCEFA"/>
				</linearGradient>
				<path id="XMLID_302_" class="st63" d="M913.9,84.5l-24.6,14.2c-0.9,0.6-2.7,0.5-3.9-0.1l-25.7-14.9c-0.5-0.2-0.7-0.6-0.8-0.9
					c-0.2,0.6,0,1.2,0.8,1.6l25.7,14.9c1.2,0.7,2.9,0.7,3.9,0.1l24.6-14.2c0.6-0.4,0.8-0.8,0.6-1.4
					C914.3,84.1,914.2,84.4,913.9,84.5z"/>
			</g>
			<g id="XMLID_297_">
				<g id="XMLID_81_">
					<path id="XMLID_82_" class="st34" d="M913.9,87.1l-24.6,14.2c-0.9,0.6-2.7,0.5-3.9-0.1l-25.7-14.9c-0.6-0.4-0.9-0.8-0.9-1.3
						l0,0v0.9c0,0.5,0.4,0.9,0.9,1.3l25.7,14.9c1.2,0.7,2.9,0.7,3.9,0.1L913.9,88c0.5-0.2,0.7-0.6,0.7-0.9v-0.9l0,0
						C914.6,86.5,914.3,86.8,913.9,87.1z"/>
				</g>
				<linearGradient id="XMLID_244_" gradientUnits="userSpaceOnUse" x1="914.7849" y1="93.1191" x2="858.7356" y2="93.1191">
					<stop  offset="0" style="stop-color:#FFFFFF"/>
					<stop  offset="0.5824" style="stop-color:#DAE4FC"/>
					<stop  offset="0.9993" style="stop-color:#BDCEFA"/>
				</linearGradient>
				<path id="XMLID_298_" class="st64" d="M913.9,86.3l-24.6,14.2c-0.9,0.6-2.7,0.5-3.9-0.1l-25.7-14.9c-0.5-0.2-0.7-0.6-0.8-0.9
					c-0.2,0.6,0,1.2,0.8,1.6l25.7,14.9c1.2,0.7,2.9,0.7,3.9,0.1L913.9,87c0.6-0.4,0.8-0.8,0.6-1.4C914.3,85.9,914.2,86.1,913.9,86.3
					z"/>
			</g>
			<g id="XMLID_293_">
				<g id="XMLID_83_">
					<path id="XMLID_84_" class="st34" d="M913.9,88.8L889.3,103c-0.9,0.6-2.7,0.5-3.9-0.1L859.7,88c-0.6-0.4-0.9-0.8-0.9-1.3l0,0
						v0.9c0,0.5,0.4,0.9,0.9,1.3l25.7,15c1.2,0.7,2.9,0.7,3.9,0.1l24.6-14.2c0.5-0.2,0.7-0.6,0.7-0.9v-1l0,0
						C914.6,88.2,914.3,88.6,913.9,88.8z"/>
				</g>
				<linearGradient id="XMLID_245_" gradientUnits="userSpaceOnUse" x1="914.076" y1="94.8191" x2="858.5516" y2="94.8191">
					<stop  offset="0" style="stop-color:#FFFFFF"/>
					<stop  offset="0.5824" style="stop-color:#DAE4FC"/>
					<stop  offset="0.9993" style="stop-color:#BDCEFA"/>
				</linearGradient>
				<path id="XMLID_85_" class="st65" d="M913.9,88l-24.6,14.2c-0.9,0.6-2.7,0.5-3.9-0.1l-25.7-14.9c-0.5-0.2-0.7-0.6-0.8-0.9
					c-0.2,0.6,0,1.2,0.8,1.6l25.7,14.9c1.2,0.7,2.9,0.7,3.9,0.1l24.6-14.2c0.6-0.4,0.8-0.8,0.6-1.4C914.3,87.7,914.2,87.9,913.9,88z
					"/>
			</g>
			<g id="XMLID_289_">
				<g id="XMLID_86_">
					<path id="XMLID_87_" class="st34" d="M913.9,90.6l-24.6,14.2c-0.9,0.6-2.7,0.5-3.9-0.1l-25.7-14.9c-0.6-0.4-0.9-0.8-0.9-1.3
						l0,0v0.9c0,0.5,0.4,0.9,0.9,1.3l25.7,14.9c1.2,0.7,2.9,0.7,3.9,0.1l24.6-14.2c0.5-0.2,0.7-0.6,0.7-0.9v-0.9l0,0
						C914.6,90,914.3,90.4,913.9,90.6z"/>
				</g>
				<linearGradient id="XMLID_246_" gradientUnits="userSpaceOnUse" x1="914.3093" y1="96.6191" x2="859.5754" y2="96.6191">
					<stop  offset="0" style="stop-color:#FFFFFF"/>
					<stop  offset="0.5824" style="stop-color:#DAE4FC"/>
					<stop  offset="0.9993" style="stop-color:#BDCEFA"/>
				</linearGradient>
				<path id="XMLID_88_" class="st66" d="M913.9,89.8L889.3,104c-0.9,0.6-2.7,0.5-3.9-0.1L859.7,89c-0.5-0.2-0.7-0.6-0.8-0.9
					c-0.2,0.6,0,1.2,0.8,1.6l25.7,14.9c1.2,0.7,2.9,0.7,3.9,0.1l24.6-14.2c0.6-0.4,0.8-0.8,0.6-1.4
					C914.3,89.4,914.2,89.7,913.9,89.8z"/>
			</g>
		</g>
		<g id="XMLID_264_">
			<g id="XMLID_277_">
				<path id="XMLID_287_" class="st23" d="M973.3,35.4l24.5,14.2c0.9,0.6,2.7,0.5,3.9-0.1l25.7-14.9c1.2-0.7,1.3-1.6,0.2-2.2
					L1003,18.2c-0.9-0.6-2.7-0.5-3.9,0.1l-25.6,14.9C972.3,33.9,972.2,34.8,973.3,35.4z"/>
				<g id="XMLID_89_">
					<path id="XMLID_286_" class="st34" d="M973.3,35.4l24.5,14.2c0.9,0.6,2.7,0.5,3.9-0.1l25.7-14.9c0.6-0.4,0.9-0.8,0.9-1.3l0,0
						v0.9c0,0.5-0.4,0.9-0.9,1.3l-25.7,14.9c-1.2,0.7-2.9,0.7-3.9,0.1l-24.6-14.2c-0.5-0.2-0.7-0.6-0.7-0.9v-0.9l0,0
						C972.6,34.8,972.8,35.2,973.3,35.4z"/>
				</g>
				<g id="XMLID_90_">
					<linearGradient id="XMLID_247_" gradientUnits="userSpaceOnUse" x1="1027.7235" y1="32.5028" x2="976.614" y2="33.8935">
						<stop  offset="0" style="stop-color:#FFFFFF"/>
						<stop  offset="0.5824" style="stop-color:#DAE4FC"/>
						<stop  offset="0.9993" style="stop-color:#BDCEFA"/>
					</linearGradient>
					<path id="XMLID_284_" class="st67" d="M989.9,26.9l23,13.3c0.4,0.2,0.8,0.1,1.3,0l0,0c0.4-0.2,0.4-0.6,0.1-0.7l-23-13.3
						c-0.4-0.2-0.8-0.1-1.3,0l0,0C989.6,26.4,989.6,26.6,989.9,26.9z"/>
					<linearGradient id="XMLID_248_" gradientUnits="userSpaceOnUse" x1="1027.7596" y1="33.831" x2="976.6505" y2="35.2217">
						<stop  offset="0" style="stop-color:#FFFFFF"/>
						<stop  offset="0.5824" style="stop-color:#DAE4FC"/>
						<stop  offset="0.9993" style="stop-color:#BDCEFA"/>
					</linearGradient>
					<path id="XMLID_283_" class="st68" d="M987.3,28.3l23,13.3c0.4,0.2,0.8,0.1,1.3,0l0,0c0.4-0.2,0.4-0.6,0.1-0.7l-23-13.3
						c-0.4-0.2-0.8-0.1-1.3,0l0,0C987.1,27.8,987,28.2,987.3,28.3z"/>
					<linearGradient id="XMLID_249_" gradientUnits="userSpaceOnUse" x1="1027.7985" y1="35.2647" x2="976.6896" y2="36.6554">
						<stop  offset="0" style="stop-color:#FFFFFF"/>
						<stop  offset="0.5824" style="stop-color:#DAE4FC"/>
						<stop  offset="0.9993" style="stop-color:#BDCEFA"/>
					</linearGradient>
					<path id="XMLID_282_" class="st69" d="M984.9,29.8l23,13.3c0.4,0.2,0.8,0.1,1.3,0l0,0c0.4-0.2,0.4-0.6,0.1-0.7l-23-13.3
						c-0.4-0.2-0.8-0.1-1.3,0l0,0C984.5,29.2,984.5,29.6,984.9,29.8z"/>
					<linearGradient id="XMLID_250_" gradientUnits="userSpaceOnUse" x1="1027.9402" y1="40.4655" x2="976.8309" y2="41.8563">
						<stop  offset="0" style="stop-color:#FFFFFF"/>
						<stop  offset="0.5824" style="stop-color:#DAE4FC"/>
						<stop  offset="0.9993" style="stop-color:#BDCEFA"/>
					</linearGradient>
					<path id="XMLID_281_" class="st70" d="M995.3,38.7l10,5.8c0.4,0.2,0.8,0.1,1.3,0l0,0c0.4-0.2,0.4-0.6,0.1-0.7l-10.1-5.9
						c-0.4-0.2-0.8-0.1-1.3,0l0,0C995,38.3,995,38.5,995.3,38.7z"/>
					<linearGradient id="XMLID_251_" gradientUnits="userSpaceOnUse" x1="1027.6132" y1="28.4503" x2="976.5039" y2="29.8411">
						<stop  offset="0" style="stop-color:#FFFFFF"/>
						<stop  offset="0.5824" style="stop-color:#DAE4FC"/>
						<stop  offset="0.9993" style="stop-color:#BDCEFA"/>
					</linearGradient>
					<path id="XMLID_280_" class="st71" d="M993.8,24.6l22.9,13.3c0.4,0.2,0.9,0.1,1.3,0l6.6-3.8c0.4-0.2,0.5-0.6,0.1-0.8L1001.8,20
						c-0.4-0.2-0.9-0.1-1.3,0l-6.6,3.8C993.5,24.2,993.5,24.5,993.8,24.6z"/>
					<linearGradient id="XMLID_253_" gradientUnits="userSpaceOnUse" x1="1027.9008" y1="39.0201" x2="976.7916" y2="40.4108">
						<stop  offset="0" style="stop-color:#FFFFFF"/>
						<stop  offset="0.5824" style="stop-color:#DAE4FC"/>
						<stop  offset="0.9993" style="stop-color:#BDCEFA"/>
					</linearGradient>
					<path id="XMLID_279_" class="st72" d="M976.3,34.7L999.2,48c0.4,0.2,0.9,0.1,1.3,0l3.2-1.8c0.4-0.2,0.5-0.6,0.1-0.8l-22.9-13.3
						c-0.4-0.2-0.9-0.1-1.3,0l-3.2,1.8C976,34.3,976,34.5,976.3,34.7z"/>
				</g>
			</g>
			<g id="XMLID_70_">
				<g id="XMLID_91_">
					<path id="XMLID_276_" class="st34" d="M973.3,37.2l24.6,14.2c0.9,0.6,2.7,0.5,3.9-0.1l25.7-14.9c0.6-0.4,0.9-0.8,0.9-1.3l0,0
						V36c0,0.5-0.4,0.9-0.9,1.3l-25.7,14.9c-1.2,0.7-2.9,0.7-3.9,0.1l-24.6-14.2c-0.5-0.2-0.7-0.6-0.7-0.9v-0.9l0,0
						C972.6,36.6,972.8,37,973.3,37.2z"/>
				</g>
				<linearGradient id="XMLID_254_" gradientUnits="userSpaceOnUse" x1="1030.1626" y1="40.6935" x2="959.5338" y2="45.7239">
					<stop  offset="0" style="stop-color:#FFFFFF"/>
					<stop  offset="0.5824" style="stop-color:#DAE4FC"/>
					<stop  offset="0.9993" style="stop-color:#BDCEFA"/>
				</linearGradient>
				<path id="XMLID_274_" class="st73" d="M973.3,36.5l24.6,14.2c0.9,0.6,2.7,0.5,3.9-0.1l25.7-14.9c0.5-0.2,0.7-0.6,0.8-0.9
					c0.2,0.6,0,1.2-0.8,1.6l-25.7,14.9c-1.2,0.7-2.9,0.7-3.9,0.1l-24.6-14.2c-0.6-0.4-0.8-0.8-0.6-1.4
					C972.8,36.1,972.9,36.3,973.3,36.5z"/>
			</g>
			<g id="XMLID_92_">
				<g id="XMLID_93_">
					<path id="XMLID_272_" class="st34" d="M973.3,39l24.5,14.2c0.9,0.6,2.7,0.5,3.9-0.1l25.7-14.9c0.6-0.4,0.9-0.8,0.9-1.3l0,0v0.9
						c0,0.5-0.4,0.9-0.9,1.3L1001.7,54c-1.2,0.7-2.9,0.7-3.9,0.1l-24.7-14.2c-0.5-0.2-0.7-0.6-0.7-0.9v-0.9l0,0
						C972.6,38.4,972.8,38.7,973.3,39z"/>
				</g>
				<linearGradient id="XMLID_255_" gradientUnits="userSpaceOnUse" x1="1030.2903" y1="42.4845" x2="959.6613" y2="47.5148">
					<stop  offset="0" style="stop-color:#FFFFFF"/>
					<stop  offset="0.5824" style="stop-color:#DAE4FC"/>
					<stop  offset="0.9993" style="stop-color:#BDCEFA"/>
				</linearGradient>
				<path id="XMLID_270_" class="st74" d="M973.3,38.3l24.6,14.2c0.9,0.6,2.7,0.5,3.9-0.1l25.7-14.9c0.5-0.2,0.7-0.6,0.8-0.9
					c0.2,0.6,0,1.2-0.8,1.6l-25.7,14.9c-1.2,0.7-2.9,0.7-3.9,0.1L973.3,39c-0.6-0.4-0.8-0.8-0.6-1.4C972.8,37.9,972.9,38,973.3,38.3
					z"/>
			</g>
			<g id="XMLID_94_">
				<g id="XMLID_95_">
					<path id="XMLID_268_" class="st34" d="M973.3,40.7l24.6,14.2c0.9,0.6,2.7,0.5,3.9-0.1l25.7-14.9c0.6-0.4,0.9-0.8,0.9-1.3l0,0
						v0.9c0,0.5-0.4,0.9-0.9,1.3l-25.7,14.9c-1.2,0.7-2.9,0.7-3.9,0.1l-24.6-14.2c-0.5-0.2-0.7-0.6-0.7-0.9v-0.9l0,0
						C972.6,40.1,972.8,40.5,973.3,40.7z"/>
				</g>
				<linearGradient id="XMLID_256_" gradientUnits="userSpaceOnUse" x1="1030.4108" y1="44.1759" x2="959.7817" y2="49.2062">
					<stop  offset="0" style="stop-color:#FFFFFF"/>
					<stop  offset="0.5824" style="stop-color:#DAE4FC"/>
					<stop  offset="0.9993" style="stop-color:#BDCEFA"/>
				</linearGradient>
				<path id="XMLID_266_" class="st75" d="M973.3,40l24.6,14.2c0.9,0.6,2.7,0.5,3.9-0.1l25.7-14.9c0.5-0.2,0.7-0.6,0.8-0.9
					c0.2,0.6,0,1.2-0.8,1.6l-25.7,14.9c-1.2,0.7-2.9,0.7-3.9,0.1l-24.6-14.2c-0.6-0.4-0.8-0.8-0.6-1.4
					C972.8,39.7,972.9,39.8,973.3,40z"/>
			</g>
		</g>
	</g>
	<g id="XMLID_238_">
		<g id="XMLID_257_">
			<path id="XMLID_262_" class="st23" d="M939.7,111.4c4.9,2.9,4.9,7.5,0,10.4s-13,2.9-18.1,0c-4.9-2.9-4.9-7.5,0-10.4
				C926.7,108.6,934.7,108.6,939.7,111.4z"/>
			<linearGradient id="XMLID_258_" gradientUnits="userSpaceOnUse" x1="956.0601" y1="120.5471" x2="923.563" y2="122.7033">
				<stop  offset="0" style="stop-color:#E4F2FF;stop-opacity:0"/>
				<stop  offset="5.554383e-002" style="stop-color:#E1EFFF;stop-opacity:5.558312e-002"/>
				<stop  offset="0.6478" style="stop-color:#C7D7FB;stop-opacity:0.6483"/>
				<stop  offset="0.9993" style="stop-color:#BDCEFA"/>
			</linearGradient>
			<path id="XMLID_261_" class="st76" d="M939.7,121.8c-4.9,2.9-13,2.9-18.1,0c-2.5-1.4-3.8-3.3-3.8-5.2v4.6c0,1.9,1.2,3.8,3.8,5.3
				c4.9,2.9,13,2.9,18.1,0c2.5-1.4,3.8-3.4,3.8-5.3v-4.6C943.5,118.5,942.2,120.4,939.7,121.8z"/>
			<linearGradient id="XMLID_259_" gradientUnits="userSpaceOnUse" x1="919.5757" y1="113.9625" x2="941.7387" y2="113.9625">
				<stop  offset="0" style="stop-color:#00E9FF"/>
				<stop  offset="0.1813" style="stop-color:#01D1FF"/>
				<stop  offset="0.5456" style="stop-color:#02A6FF"/>
				<stop  offset="0.8306" style="stop-color:#038CFF"/>
				<stop  offset="0.9993" style="stop-color:#0382FF"/>
			</linearGradient>
			<path id="XMLID_96_" class="st77" d="M922.8,114.5c4.3-2.5,11.4-2.5,15.7,0c1.6,0.9,2.6,2.1,3.1,3.3c0.7-2-0.4-4.2-3.1-5.8
				c-4.3-2.5-11.4-2.5-15.7,0c-2.7,1.5-3.8,3.8-3.1,5.8C920.2,116.7,921.2,115.5,922.8,114.5z"/>
			<g id="XMLID_97_">
				<path id="XMLID_98_" class="st3" d="M938.5,114.5c-4.3-2.5-11.4-2.5-15.7,0c-1.6,0.9-2.6,2.1-3.1,3.3c0.4,1.2,1.4,2.3,3.1,3.3
					c4.3,2.5,11.4,2.5,15.7,0c1.6-0.9,2.6-2.1,3.1-3.3C941.1,116.7,940.1,115.5,938.5,114.5z"/>
			</g>
		</g>
		<g id="XMLID_240_">
			<path id="XMLID_99_" class="st3" d="M929.7,68.8h-1.4v-1.4c0-0.2-0.2-0.5-0.5-0.5s-0.5,0.2-0.5,0.5v1.4h-1.4
				c-0.2,0-0.5,0.2-0.5,0.5s0.2,0.5,0.5,0.5h1.4v1.4c0,0.2,0.2,0.5,0.5,0.5s0.5-0.2,0.5-0.5v-1.4h1.4c0.2,0,0.5-0.2,0.5-0.5
				S930,68.8,929.7,68.8z"/>
			<path id="XMLID_100_" class="st3" d="M937.7,80.7h-1.4v-1.4c0-0.2-0.2-0.5-0.5-0.5s-0.5,0.2-0.5,0.5v1.4h-1.4
				c-0.2,0-0.5,0.2-0.5,0.5s0.2,0.5,0.5,0.5h1.4v1.4c0,0.2,0.2,0.5,0.5,0.5s0.5-0.2,0.5-0.5v-1.4h1.4c0.2,0,0.5-0.2,0.5-0.5
				S937.9,80.7,937.7,80.7z"/>
			<path id="XMLID_101_" class="st3" d="M928.3,96.1h-1.4v-1.4c0-0.2-0.2-0.5-0.5-0.5s-0.5,0.2-0.5,0.5v1.4h-1.4
				c-0.2,0-0.5,0.2-0.5,0.5s0.2,0.5,0.5,0.5h1.4v1.4c0,0.2,0.2,0.5,0.5,0.5s0.5-0.2,0.5-0.5v-1.4h1.4c0.2,0,0.5-0.2,0.5-0.5
				S928.5,96.1,928.3,96.1z"/>
			<path id="XMLID_102_" class="st3" d="M934.9,107.5h-1.4v-1.4c0-0.2-0.2-0.5-0.5-0.5s-0.5,0.2-0.5,0.5v1.4h-1.4
				c-0.2,0-0.5,0.2-0.5,0.5c0,0.2,0.2,0.5,0.5,0.5h1.4v1.4c0,0.2,0.2,0.5,0.5,0.5s0.5-0.2,0.5-0.5v-1.4h1.4c0.2,0,0.5-0.2,0.5-0.5
				C935.4,107.7,935.1,107.5,934.9,107.5z"/>
			<circle id="XMLID_252_" class="st5" cx="933" cy="74.2" r="1.1"/>
			<circle id="XMLID_103_" class="st5" cx="936.8" cy="90.7" r="1.1"/>
			<circle id="XMLID_104_" class="st5" cx="929" cy="102.1" r="1.1"/>
			<circle id="XMLID_105_" class="st5" cx="932.5" cy="94.1" r="1.1"/>
			<circle id="XMLID_106_" class="st5" cx="924.6" cy="90.7" r="1.1"/>
			<circle id="XMLID_107_" class="st5" cx="928.5" cy="81.4" r="1.1"/>
			<circle id="XMLID_108_" class="st5" cx="935.7" cy="66.5" r="1.1"/>
			<circle id="XMLID_109_" class="st5" cx="925.4" cy="63.4" r="1.1"/>
			
				<rect id="XMLID_169_" x="922.9" y="75.8" transform="matrix(0.7071 -0.7071 0.7071 0.7071 215.9412 676.6201)" class="st4" width="3.6" height="3.6"/>
			
				<rect id="XMLID_168_" x="930.7" y="58.2" transform="matrix(0.7071 -0.7071 0.7071 0.7071 230.6731 676.9832)" class="st4" width="3.6" height="3.6"/>
			
				<rect id="XMLID_167_" x="934.8" y="96.9" transform="matrix(0.7071 -0.7071 0.7071 0.7071 204.5575 691.2157)" class="st4" width="3.6" height="3.6"/>
			
				<rect id="XMLID_166_" x="927.7" y="85.6" transform="matrix(0.7071 -0.7071 0.7071 0.7071 210.4508 682.8539)" class="st4" width="3.6" height="3.6"/>
		</g>
		<linearGradient id="XMLID_260_" gradientUnits="userSpaceOnUse" x1="930.65" y1="44.912" x2="930.6501" y2="152.9872">
			<stop  offset="0" style="stop-color:#FFFFFF;stop-opacity:0"/>
			<stop  offset="1" style="stop-color:#00E9FF"/>
		</linearGradient>
		<path id="XMLID_239_" class="st78" d="M919.6,116.3c-0.1,1.8,0.9,3.5,3.2,4.8c4.3,2.5,11.4,2.5,15.7,0c2.2-1.3,3.4-3.1,3.2-4.8
			V38.1c0.1-1.8-0.9-3.5-3.2-4.8c-4.3-2.5-11.4-2.5-15.7,0c-2.2,1.3-3.4,3.1-3.2,4.8V116.3z"/>
	</g>
	<g id="XMLID_233_">
		<linearGradient id="XMLID_265_" gradientUnits="userSpaceOnUse" x1="812.4077" y1="64.788" x2="827.8792" y2="-54.432">
			<stop  offset="0" style="stop-color:#0382FF;stop-opacity:0"/>
			<stop  offset="0.6443" style="stop-color:#79A6FE;stop-opacity:0.645"/>
			<stop  offset="0.9989" style="stop-color:#B6B9FE"/>
		</linearGradient>
		<path id="XMLID_237_" class="st79" d="M841.3-6.8L796,19.3c-3.5,2-6.5,7-6.5,11.1v5.4c0,4.1,2.9,5.8,6.5,3.8l33.7-19.5l-2,10.7
			l11.7-16.3l2-1.2c3.5-2,6.5-7,6.5-11.1v-5.4C847.8-7.3,844.9-8.9,841.3-6.8z"/>
		<g id="XMLID_69_">
			<linearGradient id="XMLID_267_" gradientUnits="userSpaceOnUse" x1="824.298" y1="8.4155" x2="764.2922" y2="65.7114">
				<stop  offset="0" style="stop-color:#FFFFFF"/>
				<stop  offset="0.3656" style="stop-color:#E1E9FD;stop-opacity:0.6341"/>
				<stop  offset="0.7632" style="stop-color:#C7D5FB;stop-opacity:0.2363"/>
				<stop  offset="0.9993" style="stop-color:#BDCEFA;stop-opacity:0"/>
			</linearGradient>
			<path id="XMLID_236_" class="st80" d="M840.8,2l-44,25.5c-0.5,0.2-0.8,0-0.8-0.6l0,0c0-0.6,0.4-1.3,0.8-1.6l44-25.5
				c0.5-0.2,0.8,0,0.8,0.6l0,0C841.6,1,841.2,1.8,840.8,2z"/>
			<linearGradient id="XMLID_269_" gradientUnits="userSpaceOnUse" x1="824.9563" y1="9.1048" x2="764.9504" y2="66.4008">
				<stop  offset="0" style="stop-color:#FFFFFF"/>
				<stop  offset="0.3656" style="stop-color:#E1E9FD;stop-opacity:0.6341"/>
				<stop  offset="0.7632" style="stop-color:#C7D5FB;stop-opacity:0.2363"/>
				<stop  offset="0.9993" style="stop-color:#BDCEFA;stop-opacity:0"/>
			</linearGradient>
			<path id="XMLID_235_" class="st81" d="M818.1,20.8l-21.5,12.4c-0.4,0.2-0.7,0-0.7-0.6v-0.2c0-0.6,0.4-1.2,0.7-1.4l21.6-12.4
				c0.4-0.2,0.7,0,0.7,0.6v0.2C818.9,19.9,818.6,20.5,818.1,20.8z"/>
		</g>
	</g>
	<g id="XMLID_204_">
		<g id="XMLID_210_">
			<g id="XMLID_111_">
				<g id="XMLID_112_">
					<g id="XMLID_113_">
						<path id="XMLID_232_" d="M867.2,21.8c0,0.1,0.1,0.4,0.4,0.5c0.1,0,0-0.9,0.2-0.7c0.1,0,3.1,2.3,4.7,2c0.2,0,0.2-0.2,0.2-0.4
							v-0.3c0-0.5-0.6-1.1-1.5-2c-1.1-1.1-1.8-1.6-3.3-0.7c-0.5,0.2-0.6,0.5-0.6,0.6L867.2,21.8z"/>
						<path id="XMLID_231_" class="st82" d="M871,20.8c1.3,1.3,2,2,1.3,2.3c-0.7,0.4-2-0.2-3.3-1.2c-1.2-0.9-2.9-0.9-1.3-1.9
							C869.4,19,870,19.7,871,20.8z"/>
					</g>
				</g>
				<path id="XMLID_114_" class="st83" d="M869.8,20.1l-0.1-9.7c0-0.5-0.4-0.9-0.7-1.1l-0.8-0.4L865,11l1.5,0.8c0,0-0.2,2.7,0.5,5.3
					c0,0,0.6,1.1,0.5,3.6C867.5,20.8,869.2,21.2,869.8,20.1z"/>
			</g>
			<g id="XMLID_115_">
				<g id="XMLID_116_">
					<g id="XMLID_117_">
						<path id="XMLID_226_" d="M862.5,24.2c0,0.1,0.1,0.4,0.4,0.5c0.1,0,0-0.9,0.2-0.7c0.1,0,3.1,2.3,4.7,2c0.2,0,0.2-0.2,0.2-0.4
							v-0.4c0-0.5-0.6-1.1-1.5-2c-1.1-1.1-1.8-1.6-3.3-0.7c-0.5,0.2-0.6,0.5-0.6,0.6L862.5,24.2z"/>
						<path id="XMLID_225_" class="st82" d="M866.3,23c1.3,1.3,2,2,1.3,2.3c-0.7,0.4-2-0.2-3.3-1.2c-1.2-0.9-2.9-0.9-1.3-1.9
							C864.7,21.4,865.3,22.1,866.3,23z"/>
					</g>
				</g>
				<path id="XMLID_118_" class="st83" d="M865.1,22.4L865,11l-3.8,1.2l0.7,1.9c0,0-0.2,2.5,0.5,5c0,0,0.6,1.1,0.5,3.6
					C862.8,22.8,864.1,23.6,865.1,22.4z"/>
			</g>
			<path id="XMLID_119_" class="st84" d="M861.8-0.6c0,0,4.2-3.9,1.6-10.7l-2,7L861.8-0.6z"/>
			<g id="XMLID_120_">
				<path id="XMLID_219_" class="st83" d="M866.7,8.7L866.7,8.7c-0.7,0.2-1.3-0.2-1.5-0.8l-3.4-11.5c-0.2-0.7,0.2-1.3,0.8-1.5l0,0
					c0.7-0.2,1.3,0.2,1.5,0.8l3.4,11.5C867.8,7.9,867.4,8.6,866.7,8.7z"/>
			</g>
			<path id="XMLID_121_" class="st85" d="M863.3,5.6l5.8,3.5c0,0-2-0.5-7.2,4.9l-5.6-3.2L863.3,5.6z"/>
			<path id="XMLID_216_" class="st86" d="M857,11.4L857,11.4c0.9,0.1,3.9-0.6,6.9-4c0.2-0.2,0.4-0.7,0.4-0.9v-9.6
				c0-0.7-0.2-1.2-0.7-1.4l-2.2-1.3C861-6,860.5-6,859.8-5.7l-3.1,1.8c-1.3,0.7-2.2,2.5-2.2,3.9v9.6c0,0.2,0.1,0.4,0.2,0.5L857,11.4
				z"/>
			<path id="XMLID_215_" class="st51" d="M857.3-3.3c0,0.2,0.1,0.5,0.5,0.7c0.6,0.4,1.6,0.4,2.2,0c0.4-0.2,0.5-0.5,0.5-0.7v-2.1
				c0-0.2-0.1-0.5-0.5-0.7c-0.6-0.4-1.6-0.4-2.2,0c-0.4,0.2-0.5,0.5-0.5,0.7V-3.3z"/>
			<circle id="XMLID_214_" class="st83" cx="859" cy="-8.7" r="4.3"/>
			<path id="XMLID_122_" class="st87" d="M860.2-0.6c0,0-3.3-3.5-0.9-10.2l4,1.4c0,0,1.4-3.4-3.2-4.5c0,0-3.1-0.7-4.1,1.9
				c0,0-2.5,0.2-1.5,5.3C854.5-6.8,854.6-2,860.2-0.6z"/>
			<path id="XMLID_123_" class="st88" d="M855.9-3.2"/>
			<path id="XMLID_124_" class="st89" d="M861.9,14.1"/>
		</g>
		<g id="XMLID_207_">
			<polygon id="XMLID_209_" class="st34" points="870.8,8.7 862.6,13.4 856.3,10 864.7,5.2 			"/>
			<linearGradient id="XMLID_271_" gradientUnits="userSpaceOnUse" x1="874.0841" y1="-1.6567" x2="861.9201" y2="13.1516">
				<stop  offset="0" style="stop-color:#FFFFFF"/>
				<stop  offset="0.5824" style="stop-color:#DAE4FC"/>
				<stop  offset="0.9993" style="stop-color:#BDCEFA"/>
			</linearGradient>
			<polygon id="XMLID_208_" class="st90" points="870.8,8.7 872.1,0.5 862.9,5.6 862.6,13.4 			"/>
		</g>
		<g id="XMLID_110_">
			<path id="XMLID_206_" class="st83" d="M864.2,9L864.2,9c-0.5,0.5-1.3,0.4-1.8-0.1l-7.7-9c-0.5-0.5-0.4-1.3,0.1-1.8l0,0
				c0.5-0.5,1.3-0.4,1.8,0.1l7.7,9C864.8,7.7,864.7,8.6,864.2,9z"/>
		</g>
	</g>
	<g id="XMLID_165_">
		<g id="XMLID_125_">
			<g id="XMLID_126_">
				<g id="XMLID_127_">
					<g id="XMLID_128_">
						<path id="XMLID_203_" class="st91" d="M928.2,17c-0.1,0.1-0.2,0.2-0.2,0.5c0,0.1,0.7-0.5,0.7-0.1c0,0.1-0.6,3.8,0.6,4.9
							c0.1,0.1,0.4,0.1,0.5,0l0.4-0.2c0.4-0.2,0.6-1.1,0.9-2.2c0.4-1.4,0.6-2.2-0.9-3.2c-0.5-0.2-0.7-0.4-0.8-0.2L928.2,17z"/>
						<path id="XMLID_202_" class="st82" d="M931,19.8c-0.5,1.6-0.7,2.6-1.4,2.2c-0.6-0.4-0.8-1.8-0.6-3.4c0.2-1.4-0.6-2.9,0.9-2
							C931.6,17.6,931.4,18.4,931,19.8z"/>
					</g>
				</g>
				<path id="XMLID_199_" class="st92" d="M940.8,9.1l-3.2,1.2l-1.3,1.4c0,0-2.2,0.9-4,2.8c0,0-0.7,0.9-2.9,2.1c0,0,0,1.5,1.4,1.8
					l8.9-5.2c0.6-0.4,1.1-0.9,1.1-1.8C940.9,11,940.9,10.2,940.8,9.1z"/>
			</g>
		</g>
		<g id="XMLID_129_">
			<g id="XMLID_130_">
				<g id="XMLID_131_">
					<path id="XMLID_196_" class="st48" d="M934.2,24.9c0,0.1,0.1,0.4,0.4,0.5c0.1,0,0-0.8,0.2-0.7c0.1,0,2.9,2.3,4.6,1.9
						c0.2,0,0.2-0.2,0.2-0.4v-0.4c0-0.4-0.6-1.1-1.5-2c-1.1-0.9-1.6-1.6-3.2-0.7c-0.5,0.2-0.6,0.5-0.6,0.6L934.2,24.9z"/>
					<path id="XMLID_195_" class="st82" d="M938.1,23.8c1.3,1.2,1.9,1.9,1.3,2.2c-0.6,0.4-1.9-0.2-3.2-1.2c-1.2-0.8-2.8-0.9-1.3-1.9
						C936.4,22.2,937,22.8,938.1,23.8z"/>
				</g>
			</g>
			<path id="XMLID_192_" class="st83" d="M936.8,23.2l-0.1-11.1l-3.1,0.9v2c0,0-0.2,2.5,0.5,4.8c0,0,0.5,1.1,0.5,3.5
				C934.5,23.6,935.9,24.3,936.8,23.2z"/>
		</g>
		<g id="XMLID_132_">
			<path id="XMLID_190_" class="st92" d="M945,7.6L945,7.6c-0.6,0.2-1.3,0-1.6-0.6l-4.8-10.6c-0.2-0.6,0-1.3,0.6-1.6l0,0
				c0.6-0.2,1.3,0,1.6,0.6L945.6,6C945.9,6.7,945.6,7.4,945,7.6z"/>
		</g>
		<g id="XMLID_181_">
			<polygon id="XMLID_188_" class="st34" points="945.5,6.4 938.1,2.2 938.1,-3.9 945.5,0.5 			"/>
			<g id="XMLID_134_">
				<linearGradient id="XMLID_273_" gradientUnits="userSpaceOnUse" x1="944.487" y1="-0.4871" x2="942.9272" y2="5.632">
					<stop  offset="0" style="stop-color:#FFFFFF"/>
					<stop  offset="0.3656" style="stop-color:#E1E9FD;stop-opacity:0.6341"/>
					<stop  offset="0.7632" style="stop-color:#C7D5FB;stop-opacity:0.2363"/>
					<stop  offset="0.9993" style="stop-color:#BDCEFA;stop-opacity:0"/>
				</linearGradient>
				<polygon id="XMLID_187_" class="st93" points="943.6,4.8 943.6,0.3 943.8,0.3 943.8,4.9 				"/>
				<linearGradient id="XMLID_275_" gradientUnits="userSpaceOnUse" x1="943.9548" y1="-0.6227" x2="942.395" y2="5.4963">
					<stop  offset="0" style="stop-color:#FFFFFF"/>
					<stop  offset="0.3656" style="stop-color:#E1E9FD;stop-opacity:0.6341"/>
					<stop  offset="0.7632" style="stop-color:#C7D5FB;stop-opacity:0.2363"/>
					<stop  offset="0.9993" style="stop-color:#BDCEFA;stop-opacity:0"/>
				</linearGradient>
				<polygon id="XMLID_186_" class="st94" points="943.2,3.3 943.2,0.1 943.5,0.2 943.5,3.4 				"/>
				<linearGradient id="XMLID_278_" gradientUnits="userSpaceOnUse" x1="943.698" y1="-0.6882" x2="942.1382" y2="5.4308">
					<stop  offset="0" style="stop-color:#FFFFFF"/>
					<stop  offset="0.3656" style="stop-color:#E1E9FD;stop-opacity:0.6341"/>
					<stop  offset="0.7632" style="stop-color:#C7D5FB;stop-opacity:0.2363"/>
					<stop  offset="0.9993" style="stop-color:#BDCEFA;stop-opacity:0"/>
				</linearGradient>
				<polygon id="XMLID_185_" class="st95" points="942.9,4.1 942.9,-0.1 943.1,0 943.1,4.2 				"/>
				<linearGradient id="XMLID_285_" gradientUnits="userSpaceOnUse" x1="943.3455" y1="-0.7781" x2="941.7856" y2="5.341">
					<stop  offset="0" style="stop-color:#FFFFFF"/>
					<stop  offset="0.3656" style="stop-color:#E1E9FD;stop-opacity:0.6341"/>
					<stop  offset="0.7632" style="stop-color:#C7D5FB;stop-opacity:0.2363"/>
					<stop  offset="0.9993" style="stop-color:#BDCEFA;stop-opacity:0"/>
				</linearGradient>
				<polygon id="XMLID_184_" class="st96" points="942.5,4.2 942.5,-0.4 942.8,-0.2 942.8,4.3 				"/>
				<linearGradient id="XMLID_290_" gradientUnits="userSpaceOnUse" x1="942.6218" y1="-0.9625" x2="941.0621" y2="5.1565">
					<stop  offset="0" style="stop-color:#FFFFFF"/>
					<stop  offset="0.3656" style="stop-color:#E1E9FD;stop-opacity:0.6341"/>
					<stop  offset="0.7632" style="stop-color:#C7D5FB;stop-opacity:0.2363"/>
					<stop  offset="0.9993" style="stop-color:#BDCEFA;stop-opacity:0"/>
				</linearGradient>
				<polygon id="XMLID_183_" class="st97" points="942.2,1.2 942.2,-0.6 942.4,-0.5 942.4,1.2 				"/>
			</g>
		</g>
		<linearGradient id="XMLID_291_" gradientUnits="userSpaceOnUse" x1="931.7379" y1="9.6534" x2="941.0517" y2="9.6534">
			<stop  offset="7.043800e-002" style="stop-color:#8347E2"/>
			<stop  offset="0.2746" style="stop-color:#773BD1"/>
			<stop  offset="0.6762" style="stop-color:#591CA6"/>
			<stop  offset="0.9996" style="stop-color:#3D007E"/>
		</linearGradient>
		<path id="XMLID_180_" class="st98" d="M931.7,9.5v4.1c0,0,4.8,1.6,9.3-4.1v-4L931.7,9.5z"/>
		<path id="XMLID_179_" class="st99" d="M933.9,10.8L933.9,10.8c0.9,0.1,3.9-0.6,6.7-3.9c0.2-0.2,0.4-0.6,0.4-0.9v-9.2
			c0-0.7-0.2-1.2-0.7-1.4l-2.2-1.3c-0.4-0.2-0.9-0.2-1.5,0.1L933.7-4c-1.2,0.7-2.2,2.3-2.2,3.8v9.3c0,0.2,0.1,0.4,0.2,0.5
			L933.9,10.8z"/>
		<path id="XMLID_178_" class="st51" d="M934.8-3.4c0,0.2,0.1,0.5,0.5,0.6c0.6,0.4,1.5,0.4,2.1,0c0.4-0.1,0.5-0.4,0.5-0.6v-2
			c0-0.2-0.1-0.5-0.5-0.6c-0.6-0.4-1.5-0.4-2.1,0c-0.4,0.1-0.5,0.4-0.5,0.6V-3.4z"/>
		<g id="XMLID_133_">
			<path id="XMLID_177_" class="st100" d="M926.6,9.9L926.6,9.9c-0.6-0.4-0.8-1.1-0.6-1.6L931.3-2c0.4-0.6,1.1-0.8,1.6-0.6l0,0
				c0.6,0.4,0.8,1.1,0.6,1.6l-5.3,10.3C927.8,9.9,927.1,10.1,926.6,9.9z"/>
		</g>
		<g id="XMLID_135_">
			<path id="XMLID_175_" class="st48" d="M940.2-9.9l1.5,5.9c0.1,0.6-0.4,1.1-0.9,0.8l-3.5-1.4c-0.4-0.1-0.5-0.5-0.4-0.8l1.2-5.8
				c0.1-0.6,0.9-0.7,1.3-0.2L940.2-9.9C940.2-10,940.2-9.9,940.2-9.9z"/>
			<path id="XMLID_174_" class="st100" d="M934.9-6.2c0,0.5-0.4,0.7-0.8,0.5c-0.5-0.2-0.8-0.8-0.8-1.4c0-0.5,0.4-0.7,0.8-0.5
				S934.9-6.8,934.9-6.2z"/>
			<circle id="XMLID_173_" class="st100" cx="936.3" cy="-8.7" r="4.2"/>
			<path id="XMLID_172_" class="st48" d="M932.2-8.1c0,0,3.5,2,5.3-3.2c0,0,0.9,2.1,3.3,1.6c0,0,0-3.4-3.4-4
				C937.2-13.6,931.1-14.2,932.2-8.1z"/>
			<path id="XMLID_171_" class="st48" d="M934.2-8l1.5,5.9c0.1,0.6-0.4,1.1-0.9,0.8l-3.5-1.4c-0.4-0.1-0.5-0.5-0.4-0.8l1.2-5.8
				c0.1-0.6,0.9-0.7,1.3-0.2l0.8,1.4C934.1-8.1,934.1-8,934.2-8z"/>
		</g>
	</g>
	<g id="XMLID_140_">
		<g id="XMLID_162_">
			<path id="XMLID_164_" class="st49" d="M958.5,82.5L958.5,82.5c0.6,0.2,1.3,0,1.5-0.6l3.8-8.2c0.2-0.6,0-1.3-0.6-1.5l0,0
				c-0.6-0.2-1.3,0-1.5,0.6l-3.8,8.2C957.7,81.6,957.9,82.3,958.5,82.5z"/>
			<path id="XMLID_163_" class="st34" d="M960.5,73.7l1.2-2.7c0.4-0.9,1.5-1.3,2.3-0.9l0,0c0.9,0.4,1.3,1.5,0.9,2.3l-1.2,2.7
				C963.8,75.2,961.9,76.3,960.5,73.7z"/>
		</g>
		<g id="XMLID_154_">
			<g id="XMLID_137_">
				<path id="XMLID_161_" class="st101" d="M965.9,82.6c0,0.1,0.1,0.2,0.1,0.4v4c0,0.8-0.8,1.4-1.8,1.4l0,0c-0.9,0-1.8-0.6-1.8-1.4
					v-5c0-0.2,0.1-0.4,0.4-0.5C963.4,81.2,965,81,965.9,82.6z"/>
			</g>
			<g id="XMLID_155_">
				<g id="XMLID_139_">
					<path id="XMLID_159_" class="st91" d="M974.2,90.4c0.5,0.2,0.1,1.4,0.1,2.6c0,1.6-0.4,3.2-1.1,3.6c-0.2,0.1-0.4,0.1-0.5,0
						l-0.7-0.4c-0.5-0.2-0.7-1.2-1.1-2.6c-0.5-1.5-0.7-2.6,1.1-3.6c0.5-0.4,0.8-0.4,0.9-0.2L974.2,90.4z"/>
					<path id="XMLID_158_" class="st102" d="M971,93.6c0.5,1.9,0.8,2.9,1.5,2.6c0.7-0.5,0.8-2,0.6-3.9c-0.2-1.6,0.6-3.4-1.2-2.3
						C970.3,91.1,970.6,92.1,971,93.6z"/>
				</g>
				<path id="XMLID_156_" class="st101" d="M970.7,92.2c-0.1,0-0.2,0-0.4-0.1l-7.2-4c-0.7-0.4-0.8-1.4-0.4-2.2l0,0
					c0.5-0.8,1.4-1.3,2.1-0.8l8.1,4.5c0.1,0.1,0.2,0.2,0.2,0.5C973,90.7,972.4,92.2,970.7,92.2z"/>
			</g>
		</g>
		<g id="XMLID_149_">
			<g id="XMLID_138_">
				<path id="XMLID_153_" class="st91" d="M969.5,98.1c0,0.5-1.2,0.8-2.2,1.4c-1.4,0.8-2.9,1.3-3.6,0.8c-0.2-0.1-0.2-0.2-0.2-0.4
					v-0.8c0-0.5,0.7-1.2,1.8-2.2c1.2-1.2,1.9-1.9,3.6-0.8c0.5,0.2,0.7,0.5,0.7,0.7L969.5,98.1z"/>
				<path id="XMLID_152_" class="st102" d="M965.2,96.8c-1.4,1.4-2.2,2.2-1.4,2.6c0.7,0.5,2.2-0.2,3.6-1.3c1.3-0.9,3.2-1.1,1.4-2.1
					C967,95.1,966.3,95.8,965.2,96.8z"/>
			</g>
			<path id="XMLID_150_" class="st103" d="M966.3,95.9c0-0.1-0.1-0.2-0.1-0.4V83.3c0-0.8,0.8-1.4,1.8-1.4l0,0c0.9,0,1.8,0.6,1.8,1.4
				v13.3c0,0.2-0.1,0.4-0.4,0.5C968.8,97.2,967.2,97.5,966.3,95.9z"/>
		</g>
		<path id="XMLID_148_" class="st23" d="M969.2,85.5L969.2,85.5c-0.9,0.1-3.6-0.6-6.4-3.8c-0.2-0.2-0.4-0.6-0.4-0.9v-8.9
			c0-0.7,0.2-1.2,0.6-1.4l2.1-1.2c0.4-0.2,0.9-0.2,1.5,0.1l2.8,1.6c1.2,0.7,2.1,2.3,2.1,3.6v9c0,0.2-0.1,0.4-0.2,0.5L969.2,85.5z"/>
		<path id="XMLID_147_" class="st104" d="M968.3,71.8c0,0.2-0.1,0.5-0.5,0.6c-0.6,0.4-1.5,0.4-2.1,0c-0.4-0.1-0.5-0.4-0.5-0.6v-2
			c0-0.2,0.1-0.5,0.5-0.6c0.6-0.4,1.5-0.4,2.1,0c0.4,0.1,0.5,0.4,0.5,0.6V71.8z"/>
		<g id="XMLID_144_">
			<path id="XMLID_146_" class="st49" d="M976.3,84.6L976.3,84.6c0.6-0.2,0.8-0.9,0.5-1.5l-4.1-8.1c-0.2-0.6-0.9-0.8-1.5-0.5l0,0
				c-0.6,0.2-0.8,0.9-0.5,1.5l4.1,8.1C975,84.6,975.7,84.8,976.3,84.6z"/>
			<path id="XMLID_145_" class="st34" d="M970.7,77.6l-1.3-2.6c-0.5-0.9-0.1-2,0.8-2.5l0,0c0.9-0.5,2-0.1,2.5,0.8l1.3,2.6
				C973.9,75.9,973.5,77.9,970.7,77.6z"/>
		</g>
		<circle id="XMLID_143_" class="st49" cx="966.8" cy="66.8" r="4.1"/>
		<path id="XMLID_142_" class="st105" d="M970.2,61.8c3.5,1.2,1.8,6.3-0.8,8.1c-1.3-0.7,0.2-1.9-1.4-1.1c-0.4-1.6,0.5-1.2,0-3.2
			c-1.8,0.9-5.3-0.2-5.8-1.9c0.6-0.2,1.3-2,2.7-2.7C966.8,60.3,969.2,60.8,970.2,61.8z"/>
		<path id="XMLID_141_" class="st49" d="M968.2,69c0,0.5,0.4,0.7,0.8,0.5s0.8-0.8,0.8-1.3s-0.4-0.7-0.8-0.5
			C968.6,67.9,968.2,68.5,968.2,69z"/>
	</g>
	<rect id="XMLID_136_" x="764.8" y="-144.6" class="st106" width="310.1" height="310.1"/>
</g>
</svg>
