<?xml version="1.0" encoding="utf-8"?>
<!-- Generator: Adobe Illustrator 19.0.0, SVG Export Plug-In . SVG Version: 6.00 Build 0)  -->
<svg version="1.1" id="Layer_1" xmlns="http://www.w3.org/2000/svg" xmlns:xlink="http://www.w3.org/1999/xlink" x="0px" y="0px"
	 viewBox="128.4 -118.2 800 800" style="enable-background:new 128.4 -118.2 800 800;" xml:space="preserve">
<style type="text/css">
	.st0{opacity:0.75;}
	.st1{fill:#BEDAFF;}
	.st2{fill:#00E9FF;}
	.st3{fill:#3A55CA;}
	.st4{fill:#0382FF;}
	.st5{fill:#C3E0FE;}
	.st6{fill:url(#XMLID_2_);}
	.st7{fill:url(#XMLID_9_);}
	.st8{fill:url(#XMLID_10_);}
	.st9{fill:url(#XMLID_17_);}
	.st10{fill:url(#XMLID_18_);}
	.st11{fill:url(#XMLID_19_);}
	.st12{fill:url(#XMLID_27_);}
	.st13{fill:url(#XMLID_28_);}
	.st14{fill:url(#XMLID_151_);}
	.st15{fill:#A9BDEA;}
	.st16{fill:url(#XMLID_157_);}
	.st17{fill:url(#XMLID_160_);}
	.st18{fill:#A3B9E8;}
	.st19{fill:#7B97C9;}
	.st20{fill:#90A9D6;}
	.st21{opacity:0.32;}
	.st22{fill:#FFFFFF;}
	.st23{display:none;fill:url(#XMLID_170_);}
	.st24{fill:url(#XMLID_176_);}
	.st25{fill:url(#XMLID_182_);}
	.st26{fill:#2645B5;}
	.st27{fill:#335185;}
	.st28{fill:#9CC0E8;}
	.st29{fill:url(#XMLID_189_);}
	.st30{fill:url(#XMLID_191_);}
	.st31{fill:url(#XMLID_193_);}
	.st32{fill:url(#XMLID_194_);}
	.st33{fill:#BDCEFA;}
	.st34{fill:url(#XMLID_197_);}
	.st35{fill:url(#XMLID_198_);}
	.st36{fill:url(#XMLID_200_);}
	.st37{fill:url(#XMLID_201_);}
	.st38{fill:url(#XMLID_205_);}
	.st39{fill:url(#XMLID_211_);}
	.st40{fill:url(#XMLID_212_);}
	.st41{fill:url(#XMLID_213_);}
	.st42{fill:url(#XMLID_217_);}
	.st43{fill:url(#XMLID_218_);}
	.st44{fill:url(#XMLID_220_);}
	.st45{fill:url(#XMLID_221_);}
	.st46{fill:url(#XMLID_222_);}
	.st47{fill:#2D0D60;}
	.st48{fill:#FCC4B7;}
	.st49{fill:#293677;}
	.st50{fill:#DD936F;}
	.st51{fill:#6BD8DD;}
	.st52{fill:#FEFEFE;}
	.st53{fill:url(#XMLID_223_);}
	.st54{fill:url(#XMLID_224_);}
	.st55{fill:url(#XMLID_227_);}
	.st56{fill:url(#XMLID_228_);}
	.st57{fill:url(#XMLID_229_);}
	.st58{fill:url(#XMLID_230_);}
	.st59{fill:url(#XMLID_234_);}
	.st60{fill:url(#XMLID_241_);}
	.st61{fill:url(#XMLID_242_);}
	.st62{fill:url(#XMLID_243_);}
	.st63{fill:url(#XMLID_244_);}
	.st64{fill:url(#XMLID_245_);}
	.st65{fill:url(#XMLID_246_);}
	.st66{fill:url(#XMLID_247_);}
	.st67{fill:url(#XMLID_248_);}
	.st68{fill:url(#XMLID_249_);}
	.st69{fill:url(#XMLID_250_);}
	.st70{fill:url(#XMLID_251_);}
	.st71{fill:url(#XMLID_253_);}
	.st72{fill:url(#XMLID_254_);}
	.st73{fill:url(#XMLID_255_);}
	.st74{fill:url(#XMLID_256_);}
	.st75{fill:url(#XMLID_258_);}
	.st76{fill:url(#XMLID_259_);}
	.st77{fill:url(#XMLID_260_);}
	.st78{fill:url(#XMLID_265_);}
	.st79{fill:url(#XMLID_267_);}
	.st80{fill:url(#XMLID_269_);}
	.st81{fill:#484968;}
	.st82{fill:#F1AC85;}
	.st83{fill:#943BBB;}
	.st84{fill:#B04EDD;}
	.st85{fill:#FFFFEB;}
	.st86{fill:#AE7BC9;}
	.st87{fill:#1F1F1F;}
	.st88{fill:#54A5F8;}
	.st89{fill:url(#XMLID_271_);}
	.st90{fill:#010400;}
	.st91{fill:#E28C66;}
	.st92{fill:url(#XMLID_273_);}
	.st93{fill:url(#XMLID_275_);}
	.st94{fill:url(#XMLID_278_);}
	.st95{fill:url(#XMLID_285_);}
	.st96{fill:url(#XMLID_290_);}
	.st97{fill:url(#XMLID_291_);}
	.st98{fill:#B6B9FE;}
	.st99{fill:#F9AB83;}
	.st100{fill:#2D2D4F;}
	.st101{fill:#1C1C38;}
	.st102{fill:#46466C;}
	.st103{fill:#E5A89C;}
	.st104{fill:#1773BF;}
	.st105{fill:none;}
</style>
<g>
	<g id="XMLID_495_" class="st0">
		<g id="XMLID_3_">
			<path id="XMLID_501_" class="st1" d="M652.5,281.2l-6.7,3.8c-3.5,2-3.5,5.2,0,7.2l6.7,3.8c3.5,2,9.3,2,12.5,0l6.7-3.8
				c3.5-2,3.5-5.2,0-7.2l-6.7-3.8C661.2,279.2,655.7,279.2,652.5,281.2z"/>
			<path id="XMLID_500_" class="st1" d="M649.1,348.5L649.1,348.5c3.5,2,3.5,5.2,0,7.2l-4.6,2.6c-3.5,2-3.5,5.2,0,7.2l6.7,3.8
				c3.5,2,9.3,2,12.5,0l6.7-3.8c3.5-2,3.5-5.2,0-7.2l-5.2-3.2c-3.5-2-3.5-5.2,0-7.2l23.8-13.9c3.5-2,9.3-2,12.5,0l1.7,1.2
				c3.5,2,9.3,2,12.5,0l6.7-3.8c3.5-2,3.5-5.2,0-7.2l-6.7-3.8c-3.5-2-9.3-2-12.5,0l-4.1,2.3c-3.5,2-9.3,2-12.5,0l-23.8-13.3
				c-3.5-2-9.3-2-12.5,0l-9.3,5.2c-3.5,2-9.3,2-12.5,0l-6.1-3.8c-3.5-2-9.3-2-12.5,0l-6.7,3.8c-3.5,2-3.5,5.2,0,7.2l6.1,3.8
				c3.5,2,3.5,5.2,0,7.2l-9.6,5.5c-3.5,2-3.5,5.2,0,7.2l14.2,8.1c3.5,2,9.3,2,12.5,0l9.6-5.5C639.8,347,645.3,347,649.1,348.5z"/>
		</g>
		<g id="XMLID_4_">
			<path id="XMLID_498_" class="st1" d="M237.4,600.1l7.2-4.1c3.8-2,3.8-5.8,0-7.8l-7.2-4.1c-3.8-2-9.9-2-13.6,0l-7.2,4.1
				c-3.8,2-3.8,5.8,0,7.8l7.2,4.1C227.5,602.5,233.6,602.5,237.4,600.1z"/>
			<path id="XMLID_497_" class="st1" d="M241.2,526.2L241.2,526.2c-3.8-2-3.8-5.8,0-7.8l5.2-3.2c3.8-2,3.8-5.8,0-7.8l-7.2-4.1
				c-3.8-2-9.9-2-13.6,0l-7.2,4.1c-3.8,2-3.8,5.8,0,7.8l5.5,3.2c3.8,2,3.8,5.8,0,7.8l-26.1,15.1c-3.8,2-9.9,2-13.6,0l-1.7-1.2
				c-3.8-2-9.9-2-13.6,0l-7.2,4.1c-3.8,2-3.8,5.8,0,7.8l7.2,4.1c3.8,2,9.9,2,13.6,0l4.6-2.6c3.8-2,9.9-2,13.6,0l25.5,14.5
				c3.8,2,9.9,2,13.6,0l9.9-5.8c3.8-2,9.9-2,13.6,0l6.7,3.8c3.8,2,9.9,2,13.6,0l7.2-4.1c3.8-2,3.8-5.8,0-7.8l-6.7-3.8
				c-3.8-2-3.8-5.8,0-7.8l10.4-6.1c3.8-2,3.8-5.8,0-7.8l-15.7-9c-3.8-2-9.9-2-13.6,0l-10.4,6.1C251,528.5,244.9,528.5,241.2,526.2z"
				/>
		</g>
	</g>
	<g id="XMLID_478_">
		<g id="XMLID_487_">
			<path id="XMLID_6_" class="st2" d="M259.1,180.1c-7.5,4.3-13.6,14.5-13.6,23.5s6.1,11.9,13.6,7.8c7.5-4.3,13.6-14.5,13.6-23.5
				C272.5,179.5,266.7,175.7,259.1,180.1z M259.1,206.2c-4.6,2.6-9,0.6-9-5.2s4.1-12.5,9-15.4c4.6-2.6,9-0.6,9,5.2
				C267.8,196.3,263.8,203,259.1,206.2z"/>
			<path id="XMLID_491_" class="st3" d="M253.3,238c0,4.6-3.5,10.4-7.5,12.5c-4.1,2.3-7.5,0.3-7.5-4.1s3.5-10.4,7.5-12.5
				C249.9,231.7,253.3,233.4,253.3,238z"/>
			<path id="XMLID_490_" class="st3" d="M261.2,151.4c0,4.6-3.5,10.4-7.5,12.5c-4.1,2.3-7.5,0.3-7.5-4.1c0-4.3,3.5-10.4,7.5-12.5
				C257.7,144.7,261.2,146.4,261.2,151.4z"/>
			
				<rect id="XMLID_489_" x="214.7" y="215.8" transform="matrix(-0.5 0.866 -0.866 -0.5 530.07 137.7081)" class="st4" width="21.2" height="12.2"/>
			<path id="XMLID_488_" class="st5" d="M229.6,177.4l-6.1,3.5v-7.2c0-1.4-1.2-1.7-2-1.2c-1.2,0.6-2,2.3-2,3.5v7.2l-6.1,3.5
				c-1.2,0.6-2,2.3-2,3.5c0,1.4,1.2,1.7,2,1.2l6.1-3.5v7.2c0,1.4,1.2,1.7,2,1.2c1.2-0.6,2-2.3,2-3.5v-7.2l6.1-3.5
				c1.2-0.6,2-2.3,2-3.5C231.6,177.4,230.4,176.9,229.6,177.4z"/>
		</g>
		<g id="XMLID_479_">
			<path id="XMLID_7_" class="st1" d="M566.4,53.7c-7.5,4.3-13.6,14.5-13.6,23.5c0,8.4,6.1,11.9,13.6,7.8
				c7.5-4.3,13.6-14.5,13.6-23.5C579.8,52.5,574,49.3,566.4,53.7z M566.4,79.2c-4.6,2.6-9,0.6-9-5.2c0-5.8,4.1-12.5,9-15.4
				c4.6-2.6,9-0.6,9,5.2C575.4,69.6,571.1,76.3,566.4,79.2z"/>
			<path id="XMLID_483_" class="st2" d="M556.6,102.9c0,4.6-3.5,10.4-7.5,12.5c-4.1,2.3-7.5,0.3-7.5-4.1s3.5-10.4,7.5-12.5
				C553.1,96.3,556.6,98.3,556.6,102.9z"/>
			<path id="XMLID_482_" class="st3" d="M567.3,23.8c0,4.6-3.5,10.4-7.5,12.5c-4.1,2.3-7.5,0.3-7.5-4.1c0-4.6,3.5-10.4,7.5-12.5
				C564.1,17.1,567.3,18.9,567.3,23.8z"/>
			
				<rect id="XMLID_481_" x="517.7" y="80.6" transform="matrix(-0.5 0.866 -0.866 -0.5 867.442 -327.491)" class="st4" width="21.2" height="12.2"/>
			<path id="XMLID_480_" class="st5" d="M542.7,41.8l-6.1,3.5V38c0-1.4-1.2-1.7-2-1.2c-1.2,0.6-2,2.3-2,3.5v7.2l-6.1,3.5
				c-1.2,0.6-2,2.3-2,3.5c0,1.2,1.2,1.7,2,1.2l6.1-3.5v7.2c0,1.4,1.2,1.7,2,1.2c1.2-0.6,2-2.3,2-3.5v-7.2l6.1-3.5
				c1.2-0.6,2-2.3,2-3.5C544.7,41.8,543.8,40.9,542.7,41.8z"/>
		</g>
	</g>
	<g id="XMLID_458_">
		
			<linearGradient id="XMLID_2_" gradientUnits="userSpaceOnUse" x1="483.7184" y1="539.6979" x2="926.1572" y2="274.4937" gradientTransform="matrix(1 0 0 1 0 -220.9231)">
			<stop  offset="0" style="stop-color:#E4F2FF;stop-opacity:0"/>
			<stop  offset="5.554383e-002" style="stop-color:#E1EFFF;stop-opacity:5.558312e-002"/>
			<stop  offset="0.6478" style="stop-color:#C7D7FB;stop-opacity:0.6483"/>
			<stop  offset="0.9993" style="stop-color:#BDCEFA"/>
		</linearGradient>
		<path id="XMLID_471_" class="st6" d="M871.4,345.3L639.5,211.4c-8.4-5.2-13.9-13.9-13.9-24.1V-26.1c0-21.5,23.2-34.8,41.5-24.1
			L899.5,83.8c8.4,5.2,13.9,13.9,13.9,24.1v213.4C913.5,342.4,890.3,355.7,871.4,345.3z"/>
		<g id="XMLID_459_">
			
				<linearGradient id="XMLID_9_" gradientUnits="userSpaceOnUse" x1="1018.0932" y1="240.0638" x2="337.3815" y2="592.0225" gradientTransform="matrix(1 0 0 1 0 -220.9231)">
				<stop  offset="0" style="stop-color:#FFFFFF"/>
				<stop  offset="0.3656" style="stop-color:#E1E9FD;stop-opacity:0.6341"/>
				<stop  offset="0.7632" style="stop-color:#C7D5FB;stop-opacity:0.2363"/>
				<stop  offset="0.9993" style="stop-color:#BDCEFA;stop-opacity:0"/>
			</linearGradient>
			<path id="XMLID_468_" class="st7" d="M885.6,339.8c-3.2,0-6.1-0.6-9.3-2.3L643.8,203.5c-5.8-3.5-9.3-9.6-9.3-15.9V-25.8
				c0-11.6,9.6-18.3,18.3-18.3c3.2,0,6.1,0.6,9.3,2.3L894.6,92.2c5.8,3.5,9.3,9.6,9.3,15.9v213.1
				C903.9,332.5,894.3,339.8,885.6,339.8z M653.1-42.9c-8.1,0-16.8,6.4-16.8,16.8v213.4c0,5.8,3.2,11.6,8.1,14.2L877.2,336
				c2.6,1.4,5.5,2.3,8.1,2.3c8.1,0,16.8-6.4,16.8-16.8V108.2c0-5.8-3.2-11.6-8.1-14.2L661.5-40.6C658.9-42.3,656.3-42.9,653.1-42.9z
				"/>
			<g id="XMLID_460_">
				
					<linearGradient id="XMLID_10_" gradientUnits="userSpaceOnUse" x1="987.4252" y1="180.7501" x2="306.7134" y2="532.7088" gradientTransform="matrix(1 0 0 1 0 -220.9231)">
					<stop  offset="0" style="stop-color:#FFFFFF"/>
					<stop  offset="0.3656" style="stop-color:#E1E9FD;stop-opacity:0.6341"/>
					<stop  offset="0.7632" style="stop-color:#C7D5FB;stop-opacity:0.2363"/>
					<stop  offset="0.9993" style="stop-color:#BDCEFA;stop-opacity:0"/>
				</linearGradient>
				<path id="XMLID_467_" class="st8" d="M874.3,138.9L673.7,23.2c-4.3-2.6-8.1-9.6-8.1-15.7l0,0c0-6.1,3.8-9,8.1-6.1l200.6,115.7
					c4.3,2.6,8.1,9.6,8.1,15.7l0,0C882.4,138.6,879,141.8,874.3,138.9z"/>
				
					<linearGradient id="XMLID_17_" gradientUnits="userSpaceOnUse" x1="989.1548" y1="184.0953" x2="308.4436" y2="536.054" gradientTransform="matrix(1 0 0 1 0 -220.9231)">
					<stop  offset="0" style="stop-color:#FFFFFF"/>
					<stop  offset="0.3656" style="stop-color:#E1E9FD;stop-opacity:0.6341"/>
					<stop  offset="0.7632" style="stop-color:#C7D5FB;stop-opacity:0.2363"/>
					<stop  offset="0.9993" style="stop-color:#BDCEFA;stop-opacity:0"/>
				</linearGradient>
				<path id="XMLID_466_" class="st9" d="M740.7,172.8L676.6,136c-4.3-2.6-8.1-9.6-8.1-15.7V49.9c0-6.1,3.8-9,8.1-6.1l63.5,36.8
					c4.3,2.6,8.1,9.6,8.1,15.7v70.4C748.5,172.8,745,175.4,740.7,172.8z"/>
				
					<linearGradient id="XMLID_18_" gradientUnits="userSpaceOnUse" x1="1042.5758" y1="287.4153" x2="361.8639" y2="639.3737" gradientTransform="matrix(1 0 0 1 0 -220.9231)">
					<stop  offset="0" style="stop-color:#FFFFFF"/>
					<stop  offset="0.3656" style="stop-color:#E1E9FD;stop-opacity:0.6341"/>
					<stop  offset="0.7632" style="stop-color:#C7D5FB;stop-opacity:0.2363"/>
					<stop  offset="0.9993" style="stop-color:#BDCEFA;stop-opacity:0"/>
				</linearGradient>
				<path id="XMLID_465_" class="st10" d="M860.1,241.8L796.6,205c-4.3-2.6-8.1-9.6-8.1-15.7v-70.4c0-6.1,3.8-9,8.1-6.1l63.5,36.8
					c4.3,2.6,8.1,9.6,8.1,15.7v70.4C868.2,241.8,864.5,244.4,860.1,241.8z"/>
				<g id="XMLID_11_">
					
						<linearGradient id="XMLID_19_" gradientUnits="userSpaceOnUse" x1="1046.0786" y1="294.1891" x2="365.367" y2="646.1475" gradientTransform="matrix(1 0 0 1 0 -220.9231)">
						<stop  offset="0" style="stop-color:#FFFFFF"/>
						<stop  offset="0.3656" style="stop-color:#E1E9FD;stop-opacity:0.6341"/>
						<stop  offset="0.7632" style="stop-color:#C7D5FB;stop-opacity:0.2363"/>
						<stop  offset="0.9993" style="stop-color:#BDCEFA;stop-opacity:0"/>
					</linearGradient>
					<path id="XMLID_464_" class="st11" d="M871.4,279.5L665,160.3c-1.4-0.6-2.3-2.6-2.3-4.3l0,0c0-1.7,1.2-2.3,2.3-1.7l206.4,119.2
						c1.4,0.6,2.3,2.6,2.3,4.3l0,0C874,279.5,872.9,280.1,871.4,279.5z"/>
					
						<linearGradient id="XMLID_27_" gradientUnits="userSpaceOnUse" x1="1050.952" y1="303.6147" x2="370.24" y2="655.5732" gradientTransform="matrix(1 0 0 1 0 -220.9231)">
						<stop  offset="0" style="stop-color:#FFFFFF"/>
						<stop  offset="0.3656" style="stop-color:#E1E9FD;stop-opacity:0.6341"/>
						<stop  offset="0.7632" style="stop-color:#C7D5FB;stop-opacity:0.2363"/>
						<stop  offset="0.9993" style="stop-color:#BDCEFA;stop-opacity:0"/>
					</linearGradient>
					<path id="XMLID_463_" class="st12" d="M871.4,291.4L665,172.2c-1.4-0.6-2.3-2.6-2.3-4.3l0,0c0-1.7,1.2-2.3,2.3-1.7l206.4,119.2
						c1.4,0.6,2.3,2.6,2.3,4.3l0,0C874,291.4,872.9,292.3,871.4,291.4z"/>
					
						<linearGradient id="XMLID_28_" gradientUnits="userSpaceOnUse" x1="1055.7068" y1="312.8127" x2="374.9954" y2="664.7714" gradientTransform="matrix(1 0 0 1 0 -220.9231)">
						<stop  offset="0" style="stop-color:#FFFFFF"/>
						<stop  offset="0.3656" style="stop-color:#E1E9FD;stop-opacity:0.6341"/>
						<stop  offset="0.7632" style="stop-color:#C7D5FB;stop-opacity:0.2363"/>
						<stop  offset="0.9993" style="stop-color:#BDCEFA;stop-opacity:0"/>
					</linearGradient>
					<path id="XMLID_462_" class="st13" d="M871.4,303L665,183.8c-1.4-0.6-2.3-2.6-2.3-4.3l0,0c0-1.7,1.2-2.3,2.3-1.7l206.4,119.2
						c1.4,0.6,2.3,2.6,2.3,4.3l0,0C874,303,872.9,304.1,871.4,303z"/>
				</g>
			</g>
		</g>
	</g>
	<g id="XMLID_385_">
		<g id="XMLID_431_">
			<g id="XMLID_432_">
				
					<linearGradient id="XMLID_151_" gradientUnits="userSpaceOnUse" x1="518.0402" y1="184.3425" x2="292.9039" y2="753.8701" gradientTransform="matrix(1 0 0 1 0 -220.9231)">
					<stop  offset="0" style="stop-color:#C3E0FE"/>
					<stop  offset="5.553947e-002" style="stop-color:#C1DDFC"/>
					<stop  offset="0.6478" style="stop-color:#ABC3EE"/>
					<stop  offset="0.9993" style="stop-color:#A3B9E8"/>
				</linearGradient>
				<path id="XMLID_457_" class="st14" d="M303.8,508.8V100.6c0-11.3,6.7-24.6,15.4-29.3L494-29.8c8.4-4.6,15.4,0.3,15.4,11.6v408.5
					c0,11.3-6.7,24.6-15.4,29.3L319.2,520.7C310.5,525.3,303.8,520.1,303.8,508.8z"/>
				<g id="XMLID_12_">
					<path id="XMLID_13_" class="st15" d="M503.8-30.4L503.8-30.4L503.8-30.4C503.8-30.7,503.8-30.4,503.8-30.4z"/>
					<path id="XMLID_14_" class="st15" d="M307.8,520.4c-2.6-2-4.1-6.1-4.1-11.6V100.6c0-11.3,6.7-24.6,15.4-29.3L494-29.8
						c3.8-2,7.2-2.3,9.9-1.2l-9.3-5.5c-2.6-2-6.7-2.3-11,0L308.7,64.7c-8.4,4.6-15.4,18-15.4,29.3v408.5c0,6.7,2.3,11.3,6.1,13l0,0
						L307.8,520.4z"/>
					<path id="XMLID_15_" class="st15" d="M310.2,521.9L310.2,521.9L310.2,521.9z"/>
				</g>
				
					<linearGradient id="XMLID_157_" gradientUnits="userSpaceOnUse" x1="461.6188" y1="103.0805" x2="247.6281" y2="689.3276" gradientTransform="matrix(1 0 0 1 0 -220.9231)">
					<stop  offset="0" style="stop-color:#BEDAFF"/>
					<stop  offset="1" style="stop-color:#FFFFFF;stop-opacity:0"/>
				</linearGradient>
				<path id="XMLID_449_" class="st16" d="M310.2,521.9L310.2,521.9L310.2,521.9L310.2,521.9z M492.2-30.1L317.4,71.1
					C309,75.7,302,89,302,100.3v408.2c0,4.6,1.4,8.4,3.5,11l2.3,1.4c-2.6-2-4.1-6.1-4.1-11.6V100.9c0-11.3,6.7-24.6,15.4-29.3
					L494-29.5c2.6-1.7,5.5-2,7.8-1.7C498.9-32.4,496-32.2,492.2-30.1z M503.5-30.7C503.8-30.7,503.8-30.4,503.5-30.7L503.5-30.7
					L503.5-30.7z"/>
				
					<linearGradient id="XMLID_160_" gradientUnits="userSpaceOnUse" x1="521.3232" y1="161.7509" x2="164.4492" y2="1107.024" gradientTransform="matrix(1 0 0 1 0 -220.9231)">
					<stop  offset="0" style="stop-color:#E4F2FF"/>
					<stop  offset="5.554383e-002" style="stop-color:#E1EFFF"/>
					<stop  offset="0.6478" style="stop-color:#C7D7FB"/>
					<stop  offset="0.9993" style="stop-color:#BDCEFA"/>
				</linearGradient>
				<path id="XMLID_448_" class="st17" d="M492.5-21.1L462.4-3.7L458,7.6c-2,5.5-6.1,10.4-10.4,13l-82.3,47.5
					c-4.3,2.3-8.1,2-10.4-0.6l-4.3-6.1l-30.2,17.4c-5.5,3.2-9.9,10.4-9.9,17.1v410.2c0,6.1,4.3,9,9.9,5.8l171.9-99.7
					c5.5-3.2,9.9-10.4,9.9-17.1V-15.9C502.4-22,498-24.3,492.5-21.1z"/>
				<path id="XMLID_447_" class="st18" d="M433.1,20.3l-53.3,31c-1.2,0.6-1.7,0-1.7-1.4l0,0c0-1.4,0.6-2.6,1.7-3.5l53.3-31
					c1.2-0.6,1.7,0,1.7,1.4l0,0C434.8,18.3,434,19.5,433.1,20.3z"/>
				<path id="XMLID_446_" class="st19" d="M299.1,207.9L299.1,207.9c-1.4-0.6-2-2.3-2-3.5V167c0-1.4,0.6-2,1.7-1.4h0.3
					c1.2,0.6,1.7,2,1.7,3.5v37.4C300.9,207.9,300.3,208.5,299.1,207.9z"/>
				<path id="XMLID_445_" class="st20" d="M297.1,207.9L297.1,207.9c-1.4-0.6-2-2.3-2-3.5V167c0-1.4,0.6-2,1.7-1.4h0.3
					c1.2,0.6,1.7,2,1.7,3.5v37.4C298.9,207.9,298.3,208.5,297.1,207.9z"/>
				<g id="XMLID_442_">
					<path id="XMLID_444_" class="st20" d="M471.4-24c1.7,1.2,1.7,2.3,0,3.5s-4.3,1.2-6.1,0c-1.7-1.2-1.7-2.3,0-3.5
						C467-24.9,469.6-24.9,471.4-24z"/>
					<path id="XMLID_20_" class="st19" d="M471.4-24c-1.7-1.2-4.3-1.2-6.1,0c-0.3,0.3-0.6,0.6-1.2,1.2l0.3-0.3
						c1.7-1.2,4.3-1.2,6.1,0c1.4,0.6,1.7,1.7,1.2,2.6C473.1-21.7,472.8-22.9,471.4-24z"/>
				</g>
				<g id="XMLID_16_" class="st21">
					<polygon id="XMLID_21_" class="st22" points="502.4,178.9 502.4,41.8 310.2,234 310.2,370.8 					"/>
					<path id="XMLID_22_" class="st22" d="M310.2,193.7L502.4,1.5v-17.4c0-6.1-4.3-9-9.9-5.8l-15.4,9L458.3,6.1L458,7.3
						c-2,5.5-6.1,10.4-10.4,13l-7.2,4.1L310.5,154.3V194L310.2,193.7L310.2,193.7z"/>
					<polygon id="XMLID_23_" class="st22" points="502.4,287.9 502.4,209.3 310.2,401.5 310.2,480.4 					"/>
					<polygon id="XMLID_24_" class="st22" points="502.4,358.9 502.4,341.2 347,496.3 389.3,471.7 					"/>
				</g>
				
					<linearGradient id="XMLID_170_" gradientUnits="userSpaceOnUse" x1="399.8621" y1="230.389" x2="524.2944" y2="620.7147" gradientTransform="matrix(1 0 0 1 0 -220.9231)">
					<stop  offset="0" style="stop-color:#53F0E7"/>
					<stop  offset="1" style="stop-color:#FFFFFF;stop-opacity:0"/>
				</linearGradient>
				<path id="XMLID_25_" class="st23" d="M502.4-15.9c0-6.1-4.3-9-9.9-5.8L462.4-4.3L458,7c-2,5.5-6.1,10.4-10.4,13l-82.3,47.5
					c-4.3,2.3-8.1,2-10.4-0.6l-4.3-6.1l-30.2,17.4c-2.6,1.7-5.2,4.3-7.2,7.5l0,0l184.7,321.8l0,0c2.6-3.8,4.6-8.1,4.6-12.2V-15.9
					L502.4-15.9z"/>
				
					<linearGradient id="XMLID_176_" gradientUnits="userSpaceOnUse" x1="407.5739" y1="198.3566" x2="407.5739" y2="663.1863" gradientTransform="matrix(1 0 0 1 0 -220.9231)">
					<stop  offset="6.674000e-004" style="stop-color:#A9BDEA"/>
					<stop  offset="1" style="stop-color:#FFFFFF;stop-opacity:0"/>
				</linearGradient>
				<path id="XMLID_433_" class="st24" d="M447.3,20.3L365,67.9c-4.3,2.3-8.1,2-10.4-0.6l-4.3-6.1L320,78.6
					c-2.6,1.7-5.2,4.3-7.2,7.5c1.4-2,3.2-3.5,5.2-4.3l30.2-17.4l4.3,6.1c2,3.2,6.1,3.5,10.4,0.6l82.3-47.5c3.5-2,6.4-5.2,8.4-9.3
					C451.9,16.8,449.9,18.9,447.3,20.3z M492.5-21.1L462.4-3.7l-1.2,2.3l29.3-16.8c5.5-3.2,9.9-0.6,9.9,5.8v410.8
					c0,3.2-1.2,6.4-2.6,9.6c2.6-3.8,4.6-8.1,4.6-12.2V-15.9C502.4-22,498-24.3,492.5-21.1z"/>
			</g>
		</g>
		<g id="XMLID_386_">
			<g id="XMLID_427_">
				<path id="XMLID_430_" class="st5" d="M380.9,212.2l-53.1,30.4c-3.8,2-6.7,0-6.7-5.2l0,0c0-4.6,3.2-10.4,6.7-13l53.1-30.7
					c3.8-2,6.7,0,6.7,5.2l0,0C387.9,204.4,384.7,210.2,380.9,212.2z"/>
				<path id="XMLID_429_" class="st5" d="M400,226.2l-71.9,41.5c-3.8,2-6.7,0-6.7-5.2l0,0c0-4.6,3.2-10.4,6.7-13l71.9-41.2
					c3.8-2,6.7,0,6.7,5.2l0,0C406.4,218.3,403.8,224.1,400,226.2z"/>
				<path id="XMLID_428_" class="st5" d="M368.4,269.3l-40.6,23.2c-3.8,2-6.7,0-6.7-5.2l0,0c0-4.6,3.2-10.4,6.7-13l40.6-23.2
					c3.8-2,6.7,0,6.7,5.2l0,0C374.8,261.5,372.2,267.3,368.4,269.3z"/>
			</g>
			
				<linearGradient id="XMLID_182_" gradientUnits="userSpaceOnUse" x1="328.0813" y1="543.7329" x2="516.2349" y2="681.8137" gradientTransform="matrix(1 0 0 1 0 -220.9231)">
				<stop  offset="0" style="stop-color:#00E9FF"/>
				<stop  offset="0.1813" style="stop-color:#01D1FF"/>
				<stop  offset="0.5456" style="stop-color:#02A6FF"/>
				<stop  offset="0.8306" style="stop-color:#038CFF"/>
				<stop  offset="0.9993" style="stop-color:#0382FF"/>
			</linearGradient>
			<path id="XMLID_426_" class="st25" d="M483.8,393.1L331.6,481c-5.8,3.5-11-0.3-11-8.1v-83.2c0-7.8,4.6-17.1,11-20.3l152.2-87.8
				c5.8-3.5,11,0.3,11,8.1v82.9C494.5,380.7,489.9,389.7,483.8,393.1z"/>
			<g id="XMLID_420_">
				<path id="XMLID_425_" class="st4" d="M494.5,41.8v-7.5c0-6.4-4.3-9.3-10.1-5.8l-153.1,88.4c-5.8,3.5-10.1,11.3-10.1,17.7v7.5
					L494.5,41.8z"/>
				<g id="XMLID_26_">
					<path id="XMLID_424_" class="st2" d="M339.2,122.1c0,2.6-1.7,5.8-4.1,7.2c-2.3,1.4-4.1,0.3-4.1-2.3c0-2.6,1.7-5.8,4.1-7.2
						C337.4,118.3,339.2,119.2,339.2,122.1z"/>
					<path id="XMLID_423_" class="st2" d="M353.7,113.4c0,2.6-1.7,5.8-4.1,7.2c-2.3,1.4-4.1,0.3-4.1-2.3c0-2.6,1.7-5.8,4.1-7.2
						C351.6,110.2,353.7,111.1,353.7,113.4z"/>
					<path id="XMLID_422_" class="st2" d="M368.1,105.3c0,2.6-1.7,5.8-4.1,7.2c-2.3,1.4-4.1,0.3-4.1-2.3s1.7-5.8,4.1-7.2
						C366.4,101.5,368.1,102.7,368.1,105.3z"/>
				</g>
			</g>
			<g id="XMLID_410_">
				<path id="XMLID_419_" class="st22" d="M347.9,172.8l14.2,18c-11.6,15.1-26.7,20.9-35.1,13.6c-3.8-3.2-5.8-8.1-6.1-14.5
					L347.9,172.8z"/>
				<path id="XMLID_418_" class="st2" d="M347.9,172.8l-27,17.1c-0.3-9.6,3.5-21.5,9.9-31.3c6.4-9.9,15.1-17.1,23.2-19.4
					L347.9,172.8z"/>
				<g id="XMLID_411_">
					<path id="XMLID_417_" class="st4" d="M362.3,180.9l6.1-33.6c5.8-1.7,11-1.2,15.1,2c9.3,7.8,7.5,28.7-4.1,45.8
						c-0.6,1.4-1.7,2.3-2.6,3.8L362.3,180.9z"/>
					<g id="XMLID_412_">
						<polygon id="XMLID_31_" class="st26" points="368.4,147.3 353.9,138.9 347.9,172.8 362.3,180.9 						"/>
						<path id="XMLID_32_" class="st27" d="M381.5,148.2L381.5,148.2L381.5,148.2z"/>
						<path id="XMLID_33_" class="st3" d="M381.5,148.2l-14.2-8.1c-3.8-2.3-8.1-2.6-13.3-1.2l14.2,8.1
							C373.4,145.6,378,145.8,381.5,148.2z"/>
						<polygon id="XMLID_34_" class="st3" points="362.3,190.8 376.6,198.9 362.3,180.9 347.9,172.8 						"/>
					</g>
				</g>
			</g>
			<g id="XMLID_402_">
				<polygon id="XMLID_409_" class="st5" points="494.5,263.8 322.3,363.3 322.3,359.5 494.5,260.1 				"/>
				<polygon id="XMLID_408_" class="st5" points="494.5,214.8 322.3,314.6 322.3,310.5 494.5,211.1 				"/>
				<g id="XMLID_403_">
					<path id="XMLID_407_" class="st1" d="M423.5,291.7l-31.3,18c-2.3,1.4-4.3,0-4.3-3.5v-12.8c0-3.5,2-7.2,4.3-9l31.3-18
						c2.3-1.4,4.3,0,4.3,3.5v13C427.9,286.5,425.8,290.5,423.5,291.7z"/>
					<path id="XMLID_406_" class="st1" d="M480.9,258.9l-31.3,18c-2.3,1.4-4.3,0-4.3-3.5v-13c0-3.5,2-7.2,4.3-9l31.3-18
						c2.3-1.4,4.3,0,4.3,3.5v13C485.3,253.4,483.2,257.2,480.9,258.9z"/>
					<path id="XMLID_30_" class="st28" d="M347,354c0.6,0.6,2,0.6,3.5,0l31.3-18c2.3-1.4,4.3-5.5,4.3-9v-13c0-1.7-0.6-3.2-1.4-3.5
						l-15.4-11c-0.6-0.6-2-0.6-3.5,0l-31.3,18c-2.3,1.4-4.3,5.5-4.3,9v13.3c0,1.7,0.6,3.2,1.4,3.5L347,354z"/>
					<path id="XMLID_404_" class="st1" d="M381.2,336l-31.3,18c-2.3,1.4-4.3,0-4.3-3.5v-13c0-3.5,2-7.2,4.3-9l31.3-18
						c2.3-1.4,4.3,0,4.3,3.5v13C385.8,330.5,383.8,334.6,381.2,336z"/>
				</g>
			</g>
			<g id="XMLID_392_">
				<g id="XMLID_396_">
					<path id="XMLID_401_" class="st5" d="M488.5,110.8l-88.1,51c-3.5,2-6.1,0-6.1-4.3v-22.9c0-4.3,2.6-9.6,6.1-11.6l88.1-51
						c3.5-2,6.1,0,6.1,4.3v22.9C494.5,103.5,491.9,108.7,488.5,110.8z"/>
					<g id="XMLID_35_">
						
							<linearGradient id="XMLID_189_" gradientUnits="userSpaceOnUse" x1="445.655" y1="333.3646" x2="366.8567" y2="409.8791" gradientTransform="matrix(1 0 0 1 0 -220.9231)">
							<stop  offset="0" style="stop-color:#FFFFFF"/>
							<stop  offset="0.3656" style="stop-color:#E1E9FD;stop-opacity:0.6341"/>
							<stop  offset="0.7632" style="stop-color:#C7D5FB;stop-opacity:0.2363"/>
							<stop  offset="0.9993" style="stop-color:#BDCEFA;stop-opacity:0"/>
						</linearGradient>
						<path id="XMLID_400_" class="st29" d="M433.7,132.5l-33.3,19.4c-0.6,0.3-1.4,0-1.4-1.2l0,0c0-1.2,0.6-2.3,1.4-2.6l33.3-19.4
							c0.6-0.3,1.4,0,1.4,1.2l0,0C435.1,130.8,434.2,132.2,433.7,132.5z"/>
						
							<linearGradient id="XMLID_191_" gradientUnits="userSpaceOnUse" x1="442.769" y1="330.393" x2="363.9711" y2="406.9069" gradientTransform="matrix(1 0 0 1 0 -220.9231)">
							<stop  offset="0" style="stop-color:#FFFFFF"/>
							<stop  offset="0.3656" style="stop-color:#E1E9FD;stop-opacity:0.6341"/>
							<stop  offset="0.7632" style="stop-color:#C7D5FB;stop-opacity:0.2363"/>
							<stop  offset="0.9993" style="stop-color:#BDCEFA;stop-opacity:0"/>
						</linearGradient>
						<path id="XMLID_399_" class="st30" d="M442.9,119.8L400,144.4c-0.6,0.3-1.4,0-1.4-1.2l0,0c0-1.2,0.6-2.3,1.4-2.6l42.9-24.9
							c0.6-0.3,1.4,0,1.4,1.2l0,0C444.7,118,443.8,119.2,442.9,119.8z"/>
						
							<linearGradient id="XMLID_193_" gradientUnits="userSpaceOnUse" x1="439.0316" y1="326.5439" x2="360.2334" y2="403.0578" gradientTransform="matrix(1 0 0 1 0 -220.9231)">
							<stop  offset="0" style="stop-color:#FFFFFF"/>
							<stop  offset="0.3656" style="stop-color:#E1E9FD;stop-opacity:0.6341"/>
							<stop  offset="0.7632" style="stop-color:#C7D5FB;stop-opacity:0.2363"/>
							<stop  offset="0.9993" style="stop-color:#BDCEFA;stop-opacity:0"/>
						</linearGradient>
						<path id="XMLID_398_" class="st31" d="M442.9,112.2L400,136.9c-0.6,0.3-1.4,0-1.4-1.2l0,0c0-1.2,0.6-2.3,1.4-2.6l42.9-24.9
							c0.6-0.3,1.4,0,1.4,1.2l0,0C444.7,110.5,443.8,111.9,442.9,112.2z"/>
					</g>
				</g>
				<g id="XMLID_393_">
					
						<linearGradient id="XMLID_194_" gradientUnits="userSpaceOnUse" x1="507.3584" y1="314.2083" x2="484.9687" y2="352.2029" gradientTransform="matrix(1 0 0 1 0 -220.9231)">
						<stop  offset="0" style="stop-color:#E4F2FF"/>
						<stop  offset="5.554383e-002" style="stop-color:#E1EFFF"/>
						<stop  offset="0.6478" style="stop-color:#C7D7FB"/>
						<stop  offset="0.9993" style="stop-color:#BDCEFA"/>
					</linearGradient>
					<polygon id="XMLID_395_" class="st32" points="507.3,116 485.3,128.5 485.3,108.2 507.3,95.4 					"/>
					<polygon id="XMLID_36_" class="st33" points="507.3,95.4 507.3,95.7 485.8,82.9 485.8,82.9 463.8,95.4 463.8,116 485.3,128.5 
						485.3,108.2 					"/>
				</g>
			</g>
			<g id="XMLID_387_">
				<path id="XMLID_391_" class="st4" d="M505.6,210.8l-44.4,25.5c-4.1,2.3-7.2,0-7.2-5.5v-48.7c0-5.5,3.2-11.6,7.2-13.6l44.4-25.5
					c4.1-2.3,7.2,0,7.2,5.5v48.7C512.5,202.4,509.6,208.5,505.6,210.8z"/>
				<g id="XMLID_29_">
					<path id="XMLID_37_" class="st3" d="M454,230.8v-48.7c0-5.5,3.2-11.6,7.2-13.6l44.4-25.5c1.7-1.2,3.5-1.2,4.3-0.3l0,0l-18-10.1
						c-1.4-0.6-2.6-0.6-4.6,0.3l-44.4,25.5c-4.1,2.3-7.2,8.4-7.2,13.6v48.7c0,3.2,1.2,5.2,2.6,5.8l18,10.1l0,0
						C455.1,235.7,454,233.7,454,230.8z"/>
				</g>
				
					<linearGradient id="XMLID_197_" gradientUnits="userSpaceOnUse" x1="495.4229" y1="395.0569" x2="452.9968" y2="502.2379" gradientTransform="matrix(1 0 0 1 0 -220.9231)">
					<stop  offset="0" style="stop-color:#FFFFFF"/>
					<stop  offset="0.3656" style="stop-color:#E1E9FD;stop-opacity:0.6341"/>
					<stop  offset="0.7632" style="stop-color:#C7D5FB;stop-opacity:0.2363"/>
					<stop  offset="0.9993" style="stop-color:#BDCEFA;stop-opacity:0"/>
				</linearGradient>
				<path id="XMLID_388_" class="st34" d="M487.3,187.9c3.8-4.1,6.7-10.1,6.7-15.4c0-6.7-4.6-9.6-10.4-6.1
					c-5.8,3.5-10.4,11.6-10.4,18.3c0,5.2,2.6,7.8,6.7,7.5c-9.3,7.5-15.9,20.3-16.2,31.6l40.9-23.2
					C503.5,189.9,496.6,185,487.3,187.9z"/>
			</g>
		</g>
	</g>
	<g id="XMLID_347_">
		<g id="XMLID_379_">
			<path id="XMLID_384_" class="st22" d="M556.9,264.4l-62.6,35.1c-2.6,1.7-7.5,1.4-11-0.3L446.7,278c-3.2-1.7-3.5-4.6-0.6-6.1
				l62.3-34.8c2.6-1.7,7.5-1.4,11,0.3l36.5,21.2C559.2,260.4,559.5,263.3,556.9,264.4z"/>
			<g id="XMLID_380_">
				
					<linearGradient id="XMLID_198_" gradientUnits="userSpaceOnUse" x1="571.754" y1="545.2682" x2="405.1436" y2="694.8237" gradientTransform="matrix(1 0 0 1 0 -220.9231)">
					<stop  offset="0" style="stop-color:#E4F2FF"/>
					<stop  offset="5.554383e-002" style="stop-color:#E1EFFF"/>
					<stop  offset="0.6478" style="stop-color:#C7D7FB"/>
					<stop  offset="0.9993" style="stop-color:#BDCEFA"/>
				</linearGradient>
				<path id="XMLID_38_" class="st35" d="M558.6,432.3V262.4l0,0l0,0c0,0.6-0.6,1.7-1.7,2l-62.6,35.1c-1.4,0.6-3.2,1.2-5.2,1.2
					v170.8c2,0,3.8-0.3,5.2-1.2l62.6-34.8C558.3,434.6,558.9,433.7,558.6,432.3z"/>
				
					<linearGradient id="XMLID_200_" gradientUnits="userSpaceOnUse" x1="467.1227" y1="732.9319" x2="467.1227" y2="479.0622" gradientTransform="matrix(1 0 0 1 0 -220.9231)">
					<stop  offset="7.151770e-002" style="stop-color:#55D1FF"/>
					<stop  offset="0.1638" style="stop-color:#4FC3EE;stop-opacity:0.9006"/>
					<stop  offset="0.3466" style="stop-color:#41A0C2;stop-opacity:0.7038"/>
					<stop  offset="0.6024" style="stop-color:#29677B;stop-opacity:0.4282"/>
					<stop  offset="0.9186" style="stop-color:#0A191A;stop-opacity:8.763379e-002"/>
					<stop  offset="1" style="stop-color:#010400;stop-opacity:0"/>
				</linearGradient>
				<path id="XMLID_39_" class="st36" d="M483.8,298.9l-36.5-21.2c-1.4-1.2-2.3-2-2.6-3.2v169.9c-0.3,1.4,0.6,2.6,2.6,4.1l36.5,21.2
					c1.7,1.2,3.8,1.4,5.8,1.4V300.7C487.3,300.7,485.3,300.1,483.8,298.9z"/>
				<path id="XMLID_40_" class="st33" d="M483.8,298.9l-36.5-21.2c-1.4-1.2-2.3-2-2.6-3.2v169.9c-0.3,1.4,0.6,2.6,2.6,4.1l36.5,21.2
					c1.7,1.2,3.8,1.4,5.8,1.4V300.7C487.3,300.7,485.3,300.1,483.8,298.9z"/>
			</g>
		</g>
		<g id="XMLID_5_">
			<g id="XMLID_8_">
				<path id="XMLID_378_" class="st22" d="M592.8,313.1l-62.3,35.7c-2.6,1.7-7.5,1.4-11-0.3l-20.9-12.2c-3.2-1.7-3.5-4.6-0.6-6.1
					l62.3-35.7c2.6-1.7,7.5-1.4,11,0.3l21.2,12.2C595.4,308.8,595.7,312,592.8,313.1z"/>
				<g id="XMLID_41_">
					
						<linearGradient id="XMLID_201_" gradientUnits="userSpaceOnUse" x1="593.9167" y1="532.6556" x2="499.1648" y2="597.2593" gradientTransform="matrix(1 0 0 1 0 -220.9231)">
						<stop  offset="0" style="stop-color:#E4F2FF"/>
						<stop  offset="5.554383e-002" style="stop-color:#E1EFFF"/>
						<stop  offset="0.6478" style="stop-color:#C7D7FB"/>
						<stop  offset="0.9993" style="stop-color:#BDCEFA"/>
					</linearGradient>
					<path id="XMLID_42_" class="st37" d="M594.9,317.2v-6.1l0,0l0,0c0,0.6-0.6,1.7-1.7,2l-62.3,35.7c-1.4,0.6-3.2,1.2-5.2,1.2v7.5
						c2,0,3.8-0.3,5.2-1.2l62.3-35.7C594.6,319.8,594.9,318.3,594.9,317.2z"/>
					
						<linearGradient id="XMLID_205_" gradientUnits="userSpaceOnUse" x1="510.8986" y1="583.2917" x2="510.8986" y2="552.2326" gradientTransform="matrix(1 0 0 1 0 -220.9231)">
						<stop  offset="7.151770e-002" style="stop-color:#55D1FF"/>
						<stop  offset="0.1638" style="stop-color:#4FC3EE;stop-opacity:0.9006"/>
						<stop  offset="0.3466" style="stop-color:#41A0C2;stop-opacity:0.7038"/>
						<stop  offset="0.6024" style="stop-color:#29677B;stop-opacity:0.4282"/>
						<stop  offset="0.9186" style="stop-color:#0A191A;stop-opacity:8.763379e-002"/>
						<stop  offset="1" style="stop-color:#010400;stop-opacity:0"/>
					</linearGradient>
					<path id="XMLID_43_" class="st38" d="M519.8,348.5l-20.9-12.2c-1.4-1.2-2.3-2-2.6-3.2v6.1c-0.3,1.4,0.6,2.6,2.6,4.1l20.9,12.2
						c1.7,1.2,3.8,1.4,5.8,1.4v-7.2C523.5,350.2,521.5,349.7,519.8,348.5z"/>
					<path id="XMLID_44_" class="st33" d="M519.8,348.5l-20.9-12.2c-1.4-1.2-2.3-2-2.6-3.2v6.1c-0.3,1.4,0.6,2.6,2.6,4.1l20.9,12.2
						c1.7,1.2,3.8,1.4,5.8,1.4v-7.2C523.5,350.2,521.5,349.7,519.8,348.5z"/>
				</g>
			</g>
			<g id="XMLID_45_">
				<path id="XMLID_372_" class="st22" d="M619.8,350.5l-62.3,35.7c-2.6,1.7-7.5,1.4-11-0.3l-20.9-12.2c-3.2-1.7-3.5-4.6-0.6-6.1
					l62.3-35.7c2.6-1.7,7.5-1.4,11,0.3l21.2,12.2C622.1,346.2,622.4,349.1,619.8,350.5z"/>
				<g id="XMLID_46_">
					
						<linearGradient id="XMLID_211_" gradientUnits="userSpaceOnUse" x1="619.6044" y1="570.3301" x2="524.8517" y2="634.934" gradientTransform="matrix(1 0 0 1 0 -220.9231)">
						<stop  offset="0" style="stop-color:#E4F2FF"/>
						<stop  offset="5.554383e-002" style="stop-color:#E1EFFF"/>
						<stop  offset="0.6478" style="stop-color:#C7D7FB"/>
						<stop  offset="0.9993" style="stop-color:#BDCEFA"/>
					</linearGradient>
					<path id="XMLID_47_" class="st39" d="M621.5,354.3v-6.1l0,0l0,0c0,0.6-0.6,1.7-1.7,2l-62.3,35.7c-1.4,0.6-3.2,1.2-5.2,1.2v7.2
						c2,0,3.8-0.3,5.2-1.2l62.3-35.7C621.2,356.9,621.8,355.5,621.5,354.3z"/>
					
						<linearGradient id="XMLID_212_" gradientUnits="userSpaceOnUse" x1="537.8599" y1="620.4238" x2="537.8599" y2="589.3644" gradientTransform="matrix(1 0 0 1 0 -220.9231)">
						<stop  offset="7.151770e-002" style="stop-color:#55D1FF"/>
						<stop  offset="0.1638" style="stop-color:#4FC3EE;stop-opacity:0.9006"/>
						<stop  offset="0.3466" style="stop-color:#41A0C2;stop-opacity:0.7038"/>
						<stop  offset="0.6024" style="stop-color:#29677B;stop-opacity:0.4282"/>
						<stop  offset="0.9186" style="stop-color:#0A191A;stop-opacity:8.763379e-002"/>
						<stop  offset="1" style="stop-color:#010400;stop-opacity:0"/>
					</linearGradient>
					<path id="XMLID_48_" class="st40" d="M546.7,385.6l-20.9-12.2c-1.4-1.2-2.3-2-2.6-3.2v6.1c-0.3,1.4,0.6,2.6,2.6,4.1l20.9,12.2
						c1.7,1.2,3.8,1.4,5.8,1.4v-7.2C550.5,387.3,548.5,386.8,546.7,385.6z"/>
					<path id="XMLID_49_" class="st33" d="M546.7,385.6l-20.9-12.2c-1.4-1.2-2.3-2-2.6-3.2v6.1c-0.3,1.4,0.6,2.6,2.6,4.1l20.9,12.2
						c1.7,1.2,3.8,1.4,5.8,1.4v-7.2C550.5,387.3,548.5,386.8,546.7,385.6z"/>
				</g>
			</g>
			<g id="XMLID_50_">
				<path id="XMLID_366_" class="st22" d="M646.5,387.6l-62.3,35.7c-2.6,1.7-7.5,1.4-11-0.3l-20.9-12.2c-3.2-1.7-3.5-4.6-0.6-6.1
					l62.3-35.7c2.6-1.7,7.5-1.4,11,0.3l21.2,12.2C648.8,383.3,649.1,385.9,646.5,387.6z"/>
				<g id="XMLID_51_">
					
						<linearGradient id="XMLID_213_" gradientUnits="userSpaceOnUse" x1="645.2734" y1="607.9783" x2="550.5215" y2="672.5816" gradientTransform="matrix(1 0 0 1 0 -220.9231)">
						<stop  offset="0" style="stop-color:#E4F2FF"/>
						<stop  offset="5.554383e-002" style="stop-color:#E1EFFF"/>
						<stop  offset="0.6478" style="stop-color:#C7D7FB"/>
						<stop  offset="0.9993" style="stop-color:#BDCEFA"/>
					</linearGradient>
					<path id="XMLID_52_" class="st41" d="M647.9,391.4v-6.1l0,0l0,0c0,0.6-0.6,1.7-1.7,2L583.8,423c-1.4,0.6-3.2,1.2-5.2,1.2v7.2
						c2,0,3.8-0.3,5.2-1.2l62.6-35.7C647.6,393.7,648.5,392.8,647.9,391.4z"/>
					
						<linearGradient id="XMLID_217_" gradientUnits="userSpaceOnUse" x1="564.2413" y1="657.5551" x2="564.2413" y2="626.4959" gradientTransform="matrix(1 0 0 1 0 -220.9231)">
						<stop  offset="7.151770e-002" style="stop-color:#55D1FF"/>
						<stop  offset="0.1638" style="stop-color:#4FC3EE;stop-opacity:0.9006"/>
						<stop  offset="0.3466" style="stop-color:#41A0C2;stop-opacity:0.7038"/>
						<stop  offset="0.6024" style="stop-color:#29677B;stop-opacity:0.4282"/>
						<stop  offset="0.9186" style="stop-color:#0A191A;stop-opacity:8.763379e-002"/>
						<stop  offset="1" style="stop-color:#010400;stop-opacity:0"/>
					</linearGradient>
					<path id="XMLID_53_" class="st42" d="M573.1,423l-20.9-12.2c-1.4-1.2-2.3-2-2.6-3.2v6.1c-0.3,1.4,0.6,2.6,2.6,4.1l20.9,12.2
						c1.7,1.2,3.8,1.4,5.8,1.4v-7.2C576.9,424.4,574.9,423.9,573.1,423z"/>
					<path id="XMLID_54_" class="st33" d="M573.1,423l-20.9-12.2c-1.4-1.2-2.3-2-2.6-3.2v6.1c-0.3,1.4,0.6,2.6,2.6,4.1l20.9,12.2
						c1.7,1.2,3.8,1.4,5.8,1.4v-7.2C576.9,424.4,574.9,423.9,573.1,423z"/>
				</g>
			</g>
			<g id="XMLID_55_">
				<path id="XMLID_360_" class="st22" d="M672.8,424.7l-62.3,35.7c-2.6,1.7-7.5,1.4-11-0.3l-20.9-12.2c-3.2-1.7-3.5-4.6-0.6-6.1
					l62.6-35.7c2.6-1.7,7.5-1.4,11,0.3l21.2,12.2C675.2,420.4,675.4,423,672.8,424.7z"/>
				<g id="XMLID_56_">
					
						<linearGradient id="XMLID_218_" gradientUnits="userSpaceOnUse" x1="671.0584" y1="645.7963" x2="576.3057" y2="710.3998" gradientTransform="matrix(1 0 0 1 0 -220.9231)">
						<stop  offset="0" style="stop-color:#E4F2FF"/>
						<stop  offset="5.554383e-002" style="stop-color:#E1EFFF"/>
						<stop  offset="0.6478" style="stop-color:#C7D7FB"/>
						<stop  offset="0.9993" style="stop-color:#BDCEFA"/>
					</linearGradient>
					<path id="XMLID_57_" class="st43" d="M674.9,428.5v-6.1l0,0l0,0c0,0.6-0.6,1.7-1.7,2l-62.3,35.7c-1.4,0.6-3.2,1.2-5.2,1.2v7.2
						c2,0,3.8-0.3,5.2-1.2l62.3-35.7C674.6,430.8,674.9,430,674.9,428.5z"/>
					
						<linearGradient id="XMLID_220_" gradientUnits="userSpaceOnUse" x1="590.9127" y1="694.6871" x2="590.9127" y2="663.6277" gradientTransform="matrix(1 0 0 1 0 -220.9231)">
						<stop  offset="7.151770e-002" style="stop-color:#55D1FF"/>
						<stop  offset="0.1638" style="stop-color:#4FC3EE;stop-opacity:0.9006"/>
						<stop  offset="0.3466" style="stop-color:#41A0C2;stop-opacity:0.7038"/>
						<stop  offset="0.6024" style="stop-color:#29677B;stop-opacity:0.4282"/>
						<stop  offset="0.9186" style="stop-color:#0A191A;stop-opacity:8.763379e-002"/>
						<stop  offset="1" style="stop-color:#010400;stop-opacity:0"/>
					</linearGradient>
					<path id="XMLID_58_" class="st44" d="M599.8,460.1l-20.9-12.2c-1.4-1.2-2.3-2-2.6-3.2v6.1c-0.3,1.4,0.6,2.6,2.6,4.1l20.9,12.2
						c1.7,1.2,3.8,1.4,5.8,1.4v-7C603.6,461.6,601.5,461,599.8,460.1z"/>
					<path id="XMLID_59_" class="st33" d="M599.8,460.1l-20.9-12.2c-1.4-1.2-2.3-2-2.6-3.2v6.1c-0.3,1.4,0.6,2.6,2.6,4.1l20.9,12.2
						c1.7,1.2,3.8,1.4,5.8,1.4v-7C603.6,461.6,601.5,461,599.8,460.1z"/>
				</g>
			</g>
			<g id="XMLID_60_">
				<path id="XMLID_354_" class="st22" d="M699.8,461.8l-62.3,35.7c-2.6,1.7-7.5,1.4-11-0.3L605.6,485c-3.2-1.7-3.5-4.6-0.6-6.1
					l62.3-35.7c2.6-1.7,7.5-1.4,11,0.3l21.2,12.2C702.1,457.5,702.4,460.1,699.8,461.8z"/>
				<g id="XMLID_61_">
					
						<linearGradient id="XMLID_221_" gradientUnits="userSpaceOnUse" x1="696.7949" y1="683.5433" x2="602.0429" y2="748.1475" gradientTransform="matrix(1 0 0 1 0 -220.9231)">
						<stop  offset="0" style="stop-color:#E4F2FF"/>
						<stop  offset="5.554383e-002" style="stop-color:#E1EFFF"/>
						<stop  offset="0.6478" style="stop-color:#C7D7FB"/>
						<stop  offset="0.9993" style="stop-color:#BDCEFA"/>
					</linearGradient>
					<path id="XMLID_62_" class="st45" d="M701.5,465.6v-6.1l0,0l0,0c0,0.6-0.6,1.7-1.7,2l-62.3,35.7c-1.4,0.6-3.2,1.2-5.2,1.2v7.2
						c2,0,3.8-0.3,5.2-1.2l62.3-35.7C701.2,467.9,701.8,467.1,701.5,465.6z"/>
					
						<linearGradient id="XMLID_222_" gradientUnits="userSpaceOnUse" x1="617.5842" y1="731.8189" x2="617.5842" y2="700.7592" gradientTransform="matrix(1 0 0 1 0 -220.9231)">
						<stop  offset="7.151770e-002" style="stop-color:#55D1FF"/>
						<stop  offset="0.1638" style="stop-color:#4FC3EE;stop-opacity:0.9006"/>
						<stop  offset="0.3466" style="stop-color:#41A0C2;stop-opacity:0.7038"/>
						<stop  offset="0.6024" style="stop-color:#29677B;stop-opacity:0.4282"/>
						<stop  offset="0.9186" style="stop-color:#0A191A;stop-opacity:8.763379e-002"/>
						<stop  offset="1" style="stop-color:#010400;stop-opacity:0"/>
					</linearGradient>
					<path id="XMLID_63_" class="st46" d="M626.5,497.2L605.6,485c-1.4-1.2-2.3-2-2.6-3.2v6.1c-0.3,1.4,0.6,2.6,2.6,4.1l20.9,12.2
						c1.7,1.2,3.8,1.4,5.8,1.4v-7.2C630.2,498.7,627.9,498.4,626.5,497.2z"/>
					<path id="XMLID_64_" class="st33" d="M626.5,497.2L605.6,485c-1.4-1.2-2.3-2-2.6-3.2v6.1c-0.3,1.4,0.6,2.6,2.6,4.1l20.9,12.2
						c1.7,1.2,3.8,1.4,5.8,1.4v-7.2C630.2,498.7,627.9,498.4,626.5,497.2z"/>
				</g>
			</g>
		</g>
	</g>
	<g id="XMLID_325_">
		<g id="XMLID_65_">
			<path id="XMLID_346_" d="M488.5,275.7c0,1.4,2,3.8,5.5,5.5c4.3,2.6,6.1,6.1,11.9,2.6c1.7-1.2,2.3-1.7,2.3-2.3V278
				c0-1.7-3.8-2.6-7.2-4.3c-4.3-2.6-9.6-4.1-11.9-2.6c-0.6,0.3-1.2,0.6-1.2,1.4v3.5L488.5,275.7L488.5,275.7z"/>
			<path id="XMLID_345_" class="st47" d="M494,277.8c-4.3-2.6-7.2-5.5-4.6-6.7c2.3-1.4,7.2,0,11.9,2.6c4.3,2.6,10.1,3.8,4.6,6.7
				C500.3,283.6,498.6,280.1,494,277.8z"/>
		</g>
		<g id="XMLID_66_">
			<path id="XMLID_343_" d="M500.9,267c0,1.4,2,3.8,5.5,5.5c4.3,2.6,6.1,6.1,11.9,2.6c1.7-1.2,2.3-1.7,2.3-2.3v-3.5
				c0-1.7-3.8-2.6-7.2-4.3c-4.3-2.6-9.6-4.1-11.9-2.6c-0.6,0.3-1.2,0.6-1.2,1.4v3.5L500.9,267L500.9,267z"/>
			<path id="XMLID_342_" class="st47" d="M506.7,269.1c-4.3-2.6-7.2-5.5-4.6-6.7c2.3-1.4,7.2,0,11.9,2.6c4.3,2.6,10.1,3.8,4.6,6.7
				C512.8,274.9,511.4,271.7,506.7,269.1z"/>
		</g>
		<g id="XMLID_338_">
			<path id="XMLID_340_" class="st48" d="M496.3,161.8L496.3,161.8c1.7-1.2,4.1-0.6,5.2,1.2l15.7,24.9c1.2,1.7,0.6,4.1-1.2,5.2l0,0
				c-1.7,1.2-4.1,0.6-5.2-1.2L495.1,167C494,165.3,494.3,163,496.3,161.8z"/>
			<path id="XMLID_339_" class="st4" d="M506.4,189l5.2,8.1c1.7,2.6,5.5,3.5,8.1,1.7l0,0c2.6-1.7,3.5-5.5,1.7-8.1l-5.2-8.1
				C516,183,509.9,180.6,506.4,189z"/>
		</g>
		<g id="XMLID_67_">
			<path id="XMLID_337_" class="st49" d="M508.2,276.6c0.3-0.3,0.3-0.6,0.3-1.2v-39.1c0-2.3-2.6-4.3-5.8-4.3l0,0
				c-3.2,0-5.8,2-5.8,4.3v42.6c0,0.6,0.3,1.2,1.2,1.4C500.1,280.9,505.6,281.8,508.2,276.6z"/>
		</g>
		<g id="XMLID_68_">
			<path id="XMLID_335_" class="st3" d="M520.6,267.3c0.3-0.3,0.3-0.6,0.3-1.2l-0.9-39.4c0-2.3-2.6-4.3-5.8-4.3l0,0
				c-3.2,0-5.8,2-5.5,4.6l1.2,42.6c0,0.6,0.3,1.2,1.2,1.4C512.8,271.7,518,272.8,520.6,267.3z"/>
		</g>
		<path id="XMLID_333_" class="st1" d="M498.6,243.3L498.6,243.3c2.6,0.3,11.9-1.7,21.2-11.9c0.6-0.6,1.4-2,1.4-3.2v-29
			c0-2-0.6-3.8-2-4.3l-6.7-4.1c-1.4-0.6-3.2-0.6-4.6,0.3l-9.3,5.5c-3.8,2-6.7,7.5-6.7,11.9v29c0,0.6,0.3,1.2,0.6,1.4L498.6,243.3z"
			/>
		<path id="XMLID_332_" class="st50" d="M501.5,198.9c0,0.6,0.3,1.4,1.4,2c2,1.2,4.6,1.2,6.7,0c1.2-0.6,1.4-1.4,1.4-2v-6.4
			c0-0.6-0.3-1.4-1.4-2c-2-1.2-4.6-1.2-6.7,0c-1.2,0.6-1.4,1.4-1.4,2V198.9z"/>
		<circle id="XMLID_331_" class="st48" cx="506.1" cy="182.7" r="13.3"/>
		<g id="XMLID_328_">
			<path id="XMLID_330_" class="st48" d="M467.3,180.1L467.3,180.1c1.4-1.7,3.8-1.7,5.5-0.3l21.2,19.1c1.7,1.4,1.7,3.8,0.3,5.5l0,0
				c-1.4,1.7-3.8,1.7-5.5,0.3l-21.2-19.1C466.4,184.4,466.1,181.8,467.3,180.1z"/>
			<path id="XMLID_329_" class="st4" d="M484.1,203.3l7.2,6.1c2.3,2,6.1,1.7,8.1-0.6l0,0c2-2.3,1.7-6.1-0.6-8.1l-7.2-6.1
				C491.6,194.6,485,194.3,484.1,203.3z"/>
		</g>
		<path id="XMLID_327_" class="st51" d="M513.7,194.6c-4.1,2.3-7.5,0.6-8.4-1.2c-2.6-4.3-3.5-1.4-5.2-3.5c-2.3-3.8-1.7-8.4-4.6-11
			c-4.3-3.5-3.2-9.9,8.1-13c15.7-4.1,21.7,15.7,11.9,27C515.1,193.7,514.5,193.7,513.7,194.6z"/>
		<path id="XMLID_326_" class="st48" d="M501.8,190.5c-1.2,1.2-2.3,0.6-2.6-0.6s0-3.8,1.4-4.6c1.2-1.2,2.3-0.6,2.6,0.6
			C503.5,187,502.7,189,501.8,190.5z"/>
	</g>
	<g id="XMLID_263_">
		<g id="XMLID_288_">
			<g id="XMLID_313_">
				<path id="XMLID_324_" class="st52" d="M511.7,516.9l-71.3,41.2c-2.6,1.7-7.8,1.4-11.3-0.3l-74.5-43.2c-3.5-2-3.8-4.6-0.6-6.4
					l71.3-41.2c2.6-1.7,7.8-1.4,11.3,0.3l74.5,43.2C514.3,512.3,514.5,515.2,511.7,516.9z"/>
				<g id="XMLID_71_">
					<path id="XMLID_72_" class="st33" d="M511.7,516.9l-71.3,41.2c-2.6,1.7-7.8,1.4-11.3-0.3l-74.5-43.2c-1.7-1.2-2.6-2.3-2.6-3.8
						l0,0v2.9c0,1.4,1.2,2.6,2.6,3.8l74.5,43.2c3.5,2,8.4,2,11.3,0.3l71.3-41.2c1.4-0.6,2-1.7,2-2.6v-2.6l0,0
						C513.7,515.2,512.8,516.4,511.7,516.9z"/>
				</g>
				<g id="XMLID_73_">
					
						<linearGradient id="XMLID_223_" gradientUnits="userSpaceOnUse" x1="541.156" y1="727.8842" x2="346.2918" y2="730.6191" gradientTransform="matrix(1 0 0 1 0 -220.9231)">
						<stop  offset="0" style="stop-color:#FFFFFF"/>
						<stop  offset="0.5824" style="stop-color:#DAE4FC"/>
						<stop  offset="0.9993" style="stop-color:#BDCEFA"/>
					</linearGradient>
					<path id="XMLID_321_" class="st53" d="M414.5,507.4l-28.7,16.8c-1.2,0.6-2.6,0.3-3.8,0l-19.1-11c-1.2-0.6-1.4-1.7-0.3-2.3
						l28.7-16.8c1.2-0.6,2.6-0.3,3.8,0l19.1,11C415.4,505.9,415.7,506.8,414.5,507.4z"/>
					
						<linearGradient id="XMLID_224_" gradientUnits="userSpaceOnUse" x1="541.176" y1="729.3052" x2="346.3118" y2="732.0399" gradientTransform="matrix(1 0 0 1 0 -220.9231)">
						<stop  offset="0" style="stop-color:#FFFFFF"/>
						<stop  offset="0.5824" style="stop-color:#DAE4FC"/>
						<stop  offset="0.9993" style="stop-color:#BDCEFA"/>
					</linearGradient>
					<path id="XMLID_320_" class="st54" d="M463.2,491.7l-66.7,38.6c-1.2,0.6-2.3,0.3-3.8,0l0,0c-1.2-0.6-1.2-1.7-0.3-2l66.7-38.6
						c1.2-0.6,2.3-0.3,3.8,0l0,0C464.4,490.5,464.4,491.4,463.2,491.7z"/>
					
						<linearGradient id="XMLID_227_" gradientUnits="userSpaceOnUse" x1="541.2426" y1="734.0483" x2="346.3785" y2="736.7833" gradientTransform="matrix(1 0 0 1 0 -220.9231)">
						<stop  offset="0" style="stop-color:#FFFFFF"/>
						<stop  offset="0.5824" style="stop-color:#DAE4FC"/>
						<stop  offset="0.9993" style="stop-color:#BDCEFA"/>
					</linearGradient>
					<path id="XMLID_319_" class="st55" d="M470.8,496.3l-66.7,38.6c-1.2,0.6-2.3,0.3-3.8,0l0,0c-1.2-0.6-1.2-1.7-0.3-2l66.7-38.6
						c1.2-0.6,2.3-0.3,3.8,0l0,0C471.4,494.6,471.6,495.5,470.8,496.3z"/>
					
						<linearGradient id="XMLID_228_" gradientUnits="userSpaceOnUse" x1="541.3015" y1="738.2081" x2="346.4365" y2="740.9427" gradientTransform="matrix(1 0 0 1 0 -220.9231)">
						<stop  offset="0" style="stop-color:#FFFFFF"/>
						<stop  offset="0.5824" style="stop-color:#DAE4FC"/>
						<stop  offset="0.9993" style="stop-color:#BDCEFA"/>
					</linearGradient>
					<path id="XMLID_318_" class="st56" d="M478,500.4L411.3,539c-1.2,0.6-2.3,0.3-3.8,0l0,0c-1.2-0.6-1.2-1.7-0.3-2l66.7-38.6
						c1.2-0.6,2.3-0.3,3.8,0l0,0C478.9,499,478.9,499.5,478,500.4z"/>
					
						<linearGradient id="XMLID_229_" gradientUnits="userSpaceOnUse" x1="541.5082" y1="752.9727" x2="346.6437" y2="755.7073" gradientTransform="matrix(1 0 0 1 0 -220.9231)">
						<stop  offset="0" style="stop-color:#FFFFFF"/>
						<stop  offset="0.5824" style="stop-color:#DAE4FC"/>
						<stop  offset="0.9993" style="stop-color:#BDCEFA"/>
					</linearGradient>
					<path id="XMLID_317_" class="st57" d="M447.6,526.2l-29,16.8c-1.2,0.6-2.3,0.3-3.8,0l0,0c-1.2-0.6-1.2-1.7-0.3-2l29-16.8
						c1.2-0.6,2.3-0.3,3.8,0l0,0C448.7,524.8,448.7,525.9,447.6,526.2z"/>
					
						<linearGradient id="XMLID_230_" gradientUnits="userSpaceOnUse" x1="540.8586" y1="706.6703" x2="345.9943" y2="709.4052" gradientTransform="matrix(1 0 0 1 0 -220.9231)">
						<stop  offset="0" style="stop-color:#FFFFFF"/>
						<stop  offset="0.5824" style="stop-color:#DAE4FC"/>
						<stop  offset="0.9993" style="stop-color:#BDCEFA"/>
					</linearGradient>
					<path id="XMLID_316_" class="st58" d="M451.9,485.6l-28.7,16.8c-1.2,0.6-2.6,0.3-3.8,0l-19.1-11c-1.2-0.6-1.4-1.7-0.3-2.3
						l28.7-16.8c1.2-0.6,2.6-0.3,3.8,0l19.4,11C453.1,483.9,453.1,485,451.9,485.6z"/>
					
						<linearGradient id="XMLID_234_" gradientUnits="userSpaceOnUse" x1="541.4655" y1="749.9398" x2="346.6018" y2="752.6745" gradientTransform="matrix(1 0 0 1 0 -220.9231)">
						<stop  offset="0" style="stop-color:#FFFFFF"/>
						<stop  offset="0.5824" style="stop-color:#DAE4FC"/>
						<stop  offset="0.9993" style="stop-color:#BDCEFA"/>
					</linearGradient>
					<path id="XMLID_315_" class="st59" d="M502.7,514.6l-66.4,38.6c-1.2,0.6-2.6,0.3-3.8,0l-9.3-5.2c-1.2-0.6-1.4-1.7-0.3-2.3
						l66.4-38.6c1.2-0.6,2.6-0.3,3.8,0l9.3,5.2C503.8,513.2,503.8,514.3,502.7,514.6z"/>
				</g>
			</g>
			<g id="XMLID_309_">
				<g id="XMLID_74_">
					<path id="XMLID_75_" class="st33" d="M511.7,522.1l-71.3,41.2c-2.6,1.7-7.8,1.4-11.3-0.3l-74.5-43.2c-1.7-1.2-2.6-2.3-2.6-3.8
						l0,0v2.6c0,1.4,1.2,2.6,2.6,3.8l74.5,43.2c3.5,2,8.4,2,11.3,0.3l71.3-41.2c1.4-0.6,2-1.7,2-2.6v-2.6l0,0
						C513.7,520.4,512.8,521.6,511.7,522.1z"/>
				</g>
				
					<linearGradient id="XMLID_241_" gradientUnits="userSpaceOnUse" x1="514.3704" y1="760.5212" x2="352.7559" y2="760.5212" gradientTransform="matrix(1 0 0 1 0 -220.9231)">
					<stop  offset="0" style="stop-color:#FFFFFF"/>
					<stop  offset="0.5824" style="stop-color:#DAE4FC"/>
					<stop  offset="0.9993" style="stop-color:#BDCEFA"/>
				</linearGradient>
				<path id="XMLID_76_" class="st60" d="M511.7,519.8L440.3,561c-2.6,1.7-7.8,1.4-11.3-0.3l-74.5-43.2c-1.4-0.6-2-1.7-2.3-2.6
					c-0.6,1.7,0,3.5,2.3,4.6l74.5,43.2c3.5,2,8.4,2,11.3,0.3l71.3-41.2c1.7-1.2,2.3-2.3,1.7-4.1
					C512.8,518.7,512.5,519.5,511.7,519.8z"/>
			</g>
			<g id="XMLID_305_">
				<g id="XMLID_77_">
					<path id="XMLID_78_" class="st33" d="M511.7,527.4l-71.3,41.2c-2.6,1.7-7.8,1.4-11.3-0.3L354.5,525c-1.7-1.2-2.6-2.3-2.6-3.8
						l0,0v2.6c0,1.4,1.2,2.6,2.6,3.8l74.5,43.2c3.5,2,8.4,2,11.3,0.3l71.3-41.2c1.4-0.6,2-1.7,2-2.6v-2.6l0,0
						C513.7,525.6,512.8,526.5,511.7,527.4z"/>
				</g>
				
					<linearGradient id="XMLID_242_" gradientUnits="userSpaceOnUse" x1="516.9738" y1="763.867" x2="351.0032" y2="765.9979" gradientTransform="matrix(1 0 0 1 0 -220.9231)">
					<stop  offset="0" style="stop-color:#FFFFFF"/>
					<stop  offset="0.5824" style="stop-color:#DAE4FC"/>
					<stop  offset="0.9993" style="stop-color:#BDCEFA"/>
				</linearGradient>
				<path id="XMLID_306_" class="st61" d="M511.7,524.8L440,565.9c-2.6,1.7-7.8,1.4-11.3-0.3l-74.2-43.2c-1.4-0.6-2-1.7-2.3-2.6
					c-0.6,1.7,0,3.5,2.3,4.6l74.5,43.2c3.5,2,8.4,2,11.3,0.3l71.3-41.2c1.7-1.2,2.3-2.3,1.7-4.1
					C512.8,523.9,512.5,524.5,511.7,524.8z"/>
			</g>
			<g id="XMLID_301_">
				<g id="XMLID_79_">
					<path id="XMLID_80_" class="st33" d="M511.7,532.3l-71.3,41.2c-2.6,1.7-7.8,1.4-11.3-0.3L354.5,530c-1.7-1.2-2.6-2.3-2.6-3.8
						l0,0v2.6c0,1.4,1.2,2.6,2.6,3.8l74.5,43.2c3.5,2,8.4,2,11.3,0.3l71.3-41.2c1.4-0.6,2-1.7,2-2.6v-2.6l0,0
						C513.7,530.6,512.8,531.7,511.7,532.3z"/>
				</g>
				
					<linearGradient id="XMLID_243_" gradientUnits="userSpaceOnUse" x1="513.4698" y1="773.0687" x2="352.5415" y2="769.1723" gradientTransform="matrix(1 0 0 1 0 -220.9231)">
					<stop  offset="0" style="stop-color:#FFFFFF"/>
					<stop  offset="0.5824" style="stop-color:#DAE4FC"/>
					<stop  offset="0.9993" style="stop-color:#BDCEFA"/>
				</linearGradient>
				<path id="XMLID_302_" class="st62" d="M511.7,530l-71.3,41.2c-2.6,1.7-7.8,1.4-11.3-0.3l-74.5-43.2c-1.4-0.6-2-1.7-2.3-2.6
					c-0.6,1.7,0,3.5,2.3,4.6l74.5,43.2c3.5,2,8.4,2,11.3,0.3l71.3-41.2c1.7-1.2,2.3-2.3,1.7-4.1C512.8,528.8,512.5,529.7,511.7,530z
					"/>
			</g>
			<g id="XMLID_297_">
				<g id="XMLID_81_">
					<path id="XMLID_82_" class="st33" d="M511.7,537.5l-71.3,41.2c-2.6,1.7-7.8,1.4-11.3-0.3l-74.5-43.2c-1.7-1.2-2.6-2.3-2.6-3.8
						l0,0v2.6c0,1.4,1.2,2.6,2.6,3.8L429,581c3.5,2,8.4,2,11.3,0.3l71.3-41.2c1.4-0.6,2-1.7,2-2.6v-2.6l0,0
						C513.7,535.8,512.8,536.6,511.7,537.5z"/>
				</g>
				
					<linearGradient id="XMLID_244_" gradientUnits="userSpaceOnUse" x1="514.2159" y1="775.8862" x2="351.7254" y2="775.8862" gradientTransform="matrix(1 0 0 1 0 -220.9231)">
					<stop  offset="0" style="stop-color:#FFFFFF"/>
					<stop  offset="0.5824" style="stop-color:#DAE4FC"/>
					<stop  offset="0.9993" style="stop-color:#BDCEFA"/>
				</linearGradient>
				<path id="XMLID_298_" class="st63" d="M511.7,535.2l-71.3,41.2c-2.6,1.7-7.8,1.4-11.3-0.3l-74.5-43.2c-1.4-0.6-2-1.7-2.3-2.6
					c-0.6,1.7,0,3.5,2.3,4.6l74.5,43.2c3.5,2,8.4,2,11.3,0.3l71.3-41.2c1.7-1.2,2.3-2.3,1.7-4.1C512.8,534,512.5,534.6,511.7,535.2z
					"/>
			</g>
			<g id="XMLID_293_">
				<g id="XMLID_83_">
					<path id="XMLID_84_" class="st33" d="M511.7,542.4l-71.3,41.2c-2.6,1.7-7.8,1.4-11.3-0.3l-74.5-43.2c-1.7-1.2-2.6-2.3-2.6-3.8
						l0,0v2.6c0,1.4,1.2,2.6,2.6,3.8l74.5,43.5c3.5,2,8.4,2,11.3,0.3l71.3-41.2c1.4-0.6,2-1.7,2-2.6v-2.9l0,0
						C513.7,540.7,512.8,541.9,511.7,542.4z"/>
				</g>
				
					<linearGradient id="XMLID_245_" gradientUnits="userSpaceOnUse" x1="512.1608" y1="780.8146" x2="351.1919" y2="780.8146" gradientTransform="matrix(1 0 0 1 0 -220.9231)">
					<stop  offset="0" style="stop-color:#FFFFFF"/>
					<stop  offset="0.5824" style="stop-color:#DAE4FC"/>
					<stop  offset="0.9993" style="stop-color:#BDCEFA"/>
				</linearGradient>
				<path id="XMLID_85_" class="st64" d="M511.7,540.1l-71.3,41.2c-2.6,1.7-7.8,1.4-11.3-0.3l-74.5-43.2c-1.4-0.6-2-1.7-2.3-2.6
					c-0.6,1.7,0,3.5,2.3,4.6L429,583c3.5,2,8.4,2,11.3,0.3l71.3-41.2c1.7-1.2,2.3-2.3,1.7-4.1C512.8,539.3,512.5,539.8,511.7,540.1z
					"/>
			</g>
			<g id="XMLID_289_">
				<g id="XMLID_86_">
					<path id="XMLID_87_" class="st33" d="M511.7,547.7l-71.3,41.2c-2.6,1.7-7.8,1.4-11.3-0.3l-74.5-43.2c-1.7-1.2-2.6-2.3-2.6-3.8
						l0,0v2.6c0,1.4,1.2,2.6,2.6,3.8l74.5,43.2c3.5,2,8.4,2,11.3,0.3l71.3-41.2c1.4-0.6,2-1.7,2-2.6v-2.6l0,0
						C513.7,545.9,512.8,547.1,511.7,547.7z"/>
				</g>
				
					<linearGradient id="XMLID_246_" gradientUnits="userSpaceOnUse" x1="512.8372" y1="786.033" x2="354.1599" y2="786.033" gradientTransform="matrix(1 0 0 1 0 -220.9231)">
					<stop  offset="0" style="stop-color:#FFFFFF"/>
					<stop  offset="0.5824" style="stop-color:#DAE4FC"/>
					<stop  offset="0.9993" style="stop-color:#BDCEFA"/>
				</linearGradient>
				<path id="XMLID_88_" class="st65" d="M511.7,545.3l-71.3,41.2c-2.6,1.7-7.8,1.4-11.3-0.3L354.5,543c-1.4-0.6-2-1.7-2.3-2.6
					c-0.6,1.7,0,3.5,2.3,4.6l74.5,43.2c3.5,2,8.4,2,11.3,0.3l71.3-41.2c1.7-1.2,2.3-2.3,1.7-4.1
					C512.8,544.2,512.5,545.1,511.7,545.3z"/>
			</g>
		</g>
		<g id="XMLID_264_">
			<g id="XMLID_277_">
				<path id="XMLID_287_" class="st22" d="M683.9,387.6l71,41.2c2.6,1.7,7.8,1.4,11.3-0.3l74.5-43.2c3.5-2,3.8-4.6,0.6-6.4
					L770,337.8c-2.6-1.7-7.8-1.4-11.3,0.3l-74.2,43.2C681,383.3,680.7,385.9,683.9,387.6z"/>
				<g id="XMLID_89_">
					<path id="XMLID_286_" class="st33" d="M683.9,387.6l71,41.2c2.6,1.7,7.8,1.4,11.3-0.3l74.5-43.2c1.7-1.2,2.6-2.3,2.6-3.8l0,0
						v2.6c0,1.4-1.2,2.6-2.6,3.8l-74.5,43.2c-3.5,2-8.4,2-11.3,0.3l-71.3-41.2c-1.4-0.6-2-1.7-2-2.6V385l0,0
						C681.8,385.9,682.4,387.1,683.9,387.6z"/>
				</g>
				<g id="XMLID_90_">
					
						<linearGradient id="XMLID_247_" gradientUnits="userSpaceOnUse" x1="841.6293" y1="600.1556" x2="693.4595" y2="604.1873" gradientTransform="matrix(1 0 0 1 0 -220.9231)">
						<stop  offset="0" style="stop-color:#FFFFFF"/>
						<stop  offset="0.5824" style="stop-color:#DAE4FC"/>
						<stop  offset="0.9993" style="stop-color:#BDCEFA"/>
					</linearGradient>
					<path id="XMLID_284_" class="st66" d="M732,363l66.7,38.6c1.2,0.6,2.3,0.3,3.8,0l0,0c1.2-0.6,1.2-1.7,0.3-2L736,361
						c-1.2-0.6-2.3-0.3-3.8,0l0,0C731.1,361.5,731.1,362.1,732,363z"/>
					
						<linearGradient id="XMLID_248_" gradientUnits="userSpaceOnUse" x1="841.7338" y1="604.0063" x2="693.5653" y2="608.0381" gradientTransform="matrix(1 0 0 1 0 -220.9231)">
						<stop  offset="0" style="stop-color:#FFFFFF"/>
						<stop  offset="0.5824" style="stop-color:#DAE4FC"/>
						<stop  offset="0.9993" style="stop-color:#BDCEFA"/>
					</linearGradient>
					<path id="XMLID_283_" class="st67" d="M724.4,367l66.7,38.6c1.2,0.6,2.3,0.3,3.8,0l0,0c1.2-0.6,1.2-1.7,0.3-2L728.5,365
						c-1.2-0.6-2.3-0.3-3.8,0l0,0C723.9,365.6,723.6,366.8,724.4,367z"/>
					
						<linearGradient id="XMLID_249_" gradientUnits="userSpaceOnUse" x1="841.8467" y1="608.1625" x2="693.6786" y2="612.1943" gradientTransform="matrix(1 0 0 1 0 -220.9231)">
						<stop  offset="0" style="stop-color:#FFFFFF"/>
						<stop  offset="0.5824" style="stop-color:#DAE4FC"/>
						<stop  offset="0.9993" style="stop-color:#BDCEFA"/>
					</linearGradient>
					<path id="XMLID_282_" class="st68" d="M717.5,371.4l66.7,38.6c1.2,0.6,2.3,0.3,3.8,0l0,0c1.2-0.6,1.2-1.7,0.3-2l-66.7-38.6
						c-1.2-0.6-2.3-0.3-3.8,0l0,0C716.3,369.7,716.3,370.8,717.5,371.4z"/>
					
						<linearGradient id="XMLID_250_" gradientUnits="userSpaceOnUse" x1="842.2574" y1="623.2402" x2="694.0882" y2="627.2722" gradientTransform="matrix(1 0 0 1 0 -220.9231)">
						<stop  offset="0" style="stop-color:#FFFFFF"/>
						<stop  offset="0.5824" style="stop-color:#DAE4FC"/>
						<stop  offset="0.9993" style="stop-color:#BDCEFA"/>
					</linearGradient>
					<path id="XMLID_281_" class="st69" d="M747.6,397.2l29,16.8c1.2,0.6,2.3,0.3,3.8,0l0,0c1.2-0.6,1.2-1.7,0.3-2l-29.3-17.1
						c-1.2-0.6-2.3-0.3-3.8,0l0,0C746.8,396,746.8,396.6,747.6,397.2z"/>
					
						<linearGradient id="XMLID_251_" gradientUnits="userSpaceOnUse" x1="841.3095" y1="588.4072" x2="693.1403" y2="592.4392" gradientTransform="matrix(1 0 0 1 0 -220.9231)">
						<stop  offset="0" style="stop-color:#FFFFFF"/>
						<stop  offset="0.5824" style="stop-color:#DAE4FC"/>
						<stop  offset="0.9993" style="stop-color:#BDCEFA"/>
					</linearGradient>
					<path id="XMLID_280_" class="st70" d="M743.3,356.3l66.4,38.6c1.2,0.6,2.6,0.3,3.8,0l19.1-11c1.2-0.6,1.4-1.7,0.3-2.3
						L766.5,343c-1.2-0.6-2.6-0.3-3.8,0l-19.1,11C742.4,355.2,742.4,356,743.3,356.3z"/>
					
						<linearGradient id="XMLID_253_" gradientUnits="userSpaceOnUse" x1="842.1432" y1="619.0496" x2="693.9744" y2="623.0814" gradientTransform="matrix(1 0 0 1 0 -220.9231)">
						<stop  offset="0" style="stop-color:#FFFFFF"/>
						<stop  offset="0.5824" style="stop-color:#DAE4FC"/>
						<stop  offset="0.9993" style="stop-color:#BDCEFA"/>
					</linearGradient>
					<path id="XMLID_279_" class="st71" d="M692.6,385.6l66.4,38.6c1.2,0.6,2.6,0.3,3.8,0l9.3-5.2c1.2-0.6,1.4-1.7,0.3-2.3
						l-66.4-38.6c-1.2-0.6-2.6-0.3-3.8,0l-9.3,5.2C691.7,384.4,691.7,385,692.6,385.6z"/>
				</g>
			</g>
			<g id="XMLID_70_">
				<g id="XMLID_91_">
					<path id="XMLID_276_" class="st33" d="M683.9,392.8l71.3,41.2c2.6,1.7,7.8,1.4,11.3-0.3l74.5-43.2c1.7-1.2,2.6-2.3,2.6-3.8l0,0
						v2.6c0,1.4-1.2,2.6-2.6,3.8l-74.5,43.2c-3.5,2-8.4,2-11.3,0.3l-71.3-41.2c-1.4-0.6-2-1.7-2-2.6v-2.6l0,0
						C681.8,391.1,682.4,392.3,683.9,392.8z"/>
				</g>
				
					<linearGradient id="XMLID_254_" gradientUnits="userSpaceOnUse" x1="848.6955" y1="623.9016" x2="643.938" y2="638.485" gradientTransform="matrix(1 0 0 1 0 -220.9231)">
					<stop  offset="0" style="stop-color:#FFFFFF"/>
					<stop  offset="0.5824" style="stop-color:#DAE4FC"/>
					<stop  offset="0.9993" style="stop-color:#BDCEFA"/>
				</linearGradient>
				<path id="XMLID_274_" class="st72" d="M683.9,390.8l71.3,41.2c2.6,1.7,7.8,1.4,11.3-0.3l74.5-43.2c1.4-0.6,2-1.7,2.3-2.6
					c0.6,1.7,0,3.5-2.3,4.6l-74.5,43.2c-3.5,2-8.4,2-11.3,0.3l-71.3-41.2c-1.7-1.2-2.3-2.3-1.7-4.1
					C682.4,389.7,682.7,390.2,683.9,390.8z"/>
			</g>
			<g id="XMLID_92_">
				<g id="XMLID_93_">
					<path id="XMLID_272_" class="st33" d="M683.9,398.1l71,41.2c2.6,1.7,7.8,1.4,11.3-0.3l74.5-43.2c1.7-1.2,2.6-2.3,2.6-3.8l0,0
						v2.6c0,1.4-1.2,2.6-2.6,3.8l-74.5,43.2c-3.5,2-8.4,2-11.3,0.3l-71.6-41.2c-1.4-0.6-2-1.7-2-2.6v-2.6l0,0
						C681.8,396.3,682.4,397.2,683.9,398.1z"/>
				</g>
				
					<linearGradient id="XMLID_255_" gradientUnits="userSpaceOnUse" x1="849.0656" y1="629.0937" x2="644.3077" y2="643.6769" gradientTransform="matrix(1 0 0 1 0 -220.9231)">
					<stop  offset="0" style="stop-color:#FFFFFF"/>
					<stop  offset="0.5824" style="stop-color:#DAE4FC"/>
					<stop  offset="0.9993" style="stop-color:#BDCEFA"/>
				</linearGradient>
				<path id="XMLID_270_" class="st73" d="M683.9,396l71.3,41.2c2.6,1.7,7.8,1.4,11.3-0.3l74.5-43.2c1.4-0.6,2-1.7,2.3-2.6
					c0.6,1.7,0,3.5-2.3,4.6l-74.5,43.2c-3.5,2-8.4,2-11.3,0.3l-71.3-41.2c-1.7-1.2-2.3-2.3-1.7-4.1
					C682.4,394.9,682.7,395.2,683.9,396z"/>
			</g>
			<g id="XMLID_94_">
				<g id="XMLID_95_">
					<path id="XMLID_268_" class="st33" d="M683.9,403l71.3,41.2c2.6,1.7,7.8,1.4,11.3-0.3l74.5-43.2c1.7-1.2,2.6-2.3,2.6-3.8l0,0
						v2.6c0,1.4-1.2,2.6-2.6,3.8l-74.5,43.2c-3.5,2-8.4,2-11.3,0.3l-71.3-41.2c-1.4-0.6-2-1.7-2-2.6v-2.6l0,0
						C681.8,401.3,682.4,402.4,683.9,403z"/>
				</g>
				
					<linearGradient id="XMLID_256_" gradientUnits="userSpaceOnUse" x1="849.4151" y1="633.9973" x2="644.6566" y2="648.5804" gradientTransform="matrix(1 0 0 1 0 -220.9231)">
					<stop  offset="0" style="stop-color:#FFFFFF"/>
					<stop  offset="0.5824" style="stop-color:#DAE4FC"/>
					<stop  offset="0.9993" style="stop-color:#BDCEFA"/>
				</linearGradient>
				<path id="XMLID_266_" class="st74" d="M683.9,401l71.3,41.2c2.6,1.7,7.8,1.4,11.3-0.3l74.5-43.2c1.4-0.6,2-1.7,2.3-2.6
					c0.6,1.7,0,3.5-2.3,4.6l-74.5,43.2c-3.5,2-8.4,2-11.3,0.3L683.9,403c-1.7-1.2-2.3-2.3-1.7-4.1
					C682.4,400.1,682.7,400.4,683.9,401z"/>
			</g>
		</g>
	</g>
	<g id="XMLID_238_">
		<g id="XMLID_257_">
			<path id="XMLID_262_" class="st22" d="M586.4,608c14.2,8.4,14.2,21.7,0,30.2c-14.2,8.4-37.7,8.4-52.5,0
				c-14.2-8.4-14.2-21.7,0-30.2C548.8,599.8,572,599.8,586.4,608z"/>
			
				<linearGradient id="XMLID_258_" gradientUnits="userSpaceOnUse" x1="633.8681" y1="855.4022" x2="539.6568" y2="861.6532" gradientTransform="matrix(1 0 0 1 0 -220.9231)">
				<stop  offset="0" style="stop-color:#E4F2FF;stop-opacity:0"/>
				<stop  offset="5.554383e-002" style="stop-color:#E1EFFF;stop-opacity:5.558312e-002"/>
				<stop  offset="0.6478" style="stop-color:#C7D7FB;stop-opacity:0.6483"/>
				<stop  offset="0.9993" style="stop-color:#BDCEFA"/>
			</linearGradient>
			<path id="XMLID_261_" class="st75" d="M586.4,638.1c-14.2,8.4-37.7,8.4-52.5,0c-7.2-4.1-11-9.6-11-15.1v13.3
				c0,5.5,3.5,11,11,15.4c14.2,8.4,37.7,8.4,52.5,0c7.2-4.1,11-9.9,11-15.4V623C597.5,628.5,593.7,634.1,586.4,638.1z"/>
			
				<linearGradient id="XMLID_259_" gradientUnits="userSpaceOnUse" x1="528.1047" y1="836.3125" x2="592.3568" y2="836.3125" gradientTransform="matrix(1 0 0 1 0 -220.9231)">
				<stop  offset="0" style="stop-color:#00E9FF"/>
				<stop  offset="0.1813" style="stop-color:#01D1FF"/>
				<stop  offset="0.5456" style="stop-color:#02A6FF"/>
				<stop  offset="0.8306" style="stop-color:#038CFF"/>
				<stop  offset="0.9993" style="stop-color:#0382FF"/>
			</linearGradient>
			<path id="XMLID_96_" class="st76" d="M537.5,616.9c12.5-7.2,33-7.2,45.5,0c4.6,2.6,7.5,6.1,9,9.6c2-5.8-1.2-12.2-9-16.8
				c-12.5-7.2-33-7.2-45.5,0c-7.8,4.3-11,11-9,16.8C529.9,623.3,532.8,619.8,537.5,616.9z"/>
			<g id="XMLID_97_">
				<path id="XMLID_98_" class="st2" d="M583,616.9c-12.5-7.2-33-7.2-45.5,0c-4.6,2.6-7.5,6.1-9,9.6c1.2,3.5,4.1,6.7,9,9.6
					c12.5,7.2,33,7.2,45.5,0c4.6-2.6,7.5-6.1,9-9.6C590.5,623.3,587.6,619.8,583,616.9z"/>
			</g>
		</g>
		<g id="XMLID_240_">
			<path id="XMLID_99_" class="st2" d="M557.5,484.5h-4.1v-4.1c0-0.6-0.6-1.4-1.4-1.4s-1.4,0.6-1.4,1.4v4.1h-4.1
				c-0.6,0-1.4,0.6-1.4,1.4c0,0.9,0.6,1.4,1.4,1.4h4.1v4.1c0,0.6,0.6,1.4,1.4,1.4s1.4-0.6,1.4-1.4v-4.1h4.1c0.6,0,1.4-0.6,1.4-1.4
				C558.9,485,558.3,484.5,557.5,484.5z"/>
			<path id="XMLID_100_" class="st2" d="M580.6,519h-4.1v-4.1c0-0.6-0.6-1.4-1.4-1.4s-1.4,0.6-1.4,1.4v4.1h-4.1
				c-0.6,0-1.4,0.6-1.4,1.4s0.6,1.4,1.4,1.4h4.1v4.1c0,0.6,0.6,1.4,1.4,1.4s1.4-0.6,1.4-1.4v-4.1h4.1c0.6,0,1.4-0.6,1.4-1.4
				S581.2,519,580.6,519z"/>
			<path id="XMLID_101_" class="st2" d="M553.4,563.6h-4.1v-4.1c0-0.6-0.6-1.4-1.4-1.4s-1.4,0.6-1.4,1.4v4.1h-4.1
				c-0.6,0-1.4,0.6-1.4,1.4s0.6,1.4,1.4,1.4h4.1v4.1c0,0.6,0.6,1.4,1.4,1.4s1.4-0.6,1.4-1.4v-4.1h4.1c0.6,0,1.4-0.6,1.4-1.4
				S554,563.6,553.4,563.6z"/>
			<path id="XMLID_102_" class="st2" d="M572.5,596.7h-4.1v-4.1c0-0.6-0.6-1.4-1.4-1.4s-1.4,0.6-1.4,1.4v4.1h-4.1
				c-0.6,0-1.4,0.6-1.4,1.4c0,0.6,0.6,1.4,1.4,1.4h4.1v4.1c0,0.6,0.6,1.4,1.4,1.4s1.4-0.6,1.4-1.4v-4.1h4.1c0.6,0,1.4-0.6,1.4-1.4
				S573.1,596.7,572.5,596.7z"/>
			<circle id="XMLID_252_" class="st4" cx="567" cy="500.1" r="3.2"/>
			<circle id="XMLID_103_" class="st4" cx="578" cy="547.9" r="3.2"/>
			<circle id="XMLID_104_" class="st4" cx="555.4" cy="581" r="3.2"/>
			<circle id="XMLID_105_" class="st4" cx="565.6" cy="557.8" r="3.2"/>
			<circle id="XMLID_106_" class="st4" cx="542.7" cy="547.9" r="3.2"/>
			<circle id="XMLID_107_" class="st4" cx="554" cy="521" r="3.2"/>
			<circle id="XMLID_108_" class="st4" cx="574.9" cy="477.8" r="3.2"/>
			<circle id="XMLID_109_" class="st4" cx="545" cy="468.8" r="3.2"/>
			
				<rect id="XMLID_169_" x="537.8" y="505" transform="matrix(-0.7071 0.7071 -0.7071 -0.7071 1287.6593 486.9959)" class="st3" width="10.4" height="10.4"/>
			
				<rect id="XMLID_168_" x="560.4" y="453.9" transform="matrix(-0.7071 0.7071 -0.7071 -0.7071 1290.1815 383.919)" class="st3" width="10.4" height="10.4"/>
			
				<rect id="XMLID_167_" x="572.3" y="566.2" transform="matrix(-0.7071 0.7071 -0.7071 -0.7071 1389.9489 567.1751)" class="st3" width="10.4" height="10.4"/>
			
				<rect id="XMLID_166_" x="551.6" y="533.2" transform="matrix(-0.7071 0.7071 -0.7071 -0.7071 1331.194 525.4586)" class="st3" width="10.4" height="10.4"/>
		</g>
		
			<linearGradient id="XMLID_260_" gradientUnits="userSpaceOnUse" x1="560.2098" y1="636.242" x2="560.2098" y2="949.559" gradientTransform="matrix(1 0 0 1 0 -220.9231)">
			<stop  offset="0" style="stop-color:#FFFFFF;stop-opacity:0"/>
			<stop  offset="1" style="stop-color:#00E9FF"/>
		</linearGradient>
		<path id="XMLID_239_" class="st77" d="M528.2,622.2c-0.3,5.2,2.6,10.1,9.3,13.9c12.5,7.2,33,7.2,45.5,0c6.4-3.8,9.9-9,9.3-13.9
			V395.5c0.3-5.2-2.6-10.1-9.3-13.9c-12.5-7.2-33-7.2-45.5,0c-6.4,3.8-9.9,9-9.3,13.9V622.2z"/>
	</g>
	<g id="XMLID_233_">
		
			<linearGradient id="XMLID_265_" gradientUnits="userSpaceOnUse" x1="217.4033" y1="693.8619" x2="262.2562" y2="348.2354" gradientTransform="matrix(1 0 0 1 0 -220.9231)">
			<stop  offset="0" style="stop-color:#0382FF;stop-opacity:0"/>
			<stop  offset="0.6443" style="stop-color:#79A6FE;stop-opacity:0.645"/>
			<stop  offset="0.9989" style="stop-color:#B6B9FE"/>
		</linearGradient>
		<path id="XMLID_237_" class="st78" d="M301.2,265.3L169.9,341c-10.1,5.8-18.8,20.3-18.8,32.2v15.7c0,11.9,8.4,16.8,18.8,11
			l97.7-56.5l-5.8,31l33.9-47.3l5.8-3.5c10.1-5.8,18.8-20.3,18.8-32.2v-15.7C320,263.8,311.6,259.2,301.2,265.3z"/>
		<g id="XMLID_69_">
			
				<linearGradient id="XMLID_267_" gradientUnits="userSpaceOnUse" x1="251.8327" y1="530.378" x2="77.872" y2="696.4825" gradientTransform="matrix(1 0 0 1 0 -220.9231)">
				<stop  offset="0" style="stop-color:#FFFFFF"/>
				<stop  offset="0.3656" style="stop-color:#E1E9FD;stop-opacity:0.6341"/>
				<stop  offset="0.7632" style="stop-color:#C7D5FB;stop-opacity:0.2363"/>
				<stop  offset="0.9993" style="stop-color:#BDCEFA;stop-opacity:0"/>
			</linearGradient>
			<path id="XMLID_236_" class="st79" d="M299.7,290.8l-127.6,73.9c-1.4,0.6-2.3,0-2.3-1.7l0,0c0-1.7,1.2-3.8,2.3-4.6l127.6-73.9
				c1.4-0.6,2.3,0,2.3,1.7l0,0C302,287.9,300.9,290.2,299.7,290.8z"/>
			
				<linearGradient id="XMLID_269_" gradientUnits="userSpaceOnUse" x1="253.7413" y1="532.3763" x2="79.78" y2="698.4811" gradientTransform="matrix(1 0 0 1 0 -220.9231)">
				<stop  offset="0" style="stop-color:#FFFFFF"/>
				<stop  offset="0.3656" style="stop-color:#E1E9FD;stop-opacity:0.6341"/>
				<stop  offset="0.7632" style="stop-color:#C7D5FB;stop-opacity:0.2363"/>
				<stop  offset="0.9993" style="stop-color:#BDCEFA;stop-opacity:0"/>
			</linearGradient>
			<path id="XMLID_235_" class="st80" d="M233.9,345.3l-62.3,35.9c-1.2,0.6-2,0-2-1.7v-0.6c0-1.7,1.2-3.5,2-4.1l62.6-35.9
				c1.2-0.6,2,0,2,1.7v0.6C236.2,342.7,235.4,344.4,233.9,345.3z"/>
		</g>
	</g>
	<g id="XMLID_204_">
		<g id="XMLID_210_">
			<g id="XMLID_111_">
				<g id="XMLID_112_">
					<g id="XMLID_113_">
						<path id="XMLID_232_" d="M376.3,348.2c0,0.3,0.3,1.2,1.2,1.4c0.3,0,0-2.6,0.6-2c0.3,0,9,6.7,13.6,5.8c0.6,0,0.6-0.6,0.6-1.2
							v-0.9c0-1.4-1.7-3.2-4.3-5.8c-3.2-3.2-5.2-4.6-9.6-2c-1.4,0.6-1.7,1.4-1.7,1.7L376.3,348.2z"/>
						<path id="XMLID_231_" class="st81" d="M387.3,345.3c3.8,3.8,5.8,5.8,3.8,6.7c-2,1.2-5.8-0.6-9.6-3.5c-3.5-2.6-8.4-2.6-3.8-5.5
							C382.6,340.1,384.4,342.1,387.3,345.3z"/>
					</g>
				</g>
				<path id="XMLID_114_" class="st82" d="M383.8,343.3l-0.3-28.1c0-1.4-1.2-2.6-2-3.2l-2.3-1.2l-9.3,6.1l4.3,2.3
					c0,0-0.6,7.8,1.4,15.4c0,0,1.7,3.2,1.4,10.4C377.1,345.3,382.1,346.5,383.8,343.3z"/>
			</g>
			<g id="XMLID_115_">
				<g id="XMLID_116_">
					<g id="XMLID_117_">
						<path id="XMLID_226_" d="M362.6,355.2c0,0.3,0.3,1.2,1.2,1.4c0.3,0,0-2.6,0.6-2c0.3,0,9,6.7,13.6,5.8c0.6,0,0.6-0.6,0.6-1.2
							v-1.2c0-1.4-1.7-3.2-4.3-5.8c-3.2-3.2-5.2-4.6-9.6-2c-1.4,0.6-1.7,1.4-1.7,1.7L362.6,355.2z"/>
						<path id="XMLID_225_" class="st81" d="M373.7,351.7c3.8,3.8,5.8,5.8,3.8,6.7c-2,1.2-5.8-0.6-9.6-3.5c-3.5-2.6-8.4-2.6-3.8-5.5
							C369,347,370.8,349.1,373.7,351.7z"/>
					</g>
				</g>
				<path id="XMLID_118_" class="st82" d="M370.2,349.9l-0.3-33l-11,3.5l2,5.5c0,0-0.6,7.2,1.4,14.5c0,0,1.7,3.2,1.4,10.4
					C363.5,351.1,367.3,353.4,370.2,349.9z"/>
			</g>
			<path id="XMLID_119_" class="st83" d="M360.6,283.3c0,0,12.2-11.3,4.6-31l-5.8,20.3L360.6,283.3z"/>
			<g id="XMLID_120_">
				<path id="XMLID_219_" class="st82" d="M374.8,310.2L374.8,310.2c-2,0.6-3.8-0.6-4.3-2.3l-9.9-33.3c-0.6-2,0.6-3.8,2.3-4.3l0,0
					c2-0.6,3.8,0.6,4.3,2.3l9.9,33.3C378,307.9,376.8,309.9,374.8,310.2z"/>
			</g>
			<path id="XMLID_121_" class="st84" d="M365,301.2l16.8,10.1c0,0-5.8-1.4-20.9,14.2l-16.2-9.3L365,301.2z"/>
			<path id="XMLID_216_" class="st85" d="M346.7,318.1L346.7,318.1c2.6,0.3,11.3-1.7,20-11.6c0.6-0.6,1.2-2,1.2-2.6V276
				c0-2-0.6-3.5-2-4.1l-6.4-3.8c-1.2-0.6-2.6-0.6-4.6,0.3l-9,5.2c-3.8,2-6.4,7.2-6.4,11.3v27.8c0,0.6,0.3,1.2,0.6,1.4L346.7,318.1z"
				/>
			<path id="XMLID_215_" class="st50" d="M347.6,275.4c0,0.6,0.3,1.4,1.4,2c1.7,1.2,4.6,1.2,6.4,0c1.2-0.6,1.4-1.4,1.4-2v-6.1
				c0-0.6-0.3-1.4-1.4-2c-1.7-1.2-4.6-1.2-6.4,0c-1.2,0.6-1.4,1.4-1.4,2V275.4z"/>
			<circle id="XMLID_214_" class="st82" cx="352.5" cy="259.8" r="12.5"/>
			<path id="XMLID_122_" class="st86" d="M356,283.3c0,0-9.6-10.1-2.6-29.6l11.6,4.1c0,0,4.1-9.9-9.3-13c0,0-9-2-11.9,5.5
				c0,0-7.2,0.6-4.3,15.4C339.4,265.3,339.7,279.2,356,283.3z"/>
			<path id="XMLID_123_" class="st87" d="M343.5,275.7"/>
			<path id="XMLID_124_" class="st88" d="M360.9,325.9"/>
		</g>
		<g id="XMLID_207_">
			<polygon id="XMLID_209_" class="st33" points="386.7,310.2 362.9,323.9 344.7,314 369,300.1 			"/>
			
				<linearGradient id="XMLID_271_" gradientUnits="userSpaceOnUse" x1="396.1671" y1="501.1914" x2="360.9029" y2="544.1217" gradientTransform="matrix(1 0 0 1 0 -220.9231)">
				<stop  offset="0" style="stop-color:#FFFFFF"/>
				<stop  offset="0.5824" style="stop-color:#DAE4FC"/>
				<stop  offset="0.9993" style="stop-color:#BDCEFA"/>
			</linearGradient>
			<polygon id="XMLID_208_" class="st89" points="386.7,310.2 390.5,286.5 363.8,301.2 362.9,323.9 			"/>
		</g>
		<g id="XMLID_110_">
			<path id="XMLID_206_" class="st82" d="M367.6,311.1L367.6,311.1c-1.4,1.4-3.8,1.2-5.2-0.3L340,284.7c-1.4-1.4-1.2-3.8,0.3-5.2
				l0,0c1.4-1.4,3.8-1.2,5.2,0.3l22.3,26.1C369.3,307.3,369,309.9,367.6,311.1z"/>
		</g>
	</g>
	<g id="XMLID_165_">
		<g id="XMLID_125_">
			<g id="XMLID_126_">
				<g id="XMLID_127_">
					<g id="XMLID_128_">
						<path id="XMLID_203_" class="st90" d="M553.1,334.3c-0.3,0.3-0.6,0.6-0.6,1.4c0,0.3,2-1.4,2-0.3c0,0.3-1.7,11,1.7,14.2
							c0.3,0.3,1.2,0.3,1.4,0l1.2-0.6c1.2-0.6,1.7-3.2,2.6-6.4c1.2-4.1,1.7-6.4-2.6-9.3c-1.4-0.6-2-1.2-2.3-0.6L553.1,334.3z"/>
						<path id="XMLID_202_" class="st81" d="M561.2,342.4c-1.4,4.6-2,7.5-4.1,6.4c-1.7-1.2-2.3-5.2-1.7-9.9c0.6-4.1-1.7-8.4,2.6-5.8
							C563,336,562.4,338.3,561.2,342.4z"/>
					</g>
				</g>
				<path id="XMLID_199_" class="st91" d="M589.6,311.4l-9.3,3.5l-3.8,4.1c0,0-6.4,2.6-11.6,8.1c0,0-2,2.6-8.4,6.1
					c0,0,0,4.3,4.1,5.2l25.8-15.1c1.7-1.2,3.2-2.6,3.2-5.2C589.9,316.9,589.9,314.6,589.6,311.4z"/>
			</g>
		</g>
		<g id="XMLID_129_">
			<g id="XMLID_130_">
				<g id="XMLID_131_">
					<path id="XMLID_196_" class="st47" d="M570.5,357.2c0,0.3,0.3,1.2,1.2,1.4c0.3,0,0-2.3,0.6-2c0.3,0,8.4,6.7,13.3,5.5
						c0.6,0,0.6-0.6,0.6-1.2v-1.2c0-1.2-1.7-3.2-4.3-5.8c-3.2-2.6-4.6-4.6-9.3-2c-1.4,0.6-1.7,1.4-1.7,1.7L570.5,357.2z"/>
					<path id="XMLID_195_" class="st81" d="M581.8,354c3.8,3.5,5.5,5.5,3.8,6.4c-1.7,1.2-5.5-0.6-9.3-3.5c-3.5-2.3-8.1-2.6-3.8-5.5
						C576.9,349.4,578.6,351.1,581.8,354z"/>
				</g>
			</g>
			<path id="XMLID_192_" class="st82" d="M578,352.3l-0.3-32.2l-9,2.6v5.8c0,0-0.6,7.2,1.4,13.9c0,0,1.4,3.2,1.4,10.1
				C571.4,353.4,575.4,355.5,578,352.3z"/>
		</g>
		<g id="XMLID_132_">
			<path id="XMLID_190_" class="st91" d="M601.8,307L601.8,307c-1.7,0.6-3.8,0-4.6-1.7l-13.9-30.7c-0.6-1.7,0-3.8,1.7-4.6l0,0
				c1.7-0.6,3.8,0,4.6,1.7l13.9,30.7C604.4,304.4,603.6,306.5,601.8,307z"/>
		</g>
		<g id="XMLID_181_">
			<polygon id="XMLID_188_" class="st33" points="603.3,303.6 581.8,291.4 581.8,273.7 603.3,286.5 			"/>
			<g id="XMLID_134_">
				
					<linearGradient id="XMLID_273_" gradientUnits="userSpaceOnUse" x1="600.2972" y1="504.6203" x2="595.7755" y2="522.36" gradientTransform="matrix(1 0 0 1 0 -220.9231)">
					<stop  offset="0" style="stop-color:#FFFFFF"/>
					<stop  offset="0.3656" style="stop-color:#E1E9FD;stop-opacity:0.6341"/>
					<stop  offset="0.7632" style="stop-color:#C7D5FB;stop-opacity:0.2363"/>
					<stop  offset="0.9993" style="stop-color:#BDCEFA;stop-opacity:0"/>
				</linearGradient>
				<polygon id="XMLID_187_" class="st92" points="597.8,298.9 597.8,285.9 598.3,285.9 598.3,299.2 				"/>
				
					<linearGradient id="XMLID_275_" gradientUnits="userSpaceOnUse" x1="598.7546" y1="504.2274" x2="594.233" y2="521.9668" gradientTransform="matrix(1 0 0 1 0 -220.9231)">
					<stop  offset="0" style="stop-color:#FFFFFF"/>
					<stop  offset="0.3656" style="stop-color:#E1E9FD;stop-opacity:0.6341"/>
					<stop  offset="0.7632" style="stop-color:#C7D5FB;stop-opacity:0.2363"/>
					<stop  offset="0.9993" style="stop-color:#BDCEFA;stop-opacity:0"/>
				</linearGradient>
				<polygon id="XMLID_186_" class="st93" points="596.6,294.6 596.6,285.3 597.5,285.6 597.5,294.9 				"/>
				
					<linearGradient id="XMLID_278_" gradientUnits="userSpaceOnUse" x1="598.0103" y1="504.0373" x2="593.4882" y2="521.7767" gradientTransform="matrix(1 0 0 1 0 -220.9231)">
					<stop  offset="0" style="stop-color:#FFFFFF"/>
					<stop  offset="0.3656" style="stop-color:#E1E9FD;stop-opacity:0.6341"/>
					<stop  offset="0.7632" style="stop-color:#C7D5FB;stop-opacity:0.2363"/>
					<stop  offset="0.9993" style="stop-color:#BDCEFA;stop-opacity:0"/>
				</linearGradient>
				<polygon id="XMLID_185_" class="st94" points="595.7,296.9 595.7,284.7 596.3,285 596.3,297.2 				"/>
				
					<linearGradient id="XMLID_285_" gradientUnits="userSpaceOnUse" x1="596.9883" y1="503.7766" x2="592.4658" y2="521.5163" gradientTransform="matrix(1 0 0 1 0 -220.9231)">
					<stop  offset="0" style="stop-color:#FFFFFF"/>
					<stop  offset="0.3656" style="stop-color:#E1E9FD;stop-opacity:0.6341"/>
					<stop  offset="0.7632" style="stop-color:#C7D5FB;stop-opacity:0.2363"/>
					<stop  offset="0.9993" style="stop-color:#BDCEFA;stop-opacity:0"/>
				</linearGradient>
				<polygon id="XMLID_184_" class="st95" points="594.6,297.2 594.6,283.8 595.4,284.4 595.4,297.5 				"/>
				
					<linearGradient id="XMLID_290_" gradientUnits="userSpaceOnUse" x1="594.8904" y1="503.242" x2="590.3685" y2="520.9814" gradientTransform="matrix(1 0 0 1 0 -220.9231)">
					<stop  offset="0" style="stop-color:#FFFFFF"/>
					<stop  offset="0.3656" style="stop-color:#E1E9FD;stop-opacity:0.6341"/>
					<stop  offset="0.7632" style="stop-color:#C7D5FB;stop-opacity:0.2363"/>
					<stop  offset="0.9993" style="stop-color:#BDCEFA;stop-opacity:0"/>
				</linearGradient>
				<polygon id="XMLID_183_" class="st96" points="593.7,288.5 593.7,283.3 594.3,283.6 594.3,288.5 				"/>
			</g>
		</g>
		
			<linearGradient id="XMLID_291_" gradientUnits="userSpaceOnUse" x1="563.3638" y1="533.9138" x2="590.3651" y2="533.9138" gradientTransform="matrix(1 0 0 1 0 -220.9231)">
			<stop  offset="7.043800e-002" style="stop-color:#8347E2"/>
			<stop  offset="0.2746" style="stop-color:#773BD1"/>
			<stop  offset="0.6762" style="stop-color:#591CA6"/>
			<stop  offset="0.9996" style="stop-color:#3D007E"/>
		</linearGradient>
		<path id="XMLID_180_" class="st97" d="M563.3,312.5v11.9c0,0,13.9,4.6,27-11.9v-11.6L563.3,312.5z"/>
		<path id="XMLID_179_" class="st98" d="M569.6,316.3L569.6,316.3c2.6,0.3,11.3-1.7,19.4-11.3c0.6-0.6,1.2-1.7,1.2-2.6v-26.7
			c0-2-0.6-3.5-2-4.1l-6.4-3.8c-1.2-0.6-2.6-0.6-4.3,0.3l-8.4,5.2c-3.5,2-6.4,6.7-6.4,11v27c0,0.6,0.3,1.2,0.6,1.4L569.6,316.3z"/>
		<path id="XMLID_178_" class="st50" d="M572.2,275.1c0,0.6,0.3,1.4,1.4,1.7c1.7,1.2,4.3,1.2,6.1,0c1.2-0.3,1.4-1.2,1.4-1.7v-5.8
			c0-0.6-0.3-1.4-1.4-1.7c-1.7-1.2-4.3-1.2-6.1,0c-1.2,0.3-1.4,1.2-1.4,1.7V275.1z"/>
		<g id="XMLID_133_">
			<path id="XMLID_177_" class="st99" d="M548.5,313.7L548.5,313.7c-1.7-1.2-2.3-3.2-1.7-4.6l15.4-29.9c1.2-1.7,3.2-2.3,4.6-1.7l0,0
				c1.7,1.2,2.3,3.2,1.7,4.6L553.1,312C551.9,313.7,549.9,314.3,548.5,313.7z"/>
		</g>
		<g id="XMLID_135_">
			<path id="XMLID_175_" class="st47" d="M587.9,256.3l4.3,17.1c0.3,1.7-1.2,3.2-2.6,2.3l-10.1-4.1c-1.2-0.3-1.4-1.4-1.2-2.3
				l3.5-16.8c0.3-1.7,2.6-2,3.8-0.6L587.9,256.3C587.9,256,587.9,256.3,587.9,256.3z"/>
			<path id="XMLID_174_" class="st99" d="M572.5,267c0,1.4-1.2,2-2.3,1.4c-1.4-0.6-2.3-2.3-2.3-4.1c0-1.4,1.2-2,2.3-1.4
				C571.4,263.6,572.5,265.3,572.5,267z"/>
			<circle id="XMLID_173_" class="st99" cx="576.6" cy="259.8" r="12.2"/>
			<path id="XMLID_172_" class="st47" d="M564.7,261.5c0,0,10.1,5.8,15.4-9.3c0,0,2.6,6.1,9.6,4.6c0,0,0-9.9-9.9-11.6
				C579.2,245.6,561.5,243.8,564.7,261.5z"/>
			<path id="XMLID_171_" class="st47" d="M570.5,261.8l4.3,17.1c0.3,1.7-1.2,3.2-2.6,2.3l-10.1-4.1c-1.2-0.3-1.4-1.4-1.2-2.3
				l3.5-16.8c0.3-1.7,2.6-2,3.8-0.6l2.3,4.1C570.2,261.5,570.2,261.8,570.5,261.8z"/>
		</g>
	</g>
	<g id="XMLID_140_">
		<g id="XMLID_162_">
			<path id="XMLID_164_" class="st48" d="M640.9,524.2L640.9,524.2c1.7,0.6,3.8,0,4.3-1.7l11-23.8c0.6-1.7,0-3.8-1.7-4.3l0,0
				c-1.7-0.6-3.8,0-4.3,1.7l-11,23.8C638.6,521.6,639.2,523.6,640.9,524.2z"/>
			<path id="XMLID_163_" class="st33" d="M646.7,498.7l3.5-7.8c1.2-2.6,4.3-3.8,6.7-2.6l0,0c2.6,1.2,3.8,4.3,2.6,6.7l-3.5,7.8
				C656.3,503,650.8,506.2,646.7,498.7z"/>
		</g>
		<g id="XMLID_154_">
			<g id="XMLID_137_">
				<path id="XMLID_161_" class="st100" d="M662.4,524.5c0,0.3,0.3,0.6,0.3,1.2v11.6c0,2.3-2.3,4.1-5.2,4.1l0,0
					c-2.6,0-5.2-1.7-5.2-4.1v-14.5c0-0.6,0.3-1.2,1.2-1.4C655.2,520.4,659.8,519.8,662.4,524.5z"/>
			</g>
			<g id="XMLID_155_">
				<g id="XMLID_139_">
					<path id="XMLID_159_" class="st90" d="M686.5,547.1c1.4,0.6,0.3,4.1,0.3,7.5c0,4.6-1.2,9.3-3.2,10.4c-0.6,0.3-1.2,0.3-1.4,0
						l-2-1.2c-1.4-0.6-2-3.5-3.2-7.5c-1.4-4.3-2-7.5,3.2-10.4c1.4-1.2,2.3-1.2,2.6-0.6L686.5,547.1z"/>
					<path id="XMLID_158_" class="st101" d="M677.2,556.4c1.4,5.5,2.3,8.4,4.3,7.5c2-1.4,2.3-5.8,1.7-11.3c-0.6-4.6,1.7-9.9-3.5-6.7
						C675.2,549.1,676,552,677.2,556.4z"/>
				</g>
				<path id="XMLID_156_" class="st100" d="M676.3,552.3c-0.3,0-0.6,0-1.2-0.3l-20.9-11.6c-2-1.2-2.3-4.1-1.2-6.4l0,0
					c1.4-2.3,4.1-3.8,6.1-2.3l23.5,13c0.3,0.3,0.6,0.6,0.6,1.4C683,547.9,681.2,552.3,676.3,552.3z"/>
			</g>
		</g>
		<g id="XMLID_149_">
			<g id="XMLID_138_">
				<path id="XMLID_153_" class="st90" d="M672.8,569.4c0,1.4-3.5,2.3-6.4,4.1c-4.1,2.3-8.4,3.8-10.4,2.3c-0.6-0.3-0.6-0.6-0.6-1.2
					v-2.3c0-1.4,2-3.5,5.2-6.4c3.5-3.5,5.5-5.5,10.4-2.3c1.4,0.6,2,1.4,2,2L672.8,569.4z"/>
				<path id="XMLID_152_" class="st101" d="M660.4,565.6c-4.1,4.1-6.4,6.4-4.1,7.5c2,1.4,6.4-0.6,10.4-3.8c3.8-2.6,9.3-3.2,4.1-6.1
					C665.6,560.7,663.6,562.7,660.4,565.6z"/>
			</g>
			<path id="XMLID_150_" class="st102" d="M663.6,563c0-0.3-0.3-0.6-0.3-1.2v-35.4c0-2.3,2.3-4.1,5.2-4.1l0,0c2.6,0,5.2,1.7,5.2,4.1
				v38.6c0,0.6-0.3,1.2-1.2,1.4C670.8,566.8,666.2,567.7,663.6,563z"/>
		</g>
		<path id="XMLID_148_" class="st22" d="M672,532.9L672,532.9c-2.6,0.3-10.4-1.7-18.6-11c-0.6-0.6-1.2-1.7-1.2-2.6v-25.8
			c0-2,0.6-3.5,1.7-4.1l6.1-3.5c1.2-0.6,2.6-0.6,4.3,0.3l8.1,4.6c3.5,2,6.1,6.7,6.1,10.4v26.1c0,0.6-0.3,1.2-0.6,1.4L672,532.9z"/>
		<path id="XMLID_147_" class="st103" d="M669.4,493.2c0,0.6-0.3,1.4-1.4,1.7c-1.7,1.2-4.3,1.2-6.1,0c-1.2-0.3-1.4-1.2-1.4-1.7v-5.8
			c0-0.6,0.3-1.4,1.4-1.7c1.7-1.2,4.3-1.2,6.1,0c1.2,0.3,1.4,1.2,1.4,1.7V493.2z"/>
		<g id="XMLID_144_">
			<path id="XMLID_146_" class="st48" d="M692.6,530.3L692.6,530.3c1.7-0.6,2.3-2.6,1.4-4.3l-11.9-23.5c-0.6-1.7-2.6-2.3-4.3-1.4
				l0,0c-1.7,0.6-2.3,2.6-1.4,4.3l11.9,23.5C688.8,530.3,690.8,530.8,692.6,530.3z"/>
			<path id="XMLID_145_" class="st33" d="M676.3,510l-3.8-7.5c-1.4-2.6-0.3-5.8,2.3-7.2l0,0c2.6-1.4,5.8-0.3,7.2,2.3l3.8,7.5
				C685.6,505,684.4,510.8,676.3,510z"/>
		</g>
		<circle id="XMLID_143_" class="st48" cx="665" cy="478.7" r="11.9"/>
		<path id="XMLID_142_" class="st104" d="M674.9,464.2c10.1,3.5,5.2,18.3-2.3,23.5c-3.8-2,0.6-5.5-4.1-3.2c-1.2-4.6,1.4-3.5,0-9.3
			c-5.2,2.6-15.4-0.6-16.8-5.5c1.7-0.6,3.8-5.8,7.8-7.8C665,459.8,672,461.3,674.9,464.2z"/>
		<path id="XMLID_141_" class="st48" d="M669.1,485c0,1.4,1.2,2,2.3,1.4c1.2-0.6,2.3-2.3,2.3-3.8s-1.2-2-2.3-1.4
			C670.2,481.9,669.1,483.6,669.1,485z"/>
	</g>
	<rect id="XMLID_136_" x="79.4" y="-134.2" class="st105" width="899" height="899"/>
</g>
</svg>
