<?xml version="1.0" encoding="utf-8"?>
<!-- Generator: Adobe Illustrator 16.0.0, SVG Export Plug-In . SVG Version: 6.00 Build 0)  -->
<!DOCTYPE svg PUBLIC "-//W3C//DTD SVG 1.1//EN" "http://www.w3.org/Graphics/SVG/1.1/DTD/svg11.dtd">
<svg version="1.1" id="Capa_1" xmlns="http://www.w3.org/2000/svg" xmlns:xlink="http://www.w3.org/1999/xlink" x="0px" y="0px"
	 width="762.5px" height="720px" viewBox="0 0 762.5 720" enable-background="new 0 0 762.5 720" xml:space="preserve">
<g>
	<path fill="#E9F4FA" fill-opacity="0.08" enable-background="new    " d="M512.669,640.018
		c-42.414,7.104-101.21-5.684-138.464-23.951c-53.184-26.385-69.567-82-109.961-119.752c-29.845-27.807-70.464-42.016-107.492-60.08
		c-37.254-18.268-74.506-43.84-85.727-81.796c-7.561-31.723-1.117-64.863,17.954-92.351c17.729-27.807,42.191-50.743,65.079-74.693
		c21.096-21.92,41.07-45.261,66.426-62.312c51.615-34.099,121.182-38.361,181.772-21.312
		c60.368,16.848,112.882,52.57,159.335,92.961c70.465,61.5,131.954,143.094,128.139,233.416
		C685.691,513.568,605.801,624.594,512.669,640.018z"/>
	<path fill="#E9F4FA" fill-opacity="0.08" enable-background="new    " d="M176.066,482.955
		c39.272,11.771,37.474,66.371-2.919,74.691h-0.447c-41.069,8.322-107.044-29.227-63.51-69.008
		c13.464-12.18,42.191-13.193,66.876-5.889V482.955z"/>
</g>
<g>
	<g>
		<g>
			<path fill="#376DEB" d="M450.694,74.627H339.835c-4.176,0-7.572,3.76-7.572,8.383v109.954c0,4.622,3.396,8.382,7.572,8.382
				h110.86c4.173,0,7.568-3.76,7.568-8.382V83.01C458.266,78.387,454.868,74.627,450.694,74.627z M427.863,88.703
				c0-1.709,1.252-3.096,2.794-3.096h2.799c1.544,0,2.794,1.387,2.794,3.096v3.508c0,1.71-1.252,3.096-2.794,3.096h-2.799
				c-1.542,0-2.794-1.386-2.794-3.096V88.703z M414.862,88.703c0-1.709,1.253-3.096,2.796-3.096h2.796
				c1.544,0,2.796,1.387,2.796,3.096v3.508c0,1.71-1.252,3.096-2.796,3.096h-2.796c-1.543,0-2.796-1.386-2.796-3.096V88.703z
				 M449.179,191.287H341.351v-86.683h107.828V191.287L449.179,191.287z M449.25,92.21c0,1.71-1.249,3.096-2.793,3.096h-2.798
				c-1.546,0-2.794-1.386-2.794-3.096v-3.508c0-1.709,1.25-3.096,2.794-3.096h2.798c1.544,0,2.793,1.387,2.793,3.096V92.21z"/>
			<path fill="#376DEB" d="M359.311,151.214l20.267,10.435c0.525,0.268,1.082,0.404,1.659,0.404c0.751,0,1.483-0.236,2.12-0.684
				c1.141-0.807,1.82-2.181,1.82-3.676v-0.115c0-1.69-0.896-3.242-2.279-3.955l-12.676-6.52l12.676-6.521
				c1.383-0.713,2.279-2.265,2.279-3.954v-0.114c0-1.498-0.68-2.872-1.82-3.675c-0.63-0.446-1.364-0.682-2.123-0.682
				c-0.571,0-1.144,0.139-1.658,0.403l-20.265,10.433c-1.384,0.713-2.278,2.266-2.278,3.955v0.312
				C357.032,148.948,357.926,150.499,359.311,151.214z"/>
			<path fill="#376DEB" d="M385.357,172.466c0.739,1.121,1.929,1.79,3.181,1.79h0.102c1.72,0,3.227-1.219,3.749-3.029l13.353-45.797
				c0.383-1.321,0.169-2.78-0.57-3.903c-0.74-1.12-1.929-1.789-3.181-1.789h-0.102c-1.721,0-3.228,1.219-3.751,3.029l-13.354,45.801
				C384.403,169.891,384.618,171.347,385.357,172.466z"/>
			<path fill="#376DEB" d="M405.351,136.629c0,1.688,0.895,3.24,2.279,3.956l12.676,6.519l-12.676,6.519
				c-1.383,0.713-2.279,2.265-2.279,3.954v0.115c0,1.496,0.68,2.87,1.822,3.677c0.635,0.447,1.366,0.684,2.118,0.684
				c0.576,0,1.134-0.136,1.661-0.405l20.266-10.434c1.385-0.715,2.278-2.266,2.278-3.954v-0.312c0-1.689-0.894-3.241-2.28-3.955
				l-20.264-10.432c-0.513-0.264-1.085-0.403-1.655-0.403c-0.758,0-1.492,0.235-2.122,0.68c-1.143,0.805-1.822,2.179-1.822,3.677
				v0.113L405.351,136.629L405.351,136.629z"/>
		</g>
	</g>
</g>
<rect x="215.717" y="243.372" fill="none" width="370" height="74.734"/>
<text transform="matrix(1 0 0 0.91 253.1265 282.4453)" font-family="'MyriadPro-Regular'" font-size="55">I WORK FAST</text>
<rect x="36.5" y="320.5" fill="none" width="702" height="252"/>
<text transform="matrix(1 0 0 0.91 95.7021 359.5493)"><tspan x="0" y="0" font-family="'MyriadPro-Regular'" font-size="55">I keep the code clean and</tspan><tspan x="-2.859" y="72.528" font-family="'MyriadPro-Regular'" font-size="55">professional. That is how I</tspan><tspan x="-20.403" y="145.056" font-family="'MyriadPro-Regular'" font-size="55">deliver quality that will last.</tspan></text>
</svg>
