<?xml version="1.0" encoding="utf-8"?>
<!-- Generator: Adobe Illustrator 19.0.0, SVG Export Plug-In . SVG Version: 6.00 Build 0)  -->
<svg version="1.1" id="Capa_1" xmlns="http://www.w3.org/2000/svg" xmlns:xlink="http://www.w3.org/1999/xlink" x="0px" y="0px"
	 viewBox="181 -239 512 512" style="enable-background:new 181 -239 512 512;" xml:space="preserve">
<style type="text/css">
	.st0{fill:#FFFFFF;}
</style>
<g>
	<g>
		<path class="st0" d="M557.3-236.8c-1.4-1.4-3.3-2.2-5.3-2.2H362c-2,0-3.9,0.8-5.3,2.2c-1.4,1.4-2.2,3.3-2.2,5.3v33.8
			c0,4.1,3.4,7.5,7.5,7.5c4.1,0,7.5-3.4,7.5-7.5V-224h175v145H452c-1,0-1.9,0.2-2.8,0.5l-39.7,15.9v-8.9c0-2-0.8-3.9-2.2-5.3
			c-1.4-1.4-3.3-2.2-5.3-2.2h-32.5v-88.7c0-4.1-3.4-7.5-7.5-7.5c-4.1,0-7.5,3.4-7.5,7.5v96.2c0,2,0.8,3.9,2.2,5.3
			c1.4,1.4,3.3,2.2,5.3,2.2h32.5v12.5c0,2.5,1.2,4.8,3.3,6.2c1.3,0.8,2.7,1.3,4.2,1.3c1,0,1.9-0.2,2.8-0.5L453.4-64H552
			c2,0,3.9-0.8,5.3-2.2c1.4-1.4,2.2-3.3,2.2-5.3v-160C559.5-233.5,558.7-235.4,557.3-236.8z"/>
	</g>
</g>
<g>
	<g>
		<path class="st0" d="M642,188h-22.5l0-16.6c18.4-16,30-39.6,30-65.9V76.8c5.9-29.5,3.2-51.3-8-65c-7-8.6-15.8-11.9-22-13.1v-33.2
			c0-4.1-3.4-7.5-7.5-7.5c-2.8,0-5.8,0-8.7,0c-3.1,0-6.3,0-9.5,0c-36.2,0-76.8,2.3-100.9,29.6c-17.4,19.7-23.4,48.7-18.4,88.8v29.2
			c0,26.2,11.6,49.8,30,65.9V188H482c-20.7,0-37.5,16.8-37.5,37.5v40c0,4.1,3.4,7.5,7.5,7.5h30h50h140c4.1,0,7.5-3.4,7.5-7.5v-40
			c0,0,0,0,0,0C679.5,204.8,662.7,188,642,188z M504.1-2.5c20-22.7,56.8-24.6,89.7-24.6c3.2,0,6.3,0,9.4,0c0.4,0,0.9,0,1.3,0V5.5
			c0,2.1,0.8,4.1,2.3,5.5c1.5,1.4,3.5,2.2,5.6,2c0.7,0,10.6-0.1,17.5,8.3c5.1,6.2,7.7,15.8,7.6,28.3l-3.3-6.5
			c-1.7-3.3-5.5-4.9-9-3.8c-0.4,0.1-44.9,14.2-70.5,14.2c-24.6,0-46.8-13.3-47-13.5c-3.3-2-7.6-1.2-9.9,1.9l-9.9,13.2
			C487.3,29.7,492.7,10.4,504.1-2.5z M489.5,105.5V77.9L505.9,56c9.2,4.6,28,12.4,48.8,12.4c22.2,0,55.3-9,68.9-13l10.8,21.7v28.5
			c0,40-32.5,72.5-72.5,72.5C522,178,489.5,145.5,489.5,105.5z M604.5,182l0,9.5l-23,15.4l-12-6v-8.2
			C582.1,191.6,594,187.8,604.5,182z M554.5,192.7v7.7l-16.2,6.5l-18.8-15V182C530,187.8,541.9,191.6,554.5,192.7z M524.5,258h-35
			v-15h35V258z M664.5,225.5V258h-125v-22.5c0-4.1-3.4-7.5-7.5-7.5h-50c-4.1,0-7.5,3.4-7.5,7.5V258h-15v-32.5
			c0-12.4,10.1-22.5,22.5-22.5h27.4l23,18.4c0.1,0.1,0.1,0.1,0.2,0.1c0.2,0.2,0.4,0.3,0.7,0.4c0.1,0.1,0.3,0.2,0.4,0.2
			c0.2,0.1,0.4,0.2,0.7,0.3c0.1,0.1,0.3,0.1,0.4,0.2c0.2,0.1,0.5,0.1,0.8,0.2c0.1,0,0.3,0.1,0.4,0.1c0.4,0.1,0.8,0.1,1.2,0.1
			c0.3,0,0.5,0,0.8,0c0,0,0.1,0,0.1,0c0.2,0,0.4-0.1,0.6-0.1c0.1,0,0.2,0,0.3-0.1c0.2,0,0.3-0.1,0.5-0.1c0.1,0,0.2-0.1,0.3-0.1
			c0.1,0,0.1,0,0.2-0.1l21.9-8.7l17,8.5c0.1,0.1,0.2,0.1,0.4,0.1c0.1,0.1,0.3,0.1,0.4,0.2c0.2,0.1,0.4,0.1,0.6,0.2
			c0.1,0,0.2,0.1,0.3,0.1c0.3,0.1,0.5,0.1,0.8,0.1c0,0,0,0,0.1,0c0.3,0,0.6,0.1,0.9,0.1c0.4,0,0.7,0,1-0.1c0.2,0,0.3-0.1,0.5-0.1
			c0.2,0,0.4-0.1,0.6-0.1c0.2,0,0.3-0.1,0.5-0.2c0.2-0.1,0.4-0.1,0.6-0.2c0.1-0.1,0.3-0.1,0.4-0.2c0.2-0.1,0.4-0.2,0.6-0.3
			c0,0,0.1,0,0.1-0.1l28.1-18.7H642C654.4,203,664.5,213.1,664.5,225.5C664.5,225.5,664.5,225.5,664.5,225.5z"/>
	</g>
</g>
<g>
	<g>
		<path class="st0" d="M392,188h-32.5l0-9.1c24-15.6,40-42.7,40-73.4V89l10,3.6c0.8,0.3,1.7,0.4,2.5,0.4c1.5,0,3-0.5,4.3-1.4
			c2-1.4,3.2-3.7,3.2-6.1c0-45-8.7-78.4-25.8-99.3c-14-17.2-33.3-25.9-57.4-25.9c-28,0-54.2,12-63.6,16.8l-17.6-8.4
			c-2.2-1.1-4.8-1-7,0.3c-3,1.7-29.2,19-23.7,86.8v49.7c0,30.7,15.9,57.8,40,73.4v9H232c-20.7,0-37.5,16.8-37.5,37.5v40
			c0,4.1,3.4,7.5,7.5,7.5h220c4.1,0,7.5-3.4,7.5-7.5v-40c0,0,0,0,0,0C429.5,204.8,412.7,188,392,188z M253.2-15.6l16.6,7.9
			c2.2,1.1,4.8,1,7-0.3c0.3-0.2,29.5-16.7,59.6-16.7c42.9,0,65.8,33.5,68,99.5L274.5,28.4c-0.8-0.3-1.7-0.4-2.5-0.4
			c-1.2,0-2.3,0.3-3.4,0.8l-29.8,14.9C237.8,6.1,248.1-10,253.2-15.6z M239.5,105.5V60.1l33-16.5l112,40v21.9
			c0,40-32.5,72.5-72.5,72.5S239.5,145.5,239.5,105.5z M344.5,186.7l0,8.8v0v0c0,17.9-14.6,32.5-32.5,32.5s-32.5-14.6-32.5-32.5
			v-8.8c10.1,4,21,6.3,32.5,6.3C323.5,193,334.4,190.8,344.5,186.7z M414.5,225.5V258h0h-205v-32.5c0-12.4,10.1-22.5,22.5-22.5h33.1
			c3.6,22.6,23.3,40,46.9,40s43.3-17.4,46.9-40H392C404.4,203,414.5,213.1,414.5,225.5C414.5,225.5,414.5,225.5,414.5,225.5z"/>
	</g>
</g>
<g>
	<g>
		<path class="st0" d="M480-199.5c-6.1-6.1-14.3-9.5-23-9.5c-8.7,0-16.9,3.4-23,9.5c-6.1,6.1-9.5,14.3-9.5,23c0,4.1,3.4,7.5,7.5,7.5
			c4.1,0,7.5-3.4,7.5-7.5v0c0-4.7,1.8-9.1,5.1-12.4c3.3-3.3,7.7-5.1,12.4-5.1c4.7,0,9.1,1.8,12.4,5.1c3.3,3.3,5.1,7.7,5.1,12.4
			c0,4.7-1.8,9.1-5.1,12.4c-3.3,3.3-7.6,5.1-12.3,5.1c0,0-0.1,0-0.1,0c-4.1,0-7.5,3.4-7.5,7.5v20c0,4.1,3.4,7.5,7.5,7.5
			c4.1,0,7.5-3.4,7.5-7.5v-13.4h0c5.8-1.4,11.1-4.3,15.5-8.6c6.1-6.1,9.5-14.3,9.5-23C489.5-185.2,486.1-193.4,480-199.5z"/>
	</g>
</g>
<g>
	<g>
		<path class="st0" d="M457-119c-4.1,0-7.5,3.4-7.5,7.5v10c0,4.1,3.4,7.5,7.5,7.5c4.1,0,7.5-3.4,7.5-7.5v-10
			C464.5-115.6,461.1-119,457-119z"/>
	</g>
</g>
</svg>
