<?xml version="1.0" encoding="utf-8"?>
<!-- Generator: Adobe Illustrator 19.0.0, SVG Export Plug-In . SVG Version: 6.00 Build 0)  -->
<svg version="1.1" id="Layer_1" xmlns="http://www.w3.org/2000/svg" xmlns:xlink="http://www.w3.org/1999/xlink" x="0px" y="0px"
	 viewBox="181 -239 512 512" style="enable-background:new 181 -239 512 512;" xml:space="preserve">
<style type="text/css">
	.st0{fill:#7F57C9;}
</style>
<g>
	<g>
		<path class="st0" d="M683.3-34.2c-1,0.2-24.1,5-43.6,10.9c-26.1,7.8-41.1,24.3-41.1,45.3v94.5h-66.2c-16.3,0-29.6,13.3-29.6,29.6
			V269h16.2V146.1c0-7.4,6-13.5,13.5-13.5h82.3V21.9c0-18.2,18.6-26.5,29.6-29.8c11.2-3.4,24-6.4,32.6-8.4v157c0,19.3-15.7,35-35,35
			h-89.5L540.6,269h16l9.9-76.9h75.3c28.2,0,51.2-23,51.2-51.2v-177L683.3-34.2z"/>
	</g>
</g>
<g>
	<g>
		<path class="st0" d="M646.1-160.4L646.1-160.4c-25.3,0-45.9,20.1-46.9,45.1l-22.6,51.9h22.6v26.9H644c27,0,49-22,49-49v-28
			C693-139.4,672-160.4,646.1-160.4z M676.8-85.5c0,18.1-14.7,32.9-32.9,32.9h-28.6v-26.9h-14.1l14.1-32.3v-1.7
			c0-16.9,13.8-30.7,30.7-30.7h0c16.9,0,30.7,13.8,30.7,30.7L676.8-85.5L676.8-85.5z"/>
	</g>
</g>
<g>
	<g>
		<path class="st0" d="M341.7,116.4h-66.2V21.9c0-20.9-15-37.4-41.1-45.3c-19.5-5.9-42.7-10.7-43.6-10.9l-9.7-2v177
			c0,28.2,23,51.2,51.2,51.2h75.3l9.9,76.9h16l-11.7-93.1h-89.5c-19.3,0-35-15.7-35-35v-157c8.5,1.9,21.3,5,32.6,8.4
			c11.1,3.3,29.6,11.6,29.6,29.8v110.7h82.3c7.4,0,13.5,6,13.5,13.5V269h16.2V146.1C371.3,129.7,358,116.4,341.7,116.4z"/>
	</g>
</g>
<g>
	<g>
		<path class="st0" d="M274.7-115.3c-0.9-25-21.6-45.1-46.9-45.1h0c-25.9,0-46.9,21-46.9,46.9v28c0,27,22,49,49,49h44.7v-26.9h22.6
			L274.7-115.3z M258.6-79.6v26.9H230c-18.1,0-32.9-14.7-32.9-32.9v-28c0-16.9,13.8-30.7,30.7-30.7h0c16.9,0,30.7,13.8,30.7,30.7
			v1.7l14.1,32.3L258.6-79.6L258.6-79.6z"/>
	</g>
</g>
<g>
	<g>
		<path class="st0" d="M302.3,34.5V83h113.4V269h16.2V83H448V269h16.2V83h107.5V34.5H302.3z M555.6,66.9H318.4V50.7h237.1
			L555.6,66.9L555.6,66.9z"/>
	</g>
</g>
<g>
	<g>
		<path class="st0" d="M546.4-150.8v-41h-45.3V-235H312.5v41L273.3-146h39.2v35h33.8v-16.2h-17.6v-35h-21.2l21.2-25.9v-30.6H485
			v26.9H357.8v124h188.6v-35h39.2L546.4-150.8z M530.2-119.1v35H373.9V-111h127.2v-54.3H485v38.1h-111v-48.5h156.3v30.6l21.2,25.9
			H530.2z"/>
	</g>
</g>
<g>
	<g>
		<g>
			<rect x="383.6" y="-23.7" class="st0" width="16.2" height="16.2"/>
			<rect x="428.9" y="-23.7" class="st0" width="16.2" height="16.2"/>
			<rect x="474.2" y="-23.7" class="st0" width="16.2" height="16.2"/>
		</g>
	</g>
</g>
</svg>
