<?xml version="1.0" encoding="utf-8"?>
<!-- Generator: Adobe Illustrator 23.0.1, SVG Export Plug-In . SVG Version: 6.00 Build 0)  -->
<svg version="1.1" id="Capa_1" xmlns="http://www.w3.org/2000/svg" xmlns:xlink="http://www.w3.org/1999/xlink" x="0px" y="0px"
	 viewBox="0 0 512 512" style="enable-background:new 0 0 512 512;" xml:space="preserve">
<style type="text/css">
	.st0{fill:#1D154B;}
</style>
<path class="st0" d="M371.8,118.8H252V78.9h119.8L371.8,118.8L371.8,118.8z M118.2,118.8c11,0,20-8.9,20-20s-8.9-20-20-20
	s-20,8.9-20,20C98.3,109.9,107.2,118.8,118.2,118.8z M70.3,471.2H252v39.9H70.3c-27.5,0-49.9-22.4-49.9-49.9v-96.8
	c0-11.2,3.7-21.6,10-29.9c-6.3-8.3-10-18.7-10-29.9v-97.8c0-11.2,3.7-21.6,10-29.9c-6.3-8.3-10-18.7-10-29.9V49.9
	C20.4,22.4,42.8,0,70.3,0h331.4c27.5,0,49.9,22.4,49.9,49.9v96.8c0,11.2-3.7,21.6-10,29.9c6.3,8.3,10,18.7,10,29.9h-39.9
	c0-5.5-4.5-10-10-10H70.3c-5.5,0-10,4.5-10,10v97.8c0,5.5,4.5,10,10,10h141.8v39.9H70.3c-5.5,0-10,4.5-10,10v96.8
	C60.3,466.7,64.8,471.2,70.3,471.2z M60.3,146.7c0,5.5,4.5,10,10,10h331.4c5.5,0,10-4.5,10-10V49.9c0-5.5-4.5-10-10-10H70.3
	c-5.5,0-10,4.5-10,10V146.7L60.3,146.7z M98.3,413.3c0,11,8.9,20,20,20s20-8.9,20-20s-8.9-20-20-20S98.3,402.2,98.3,413.3z
	 M98.3,255.6c0,11,8.9,20,20,20s20-8.9,20-20s-8.9-20-20-20S98.3,244.5,98.3,255.6z M491.6,301.4v62.3
	c0,93.8-107.1,142.7-111.7,144.7l-8.1,3.6l-8.1-3.6c-4.6-2-111.7-50.9-111.7-144.7v-62.3c0-19.7,14.1-36.5,33.5-40
	c24.1-4.3,47-18.5,55.7-24.4c9.1-6.1,19.7-9.4,30.6-9.4s21.5,3.2,30.6,9.4c8.7,5.9,31.6,20.1,55.7,24.4l0,0
	C477.5,264.9,491.6,281.7,491.6,301.4z M451.7,301.4c0-0.3-0.2-0.6-0.6-0.7c-30.4-5.5-57.5-21.5-71-30.6c-2.5-1.7-5.4-2.6-8.3-2.6
	c-2.9,0-5.8,0.9-8.3,2.6c-13.4,9.1-40.6,25.1-71,30.6c-0.3,0.1-0.6,0.3-0.6,0.7v62.3c0,55.6,58,92.3,79.8,104.1
	c21.8-11.9,79.9-48.7,79.9-104.1L451.7,301.4L451.7,301.4z"/>
</svg>
