<?xml version="1.0" encoding="utf-8"?>
<!-- Generator: Adobe Illustrator 19.0.0, SVG Export Plug-In . SVG Version: 6.00 Build 0)  -->
<svg version="1.1" id="Layer_1" xmlns="http://www.w3.org/2000/svg" xmlns:xlink="http://www.w3.org/1999/xlink" x="0px" y="0px"
	 viewBox="0 0 188.2 188.2" style="enable-background:new 0 0 188.2 188.2;" xml:space="preserve">
<style type="text/css">
	.st0{fill:#1F144C;}
	.st1{filter:url(#Adobe_OpacityMaskFilter);}
	.st2{fill:url(#XMLID_106_);}
	.st3{mask:url(#XMLID_105_);}
	.st4{fill:#FFFFFF;}
	.st5{filter:url(#Adobe_OpacityMaskFilter_1_);}
	.st6{fill:url(#XMLID_120_);}
	.st7{mask:url(#XMLID_119_);}
	.st8{filter:url(#Adobe_OpacityMaskFilter_2_);}
	.st9{fill:url(#XMLID_130_);}
	.st10{mask:url(#XMLID_121_);}
	.st11{filter:url(#Adobe_OpacityMaskFilter_3_);}
	.st12{fill:url(#XMLID_132_);}
	.st13{mask:url(#XMLID_131_);}
	.st14{filter:url(#Adobe_OpacityMaskFilter_4_);}
	.st15{fill:url(#XMLID_146_);}
	.st16{mask:url(#XMLID_145_);}
	.st17{filter:url(#Adobe_OpacityMaskFilter_5_);}
	.st18{fill:url(#XMLID_148_);}
	.st19{mask:url(#XMLID_147_);}
</style>
<g id="_x30_1_1_">
	<g id="_x30_1">
		<circle id="XMLID_48_" class="st0" cx="-397.9" cy="88.1" r="94.1"/>
		<defs>
			<filter id="Adobe_OpacityMaskFilter" filterUnits="userSpaceOnUse" x="-480" y="57.3" width="132.1" height="124.9">
				<feColorMatrix  type="matrix" values="1 0 0 0 0  0 1 0 0 0  0 0 1 0 0  0 0 0 1 0"/>
			</filter>
		</defs>
		<mask maskUnits="userSpaceOnUse" x="-480" y="57.3" width="132.1" height="124.9" id="XMLID_105_">
			<g id="XMLID_45_" class="st1">
				
					<linearGradient id="XMLID_106_" gradientUnits="userSpaceOnUse" x1="-767.1964" y1="4062.1204" x2="-767.1964" y2="4270.0791" gradientTransform="matrix(-1.1478 -0.6627 -0.5351 0.9269 932.0818 -4238.7852)">
					<stop  offset="0.5483" style="stop-color:#8A8A8A"/>
					<stop  offset="0.5952" style="stop-color:#828282"/>
					<stop  offset="0.6684" style="stop-color:#6C6C6C"/>
					<stop  offset="0.7586" style="stop-color:#484848"/>
					<stop  offset="0.8616" style="stop-color:#161616"/>
					<stop  offset="0.9026" style="stop-color:#000000"/>
				</linearGradient>
				<polygon id="XMLID_46_" class="st2" points="-300.4,69.8 -411.7,262.5 -532.8,192.6 -421.5,-0.1 				"/>
			</g>
		</mask>
		<path id="XMLID_47_" class="st3" d="M-351.4,60.6l-18.2,2.5l-24,41.6l2.1-19.6l-7.7-17.9l-13.5-10l-16.9,2.7l-13.2,9.7L-480,134
			c16.1,28.8,46.9,48.3,82.2,48.3c5.3,0,10.5-0.5,15.6-1.3l34.3-59.4l-2-31.8L-351.4,60.6z"/>
		<g id="_x30_1_2_">
			<path id="XMLID_42_" class="st4" d="M-418.4,54.6c-16.2,0-29.3,15-29.3,33.4s13.2,33.4,29.3,33.4c16.2,0,29.3-15,29.3-33.4
				S-402.2,54.6-418.4,54.6z M-395.7,88c0,14.8-10.2,26.8-22.7,26.8c-12.5,0-22.7-12-22.7-26.8s10.2-26.8,22.7-26.8
				C-405.9,61.2-395.7,73.2-395.7,88z"/>
			<polygon id="XMLID_41_" class="st4" points="-369.6,63.1 -367.1,69.2 -354.5,63.8 -354.5,121.5 -348,121.5 -348,56.4 
				-353.6,56.4 			"/>
		</g>
	</g>
</g>
<g id="XMLID_87_">
	<circle id="XMLID_95_" class="st0" cx="-234" cy="-94.1" r="94.1"/>
	<defs>
		<filter id="Adobe_OpacityMaskFilter_1_" filterUnits="userSpaceOnUse" x="-320" y="-124.9" width="144.3" height="124.9">
			<feColorMatrix  type="matrix" values="1 0 0 0 0  0 1 0 0 0  0 0 1 0 0  0 0 0 1 0"/>
		</filter>
	</defs>
	<mask maskUnits="userSpaceOnUse" x="-320" y="-124.9" width="144.3" height="124.9" id="XMLID_119_">
		<g id="XMLID_92_" class="st5">
			
				<linearGradient id="XMLID_120_" gradientUnits="userSpaceOnUse" x1="-806.4509" y1="3837.5532" x2="-806.4509" y2="4045.5122" gradientTransform="matrix(-1.1478 -0.6627 -0.5351 0.9269 932.0818 -4238.7852)">
				<stop  offset="0.5483" style="stop-color:#8A8A8A"/>
				<stop  offset="0.5952" style="stop-color:#828282"/>
				<stop  offset="0.6684" style="stop-color:#6C6C6C"/>
				<stop  offset="0.7586" style="stop-color:#484848"/>
				<stop  offset="0.8616" style="stop-color:#161616"/>
				<stop  offset="0.9026" style="stop-color:#000000"/>
			</linearGradient>
			<polygon id="XMLID_93_" class="st6" points="-135.2,-112.4 -246.5,80.4 -367.6,10.5 -256.3,-182.3 			"/>
		</g>
	</mask>
	<path id="XMLID_94_" class="st7" d="M-178.6-97.5l-4.1-18.8l-18-7.9l-18.3,12.5l-19,33L-236-97l-7.7-17.9l-13.5-10l-16.9,2.7
		l-13.2,9.7L-320-56c14.6,33,47.6,56,86,56c8.7,0,17.1-1.2,25.1-3.4l33.2-57.5l-22.2-3.2L-178.6-97.5z"/>
	<g id="_x30_2_2_">
		<path id="XMLID_91_" class="st4" d="M-184.6-89.9c2-2.1,3.7-4.1,5-6c1.3-1.9,2.3-3.9,2.9-5.9c0.6-2,0.9-4.1,0.9-6.5
			c0-2.6-0.5-5-1.5-7.2c-1-2.2-2.4-4.1-4.1-5.8c-1.7-1.6-3.8-2.9-6.2-3.8c-4.8-1.8-11-1.7-15.4-0.4c-2.2,0.7-4.3,1.6-6.1,2.9
			c-1.8,1.2-3.5,2.7-5,4.4c-1.5,1.7-2.9,3.6-4.3,5.7l-0.5,0.8l5,3.4l0.5-0.7c2.6-3.7,5.2-6.5,7.9-8.4c2.6-1.9,5.9-2.8,9.7-2.8
			c1.7,0,3.4,0.3,5.1,0.9c1.6,0.6,3,1.4,4.2,2.5c1.2,1.1,2.2,2.4,2.9,4c0.7,1.5,1.1,3.3,1.1,5.2c0,1.6-0.2,3.1-0.7,4.6
			c-0.5,1.5-1.2,3-2.3,4.6c-1.1,1.6-2.5,3.4-4.2,5.3c-1.8,1.9-3.9,4-6.4,6.3l-23.7,21.4v4.8h44.1v-6.4h-33.4l17.4-15.8
			C-189-85.6-186.6-87.9-184.6-89.9z"/>
		<path id="XMLID_88_" class="st4" d="M-262.9-127.5c-16.2,0-29.3,15-29.3,33.4c0,18.4,13.2,33.4,29.3,33.4
			c16.2,0,29.3-15,29.3-33.4C-233.5-112.5-246.7-127.5-262.9-127.5z M-240.1-94.1c0,14.8-10.2,26.8-22.7,26.8
			c-12.5,0-22.7-12-22.7-26.8c0-14.8,10.2-26.8,22.7-26.8C-250.3-120.9-240.1-108.9-240.1-94.1z"/>
	</g>
</g>
<g id="_x30_6">
	<circle id="XMLID_144_" class="st0" cx="440.6" cy="321.7" r="94.1"/>
	<defs>
		<filter id="Adobe_OpacityMaskFilter_2_" filterUnits="userSpaceOnUse" x="353.4" y="291" width="145.9" height="124.9">
			<feColorMatrix  type="matrix" values="1 0 0 0 0  0 1 0 0 0  0 0 1 0 0  0 0 0 1 0"/>
		</filter>
	</defs>
	<mask maskUnits="userSpaceOnUse" x="353.4" y="291" width="145.9" height="124.9" id="XMLID_121_">
		<g id="XMLID_139_" class="st8">
			
				<linearGradient id="XMLID_130_" gradientUnits="userSpaceOnUse" x1="-1399.2252" y1="3862.3418" x2="-1399.2252" y2="4070.3008" gradientTransform="matrix(-1.1478 -0.6627 -0.5351 0.9269 932.0818 -4238.7852)">
				<stop  offset="0.5483" style="stop-color:#8A8A8A"/>
				<stop  offset="0.5952" style="stop-color:#828282"/>
				<stop  offset="0.6684" style="stop-color:#6C6C6C"/>
				<stop  offset="0.7586" style="stop-color:#484848"/>
				<stop  offset="0.8616" style="stop-color:#161616"/>
				<stop  offset="0.9026" style="stop-color:#000000"/>
			</linearGradient>
			<polygon id="XMLID_140_" class="st9" points="531.9,303.4 420.6,496.2 299.5,426.3 410.8,233.5 			"/>
		</g>
	</mask>
	<path id="XMLID_141_" class="st10" d="M499.4,296.4l-12.2,21.1l2,1.1l-0.9,1.5l8.1,5.3l2.1,18.6L458,414.2
		c-5.6,1.1-11.4,1.6-17.4,1.6c-15.2,0-29.5-3.6-42.2-10l60.5-104.7l4,2.3l5.5-9.7L499.4,296.4z M435.9,318.8l-7.7-17.9l-13.5-10
		l-16.9,2.7l-13.2,9.7l-31.1,53.9c8.3,20.4,23.5,37.2,42.8,47.5l37.4-64.8L435.9,318.8z"/>
	<g id="_x30_6_2_">
		<path id="XMLID_136_" class="st4" d="M494.4,318.8c-2.1-1.7-4.5-3.1-7.2-4.1c-5.1-1.8-11.2-1.9-15.7-0.4c-2.1,0.7-4,1.6-5.7,2.7
			c-1.6,1.1-3.1,2.4-4.4,3.9c-0.5,0.6-1,1.2-1.5,1.9c0.1-3.5,0.5-6.8,1.2-9.9c0.9-3.9,2.2-7.3,4-10c1.7-2.7,3.8-4.9,6.3-6.4
			c2.4-1.5,5.2-2.2,8.2-2.2c2.8,0,5.5,0.5,7.8,1.6c2.4,1.1,4.8,2.7,7.1,4.8l0.7,0.6l4.2-5.1l-0.7-0.6c-2.8-2.3-5.7-4.2-8.6-5.5
			c-3-1.3-6.4-2-10.1-2c-4,0-7.8,0.9-11,2.8c-3.3,1.8-6.1,4.4-8.4,7.5c-2.3,3.2-4,6.9-5.3,11.1c-1.2,4.2-1.8,8.8-1.8,13.7
			c0,3.2,0.2,6.2,0.5,8.7c0.3,2.5,0.9,4.8,1.6,6.8c0.7,2,1.6,3.8,2.6,5.3c1,1.5,2.2,3,3.6,4.4c2,2,4.4,3.6,7.3,4.8
			c2.9,1.2,6,1.8,9.3,1.8c3.2,0,6.2-0.6,9-1.6c2.8-1.1,5.2-2.6,7.2-4.5c2.1-1.9,3.7-4.2,4.9-6.8c1.2-2.6,1.8-5.5,1.8-8.8
			c0-3-0.6-5.7-1.9-8.2C498.1,322.7,496.4,320.6,494.4,318.8z M494.5,333.7c0,2.1-0.4,4.1-1.1,5.9c-0.8,1.8-1.8,3.5-3.2,4.8
			c-1.4,1.4-3,2.5-5,3.3c-3.9,1.6-9.1,1.6-13.2,0.1c-2.1-0.8-3.9-1.8-5.4-3.1c-1.5-1.3-2.7-2.9-3.5-4.7c-0.8-1.8-1.3-3.8-1.3-6.1
			c0-1.8,0.4-3.5,1.2-5.3c0.8-1.7,2-3.3,3.4-4.7c1.4-1.4,3.2-2.5,5.2-3.4c2-0.8,4.3-1.3,6.7-1.3c2.4,0,4.6,0.4,6.5,1.1
			c1.9,0.7,3.7,1.8,5.1,3c1.4,1.2,2.5,2.7,3.3,4.4C494.1,329.7,494.5,331.5,494.5,333.7z"/>
		<path id="XMLID_133_" class="st4" d="M409,288.3c-16.2,0-29.3,15-29.3,33.4s13.2,33.4,29.3,33.4s29.3-15,29.3-33.4
			S425.2,288.3,409,288.3z M431.8,321.7c0,14.8-10.2,26.8-22.7,26.8s-22.7-12-22.7-26.8s10.2-26.8,22.7-26.8
			S431.8,306.9,431.8,321.7z"/>
	</g>
</g>
<g id="_x30_5">
	<circle id="XMLID_129_" class="st0" cx="94.1" cy="93.8" r="94.1"/>
	<defs>
		<filter id="Adobe_OpacityMaskFilter_3_" filterUnits="userSpaceOnUse" x="7.1" y="61.6" width="144.6" height="126.4">
			<feColorMatrix  type="matrix" values="1 0 0 0 0  0 1 0 0 0  0 0 1 0 0  0 0 0 1 0"/>
		</filter>
	</defs>
	<mask maskUnits="userSpaceOnUse" x="7.1" y="61.6" width="144.6" height="126.4" id="XMLID_131_">
		<g id="XMLID_126_" class="st11">
			
				<linearGradient id="XMLID_132_" gradientUnits="userSpaceOnUse" x1="-1087.8065" y1="3838.8774" x2="-1087.8065" y2="4046.8364" gradientTransform="matrix(-1.1478 -0.6627 -0.5351 0.9269 932.0818 -4238.7852)">
				<stop  offset="0.5483" style="stop-color:#8A8A8A"/>
				<stop  offset="0.5952" style="stop-color:#828282"/>
				<stop  offset="0.6684" style="stop-color:#6C6C6C"/>
				<stop  offset="0.7586" style="stop-color:#484848"/>
				<stop  offset="0.8616" style="stop-color:#161616"/>
				<stop  offset="0.9026" style="stop-color:#000000"/>
			</linearGradient>
			<polygon id="XMLID_127_" class="st12" points="187,75.3 75.8,268.1 -45.4,198.2 65.9,5.4 			"/>
		</g>
	</mask>
	<path id="XMLID_128_" class="st13" d="M129.6,63.6l-13.7-2l-28.1,48.6l2-19.3L82.2,73L68.7,63l-16.9,2.7l-13.2,9.7L7.1,129.8
		c14.1,34.1,47.7,58.1,87,58.1c5.9,0,11.6-0.6,17.2-1.6l40.3-69.8l-4.4-21.1l-9.6-2.9l14.2-24.6L129.6,63.6z"/>
	<g id="_x30_5_2_">
		<path id="XMLID_125_" class="st4" d="M152.5,97.9c-1.2-2.4-2.8-4.5-4.8-6.3c-2-1.7-4.4-3.1-7.1-4c-2.7-1-5.7-1.4-8.8-1.4
			c-3,0-5.7,0.3-7.9,1c-1.7,0.5-3.4,1.1-5.1,1.9l2.7-21.1h30.2v-6.4h-35.8l-4.1,31.6l5.2,3.2l0.5-0.3c1.9-1,4-2,6.2-2.7
			c2.2-0.7,4.7-1.1,7.5-1.1c2.4,0,4.6,0.4,6.6,1.1c2,0.7,3.7,1.7,5.2,2.9c1.4,1.2,2.5,2.7,3.3,4.4c0.8,1.7,1.2,3.6,1.2,5.8
			c0,2.1-0.4,4-1.2,5.8c-0.8,1.8-1.9,3.4-3.3,4.7c-1.4,1.3-3.1,2.4-5,3.2c-1.9,0.8-4.1,1.1-6.5,1.1c-3.2,0-6.3-0.8-9.4-2.4
			c-3.1-1.6-6-3.8-8.8-6.6l-0.7-0.7l-4.6,4.6l0.6,0.7c2.8,2.9,6.2,5.3,10.1,7.4c3.9,2,8.2,3.1,12.6,3.1c3.3,0,6.3-0.5,9.1-1.5
			c2.8-1,5.2-2.5,7.2-4.4c2-1.9,3.6-4.1,4.8-6.7c1.2-2.6,1.7-5.4,1.7-8.7C154.2,103.1,153.6,100.4,152.5,97.9L152.5,97.9z"/>
		<path id="XMLID_122_" class="st4" d="M63.1,60.4c-16.2,0-29.3,15-29.3,33.4s13.2,33.4,29.3,33.4c16.2,0,29.3-15,29.3-33.4
			S79.2,60.4,63.1,60.4z M85.8,93.8c0,14.8-10.2,26.8-22.7,26.8c-12.5,0-22.7-12-22.7-26.8S50.5,67,63.1,67
			C75.6,67,85.8,79,85.8,93.8z"/>
	</g>
</g>
<g id="_x30_4">
	<circle id="XMLID_118_" class="st0" cx="-207.9" cy="222.2" r="94.1"/>
	<defs>
		<filter id="Adobe_OpacityMaskFilter_4_" filterUnits="userSpaceOnUse" x="-295.9" y="191.4" width="150.4" height="124.9">
			<feColorMatrix  type="matrix" values="1 0 0 0 0  0 1 0 0 0  0 0 1 0 0  0 0 0 1 0"/>
		</filter>
	</defs>
	<mask maskUnits="userSpaceOnUse" x="-295.9" y="191.4" width="150.4" height="124.9" id="XMLID_145_">
		<g id="XMLID_113_" class="st14">
			
				<linearGradient id="XMLID_146_" gradientUnits="userSpaceOnUse" x1="-939.8326" y1="4083.4094" x2="-939.8326" y2="4291.3687" gradientTransform="matrix(-1.1478 -0.6627 -0.5351 0.9269 932.0818 -4238.7852)">
				<stop  offset="0.5483" style="stop-color:#8A8A8A"/>
				<stop  offset="0.5952" style="stop-color:#828282"/>
				<stop  offset="0.6684" style="stop-color:#6C6C6C"/>
				<stop  offset="0.7586" style="stop-color:#484848"/>
				<stop  offset="0.8616" style="stop-color:#161616"/>
				<stop  offset="0.9026" style="stop-color:#000000"/>
			</linearGradient>
			<polygon id="XMLID_114_" class="st15" points="-113.7,203.9 -224.9,396.7 -346,326.7 -234.8,134 			"/>
		</g>
	</mask>
	<path id="XMLID_115_" class="st16" d="M-159.3,236.2l13.9,3.9l-42.8,74.2c-6.3,1.3-12.9,2.1-19.6,2.1c-11.7,0-22.8-2.1-33.1-6
		l43.2-74.8l2.5,1.4l2.2-3.8l33.9-37.1L-159.3,236.2z M-214.6,219.3l-7.7-17.9l-13.5-10l-16.9,2.7l-13.2,9.7l-29.9,51.8
		c7.9,20.8,22.9,38,42.1,48.7l36.9-64L-214.6,219.3z"/>
	<g id="_x30_4_2_">
		<path id="XMLID_110_" class="st4" d="M-155.7,190.3h-5.6l-36.5,45.2l2.1,4.6h33.7v15.3h6.4v-15.3h10.2v-5.9h-10.2V190.3z
			 M-189.1,234.2l27.1-33.6v33.6H-189.1z"/>
		<path id="XMLID_107_" class="st4" d="M-241.4,188.7c-16.2,0-29.3,15-29.3,33.4s13.2,33.4,29.3,33.4c16.2,0,29.3-15,29.3-33.4
			S-225.2,188.7-241.4,188.7z M-218.7,222.2c0,14.8-10.2,26.8-22.7,26.8c-12.5,0-22.7-12-22.7-26.8s10.2-26.8,22.7-26.8
			C-228.9,195.3-218.7,207.4-218.7,222.2z"/>
	</g>
</g>
<g id="_x30_3">
	<circle id="XMLID_103_" class="st0" cx="394.7" cy="76.6" r="94.1"/>
	<defs>
		<filter id="Adobe_OpacityMaskFilter_5_" filterUnits="userSpaceOnUse" x="307.7" y="44.2" width="145.7" height="126.5">
			<feColorMatrix  type="matrix" values="1 0 0 0 0  0 1 0 0 0  0 0 1 0 0  0 0 0 1 0"/>
		</filter>
	</defs>
	<mask maskUnits="userSpaceOnUse" x="307.7" y="44.2" width="145.7" height="126.5" id="XMLID_147_">
		<g id="XMLID_100_" class="st17">
			
				<linearGradient id="XMLID_148_" gradientUnits="userSpaceOnUse" x1="-1280.1313" y1="3682.96" x2="-1280.1313" y2="3890.9189" gradientTransform="matrix(-1.1478 -0.6627 -0.5351 0.9269 932.0818 -4238.7852)">
				<stop  offset="0.5483" style="stop-color:#8A8A8A"/>
				<stop  offset="0.5952" style="stop-color:#828282"/>
				<stop  offset="0.6684" style="stop-color:#6C6C6C"/>
				<stop  offset="0.7586" style="stop-color:#484848"/>
				<stop  offset="0.8616" style="stop-color:#161616"/>
				<stop  offset="0.9026" style="stop-color:#000000"/>
			</linearGradient>
			<polygon id="XMLID_101_" class="st18" points="491.2,58.3 379.9,251 258.8,181.1 370.1,-11.7 			"/>
		</g>
	</mask>
	<path id="XMLID_102_" class="st19" d="M430.4,48.1l-21-3.8L389.9,78l0.5-4.4l-7.7-17.9l-13.5-10l-16.9,2.7L339,58.2l-31.4,54.3
		c14.1,34.2,47.7,58.2,87,58.2c5.9,0,11.7-0.6,17.4-1.6l40.1-69.4l-6.6-20.9l-7.9-2.6l15.8-27.4L430.4,48.1z"/>
	<g id="_x30_3_2_">
		<path id="XMLID_99_" class="st4" d="M447.3,77c-2.1-1.5-4.6-2.7-7.4-3.5c-2.2-0.7-4.5-1.1-6.9-1.4l20.1-23l0.2-0.3v-4.6h-44v6.3
			H444l-20.7,23.8L425,78h4c2.7,0,5.3,0.3,7.6,0.9c2.3,0.6,4.3,1.4,5.9,2.5c1.6,1.1,2.9,2.4,3.8,4c0.9,1.5,1.4,3.3,1.4,5.5
			c0,1.9-0.4,3.7-1.2,5.3c-0.8,1.6-1.8,2.9-3.1,4.1c-1.3,1.1-2.9,2-4.6,2.7c-1.8,0.6-3.7,1-5.6,1c-4,0-7.5-0.8-10.5-2.5
			c-3.1-1.7-5.9-4.1-8.3-7.2l-0.6-0.8l-5,4.1l0.5,0.7c2.6,3.4,6,6.3,9.9,8.4c4,2.2,8.6,3.3,13.9,3.3c2.8,0,5.5-0.5,8.1-1.4
			c2.6-0.9,4.9-2.2,6.9-3.9c2-1.7,3.6-3.7,4.7-6.1c1.2-2.4,1.8-5,1.8-8.1c0-3-0.6-5.7-1.9-8C451.2,80.4,449.5,78.5,447.3,77z"/>
		<path id="XMLID_96_" class="st4" d="M363.6,43.1c-16.2,0-29.3,15-29.3,33.4c0,18.4,13.2,33.4,29.3,33.4c16.2,0,29.3-15,29.3-33.4
			C392.9,58.1,379.7,43.1,363.6,43.1z M386.3,76.5c0,14.8-10.2,26.8-22.7,26.8c-12.5,0-22.7-12-22.7-26.8
			c0-14.8,10.2-26.8,22.7-26.8C376.1,49.7,386.3,61.7,386.3,76.5z"/>
	</g>
</g>
</svg>
