<?xml version="1.0" encoding="utf-8"?>
<!-- Generator: Adobe Illustrator 16.0.0, SVG Export Plug-In . SVG Version: 6.00 Build 0)  -->
<!DOCTYPE svg PUBLIC "-//W3C//DTD SVG 1.1//EN" "http://www.w3.org/Graphics/SVG/1.1/DTD/svg11.dtd">
<svg version="1.1" id="Layer_1" xmlns="http://www.w3.org/2000/svg" xmlns:xlink="http://www.w3.org/1999/xlink" x="0px" y="0px"
	 width="720px" height="720px" viewBox="0 0 720 720" enable-background="new 0 0 720 720" xml:space="preserve">
<g>
	<g>
		<path fill-rule="evenodd" clip-rule="evenodd" fill="#FEFEFE" d="M361,686c-115,0-230-0.02-345,0.096
			c-3.424,0.003-4.096-0.672-4.094-4.096c0.105-214.333,0.105-428.667,0-643c-0.002-3.423,0.67-4.096,4.094-4.095
			c230,0.104,460,0.104,690,0c3.423-0.001,4.096,0.671,4.095,4.095c-0.105,214.333-0.105,428.667,0,643
			c0.001,3.424-0.671,4.099-4.095,4.096C591,685.98,476,686,361,686z M445.972,625.547c1.755-0.016,3.509-0.031,5.264-0.046
			c1.058,0.506,2.003,0.36,2.827-0.487c15.341-1.61,30.378-4.939,45.264-8.764c27.281-7.008,53.441-17.049,77.791-31.342
			c23.698-13.911,44.754-30.944,60.438-53.866c15.056-22.003,25.424-46.278,32.993-71.678c4.304-14.444,7.139-29.313,4.476-44.624
			c-2.146-12.338-6.538-23.4-15.354-32.739c-13.04-13.811-29.762-20.873-47.172-26.582c-19.371-6.354-39.492-9.85-59.317-14.464
			c0.278-8.786,0.578-17.572,0.809-26.359c0.028-1.076,0.509-2.505-0.825-3.12c-1.49-0.687-2.469,0.383-3.335,1.445
			c-13.312,0.024-26.622,0.045-39.934,0.077c-2.188,0.005-4.344-0.036-5.895-1.942c2.089-1.352,4.283-2.567,6.247-4.082
			c5.514-4.25,10.149-9.281,11.464-16.377c3.41-18.417-7.951-39.514-25.487-46.163c-11.333-4.298-19.354-11.67-25.518-21.838
			c-7.883-13.008-19.897-19.847-34.956-18.979c-18.257,1.052-34.231,7.791-45.372,23.306c-0.192-1.344-0.644-2.546-1.571-3.598
			c-9.768-11.073-19.09-22.576-29.36-33.159c-17.638-18.175-36.906-34.284-60.053-45.387c-17.78-8.527-36.506-11.479-55.7-9.468
			c-21.457,2.249-41.241,10.328-59.776,21.35c-2.322,0.095-4.644,0.271-6.966,0.272c-45.059,0.017-90.118,0.001-135.176,0.024
			c-8.744,0.005-14.273,5.228-14.813,13.996c-0.163,2.644,0.083,5.312,0.142,7.968c-0.05,27.287-0.104,54.573-0.146,81.859
			c-0.011,6.869,6.718,14.747,14.704,14.446c11.739-0.441,23.596-1.28,35.323,0.792c-4.035,12.015-7.647,24.157-10.255,36.563
			c-1.478,7.03-2.531,14.149-3.775,21.229c-6.15,0.044-12.307-0.055-18.45,0.196c-2.861,0.117-5.934-1.158-8.594,0.933
			c-2.13,3.862-0.042,7.734,0.186,11.542c0.776,12.905,1.993,25.785,3.18,38.661c0.188,2.042,0.122,4.898,2.606,5.497
			c7.368,1.776,14.384,5.017,22.085,5.41c1.022,1.059,2.092,1.948,2.071,3.739c-0.143,11.966,4.003,23.131,7.049,34.42
			c4.856,17.999,12.278,35.079,21.292,51.396c5.026,9.099,9.589,18.534,16.612,26.396c0.192,0.628,0.23,1.368,0.597,1.866
			c12.545,16.996,26.123,33.054,42.414,46.651c11.453,9.56,23.526,18.207,36.561,25.504c20.083,11.241,41.583,18.864,63.616,25.168
			c9.208,2.634,18.363,5.477,27.929,6.572c0.501,0.126,1.002,0.252,1.502,0.378c2.038,1.679,4.467,0.609,6.694,0.952l0.207,0.023
			c0.426,0.494,0.806,1.369,1.285,1.428c9.826,1.189,19.361,4.327,29.35,4.402c1.215,3.932,0.613,8.021,1.041,12.018
			c-0.042,0.742-0.083,1.484-0.124,2.227c-3.977-1.529-7.185-0.26-9.655,2.926c-4.192,5.408-9.677,8.229-16.419,9.057
			c-2.934,0.359-5.779,1.391-8.685,2.028c-3.292,0.722-5.103,2.867-6.026,5.952c-0.813,2.715-0.081,4.038,3.025,3.969
			c18.104-0.401,36.209-0.732,54.316-1.004c2.251-0.033,3.954-1.25,3.7-3.038c-0.865-6.104,1.149-12.587-2.327-18.338
			c-0.019-1.232-0.038-2.465-0.057-3.697c0.583-3.075,1.167-6.149,1.751-9.224c9.35,1.432,18.775,0.998,28.179,1.215
			c10.383,0.239,20.815-0.996,31.146,0.943c2.999,6.381,5.999,12.763,8.996,19.144c0.018,0.596,0.033,1.192,0.051,1.788
			c-3.03-0.419-5.61,0.418-7.48,2.896c-4.448,5.896-10.46,8.802-17.675,9.763c-2.927,0.39-5.756,1.475-8.65,2.152
			c-3.13,0.732-4.534,2.877-5.435,5.783c-0.91,2.936,0.195,4.195,2.959,4.125c15.909-0.407,31.819-0.803,47.72-1.436
			c2.993-0.119,6.313,1.235,9.023-1.233c0.797,1.579,1.594,0.514,2.392,0c6.162,0.102,6.523-0.337,4.888-6.007
			c-1.143-3.961-2.439-7.884-3.398-11.889c-0.484-2.021-1.357-2.796-3.344-2.313c-0.588-1.916-1.177-3.831-1.765-5.746
			c-1.327-6.309-2.654-12.618-3.981-18.927c6.216-0.401,12.431-0.802,18.646-1.203C444.968,626.947,445.829,626.791,445.972,625.547
			z M590.199,227.132c-0.377-0.324-0.754-0.647-1.131-0.972c4.938-0.855,9.916-0.184,14.871-0.408
			c1.311-0.06,2.825,0.106,2.875-1.847c0.052-1.992-1.478-1.722-2.776-1.922c-2.352-0.361-4.956,1.033-7.064-0.998
			c2.8-1.168,5.955,0.423,9.362-1.325c-3.21-3.605-5.653-7.513-10.318-11.246c0,4.714,0,8.163,0,11.612
			c-2.38-2.565-0.868-5.67-1.039-8.5c-0.149-2.48-0.752-3.626-3.439-3.522c-4.314,0.166-8.641,0.041-12.962,0.053
			c-3.072,0.009-4.56,1.577-4.557,4.638c0.009,12.632,0.005,25.263,0.007,37.895c0,2.273,0.954,4.186,3.297,4.229
			c8.804,0.162,17.615,0.178,26.417-0.026c2.311-0.054,3.155-2.091,3.17-4.351c0.019-2.987-2.172-2.356-3.88-2.386
			c-3.489-0.059-6.98,0-10.471-0.029c-1.81-0.016-3.756,0.189-4.593-2.047c7.628,0.052,15.256,0.204,22.883,0.135
			c15.174-0.139,12.851,2.173,13.185-13.221c0.095-4.367-1.717-5.913-5.93-5.84C608.806,227.216,599.501,227.121,590.199,227.132z
			 M368.053,103.419c0,14.496-0.016,28.992,0.023,43.489c0.004,1.397-0.614,3.23,1.279,3.91c1.647,0.592,2.808-0.583,3.89-1.666
			c4.239-4.244,8.603-8.372,12.683-12.765c2.346-2.524,4.883-3.485,8.335-3.464c22.161,0.134,44.322,0.068,66.483,0.068
			c9.766-0.001,13.187-3.349,13.197-13.025c0.02-19.329,0.02-38.657-0.001-57.986c-0.009-8.498-4.415-12.917-12.902-12.923
			c-26.66-0.018-53.32-0.016-79.98,0c-8.442,0.005-12.988,4.506-13.003,12.871C368.032,75.759,368.05,89.589,368.053,103.419z
			 M699.736,153.288c-3.701-0.777-7.421-1.474-11.099-2.347c-16.771-3.979-31.69-11.053-41.838-25.744
			c-8.457-12.245-18.539-15.626-32.791-11.43c-8.517,2.507-14.379,8.725-20.988,13.851c-9.152,7.098-18.921,9.399-29.813,5.237
			c-6.683-2.554-13.509-3.164-20.546-2.884c-11.896,0.476-28.2,13.083-31.798,24.841
			C573.933,155.991,636.924,153.094,699.736,153.288z M260.768,109.69c2.327-0.03,4.922-3.932,3.972-6.137
			c-1.779-4.131-0.23-6.814,3.487-8.406c1.77-0.757,2.745-1.604,2.781-3.566c0.041-2.229-1.231-2.949-3.09-3.847
			c-3.278-1.584-5.391-4.234-2.989-8.01c1.08-1.696,0.723-2.739-0.551-3.832c-1.286-1.102-2.114-3.139-4.516-1.855
			c-4.134,2.209-7.095,0.659-8.751-3.382c-0.751-1.834-1.739-2.659-3.653-2.658c-1.95,0.001-2.833,0.959-3.596,2.741
			c-1.457,3.398-3.984,5.623-7.815,3.517c-1.831-1.007-2.886-1.024-4.271,0.425c-1.401,1.465-2.84,2.588-1.519,5.046
			c2.022,3.762,0.165,6.521-3.252,8.039c-1.938,0.861-3.064,1.705-3.008,3.903c0.051,1.989,1.157,2.714,2.857,3.511
			c3.551,1.665,5.687,4.313,3.083,8.302c-1.178,1.805-0.272,2.779,0.869,3.797c1.147,1.024,1.937,2.904,4.098,1.771
			c4.336-2.273,7.363-0.837,9.077,3.526c0.644,1.639,1.613,2.381,3.316,2.42c1.87,0.042,2.975-0.635,3.773-2.495
			c1.64-3.82,4.213-5.993,8.544-3.406C260.029,109.342,260.475,109.54,260.768,109.69z"/>
		<path fill-rule="evenodd" clip-rule="evenodd" fill="#DCDDEF" d="M62.954,333.811c1.245-7.079,2.298-14.198,3.775-21.229
			c2.607-12.406,6.22-24.549,10.255-36.563c14.482-0.014,28.965-0.036,43.447-0.038c37.288-0.005,74.576,0.014,111.864-0.011
			c9.668-0.007,16.551-5.792,16.598-14.806c0.143-27.461-0.078-54.924-0.157-82.386c0.052-1.663,0.147-3.326,0.15-4.989
			c0.02-11.854-5.088-16.908-17.017-16.941c-15.984-0.044-31.969-0.124-47.953-0.189c18.535-11.02,38.32-19.099,59.776-21.348
			c19.194-2.011,37.92,0.94,55.7,9.468c23.147,11.103,42.416,27.212,60.053,45.387c10.271,10.583,19.593,22.086,29.36,33.159
			c0.928,1.052,1.379,2.254,1.571,3.598c-2.734,6.998-1.336,12.685,5.361,16.613c1.494,0.877,2.028,2.285,2.056,3.744
			c0.09,4.762,1.195,9.429,0.536,14.293c-0.831,6.13-2.552,11.959-4.347,17.826c-5.01,16.371,0.364,27.019,16.351,32.943
			c1.823,0.676,3.967,0.732,5.371,2.383c-4.106,7.712-6.158,16.231-9.544,24.224c-0.684,1.613-0.259,2.438,1.445,2.81
			c1.263,0.274,2.483,0.744,3.723,1.127c-3.053,11.147-6.364,22.234-9.008,33.478c-0.859,3.657-2.562,4.338-5.702,4.63
			c-6.732,0.626-13.47,1.36-20.14,2.453c-10.753,1.761-21.421,4.106-32.416,3.688c-1.138-0.845-1.519-2.132-1.978-3.377
			c-7.739-20.975-15.502-41.94-23.208-62.928c-2.304-6.276-4.29-7.808-10.959-7.812c-31.583-0.019-63.167-0.027-94.75,0.008
			c-1.74,0.002-3.703-0.679-5.149,1.009c-2.666,1.84-1.955,4.141-1.046,6.61c6.118,16.635,12.032,33.346,18.312,49.918
			c4.547,12.001,7.885,24.461,13.614,36.015c-13.902,0.055-27.805,0.109-41.707,0.164c-1.215-1.577-0.385-3.217-0.017-4.76
			c1.538-6.437,2.89-12.94,4.896-19.232c1.359-4.261,0.665-6.144-4.004-5.751c4.284-3.295,6.732-7.654,7.606-12.962
			c1.486-9.026-0.792-11.087-9.084-7.76c-3.07,1.231-4.669,0.818-5.395-2.466c-0.249-1.126-0.637-2.268-1.196-3.271
			c-4.608-8.274-3.985-9.581-10.748-1.603c-1.172,1.383-2.354,2.893-3.006,4.55c-1.195,3.032-2.343,4.456-5.691,2.077
			c-1.941-1.38-4.609-1.753-6.969-2.525c-3.089-1.011-4.41-0.115-4.625,3.393c-0.542,8.857,1.898,16.05,10.014,20.596
			c-0.992,0.068-2.015,0.328-2.97,0.174c-4.97-0.8-5.407,1.244-4.218,5.536c1.901,6.86,3.166,13.897,4.7,20.86
			c-0.522,0.936-1.044,1.872-1.566,2.808c-11.648,0.074-23.296,0.138-34.944,0.235c-1.272,0.011-2.997-0.513-3.539,1.023
			c-0.4,1.134-0.397,2.863,0.222,3.803c1.047,1.589,3.067,0.776,4.652,0.778c48.446,0.036,96.892,0.024,145.337,0.039
			c1.82,0,3.639,0.182,5.459,0.279c-0.05,29.154-0.1,58.309-0.15,87.463c-2.488,0.037-4.887-0.335-7.343-0.874
			c-19.842-4.349-39.863-7.304-60.248-7.159c-5.805,0.042-11.609-0.02-17.414-0.034c-0.27-3.183,2.235-4.614,4.131-6.364
			c1.002-0.926,2.618-1.946,0.748-2.941c-4.144-2.204-5.467-6.292-7.876-11.511c-1.14,6.382-4.996,9.438-8.619,12.817
			c2.99,2.435,6.404,3.992,6.662,8.044c-1.345,0.731-2.789,0.896-4.309,1.04c-6.584,0.626-13.227,1.009-19.714,2.208
			c-19.555,3.617-38.777,8.489-56.982,16.751c-7.023-7.861-11.586-17.297-16.612-26.396c-9.014-16.317-16.436-33.397-21.292-51.396
			c-3.046-11.289-7.192-22.454-7.049-34.42c0.021-1.791-1.048-2.681-2.071-3.739c4.933-1.433,9.801-3.18,14.816-4.207
			c4.722-0.968,5.91-3.722,6.199-8.077c0.68-10.256,2.126-20.469,2.593-30.729c0.274-6.025,2.408-12.023,0.622-18.118
			c-1.292-1.502-3.047-0.896-4.609-0.921C76.71,333.884,69.832,333.864,62.954,333.811z M326.893,255.16
			c5.276-10.531,5.292-10.537,1.348-20.781c-0.371-0.963,0.271-2.46-1.684-2.961c-1.167,4.213-3.335,7.824-7.022,10.292
			c-1.652,1.106-1.487,2.214,0.026,2.994C323.618,246.794,324.844,250.862,326.893,255.16z M130.065,308.938
			c-0.618,2.767-4.69,4.41-4.446,6.993c0.244,2.579,3.146,4.908,4.665,7.042C136.1,318.396,136.407,313.704,130.065,308.938z"/>
		<path fill-rule="evenodd" clip-rule="evenodd" fill="#D0D2E9" d="M553.181,340.955c19.825,4.614,39.946,8.11,59.317,14.464
			c17.41,5.709,34.132,12.771,47.172,26.582c8.816,9.339,13.208,20.401,15.354,32.739c2.663,15.312-0.172,30.18-4.476,44.624
			c-7.569,25.399-17.938,49.675-32.993,71.678c-15.685,22.922-36.74,39.955-60.438,53.866c-24.35,14.293-50.51,24.334-77.791,31.342
			c-14.886,3.824-29.923,7.153-45.264,8.764c-0.124-0.683-0.248-1.364-0.373-2.046c0.059-32.152,0.107-64.305,0.188-96.457
			c0.011-4.49,0.18-8.979,0.274-13.469c6.271,0.011,12.541,0.021,18.812,0.032c9.021,0.392,18.043,0.446,27.063-0.024
			c19.09-0.28,37.812-16.969,40.83-36.876c1.419-9.366,2.135-18.847,2.973-28.293C546.99,412.243,550.07,376.598,553.181,340.955z
			 M593.318,462.632c0.977-3.054,2.734-5.337,5.837-7.196c-3.598-1.425-4.461-4.657-6.216-6.785
			C587.106,453.191,587.027,457.773,593.318,462.632z"/>
		<path fill-rule="evenodd" clip-rule="evenodd" fill="#41415D" d="M472.963,513.074c-6.271-0.011-12.541-0.021-18.812-0.032
			c-2.848,0.313-2.123,2.53-2.124,4.205c-0.031,33.873-0.031,67.746,0.003,101.618c0.001,1.514-0.735,3.488,1.659,4.103
			c0.125,0.682,0.249,1.363,0.373,2.046c-0.824,0.848-1.77,0.993-2.828,0.486c-3.309-1.064-2.656-4.985-4.914-6.806
			c-0.413-0.791-0.421-1.576,0.04-2.353c2.36-3.604,2.35-12.132-0.021-15.677c-0.077-0.142-0.232-0.292-0.217-0.423
			c0.037-0.305,0.155-0.601,0.24-0.9c1.657-0.814,1.629-2.335,1.629-3.854c-0.002-26.256,0.002-52.512-0.006-78.769
			c-0.001-1.628,0.329-3.508-2.184-3.663c-12.317-0.346-24.639-0.604-36.952-1.062c-13.114-0.487-13.111-0.569-8.963,12.06
			c2.36,10.015,4.639,20.049,7.095,30.039c6.067,24.673,12.215,49.326,18.33,73.987c1.327,6.309,2.654,12.618,3.981,18.927
			c-6.428,0.706-12.855,1.411-19.283,2.116c-2.999-6.382-5.999-12.764-8.998-19.145c-0.053-0.325-0.041-0.68-0.17-0.973
			c-14.293-32.523-28.599-65.043-42.894-97.566c-0.405-0.92-0.738-1.857-1.826-2.188c-1.069-7.586-5.805-13.693-8.365-20.686
			c-2.499-6.826-6.831-13.05-7.675-20.397c-1.488-12.951,5.42-21.021,16.017-27.291c27.822-16.46,55.437-33.271,83.132-49.942
			c18.861,0.025,37.726,0.051,56.59,0.076c4.598,7.049,7.608,14.743,9.601,22.905c4.772,19.55-1.779,44.458-29.296,52.373
			c-14.784,4.252-29.759,7.146-45.004,8.706c-12.543,1.284-25.126,2.171-37.876,3.249c0.266,1.089,0.624,2.028,0.708,2.992
			c0.425,4.846,2.643,6.476,7.767,6.038c9.435-0.805,18.944-0.783,28.426-0.958c22.3-0.412,44.606-0.559,66.901-1.15
			c18.461-0.489,34.061-15.144,35.855-33.43c5.202-52.986,10.663-105.943,16.926-158.816c0.866-1.063,1.845-2.132,3.335-1.445
			c1.334,0.615,0.854,2.044,0.825,3.12c-0.23,8.787-0.53,17.573-0.809,26.359c-3.11,35.643-6.19,71.288-9.352,106.926
			c-0.838,9.446-1.554,18.927-2.973,28.293c-3.019,19.907-21.74,36.596-40.83,36.876c-6.555-2.382-13.328-0.556-19.989-0.962
			C477.718,511.946,475.068,511.037,472.963,513.074z"/>
		<path fill-rule="evenodd" clip-rule="evenodd" fill="#B6BCDF" d="M248.737,178.778c0.079,27.462,0.3,54.925,0.157,82.386
			c-0.047,9.014-6.93,14.799-16.598,14.806c-37.288,0.024-74.576,0.006-111.864,0.011c-14.482,0.002-28.964,0.024-43.447,0.038
			c-11.727-2.072-23.583-1.233-35.323-0.792c-7.986,0.301-14.714-7.577-14.704-14.446c0.042-27.286,0.097-54.572,0.146-81.858
			c71.218,0.014,142.437,0.029,213.656,0.032C243.419,178.954,246.078,178.84,248.737,178.778z M181.973,200.17
			c-0.839-1.438-2.259-1.161-3.551-1.162c-18.917-0.012-37.833-0.012-56.75-0.001c-1.299,0-2.696-0.26-3.669,0.991
			c-1.821,1.163-3.075,2.556-2.021,4.906c0.932,2.08,2.769,2.06,4.638,2.059c19.237-0.011,38.474,0.028,57.71-0.031
			C183.215,206.917,183.967,205.379,181.973,200.17z M53.958,252.931c1.434,1.709,3.402,1.042,5.146,1.043
			c51.601,0.034,103.201,0.035,154.802-0.006c1.717-0.001,3.725,0.77,5.063-1.135c1.815-1.298,2.741-3.004,1.721-5.135
			c-1.103-2.303-3.395-1.699-5.319-1.7c-34.943-0.022-69.886-0.017-104.829-0.017c-17.971,0.001-35.941,0.02-53.912-0.02
			c-2.32-0.005-4.493,0.285-5.314,2.728C50.569,250.906,52.411,251.921,53.958,252.931z M78.992,233.052
			c6.982,0,13.968-0.122,20.945,0.052c3.44,0.086,4.938-1.391,4.943-4.651c0.015-10.64,0.015-21.279-0.001-31.919
			c-0.005-3.269-1.518-4.673-4.949-4.641c-13.797,0.131-27.597,0.104-41.395,0.021c-3.152-0.019-4.531,1.13-4.503,4.373
			c0.092,10.806,0.091,21.612,0.001,32.417c-0.027,3.244,1.366,4.431,4.511,4.379C65.359,232.971,72.176,233.048,78.992,233.052z
			 M167.984,228.984c16.154,0,32.308-0.007,48.461,0.007c2.33,0.002,4.485-0.205,4.555-3.25c0.068-2.954-2.047-3.452-4.343-3.66
			c-0.496-0.045-0.999-0.02-1.499-0.02c-31.142-0.001-62.284,0.006-93.425-0.013c-2.822-0.002-6.048,0.27-6.184,3.548
			c-0.155,3.717,3.309,3.385,5.971,3.386C137.009,228.988,152.497,228.985,167.984,228.984z"/>
		<path fill-rule="evenodd" clip-rule="evenodd" fill="#D0D2E9" d="M196.951,491.957c5.805,0.015,11.609,0.076,17.414,0.034
			c20.385-0.145,40.406,2.811,60.248,7.159c2.456,0.539,4.855,0.911,7.344,0.873c0.019,0.398,0.038,0.797,0.057,1.195
			c0.032,38.847,0.065,77.692,0.097,116.538c-9.569-1.09-18.723-3.933-27.932-6.566c-22.033-6.304-43.533-13.927-63.616-25.168
			c-13.035-7.297-25.107-15.944-36.561-25.504c-16.292-13.598-29.869-29.655-42.414-46.651c-0.367-0.498-0.405-1.238-0.597-1.866
			c18.206-8.262,37.428-13.134,56.982-16.751c6.487-1.199,13.13-1.582,19.714-2.208c1.52-0.145,2.963-0.309,4.309-1.04
			c1.43,0.659,0.597,2.969,2.695,3.394C195.029,494.03,195.471,492.606,196.951,491.957z"/>
		<path fill-rule="evenodd" clip-rule="evenodd" fill="#B4BADE" d="M549.829,312.921c-6.263,52.873-11.724,105.83-16.926,158.816
			c-1.795,18.286-17.395,32.94-35.855,33.43c-22.295,0.592-44.602,0.738-66.901,1.15c-9.481,0.175-18.991,0.153-28.426,0.958
			c-5.124,0.438-7.342-1.192-7.767-6.038c-0.084-0.964-0.442-1.903-0.708-2.992c12.75-1.078,25.333-1.965,37.876-3.249
			c15.245-1.561,30.22-4.454,45.004-8.706c27.517-7.915,34.068-32.823,29.296-52.373c-1.992-8.162-5.003-15.856-9.601-22.904
			c5.856-32.531,5.661-65.261,3.224-98.064c1.652-0.631,3.304-1.262,4.956-1.893c1.551,1.906,3.707,1.947,5.895,1.942
			C523.207,312.966,536.518,312.945,549.829,312.921z"/>
		<path fill-rule="evenodd" clip-rule="evenodd" fill="#AEC3E7" d="M368.051,103.419c-0.001-13.83-0.019-27.66,0.006-41.49
			c0.015-8.365,4.561-12.866,13.003-12.871c26.66-0.016,53.32-0.018,79.98,0c8.487,0.006,12.894,4.425,12.902,12.923
			c0.021,19.329,0.021,38.657,0.001,57.986c-0.011,9.677-3.432,13.024-13.197,13.025c-22.161,0-44.322,0.065-66.483-0.068
			c-3.452-0.021-5.989,0.939-8.335,3.464c-4.08,4.393-8.443,8.521-12.683,12.765c-1.082,1.083-2.242,2.258-3.89,1.666
			c-1.894-0.68-1.275-2.513-1.279-3.91C368.037,132.411,368.053,117.915,368.051,103.419z M393.01,85.905
			c-0.037,16.967,17.229,28.005,32.651,20.718c2.498-1.181,3.854-1.321,5.775,0.981c3.08,3.691,6.688,6.942,10.068,10.384
			c1.471,1.497,2.956,2.903,5.069,0.967c2.135-1.957,0.784-3.707-0.555-5.164c-2.925-3.182-5.92-6.318-9.096-9.246
			c-2.522-2.324-3.248-4.105-1.139-7.519c5.166-8.36,3.798-18.529-2.773-26.365c-5.873-7.003-16.158-9.417-25.454-5.974
			C398.927,67.886,393.029,76.486,393.01,85.905z"/>
		<path fill-rule="evenodd" clip-rule="evenodd" fill="#2E2C41" d="M504.001,311.056c-1.652,0.631-3.304,1.262-4.957,1.893
			c-0.317-9.29-4.35-16.71-11.954-21.852c-8.194-5.54-17.843-5.401-27.244-5.946c-1.981-7.083-1.885-14.48-3.288-21.644
			c-0.545-2.78-0.479-4.129,3.039-4.404c4.405-0.346,6.931-3.928,6.813-8.393c-0.117-4.429-2.446-7.136-6.718-8.112
			c-4.118-0.941-8.106,1.218-9.641,5.209c-0.521,1.354-0.782,2.81-1.147,4.167c-1.174-0.008-1.628-0.734-2.063-1.405
			c-1.691-2.615-1.585-5.73-2.357-8.603c-1.817-6.766-5.974-8.435-11.736-4.771c-6.23,3.96-12.897,6.775-20.054,8.736
			c-3.584,0.982-8.851-2.328-10.431,2.059c-1.208,3.353,0.642,7.808,1.144,11.771c0.063,0.494,0.209,0.978,0.295,1.469
			c2.525,14.337,13.594,22.943,28.117,21.859c6.256-0.468,6.256-0.468,6.181,5.895c-12.362,2.471-20.615,12.52-21.104,25.696
			c-0.396,0.016-0.791,0.03-1.187,0.046c-1.405-1.65-3.549-1.707-5.372-2.383c-15.986-5.925-21.36-16.572-16.351-32.943
			c1.795-5.867,3.516-11.696,4.347-17.826c0.659-4.864-0.446-9.531-0.536-14.293c-0.027-1.459-0.562-2.867-2.056-3.744
			c-6.697-3.929-8.096-9.615-5.361-16.613c11.141-15.515,27.115-22.254,45.372-23.306c15.059-0.867,27.073,5.972,34.956,18.979
			c6.163,10.168,14.185,17.54,25.518,21.838c17.536,6.649,28.897,27.746,25.487,46.163c-1.314,7.096-5.95,12.127-11.464,16.377
			C508.284,308.488,506.09,309.704,504.001,311.056z"/>
		<path fill-rule="evenodd" clip-rule="evenodd" fill="#35324C" d="M439.233,410.935c-27.697,16.672-55.312,33.483-83.134,49.943
			c-10.597,6.27-17.504,14.34-16.017,27.291c0.844,7.348,5.176,13.571,7.675,20.397c2.56,6.992,7.295,13.1,8.365,20.686
			c-1.587,10.846-3.174,21.69-4.763,32.536c-3.224,22.011-6.449,44.022-9.674,66.033c-0.583,3.074-1.167,6.148-1.75,9.223
			c-5.917,0.389-11.834,0.516-17.747-0.077c-0.429-4,0.173-8.089-1.042-12.021c0.063-0.658,0.215-1.321,0.178-1.974
			c-1.513-26.334-2.924-52.676-4.637-78.997c-0.58-8.917-0.407-17.899-1.974-26.748c-0.343-8.462-0.654-16.924-1.028-25.384
			c-0.597-13.514,5.038-23.461,17.078-29.629c15.98-8.188,32.069-16.165,48.019-24.409c16.059-8.301,32.479-15.905,48.186-24.888
			c0.606,0.001,0.981-0.254,0.996-0.905c3.958,0.301,6.407-3.168,9.924-3.975C438.337,409.003,438.785,409.969,439.233,410.935z"/>
		<path fill-rule="evenodd" clip-rule="evenodd" fill="#6EA3D6" d="M248.737,178.778c-2.659,0.062-5.318,0.176-7.977,0.176
			c-71.219-0.003-142.438-0.019-213.656-0.032c-0.058-2.657-0.304-5.325-0.141-7.969c0.54-8.769,6.069-13.991,14.813-13.996
			c45.059-0.023,90.118-0.008,135.176-0.024c2.322-0.001,4.644-0.178,6.966-0.273c15.984,0.064,31.968,0.145,47.953,0.188
			c11.928,0.033,17.036,5.087,17.017,16.941C248.884,175.452,248.789,177.115,248.737,178.778z M54.5,169.11
			c-0.068-1.876-1.013-3.224-2.864-3.494c-1.99-0.29-3.15,1.043-3.348,2.854c-0.184,1.685,0.948,2.875,2.542,3.208
			C52.784,172.087,53.925,170.947,54.5,169.11z M39.654,165.599c-1.827,0.256-3.313,1.103-3.313,3.053
			c0,1.885,1.295,3.095,3.211,3.098c1.693,0.003,2.818-1.129,3.033-2.765C42.857,166.91,41.354,166.117,39.654,165.599z
			 M63.241,165.605c-1.741,0.438-3.184,1.246-3.1,3.272c0.084,2.042,1.566,2.852,3.371,2.85c1.789-0.002,2.682-1.313,2.757-2.924
			C66.359,166.845,65.138,165.834,63.241,165.605z"/>
		<path fill-rule="evenodd" clip-rule="evenodd" fill="#DCDDEF" d="M699.736,153.288c-62.813-0.194-125.804,2.703-188.872,1.524
			c3.598-11.758,19.901-24.365,31.798-24.841c7.037-0.28,13.863,0.33,20.546,2.884c10.892,4.162,20.66,1.86,29.813-5.237
			c6.609-5.126,12.472-11.344,20.988-13.851c14.252-4.196,24.334-0.815,32.791,11.43c10.147,14.691,25.067,21.765,41.838,25.744
			C692.315,151.814,696.035,152.511,699.736,153.288z"/>
		<path fill-rule="evenodd" clip-rule="evenodd" fill="#D0D2E9" d="M425.312,628.081c-6.115-24.661-12.263-49.314-18.33-73.987
			c-2.456-9.99-4.734-20.024-7.095-30.039c0.686-4.915,4.642-4.703,8.104-5.021c8.248-0.761,16.408-2.014,24.366-4.315
			c2.656-0.769,5.135-0.688,7.822-0.236c3.126,0.525,3.892,2.023,3.882,5.038c-0.11,35.786-0.09,71.572-0.104,107.358
			C437.742,627.279,431.527,627.68,425.312,628.081z"/>
		<path fill-rule="evenodd" clip-rule="evenodd" fill="#D0D2E9" d="M314.717,517.229c1.564,8.847,1.391,17.829,1.971,26.746
			c1.713,26.321,3.124,52.663,4.637,78.997c0.037,0.652-0.115,1.315-0.178,1.974c-9.989-0.075-19.524-3.213-29.35-4.402
			c-0.479-0.059-0.859-0.934-1.279-1.429c2.462-1.474,1.417-3.895,1.42-5.886c0.071-36.409,0.06-72.818,0.066-109.228
			c4.682,0.011,8.833,2.289,13.296,3.125c4.878,0.914,9.028,1.967,7.887,8.384C313.038,516.35,313.936,516.888,314.717,517.229z"/>
		<path fill-rule="evenodd" clip-rule="evenodd" fill="#D0D2E9" d="M341.686,627.821c3.225-22.011,6.45-44.022,9.674-66.033
			c1.588-10.846,3.175-21.69,4.763-32.536c1.087,0.331,1.421,1.269,1.826,2.188c14.295,32.523,28.601,65.043,42.894,97.566
			c0.129,0.293,0.117,0.647,0.17,0.973c-10.331-1.939-20.764-0.704-31.146-0.943C360.461,628.819,351.036,629.253,341.686,627.821z"
			/>
		<path fill-rule="evenodd" clip-rule="evenodd" fill="#41415D" d="M437.887,408.038c-3.516,0.807-5.965,4.275-9.923,3.975
			c-0.346,0.116-0.691,0.232-1.036,0.349c-43.95-0.016-87.9-0.034-131.85-0.037c-0.991,0-1.981,0.174-2.972,0.266
			c-0.636,0.151-1.271,0.302-1.908,0.452c-1.956,1.31-1.16,3.329-1.162,5.039c-0.045,38.293-0.043,76.587-0.004,114.881
			c0.001,1.734-0.696,3.721,1.117,5.1c0.48,2.292,0.48,4.585-0.002,6.877c-1.68,1.21-1.12,3.012-1.122,4.599
			c-0.032,21.295-0.033,42.59,0.002,63.886c0.003,1.58-0.595,3.385,1.073,4.612c0.068,0.353,0.136,0.705,0.205,1.058
			c-2.228-0.343-4.656,0.727-6.694-0.952c0.085-0.992,0.246-1.984,0.246-2.977c0.014-37.103,0.015-74.205-0.001-111.308
			c0-0.986-0.204-1.973-0.312-2.958c0.049-28.425,0.103-56.85,0.131-85.273c0.001-1.232,0.447-2.812-1.568-3.063
			c-1.82-0.098-3.639-0.279-5.459-0.279c-48.446-0.015-96.892-0.003-145.337-0.039c-1.585-0.002-3.605,0.811-4.652-0.778
			c-0.619-0.939-0.622-2.669-0.222-3.803c0.542-1.536,2.267-1.013,3.539-1.023c11.648-0.098,23.296-0.161,34.944-0.234
			c0.645,0.129,1.29,0.258,1.935,0.387c10.113-0.018,20.226-0.034,30.339-0.051c13.902-0.055,27.805-0.109,41.706-0.164
			c0.655,0.083,1.312,0.238,1.968,0.238c53.277,0.04,106.554,0.07,159.831,0.082c1.295,0,2.691,0.276,3.791-0.774
			c10.462,1.053,20.944,0.347,31.418,0.386c0.227,0.198,0.49,0.284,0.79,0.258C437.093,407.189,437.489,407.614,437.887,408.038z"/>
		<path fill-rule="evenodd" clip-rule="evenodd" fill="#3C70E8" d="M88.196,334.919c1.786,6.095-0.348,12.093-0.622,18.118
			c-0.467,10.26-1.913,20.473-2.593,30.729c-0.289,4.355-1.477,7.109-6.199,8.077c-5.015,1.027-9.883,2.774-14.816,4.207
			c-7.701-0.394-14.717-3.634-22.085-5.41c-2.484-0.599-2.417-3.455-2.606-5.497c-1.187-12.876-2.404-25.756-3.18-38.661
			c-0.229-3.808-2.316-7.68-0.187-11.542C53.338,334.933,70.768,334.926,88.196,334.919z M45.259,346.123
			c-0.769,4.297,0.482,6.478,5.38,5.986c3.721-0.372,7.517,0.011,11.28,0.058c-0.04,0.217-0.043,0.434-0.011,0.651
			c-4.399,1.823-8.786,3.676-13.201,5.459c-2.208,0.893-2.03,2.612-1.896,4.501c0.163,2.288,1.586,2.565,3.391,2.523
			c3.943-0.093,7.887-0.158,11.831-0.234c1.651,0.057,3.32,0.298,4.948,0.133c3.434-0.348,3.916,1.041,3.818,4.306
			c-0.203,6.785-5.035,7.087-9.72,7.934c-3.147-1.525-7.717-1.231-7.675-6.689c0.015-1.928-2.088-1.673-3.565-1.645
			c-1.836,0.036-1.938,1.282-2.037,2.714c-0.477,6.883,7.813,13.036,15.229,11.257c3.72-0.197,6.929-2.068,10.365-3.19
			c1.536-0.501,2.374-1.611,2.506-3.331c0.33-4.288,0.706-8.574,1.19-12.847c0.36-3.178-0.793-4.678-4.11-4.505
			c-2.647,0.137-5.307,0.027-7.961,0.027c3.259-2.41,6.563-3.84,9.898-5.189c4.023-1.628,5.066-4.286,2.96-8.12
			c-0.735-0.292-1.468-0.834-2.205-0.839c-9.288-0.06-18.576-0.044-27.864-0.041C46.816,345.041,45.791,345.012,45.259,346.123z"/>
		<path fill-rule="evenodd" clip-rule="evenodd" fill="#2E2C41" d="M431.058,652.754c1.986-0.483,2.859,0.291,3.344,2.313
			c0.959,4.005,2.256,7.928,3.398,11.889c1.636,5.67,1.274,6.108-4.888,6.007c-0.798,0-1.595,0-2.392,0
			c-2.711,2.469-6.03,1.114-9.023,1.233c-15.9,0.633-31.811,1.028-47.72,1.436c-2.764,0.07-3.869-1.189-2.959-4.125
			c0.9-2.906,2.305-5.051,5.435-5.783c2.895-0.678,5.724-1.763,8.65-2.152c7.215-0.961,13.227-3.866,17.675-9.763
			c1.87-2.479,4.45-3.315,7.479-2.896C416.64,656.275,423.771,655.407,431.058,652.754z"/>
		<path fill-rule="evenodd" clip-rule="evenodd" fill="#2E2C41" d="M339.992,640.742c3.476,5.751,1.462,12.234,2.327,18.338
			c0.254,1.788-1.449,3.005-3.7,3.038c-18.106,0.271-36.212,0.603-54.316,1.004c-3.106,0.069-3.838-1.254-3.025-3.969
			c0.923-3.085,2.735-5.23,6.026-5.952c2.905-0.638,5.751-1.669,8.685-2.028c6.742-0.827,12.227-3.648,16.419-9.057
			c2.47-3.186,5.678-4.455,9.654-2.926C327.615,644.599,333.792,642.8,339.992,640.742z"/>
		<path fill-rule="evenodd" clip-rule="evenodd" fill="#EEF3FA" d="M260.768,109.69c-0.292-0.15-0.739-0.349-1.155-0.598
			c-4.331-2.587-6.905-0.414-8.544,3.406c-0.798,1.86-1.903,2.537-3.773,2.495c-1.704-0.039-2.672-0.781-3.316-2.42
			c-1.714-4.363-4.741-5.8-9.077-3.526c-2.161,1.134-2.95-0.746-4.098-1.771c-1.141-1.018-2.046-1.992-0.869-3.797
			c2.603-3.989,0.467-6.637-3.083-8.302c-1.7-0.797-2.806-1.521-2.857-3.511c-0.056-2.198,1.07-3.042,3.008-3.903
			c3.417-1.519,5.274-4.277,3.252-8.039c-1.322-2.458,0.118-3.581,1.519-5.046c1.385-1.449,2.44-1.432,4.271-0.425
			c3.832,2.106,6.359-0.118,7.815-3.517c0.764-1.782,1.646-2.74,3.596-2.741c1.915-0.001,2.902,0.824,3.653,2.658
			c1.657,4.041,4.618,5.591,8.751,3.382c2.402-1.283,3.23,0.754,4.516,1.855c1.274,1.093,1.631,2.136,0.551,3.832
			c-2.402,3.775-0.289,6.426,2.989,8.01c1.858,0.897,3.131,1.617,3.09,3.847c-0.036,1.962-1.012,2.81-2.781,3.566
			c-3.717,1.592-5.266,4.275-3.487,8.406C265.689,105.759,263.095,109.66,260.768,109.69z M260.989,92.785
			c0.065-9.296-5.414-14.817-13.635-14.781c-7.922,0.034-13.36,5.551-13.35,13.542c0.01,8.14,5.63,13.562,13.94,13.45
			c2.305-0.03,5.584,0.267,5.662-2.5c0.079-2.818-2.633-4.807-5.613-5.429c-1.278-0.268-2.662,0.021-3.982-0.108
			c-2.941-0.285-5.014-1.834-5.741-4.725c-0.385-1.532-1.061-3.574,0.521-4.59c1.377-0.885,2.199,1.009,3.14,1.817
			c1.349,1.158,2.715,2.284,4.266,0.565c1.304-1.446,0.985-3.069-0.238-4.505c-0.431-0.506-0.942-0.943-1.37-1.451
			c-0.506-0.601-1.382-1.14-0.783-2.099c0.484-0.774,1.29-0.893,2.182-0.832c3.863,0.264,8.351,4.247,7.511,7.871
			c-0.919,3.969,1.571,5.373,3.502,7.46c2.117,2.286,3.124,0.767,3.724-1.262C261.045,94.119,260.977,92.913,260.989,92.785z"/>
		<path fill-rule="evenodd" clip-rule="evenodd" fill="#7899F7" d="M587.968,245.979c0.837,2.236,2.783,2.031,4.593,2.047
			c3.49,0.029,6.981-0.029,10.471,0.029c1.708,0.029,3.898-0.602,3.88,2.386c-0.015,2.26-0.859,4.297-3.17,4.351
			c-8.802,0.204-17.613,0.188-26.417,0.026c-2.343-0.043-3.297-1.955-3.297-4.229c-0.002-12.632,0.002-25.263-0.007-37.895
			c-0.003-3.061,1.484-4.629,4.557-4.638c4.321-0.012,8.647,0.113,12.962-0.053c2.688-0.104,3.29,1.042,3.439,3.522
			c0.171,2.83-1.341,5.935,1.039,8.5l-0.044-0.051c-0.025,0.727,0.354,1.047,1.05,1.053l-0.05-0.043
			c2.108,2.031,4.713,0.637,7.064,0.998c1.299,0.2,2.828-0.07,2.776,1.922c-0.05,1.953-1.564,1.787-2.875,1.847
			c-4.955,0.225-9.934-0.447-14.871,0.408c-1.569,0.458-2.769,1.66-2.792,3.085c-0.089,5.296-1.202,10.658,0.653,15.876
			c0.362,0.303,0.725,0.605,1.087,0.907L587.968,245.979z"/>
		<path fill-rule="evenodd" clip-rule="evenodd" fill="#7899F7" d="M590.199,227.132c9.302-0.011,18.606,0.084,27.906-0.079
			c4.213-0.073,6.024,1.473,5.93,5.84c-0.334,15.394,1.989,13.082-13.185,13.221c-7.627,0.069-15.255-0.083-22.883-0.135l0.049,0.05
			c-0.035-0.665-0.071-1.33-0.106-1.995c0.023-2.775,0.001-5.554,0.081-8.328C588.078,232.69,587.158,229.394,590.199,227.132z
			 M612.91,239.406c0.22,3.304,2.246,3.903,4.725,3.415c1.793-0.354,3.13-1.61,3.018-3.441c-0.143-2.308-1.789-3.38-4.087-3.512
			c-1.193-0.068-2.563-0.371-2.27-1.935c0.293-1.563,1.778-1.035,2.877-1.104c0.916-0.058,1.633,1.283,2.865,0.232
			c-0.973-3.176-3.527-2.219-5.611-2.004c-1.46,0.15-2.326,1.31-2.374,2.784c-0.078,2.441,1.471,3.535,3.641,3.975
			c1.274,0.259,3.111,0.268,2.23,2.229c-0.648,1.445-2.226,1.071-3.477,0.415C613.9,240.175,613.421,239.762,612.91,239.406z
			 M609.979,233.233c-1.326-3.001-3.725-2.55-5.957-2.143c-1.481,0.27-2.089,1.506-2.148,2.971
			c-0.106,2.602,1.629,3.389,3.749,3.766c1.123,0.2,2.58,0.14,2.279,1.85c-0.277,1.581-1.665,1.236-2.812,1.22
			c-0.918-0.014-1.624-1.357-2.913-0.248c1.105,2.836,3.441,2.532,5.643,2.036c1.648-0.372,2.336-1.745,2.251-3.426
			c-0.113-2.229-1.417-3.212-3.538-3.348c-1.153-0.074-2.665-0.076-2.472-1.678c0.229-1.892,1.837-1.461,3.138-1.235
			C607.954,233.129,608.526,234.051,609.979,233.233z M599.978,233.712c-1.641-3.675-4.455-3.423-6.578-2.484
			c-3.527,1.558-2.252,5.155-2.195,7.993c0.046,2.263,1.596,3.575,3.925,3.715c2.323,0.14,4.002-0.604,4.706-3.66
			c-2.42,0.859-4.429,3.146-6.161,0.72c-1.28-1.793-1.203-4.405-0.159-6.192C594.968,231.314,597.313,233.646,599.978,233.712z"/>
		<path fill-rule="evenodd" clip-rule="evenodd" fill="#DCDDEF" d="M443.957,626.878c0.014-35.786-0.007-71.572,0.104-107.358
			c0.01-3.015-0.756-4.513-3.882-5.038c-2.688-0.452-5.166-0.532-7.822,0.236c-7.958,2.302-16.118,3.555-24.366,4.315
			c-3.462,0.318-7.418,0.106-8.104,5.021c-4.148-12.629-4.151-12.547,8.963-12.06c12.313,0.458,24.635,0.716,36.952,1.062
			c0.036,23.955,0.05,47.909,0.128,71.863c0.017,4.808,0.282,9.614,0.433,14.422c-0.085,0.3-0.203,0.596-0.24,0.9
			c-0.016,0.131,0.14,0.281,0.221,0.425c-0.79,5.228-0.532,10.451,0.018,15.675c-0.461,0.776-0.453,1.562-0.036,2.354
			c-0.114,2.284-0.233,4.567-0.353,6.851C445.829,626.791,444.968,626.947,443.957,626.878z"/>
		<path fill-rule="evenodd" clip-rule="evenodd" fill="#EEF3FA" d="M290.146,544.938c0.482-2.292,0.482-4.585,0.002-6.877
			c0.017-41.673,0.033-83.346,0.05-125.02c0.636-0.15,1.272-0.301,1.907-0.451c-0.034,30.472-0.068,60.941-0.102,91.411
			c-0.006,36.409,0.005,72.818-0.066,109.228c-0.004,1.991,1.042,4.412-1.42,5.886c-0.006,0.001-0.213-0.022-0.213-0.022
			c-0.068-0.353-0.137-0.705-0.205-1.058C290.573,593.67,290.481,569.304,290.146,544.938z"/>
		<path fill-rule="evenodd" clip-rule="evenodd" fill="#B6BCDF" d="M283.543,500.898c0.108,0.985,0.312,1.972,0.312,2.958
			c0.016,37.103,0.015,74.205,0.001,111.308c0,0.992-0.16,1.984-0.246,2.977c-0.5-0.126-1.001-0.252-1.501-0.381
			c-0.031-38.849-0.064-77.694-0.096-116.543C282.523,501.108,283.033,501.003,283.543,500.898z"/>
		<path fill-rule="evenodd" clip-rule="evenodd" fill="#E6AF92" d="M431.058,652.754c-7.287,2.653-14.418,3.521-21.001-1.843
			c-0.016-0.596-0.031-1.192-0.048-1.788c6.429-0.704,12.856-1.409,19.284-2.115C429.881,648.923,430.47,650.838,431.058,652.754z"
			/>
		<path fill-rule="evenodd" clip-rule="evenodd" fill="#E6AF92" d="M339.992,640.742c-6.2,2.058-12.377,3.856-17.929-1.552
			c0.042-0.742,0.083-1.484,0.125-2.226c5.914,0.595,11.83,0.468,17.748,0.079C339.954,638.277,339.973,639.51,339.992,640.742z"/>
		<path fill-rule="evenodd" clip-rule="evenodd" fill="#7899F7" d="M596.018,220.026c0-3.449,0-6.898,0-11.612
			c4.665,3.733,7.108,7.641,10.318,11.246c-3.407,1.748-6.563,0.157-9.362,1.325l0.05,0.043c0.13-0.83-0.277-1.123-1.05-1.053
			L596.018,220.026z"/>
		<path fill-rule="evenodd" clip-rule="evenodd" fill="#6461AB" d="M88.196,334.919c-17.429,0.007-34.858,0.014-52.287,0.021
			c2.661-2.091,5.734-0.815,8.595-0.933c6.143-0.251,12.299-0.152,18.45-0.196c6.878,0.054,13.756,0.073,20.633,0.188
			C85.149,334.023,86.904,333.417,88.196,334.919z"/>
		<path fill-rule="evenodd" clip-rule="evenodd" fill="#EEF3FA" d="M590.199,227.132c-3.041,2.262-2.121,5.559-2.208,8.573
			c-0.08,2.774-0.058,5.553-0.081,8.328c-0.326,0.363-0.653,0.726-0.98,1.088c-1.855-5.218-0.742-10.58-0.653-15.876
			c0.023-1.425,1.223-2.627,2.792-3.085C589.445,226.484,589.822,226.808,590.199,227.132z"/>
		<path fill-rule="evenodd" clip-rule="evenodd" fill="#35324C" d="M445.972,625.547c0.119-2.283,0.238-4.566,0.353-6.851
			c2.254,1.818,1.602,5.739,4.91,6.804C449.48,625.516,447.727,625.531,445.972,625.547z"/>
		<path fill-rule="evenodd" clip-rule="evenodd" fill="#41415D" d="M430.521,672.962c0.797,0,1.594,0,2.392,0
			C432.114,673.476,431.317,674.541,430.521,672.962z"/>
		<path fill-rule="evenodd" clip-rule="evenodd" fill="#6EA3D6" d="M404.487,406.121c-1.099,1.052-2.495,0.775-3.79,0.775
			c-53.277-0.012-106.554-0.042-159.831-0.082c-0.656,0-1.313-0.155-1.968-0.238c-5.727-11.554-9.065-24.014-13.612-36.015
			c-6.28-16.572-12.193-33.283-18.312-49.918c-0.909-2.47-1.62-4.771,1.046-6.61c30.924-0.019,61.849,0.074,92.771-0.18
			c4.406-0.036,6.459,1.309,7.924,5.319c8.525,23.348,17.321,46.596,25.883,69.93c3.536,9.638,3.375,9.696,13.048,8.854
			c1.702,1.54,3.786,0.861,5.698,0.88c17.19,0.166,34.382,0.263,51.573,0.378C405.969,401.59,406.174,403.914,404.487,406.121z
			 M262.849,357.483c-0.026,6.82,4.564,12.43,10.202,12.467c4.931,0.033,8.899-4.487,8.831-10.059
			c-0.081-6.671-4.83-11.969-10.744-11.988C265.983,347.887,262.872,351.482,262.849,357.483z"/>
		<path fill-rule="evenodd" clip-rule="evenodd" fill="#E6AF92" d="M404.917,399.216c-17.19-0.116-34.382-0.213-51.572-0.379
			c-1.913-0.019-3.997,0.66-5.695-0.879c-1.815-3.401-3.676-6.79-3.584-10.825c10.995,0.419,21.663-1.927,32.416-3.688
			c6.67-1.093,13.407-1.827,20.14-2.453c3.141-0.292,4.843-0.973,5.702-4.63c2.644-11.243,5.955-22.33,9.005-33.478
			c2.229,0.356,4.461,0.714,6.692,1.071c2.04,10.809,4.081,21.618,6.121,32.427c0.486,2.097-1.426,5.274,1.103,6.148
			c2.406,0.831,5.672,1.556,8.043-1.036c2.784-0.462,5.555-1.085,8.357-1.339c2.451-0.221,3.452-1.59,3.977-3.728
			c2.815-11.458,5.656-22.909,8.488-34.363c0.604-0.241,1.313-0.821,1.797-0.673c8.008,2.461,16.428,3.421,24.226,6.637
			c-5.898,14.793-11.849,29.565-17.666,44.39c-1.821,4.64-5.042,6.688-9.943,6.625c-6.64-0.084-13.282,0.006-19.924,0.021
			C423.371,399.115,414.145,399.165,404.917,399.216z"/>
		<path fill-rule="evenodd" clip-rule="evenodd" fill="#4D4A9D" d="M197.193,406.74c-10.113,0.017-20.226,0.033-30.339,0.051
			c0.418-1.127,0.409-2.205-0.368-3.195c-1.534-6.963-2.799-14-4.7-20.86c-1.189-4.292-0.752-6.336,4.218-5.536
			c0.956,0.154,1.978-0.105,2.971-0.174c9.698-0.01,19.396-0.02,29.094-0.028c4.669-0.393,5.363,1.49,4.004,5.751
			c-2.006,6.292-3.359,12.796-4.896,19.232C196.808,403.523,195.978,405.163,197.193,406.74z"/>
		<path fill-rule="evenodd" clip-rule="evenodd" fill="#6EA3D6" d="M198.068,376.997c-9.698,0.009-19.396,0.019-29.094,0.028
			c-8.116-4.546-10.557-11.738-10.015-20.596c0.215-3.508,1.536-4.403,4.625-3.393c2.359,0.772,5.027,1.146,6.969,2.525
			c3.348,2.379,4.496,0.955,5.691-2.077c0.653-1.657,1.834-3.167,3.006-4.55c6.763-7.979,6.14-6.672,10.748,1.603
			c0.559,1.004,0.947,2.146,1.196,3.271c0.726,3.284,2.325,3.697,5.395,2.466c8.292-3.327,10.57-1.267,9.084,7.76
			C204.801,369.343,202.352,373.702,198.068,376.997z"/>
		<path fill-rule="evenodd" clip-rule="evenodd" fill="#AEC3E7" d="M344.065,387.133c-0.092,4.035,1.769,7.424,3.584,10.825
			c-9.676,0.841-9.515,0.782-13.051-8.855c-8.562-23.334-17.358-46.582-25.883-69.93c-1.464-4.011-3.518-5.355-7.924-5.319
			c-30.922,0.254-61.847,0.161-92.771,0.18c1.446-1.688,3.409-1.007,5.149-1.009c31.583-0.035,63.167-0.026,94.75-0.008
			c6.67,0.004,8.655,1.535,10.959,7.812c7.706,20.987,15.469,41.953,23.208,62.928C342.546,385.001,342.927,386.288,344.065,387.133
			z"/>
		<path fill-rule="evenodd" clip-rule="evenodd" fill="#6461AB" d="M418.021,343.956c-2.231-0.357-4.463-0.715-6.692-1.071
			c-1.236-0.383-2.457-0.853-3.72-1.127c-1.704-0.371-2.129-1.196-1.445-2.81c3.386-7.992,5.438-16.512,9.544-24.224
			c0.396-0.016,0.792-0.03,1.188-0.043C417.271,324.441,417.646,334.198,418.021,343.956z"/>
		<path fill-rule="evenodd" clip-rule="evenodd" fill="#EEF3FA" d="M283.543,500.898c-0.51,0.104-1.02,0.21-1.53,0.318
			c-0.019-0.396-0.038-0.795-0.057-1.193c0.049-29.153,0.1-58.308,0.149-87.462c2.015,0.252,1.57,1.831,1.568,3.063
			C283.646,444.049,283.592,472.474,283.543,500.898z"/>
		<path fill-rule="evenodd" clip-rule="evenodd" fill="#EEF3FA" d="M326.893,255.16c-2.049-4.298-3.275-8.366-7.332-10.456
			c-1.514-0.78-1.679-1.888-0.026-2.994c3.687-2.468,5.854-6.079,7.022-10.292c1.954,0.501,1.313,1.998,1.684,2.961
			C332.185,244.623,332.169,244.629,326.893,255.16z"/>
		<path fill-rule="evenodd" clip-rule="evenodd" fill="#EEF3FA" d="M196.951,491.957c-1.479,0.649-1.921,2.073-2.259,3.438
			c-2.098-0.425-1.265-2.734-2.695-3.394c-0.258-4.052-3.672-5.609-6.662-8.044c3.623-3.38,7.479-6.436,8.619-12.817
			c2.409,5.219,3.732,9.307,7.876,11.511c1.87,0.995,0.254,2.016-0.748,2.941C199.186,487.343,196.681,488.774,196.951,491.957z"/>
		<path fill-rule="evenodd" clip-rule="evenodd" fill="#EEF3FA" d="M130.065,308.938c6.342,4.766,6.035,9.458,0.219,14.035
			c-1.52-2.134-4.421-4.463-4.665-7.042C125.375,313.349,129.447,311.705,130.065,308.938z"/>
		<path fill-rule="evenodd" clip-rule="evenodd" fill="#B6BCDF" d="M166.486,403.596c0.777,0.99,0.786,2.068,0.368,3.195
			c-0.645-0.129-1.29-0.258-1.935-0.387C165.441,405.468,165.964,404.531,166.486,403.596z"/>
		<path fill-rule="evenodd" clip-rule="evenodd" fill="#35324C" d="M453.689,622.968c-2.395-0.614-1.658-2.589-1.659-4.103
			c-0.034-33.872-0.034-67.745-0.003-101.618c0.001-1.675-0.724-3.893,2.124-4.206c-0.095,4.49-0.264,8.979-0.274,13.47
			C453.797,558.663,453.748,590.815,453.689,622.968z"/>
		<path fill-rule="evenodd" clip-rule="evenodd" fill="#EEF3FA" d="M593.318,462.632c-6.291-4.858-6.212-9.44-0.379-13.981
			c1.755,2.128,2.618,5.36,6.216,6.785C596.053,457.295,594.295,459.578,593.318,462.632z"/>
		<path fill-rule="evenodd" clip-rule="evenodd" fill="#2E2C41" d="M472.963,513.074c2.105-2.037,4.755-1.128,7.074-0.986
			c6.661,0.406,13.435-1.42,19.989,0.962C491.006,513.521,481.984,513.466,472.963,513.074z"/>
		<path fill-rule="evenodd" clip-rule="evenodd" fill="#4D4A9D" d="M418.021,343.956c-0.375-9.758-0.749-19.515-1.125-29.274
			c0.488-13.18,8.741-23.229,21.104-25.699c0.292,1.115,0.594,2.229,0.874,3.346c1.59,6.339,6.046,9.456,12.363,8.642
			c5.133-0.661,8.857-5.502,8.742-11.373c-0.029-1.482-0.088-2.964-0.133-4.446c9.401,0.545,19.05,0.406,27.244,5.946
			c7.604,5.142,11.637,12.562,11.954,21.852c2.438,32.804,2.634,65.533-3.223,98.064c-18.864-0.026-37.729-0.052-56.59-0.077
			c-0.446-0.967-0.895-1.933-1.344-2.897c-0.398-0.424-0.795-0.849-1.19-1.271c-0.235-0.202-0.474-0.405-0.711-0.609
			c-1.129-2.364-2.259-4.729-3.388-7.093c6.642-0.015,13.284-0.104,19.924-0.021c4.901,0.063,8.122-1.985,9.943-6.625
			c5.817-14.824,11.768-29.597,17.666-44.39c6.086,2.021,6.406-1.751,7.041-6.314c1.136-8.164,2.934-16.238,4.553-24.33
			c2-9.997-2.498-18.354-12.085-20.895c-7.136-1.891-15.823,1.358-19.492,11.435c-3.002,8.244-5.853,16.544-8.978,24.74
			c-1.556,4.081-2.5,7.652,2.938,9.4c-2.832,11.454-5.673,22.905-8.488,34.363c-0.524,2.138-1.525,3.507-3.977,3.728
			c-2.803,0.254-5.573,0.877-8.347,1.336c-4.573,1.038-8.304,0.548-9.156-5.109C422.102,365.574,420.061,354.765,418.021,343.956z"
			/>
		<path fill-rule="evenodd" clip-rule="evenodd" fill="#35324C" d="M446.362,599.342c-0.15-4.808-0.416-9.614-0.433-14.422
			c-0.078-23.954-0.092-47.908-0.128-71.863c2.513,0.155,2.183,2.035,2.184,3.663c0.008,26.257,0.004,52.513,0.006,78.769
			C447.991,597.007,448.02,598.527,446.362,599.342z"/>
		<path fill-rule="evenodd" clip-rule="evenodd" fill="#35324C" d="M446.36,616.342c-0.55-5.224-0.808-10.447-0.018-15.675
			C448.71,604.21,448.721,612.738,446.36,616.342z"/>
		<path fill-rule="evenodd" clip-rule="evenodd" fill="#EEF3FA" d="M78.992,233.05c-6.816-0.002-13.633-0.079-20.448,0.032
			c-3.146,0.052-4.538-1.135-4.511-4.379c0.09-10.805,0.091-21.611-0.001-32.417c-0.028-3.243,1.351-4.392,4.503-4.373
			c13.798,0.084,27.597,0.11,41.395-0.021c3.431-0.032,4.944,1.372,4.949,4.641c0.016,10.64,0.016,21.279,0.001,31.919
			c-0.004,3.261-1.502,4.737-4.943,4.651C92.96,232.93,85.975,233.052,78.992,233.05z M83.885,202.874
			c0.052-0.687,0.479-1.84-0.61-2.403c-0.984-0.508-1.562,0.394-1.781,1.169c-2.172,7.649-4.305,15.31-6.398,22.981
			c-0.209,0.768-0.208,1.757,0.874,1.989c1.083,0.233,1.445-0.72,1.656-1.46C79.719,217.82,81.758,210.476,83.885,202.874z
			 M93.39,214.946c-1.805,1.501-3.988,3.246-6.08,5.096c-0.674,0.596-1.721,1.39-0.703,2.448c0.942,0.979,1.746,0.131,2.548-0.456
			c8.093-5.913,8.338-8.54,1.436-15.614c-0.231-0.236-0.427-0.52-0.69-0.709c-0.976-0.705-1.842-2.561-3.209-1.182
			c-1.441,1.454,0.587,2.192,1.281,3.12C89.528,209.728,91.883,211.174,93.39,214.946z M71.298,204.119
			c-0.783,0.116-8.946,8.655-8.925,9.278c0.01,0.302,0.122,0.67,0.322,0.884c2.592,2.773,5.192,5.54,7.833,8.267
			c0.494,0.51,1.191,0.53,1.784,0.034c0.638-0.534,0.611-1.341,0.074-1.708c-7.436-5.075-6.585-9.943,0.095-14.995
			C73.379,205.199,72.478,204.104,71.298,204.119z"/>
		<path fill-rule="evenodd" clip-rule="evenodd" fill="#EEF3FA" d="M53.958,252.931c-1.547-1.01-3.388-2.024-2.642-4.241
			c0.822-2.442,2.994-2.732,5.314-2.728c17.97,0.039,35.941,0.021,53.912,0.02c34.943,0,69.886-0.006,104.829,0.017
			c1.924,0.001,4.216-0.603,5.319,1.7c1.021,2.131,0.094,3.837-1.721,5.137C163.965,252.867,108.961,252.899,53.958,252.931z"/>
		<path fill-rule="evenodd" clip-rule="evenodd" fill="#EEF3FA" d="M167.984,228.984c-15.487,0.001-30.975,0.004-46.463-0.002
			c-2.662-0.001-6.126,0.331-5.971-3.386c0.136-3.278,3.362-3.55,6.184-3.548c31.142,0.019,62.284,0.012,93.425,0.013
			c0.5,0,1.002-0.025,1.499,0.02c2.295,0.208,4.411,0.706,4.343,3.66c-0.07,3.045-2.225,3.252-4.555,3.25
			C200.292,228.978,184.138,228.984,167.984,228.984z"/>
		<path fill-rule="evenodd" clip-rule="evenodd" fill="#EEF3FA" d="M181.973,200.17c1.995,5.209,1.242,6.747-3.645,6.762
			c-19.237,0.06-38.474,0.021-57.71,0.031c-1.869,0.001-3.706,0.021-4.638-2.059c-1.054-2.351,0.201-3.743,2.021-4.906
			C139.325,200.055,160.649,200.112,181.973,200.17z"/>
		<path fill-rule="evenodd" clip-rule="evenodd" fill="#B4BADE" d="M53.958,252.931c55.004-0.031,110.007-0.063,165.011-0.096
			c-1.338,1.902-3.346,1.132-5.063,1.133c-51.601,0.041-103.201,0.04-154.802,0.006C57.36,253.973,55.392,254.64,53.958,252.931z"/>
		<path fill-rule="evenodd" clip-rule="evenodd" fill="#B4BADE" d="M181.973,200.17c-21.324-0.058-42.647-0.115-63.971-0.172
			c0.973-1.251,2.37-0.991,3.669-0.991c18.917-0.011,37.833-0.011,56.75,0.001C179.713,199.009,181.134,198.732,181.973,200.17z"/>
		<path fill-rule="evenodd" clip-rule="evenodd" fill="#FEFEFE" d="M393.01,85.905c0.02-9.419,5.917-18.02,14.548-21.218
			c9.296-3.443,19.581-1.029,25.454,5.974c6.571,7.836,7.939,18.005,2.773,26.365c-2.109,3.413-1.384,5.194,1.139,7.519
			c3.176,2.928,6.171,6.064,9.096,9.246c1.339,1.457,2.689,3.207,0.555,5.164c-2.113,1.937-3.599,0.53-5.069-0.967
			c-3.381-3.441-6.988-6.692-10.068-10.384c-1.921-2.303-3.277-2.162-5.775-0.981C410.239,113.91,392.973,102.872,393.01,85.905z
			 M416.049,103.002c8.874-0.037,16.906-8.131,16.888-17.019c-0.019-8.913-8.048-16.966-16.932-16.983
			c-9.315-0.019-17.13,7.921-17.003,17.275C399.124,95.366,406.945,103.04,416.049,103.002z"/>
		<path fill-rule="evenodd" clip-rule="evenodd" fill="#E6AF92" d="M459.846,285.15c0.045,1.482,0.104,2.964,0.133,4.446
			c0.115,5.871-3.609,10.712-8.742,11.373c-6.317,0.814-10.773-2.303-12.363-8.642c-0.28-1.117-0.582-2.23-0.874-3.346
			c0.075-6.362,0.075-6.362-6.181-5.895c-14.523,1.084-25.592-7.522-28.117-21.859c-0.086-0.491-0.232-0.975-0.295-1.469
			c-0.502-3.963-2.352-8.418-1.144-11.771c1.58-4.387,6.847-1.076,10.431-2.059c7.156-1.961,13.823-4.776,20.054-8.736
			c5.763-3.663,9.919-1.994,11.736,4.771c0.772,2.872,0.666,5.987,2.357,8.603c0.435,0.671,0.889,1.397,2.063,1.405
			c0.365-1.357,0.626-2.813,1.147-4.167c1.534-3.991,5.522-6.15,9.641-5.209c4.271,0.977,6.601,3.684,6.718,8.112
			c0.118,4.465-2.407,8.047-6.813,8.393c-3.518,0.275-3.584,1.624-3.039,4.404C457.961,270.67,457.864,278.067,459.846,285.15z
			 M425.733,265.112c-3.999,0.819-7.585,1.419-11.09,2.329c-1.761,0.457-1.668,1.843-0.626,3.104
			c1.905,2.309,4.396,2.894,7.166,2.081c3-0.88,5.415-2.538,6.2-5.811C427.845,264.896,426.398,265.148,425.733,265.112z"/>
		<path fill-rule="evenodd" clip-rule="evenodd" fill="#DCDDEF" d="M292.004,504.002c0.034-30.47,0.067-60.939,0.102-91.411
			c0.991-0.093,1.981-0.267,2.972-0.267c43.95,0.003,87.9,0.021,131.849,0.037c-0.059,0.191-0.045,0.377,0.041,0.557
			c-15.707,8.982-32.127,16.587-48.186,24.888c-15.95,8.244-32.039,16.222-48.019,24.409c-12.04,6.168-17.675,16.115-17.078,29.629
			c0.374,8.46,0.686,16.922,1.028,25.384c-0.777-0.34-1.676-0.878-1.527-1.717c1.141-6.417-3.009-7.47-7.887-8.384
			C300.837,506.291,296.686,504.013,292.004,504.002z"/>
		<path fill-rule="evenodd" clip-rule="evenodd" fill="#B4BADE" d="M426.968,412.918c-0.086-0.18-0.1-0.365-0.041-0.557
			c0.346-0.116,0.691-0.232,1.037-0.349C427.949,412.664,427.574,412.919,426.968,412.918z"/>
		<path fill-rule="evenodd" clip-rule="evenodd" fill="#EEF3FA" d="M54.5,169.11c-0.575,1.837-1.717,2.977-3.67,2.568
			c-1.593-0.333-2.725-1.523-2.542-3.208c0.198-1.812,1.358-3.145,3.348-2.854C53.488,165.887,54.432,167.234,54.5,169.11z"/>
		<path fill-rule="evenodd" clip-rule="evenodd" fill="#EEF3FA" d="M39.654,165.599c1.7,0.519,3.203,1.312,2.931,3.386
			c-0.214,1.636-1.339,2.768-3.033,2.765c-1.916-0.003-3.21-1.213-3.211-3.098C36.341,166.701,37.827,165.854,39.654,165.599z"/>
		<path fill-rule="evenodd" clip-rule="evenodd" fill="#EEF3FA" d="M63.241,165.605c1.897,0.229,3.119,1.239,3.027,3.198
			c-0.075,1.611-0.968,2.922-2.757,2.924c-1.804,0.002-3.286-0.808-3.371-2.85C60.057,166.852,61.5,166.043,63.241,165.605z"/>
		<path fill-rule="evenodd" clip-rule="evenodd" fill="#DCDDEF" d="M432.599,399.064c1.129,2.364,2.259,4.729,3.389,7.091
			c0.001-0.002-0.081,0.353-0.081,0.353c-10.474-0.039-20.956,0.667-31.418-0.386c1.686-2.208,1.48-4.532,0.43-6.907
			C414.145,399.165,423.371,399.115,432.599,399.064z"/>
		<path fill-rule="evenodd" clip-rule="evenodd" fill="#2E2C41" d="M290.198,413.042c-0.017,41.674-0.033,83.347-0.05,125.02
			c-1.813-1.379-1.115-3.365-1.117-5.1c-0.039-38.294-0.041-76.588,0.004-114.881C289.038,416.371,288.242,414.352,290.198,413.042z
			"/>
		<path fill-rule="evenodd" clip-rule="evenodd" fill="#2E2C41" d="M290.146,544.938c0.334,24.365,0.426,48.731-0.046,73.097
			c-1.668-1.228-1.07-3.032-1.073-4.612c-0.036-21.296-0.035-42.591-0.002-63.886C289.027,547.95,288.466,546.148,290.146,544.938z"
			/>
		<path fill-rule="evenodd" clip-rule="evenodd" fill="#6EA3D6" d="M435.906,406.508c0,0,0.082-0.354,0.081-0.353
			c0.236,0.206,0.475,0.409,0.71,0.611C436.396,406.792,436.133,406.706,435.906,406.508z"/>
		<path fill-rule="evenodd" clip-rule="evenodd" fill="#DCDDEF" d="M77.878,345.921c2.108,3.834,1.065,6.492-2.958,8.12
			c-3.336,1.35-6.639,2.779-9.898,5.189c2.654,0,5.314,0.109,7.961-0.027c3.316-0.173,4.47,1.327,4.11,4.505
			c-0.484,4.272-0.86,8.559-1.19,12.847c-0.132,1.72-0.97,2.83-2.506,3.331c-3.436,1.122-6.645,2.993-10.365,3.19
			c-0.127-2.061,0.6-4.416-1.951-5.637c4.685-0.847,9.517-1.148,9.72-7.934c0.097-3.265-0.385-4.653-3.818-4.306
			c-1.628,0.165-3.297-0.076-4.949-0.133c-0.042-4.083-0.083-8.166-0.125-12.249c-0.033-0.218-0.029-0.435,0.011-0.65
			c0.021-1.992,0.041-3.983,0.061-5.976C67.279,346.102,72.579,346.012,77.878,345.921z"/>
		<path fill-rule="evenodd" clip-rule="evenodd" fill="#EEF3FA" d="M61.908,352.818c0.042,4.083,0.083,8.166,0.125,12.249
			c-3.943,0.076-7.887,0.142-11.83,0.234c-1.805,0.042-3.229-0.235-3.391-2.523c-0.135-1.889-0.313-3.608,1.896-4.501
			C53.122,356.494,57.509,354.642,61.908,352.818z"/>
		<path fill-rule="evenodd" clip-rule="evenodd" fill="#EEF3FA" d="M61.081,377.439c2.551,1.221,1.824,3.576,1.951,5.637
			c-7.416,1.779-15.705-4.374-15.229-11.257c0.099-1.432,0.201-2.678,2.037-2.714c1.477-0.028,3.581-0.283,3.565,1.645
			C53.363,376.208,57.933,375.914,61.081,377.439z"/>
		<path fill-rule="evenodd" clip-rule="evenodd" fill="#EEF3FA" d="M61.98,346.192c-0.02,1.992-0.04,3.983-0.061,5.976
			c-3.763-0.048-7.56-0.431-11.28-0.059c-4.898,0.491-6.149-1.689-5.382-5.984C50.83,346.148,56.405,346.171,61.98,346.192z"/>
		<path fill-rule="evenodd" clip-rule="evenodd" fill="#6461AB" d="M61.98,346.192c-5.575-0.021-11.15-0.044-16.723-0.067
			c0.534-1.113,1.56-1.084,2.554-1.084c9.288-0.003,18.576-0.019,27.864,0.041c0.737,0.005,1.47,0.547,2.204,0.839
			C72.579,346.012,67.279,346.102,61.98,346.192z"/>
		<path fill-rule="evenodd" clip-rule="evenodd" fill="#FEFEFE" d="M260.989,92.785c-0.012,0.128,0.057,1.334-0.266,2.425
			c-0.6,2.028-1.607,3.548-3.724,1.262c-1.931-2.087-4.422-3.491-3.502-7.46c0.839-3.624-3.648-7.607-7.511-7.871
			c-0.892-0.061-1.698,0.058-2.182,0.832c-0.599,0.959,0.277,1.498,0.783,2.099c0.428,0.508,0.939,0.945,1.37,1.451
			c1.223,1.436,1.542,3.059,0.238,4.505c-1.551,1.719-2.917,0.593-4.266-0.565c-0.941-0.809-1.763-2.702-3.14-1.817
			c-1.582,1.016-0.905,3.058-0.521,4.59c0.727,2.891,2.799,4.439,5.741,4.725c1.32,0.129,2.704-0.159,3.982,0.108
			c2.98,0.622,5.692,2.61,5.613,5.429c-0.078,2.767-3.356,2.47-5.662,2.5c-8.31,0.111-13.93-5.311-13.94-13.45
			c-0.01-7.991,5.428-13.508,13.35-13.542C255.575,77.968,261.054,83.489,260.989,92.785z"/>
		<path fill-rule="evenodd" clip-rule="evenodd" fill="#FEFEFE" d="M586.93,245.121c0.327-0.362,0.654-0.725,0.98-1.088
			c0.035,0.665,0.071,1.33,0.106,1.995C587.654,245.727,587.292,245.424,586.93,245.121z"/>
		<path fill-rule="evenodd" clip-rule="evenodd" fill="#FEFEFE" d="M595.974,219.976c0.772-0.07,1.18,0.223,1.05,1.053
			C596.328,221.022,595.948,220.702,595.974,219.976z"/>
		<path fill-rule="evenodd" clip-rule="evenodd" fill="#EEF3FA" d="M612.91,239.406c0.511,0.355,0.99,0.769,1.537,1.055
			c1.251,0.656,2.828,1.03,3.477-0.415c0.881-1.961-0.956-1.97-2.23-2.229c-2.17-0.439-3.719-1.533-3.641-3.975
			c0.048-1.475,0.914-2.634,2.374-2.784c2.084-0.215,4.639-1.172,5.611,2.004c-1.232,1.051-1.949-0.29-2.865-0.232
			c-1.099,0.068-2.584-0.459-2.877,1.104c-0.293,1.563,1.076,1.866,2.27,1.935c2.298,0.132,3.944,1.204,4.087,3.512
			c0.112,1.831-1.225,3.088-3.018,3.441C615.156,243.31,613.13,242.71,612.91,239.406z"/>
		<path fill-rule="evenodd" clip-rule="evenodd" fill="#EEF3FA" d="M609.979,233.233c-1.452,0.817-2.024-0.104-2.78-0.235
			c-1.301-0.226-2.909-0.656-3.138,1.235c-0.193,1.602,1.318,1.604,2.472,1.678c2.121,0.136,3.425,1.119,3.538,3.348
			c0.085,1.681-0.603,3.054-2.251,3.426c-2.201,0.496-4.537,0.8-5.643-2.036c1.289-1.109,1.995,0.234,2.913,0.248
			c1.146,0.017,2.534,0.361,2.812-1.22c0.301-1.71-1.156-1.649-2.279-1.85c-2.12-0.377-3.855-1.164-3.749-3.766
			c0.06-1.465,0.667-2.701,2.148-2.971C606.254,230.684,608.652,230.232,609.979,233.233z"/>
		<path fill-rule="evenodd" clip-rule="evenodd" fill="#EEF3FA" d="M599.978,233.712c-2.665-0.065-5.01-2.397-6.463,0.091
			c-1.044,1.787-1.121,4.399,0.159,6.192c1.732,2.426,3.741,0.14,6.161-0.72c-0.704,3.056-2.383,3.8-4.706,3.66
			c-2.329-0.14-3.879-1.452-3.925-3.715c-0.057-2.838-1.332-6.436,2.195-7.993C595.522,230.289,598.337,230.037,599.978,233.712z"/>
		<path fill-rule="evenodd" clip-rule="evenodd" fill="#DCDDEF" d="M262.849,357.483c0.023-6.001,3.134-9.597,8.289-9.58
			c5.915,0.02,10.663,5.317,10.744,11.988c0.068,5.571-3.9,10.092-8.831,10.059C267.414,369.913,262.823,364.304,262.849,357.483z"
			/>
		<path fill-rule="evenodd" clip-rule="evenodd" fill="#6461AB" d="M454.109,342.065c-5.438-1.748-4.494-5.319-2.938-9.4
			c3.125-8.196,5.976-16.496,8.978-24.74c3.669-10.076,12.356-13.325,19.492-11.435c9.587,2.54,14.085,10.897,12.085,20.895
			c-1.619,8.092-3.417,16.166-4.553,24.33c-0.635,4.563-0.955,8.336-7.041,6.314c-7.798-3.216-16.218-4.176-24.226-6.637
			C455.422,341.244,454.714,341.824,454.109,342.065z"/>
		<path fill-rule="evenodd" clip-rule="evenodd" fill="#B6BCDF" d="M424.142,376.383c0.853,5.657,4.583,6.147,9.156,5.109
			c-2.382,2.595-5.647,1.87-8.054,1.039C422.716,381.657,424.628,378.479,424.142,376.383z"/>
		<path fill-rule="evenodd" clip-rule="evenodd" fill="#6EA3D6" d="M83.885,202.874c-2.127,7.602-4.166,14.946-6.259,22.276
			c-0.211,0.74-0.573,1.693-1.656,1.46c-1.081-0.232-1.083-1.222-0.874-1.989c2.093-7.672,4.226-15.332,6.398-22.981
			c0.22-0.775,0.797-1.677,1.781-1.169C84.364,201.034,83.937,202.188,83.885,202.874z"/>
		<path fill-rule="evenodd" clip-rule="evenodd" fill="#6EA3D6" d="M93.39,214.946c-1.507-3.772-3.862-5.219-5.417-7.297
			c-0.694-0.928-2.723-1.666-1.281-3.12c1.367-1.379,2.233,0.477,3.209,1.182c0.263,0.189,0.459,0.473,0.69,0.709
			c6.903,7.074,6.657,9.701-1.436,15.614c-0.802,0.587-1.606,1.436-2.548,0.456c-1.018-1.059,0.029-1.853,0.703-2.448
			C89.402,218.192,91.585,216.447,93.39,214.946z"/>
		<path fill-rule="evenodd" clip-rule="evenodd" fill="#6EA3D6" d="M71.298,204.119c1.18-0.016,2.081,1.08,1.183,1.76
			c-6.68,5.052-7.531,9.92-0.095,14.995c0.537,0.367,0.564,1.174-0.074,1.708c-0.593,0.496-1.291,0.476-1.784-0.034
			c-2.641-2.727-5.241-5.493-7.833-8.267c-0.2-0.214-0.312-0.582-0.322-0.884C62.352,212.774,70.515,204.235,71.298,204.119z"/>
		<path fill-rule="evenodd" clip-rule="evenodd" fill="#AEC3E7" d="M416.049,103.002c-9.104,0.038-16.925-7.636-17.047-16.727
			c-0.127-9.354,7.688-17.294,17.003-17.275c8.884,0.018,16.913,8.07,16.932,16.983C432.955,94.871,424.923,102.965,416.049,103.002
			z"/>
		<path fill-rule="evenodd" clip-rule="evenodd" fill="#EEF3FA" d="M425.733,265.112c0.665,0.036,2.111-0.217,1.65,1.704
			c-0.785,3.272-3.2,4.931-6.2,5.811c-2.77,0.813-5.261,0.228-7.166-2.081c-1.042-1.262-1.135-2.647,0.626-3.104
			C418.148,266.531,421.734,265.932,425.733,265.112z"/>
	</g>
</g>
</svg>
