<?xml version="1.0" encoding="utf-8"?>
<!-- Generator: Adobe Illustrator 23.0.1, SVG Export Plug-In . SVG Version: 6.00 Build 0)  -->
<svg version="1.1" id="Layer_1" xmlns="http://www.w3.org/2000/svg" xmlns:xlink="http://www.w3.org/1999/xlink" x="0px" y="0px"
	 viewBox="0 0 176.7 18.7" style="enable-background:new 0 0 176.7 18.7;" xml:space="preserve">
<style type="text/css">
	.st0{fill:#574F90;}
	.st1{fill:#2EA6A7;}
</style>
<title>Logo (Normal)</title>
<path class="st0" d="M11.1,13.2c0,0.9-0.2,1.7-0.5,2.4s-0.8,1.2-1.4,1.7c-0.6,0.5-1.2,0.8-2,1s-1.6,0.3-2.5,0.3
	c-0.6,0-1.1,0-1.6-0.1c-0.5-0.1-1-0.2-1.3-0.3c-0.4-0.1-0.7-0.3-1-0.4s-0.4-0.3-0.6-0.4s-0.2-0.3-0.2-0.5C0,16.6,0,16.3,0,15.9
	c0-0.3,0-0.5,0-0.7s0-0.3,0.1-0.4c0-0.1,0.1-0.2,0.2-0.2c0.1,0,0.1-0.1,0.2-0.1c0.1,0,0.3,0.1,0.5,0.2c0.2,0.1,0.5,0.3,0.9,0.5
	s0.8,0.3,1.3,0.5c0.5,0.1,1.1,0.2,1.7,0.2c0.4,0,0.8-0.1,1.1-0.2c0.3-0.1,0.6-0.2,0.9-0.4c0.2-0.2,0.4-0.4,0.5-0.7s0.2-0.6,0.2-0.9
	c0-0.4-0.1-0.7-0.3-1C7,12.4,6.7,12.2,6.4,12c-0.3-0.2-0.7-0.4-1.2-0.6c-0.4-0.2-0.9-0.4-1.3-0.6S3,10.3,2.6,10
	c-0.4-0.3-0.8-0.6-1.2-1C1.1,8.7,0.8,8.2,0.6,7.7S0.3,6.6,0.3,5.9c0-0.8,0.2-1.5,0.5-2.2C1,3.1,1.5,2.6,2,2.2
	c0.5-0.4,1.1-0.7,1.8-0.9C4.5,1.1,5.2,1,6,1c0.4,0,0.8,0,1.2,0.1S8,1.2,8.4,1.3S9,1.6,9.3,1.7S9.7,1.9,9.8,2S10,2.2,10,2.2
	c0,0.1,0.1,0.1,0.1,0.2c0,0.1,0,0.2,0,0.4c0,0.2,0,0.3,0,0.6c0,0.3,0,0.5,0,0.6c0,0.2,0,0.3-0.1,0.4c0,0.1-0.1,0.2-0.1,0.3
	C9.9,4.8,9.8,4.9,9.7,4.9S9.5,4.8,9.2,4.7S8.8,4.4,8.5,4.3C8.2,4.1,7.8,4,7.4,3.9C7,3.8,6.5,3.7,6.1,3.7c-0.4,0-0.7,0-1,0.1
	C4.8,3.9,4.6,4,4.4,4.2C4.2,4.4,4,4.6,3.9,4.8C3.9,5,3.8,5.3,3.8,5.5c0,0.4,0.1,0.7,0.3,1C4.3,6.8,4.6,7,5,7.2
	c0.3,0.2,0.7,0.4,1.2,0.6C6.6,8,7,8.2,7.5,8.5s0.9,0.5,1.3,0.7c0.4,0.3,0.8,0.6,1.2,1c0.3,0.4,0.6,0.8,0.8,1.3
	C11,12,11.1,12.6,11.1,13.2z"/>
<path class="st0" d="M25.5,11.9c0,1-0.1,1.9-0.4,2.7s-0.7,1.5-1.2,2.1s-1.2,1.1-2,1.4s-1.8,0.5-2.8,0.5c-1,0-2-0.1-2.7-0.4
	s-1.4-0.7-1.9-1.3s-0.9-1.2-1.1-2s-0.4-1.7-0.4-2.8c0-1,0.1-1.9,0.4-2.7c0.3-0.8,0.7-1.5,1.2-2.1c0.5-0.6,1.2-1.1,2-1.4
	c0.8-0.3,1.7-0.5,2.8-0.5c1.1,0,2,0.1,2.7,0.4c0.8,0.3,1.4,0.7,1.9,1.3c0.5,0.6,0.9,1.2,1.1,2S25.5,10.9,25.5,11.9z M22.1,12
	c0-0.6,0-1.1-0.1-1.6c-0.1-0.5-0.2-0.9-0.5-1.3S21,8.5,20.6,8.3C20.2,8.1,19.8,8,19.2,8c-0.5,0-0.9,0.1-1.3,0.3
	c-0.4,0.2-0.7,0.4-0.9,0.8c-0.2,0.3-0.4,0.8-0.5,1.3c-0.1,0.5-0.2,1-0.2,1.7c0,0.6,0,1.1,0.1,1.6c0.1,0.5,0.3,0.9,0.5,1.3
	s0.5,0.6,0.9,0.8c0.4,0.2,0.8,0.3,1.4,0.3c0.5,0,0.9-0.1,1.3-0.3c0.4-0.2,0.7-0.4,0.9-0.8s0.4-0.8,0.5-1.2
	C22,13.2,22.1,12.7,22.1,12z"/>
<path class="st0" d="M31.4,17.9c0,0.1,0,0.2-0.1,0.2c-0.1,0.1-0.1,0.1-0.3,0.2s-0.3,0.1-0.5,0.1c-0.2,0-0.5,0-0.8,0s-0.6,0-0.8,0
	c-0.2,0-0.4-0.1-0.5-0.1c-0.1,0-0.2-0.1-0.3-0.2c-0.1-0.1-0.1-0.1-0.1-0.2V0.6c0-0.1,0-0.2,0.1-0.2s0.1-0.1,0.3-0.2
	c0.1,0,0.3-0.1,0.5-0.1s0.5,0,0.8,0s0.6,0,0.8,0s0.4,0.1,0.5,0.1c0.1,0,0.2,0.1,0.3,0.2s0.1,0.1,0.1,0.2V17.9z"/>
<path class="st0" d="M46.6,11.9c0,1-0.1,1.9-0.4,2.7s-0.7,1.5-1.2,2.1s-1.2,1.1-2,1.4s-1.8,0.5-2.8,0.5c-1,0-2-0.1-2.7-0.4
	S36,17.5,35.5,17s-0.9-1.2-1.1-2S34,13.2,34,12.1c0-1,0.1-1.9,0.4-2.7c0.3-0.8,0.7-1.5,1.2-2.1c0.5-0.6,1.2-1.1,2-1.4
	c0.8-0.3,1.7-0.5,2.8-0.5c1.1,0,2,0.1,2.7,0.4c0.8,0.3,1.4,0.7,1.9,1.3c0.5,0.6,0.9,1.2,1.1,2S46.6,10.9,46.6,11.9z M43.2,12
	c0-0.6,0-1.1-0.1-1.6c-0.1-0.5-0.2-0.9-0.5-1.3s-0.5-0.6-0.9-0.8C41.4,8.1,40.9,8,40.4,8c-0.5,0-0.9,0.1-1.3,0.3
	c-0.4,0.2-0.7,0.4-0.9,0.8c-0.2,0.3-0.4,0.8-0.5,1.3c-0.1,0.5-0.2,1-0.2,1.7c0,0.6,0,1.1,0.1,1.6c0.1,0.5,0.3,0.9,0.5,1.3
	s0.5,0.6,0.9,0.8c0.4,0.2,0.8,0.3,1.4,0.3c0.5,0,0.9-0.1,1.3-0.3c0.4-0.2,0.7-0.4,0.9-0.8s0.4-0.8,0.5-1.2
	C43.2,13.2,43.2,12.7,43.2,12z"/>
<path class="st0" d="M68,17.9c0,0.1,0,0.2-0.1,0.2c-0.1,0.1-0.1,0.1-0.3,0.2s-0.3,0.1-0.5,0.1c-0.2,0-0.5,0-0.8,0
	c-0.3,0-0.6,0-0.8,0c-0.2,0-0.4-0.1-0.5-0.1s-0.2-0.1-0.3-0.2c0-0.1-0.1-0.1-0.1-0.2v-7c0-0.4,0-0.8-0.1-1.1S64.4,9.2,64.2,9
	c-0.2-0.2-0.3-0.4-0.6-0.5c-0.2-0.1-0.5-0.2-0.8-0.2c-0.4,0-0.8,0.2-1.2,0.5s-0.8,0.8-1.3,1.3v7.8c0,0.1,0,0.2-0.1,0.2
	c-0.1,0.1-0.1,0.1-0.3,0.2c-0.1,0-0.3,0.1-0.5,0.1c-0.2,0-0.5,0-0.8,0c-0.3,0-0.6,0-0.8,0c-0.2,0-0.4-0.1-0.5-0.1
	c-0.1,0-0.2-0.1-0.3-0.2C57,18.1,57,18,57,17.9v-7c0-0.4,0-0.8-0.1-1.1S56.7,9.2,56.5,9c-0.1-0.2-0.3-0.4-0.6-0.5
	c-0.2-0.1-0.5-0.2-0.8-0.2c-0.4,0-0.8,0.2-1.2,0.5s-0.8,0.8-1.3,1.3v7.8c0,0.1,0,0.2-0.1,0.2c-0.1,0.1-0.1,0.1-0.3,0.2
	s-0.3,0.1-0.5,0.1c-0.2,0-0.5,0-0.8,0s-0.6,0-0.8,0c-0.2,0-0.4-0.1-0.5-0.1c-0.1,0-0.2-0.1-0.3-0.2c-0.1-0.1-0.1-0.1-0.1-0.2V6.1
	c0-0.1,0-0.2,0.1-0.2c0-0.1,0.1-0.1,0.2-0.2s0.3-0.1,0.4-0.1c0.2,0,0.4,0,0.7,0c0.3,0,0.5,0,0.7,0c0.2,0,0.3,0.1,0.4,0.1
	S52,5.8,52,5.9c0,0.1,0.1,0.1,0.1,0.2v1.4c0.7-0.7,1.3-1.2,1.9-1.6c0.6-0.4,1.3-0.5,2-0.5c0.5,0,0.9,0.1,1.3,0.2
	c0.4,0.1,0.7,0.2,1,0.4c0.3,0.2,0.6,0.4,0.8,0.7s0.4,0.6,0.6,0.9c0.4-0.4,0.7-0.7,1-1s0.7-0.5,1-0.7c0.3-0.2,0.7-0.3,1-0.4
	c0.3-0.1,0.7-0.1,1-0.1c0.8,0,1.4,0.1,2,0.4s1,0.6,1.3,1.1c0.3,0.5,0.6,1,0.7,1.6S68,9.7,68,10.4V17.9z"/>
<path class="st0" d="M83.1,11.9c0,1-0.1,1.9-0.4,2.7s-0.7,1.5-1.2,2.1s-1.2,1.1-2,1.4s-1.8,0.5-2.8,0.5c-1,0-2-0.1-2.7-0.4
	S72.5,17.5,72,17s-0.9-1.2-1.1-2s-0.4-1.7-0.4-2.8c0-1,0.1-1.9,0.4-2.7c0.3-0.8,0.7-1.5,1.2-2.1c0.5-0.6,1.2-1.1,2-1.4
	c0.8-0.3,1.7-0.5,2.8-0.5c1.1,0,2,0.1,2.7,0.4c0.8,0.3,1.4,0.7,1.9,1.3c0.5,0.6,0.9,1.2,1.1,2S83.1,10.9,83.1,11.9z M79.7,12
	c0-0.6,0-1.1-0.1-1.6c-0.1-0.5-0.2-0.9-0.5-1.3s-0.5-0.6-0.9-0.8C77.8,8.1,77.4,8,76.8,8c-0.5,0-0.9,0.1-1.3,0.3
	c-0.4,0.2-0.7,0.4-0.9,0.8c-0.2,0.3-0.4,0.8-0.5,1.3c-0.1,0.5-0.2,1-0.2,1.7c0,0.6,0,1.1,0.1,1.6c0.1,0.5,0.3,0.9,0.5,1.3
	c0.2,0.4,0.5,0.6,0.9,0.8c0.4,0.2,0.8,0.3,1.4,0.3c0.5,0,0.9-0.1,1.3-0.3c0.4-0.2,0.7-0.4,0.9-0.8s0.4-0.8,0.5-1.2
	C79.6,13.2,79.7,12.7,79.7,12z"/>
<path class="st0" d="M97,17.9c0,0.1,0,0.2-0.1,0.2c-0.1,0.1-0.1,0.1-0.3,0.2s-0.3,0.1-0.5,0.1c-0.2,0-0.5,0-0.8,0
	c-0.3,0-0.6,0-0.8,0c-0.2,0-0.4-0.1-0.5-0.1c-0.1,0-0.2-0.1-0.3-0.2c-0.1-0.1-0.1-0.1-0.1-0.2v-6.7c0-0.6,0-1-0.1-1.3
	c-0.1-0.3-0.2-0.6-0.4-0.8c-0.2-0.2-0.4-0.4-0.6-0.5c-0.3-0.1-0.5-0.2-0.9-0.2c-0.4,0-0.8,0.2-1.3,0.5s-0.9,0.8-1.3,1.3v7.8
	c0,0.1,0,0.2-0.1,0.2c-0.1,0.1-0.1,0.1-0.3,0.2c-0.1,0-0.3,0.1-0.5,0.1c-0.2,0-0.5,0-0.8,0s-0.6,0-0.8,0c-0.2,0-0.4-0.1-0.5-0.1
	c-0.1,0-0.2-0.1-0.3-0.2c-0.1-0.1-0.1-0.1-0.1-0.2V6.1c0-0.1,0-0.2,0.1-0.2c0-0.1,0.1-0.1,0.2-0.2c0.1,0,0.3-0.1,0.4-0.1
	c0.2,0,0.4,0,0.7,0c0.3,0,0.5,0,0.7,0c0.2,0,0.3,0.1,0.4,0.1c0.1,0,0.2,0.1,0.2,0.2c0,0.1,0.1,0.1,0.1,0.2v1.4
	c0.6-0.7,1.3-1.2,2-1.6c0.7-0.4,1.4-0.5,2.1-0.5c0.8,0,1.5,0.1,2,0.4c0.5,0.3,1,0.6,1.3,1.1c0.3,0.5,0.6,1,0.7,1.6
	c0.1,0.6,0.2,1.3,0.2,2.2V17.9z"/>
<path class="st1" d="M120.7,9.6c0,1.6-0.2,2.9-0.6,4c-0.4,1.1-1,2-1.8,2.7s-1.7,1.2-2.8,1.5c-1.1,0.3-2.4,0.5-3.9,0.5h-4.1
	c-0.3,0-0.5-0.1-0.7-0.3c-0.2-0.2-0.3-0.5-0.3-0.8V2.4c0-0.4,0.1-0.7,0.3-0.8c0.2-0.2,0.4-0.3,0.7-0.3h4.4c1.5,0,2.8,0.2,3.9,0.5
	c1.1,0.4,2,0.9,2.7,1.6c0.7,0.7,1.3,1.6,1.7,2.6C120.5,7,120.7,8.2,120.7,9.6z M117.1,9.7c0-0.8-0.1-1.6-0.3-2.3
	c-0.2-0.7-0.5-1.3-0.9-1.8c-0.4-0.5-1-0.9-1.6-1.2c-0.7-0.3-1.5-0.4-2.6-0.4H110v11.6h1.8c0.9,0,1.7-0.1,2.4-0.4s1.2-0.6,1.6-1.1
	c0.4-0.5,0.8-1.1,1-1.9C117,11.5,117.1,10.7,117.1,9.7z"/>
<path class="st1" d="M133.4,17.9c0,0.1,0,0.2-0.1,0.3s-0.2,0.1-0.4,0.2c-0.2,0-0.5,0-0.8,0c-0.4,0-0.7,0-0.9,0
	c-0.2,0-0.3-0.1-0.4-0.2c-0.1-0.1-0.1-0.2-0.1-0.3V17c-0.5,0.5-1,0.9-1.7,1.2c-0.6,0.3-1.3,0.4-2.1,0.4c-0.6,0-1.2-0.1-1.7-0.2
	c-0.5-0.2-1-0.4-1.4-0.7c-0.4-0.3-0.7-0.7-0.9-1.2s-0.3-1-0.3-1.7c0-0.7,0.1-1.3,0.4-1.8c0.3-0.5,0.7-0.9,1.2-1.3
	c0.5-0.3,1.2-0.6,2-0.7s1.7-0.2,2.8-0.2h1.1v-0.7c0-0.4,0-0.7-0.1-1c-0.1-0.3-0.2-0.5-0.4-0.7c-0.2-0.2-0.4-0.3-0.7-0.4
	c-0.3-0.1-0.6-0.1-1.1-0.1c-0.6,0-1,0.1-1.5,0.2c-0.4,0.1-0.8,0.3-1.2,0.4s-0.6,0.3-0.8,0.4c-0.2,0.1-0.4,0.2-0.5,0.2
	c-0.1,0-0.2,0-0.3-0.1c-0.1-0.1-0.1-0.1-0.2-0.3c0-0.1-0.1-0.3-0.1-0.4c0-0.2,0-0.4,0-0.6c0-0.3,0-0.5,0.1-0.6
	c0-0.2,0.1-0.3,0.3-0.4c0.1-0.1,0.3-0.3,0.6-0.4c0.3-0.2,0.7-0.3,1.1-0.4s0.9-0.2,1.4-0.3c0.5-0.1,1-0.1,1.5-0.1
	c0.9,0,1.7,0.1,2.4,0.3c0.7,0.2,1.2,0.5,1.6,0.8c0.4,0.4,0.7,0.9,0.9,1.4s0.3,1.3,0.3,2.1V17.9z M130.1,12.9h-1.3
	c-0.5,0-1,0-1.4,0.1s-0.7,0.2-0.9,0.4c-0.2,0.2-0.4,0.3-0.5,0.6c-0.1,0.2-0.2,0.5-0.2,0.8c0,0.5,0.2,0.9,0.5,1.2
	c0.3,0.3,0.7,0.4,1.3,0.4c0.5,0,0.9-0.1,1.3-0.4c0.4-0.2,0.8-0.6,1.2-1V12.9z"/>
<path class="st1" d="M145,14.6c0,0.7-0.1,1.3-0.4,1.8c-0.3,0.5-0.6,0.9-1.1,1.3c-0.5,0.3-1,0.6-1.6,0.8c-0.6,0.2-1.3,0.3-2,0.3
	c-0.4,0-0.9,0-1.3-0.1c-0.4-0.1-0.8-0.1-1.1-0.3s-0.6-0.2-0.8-0.3s-0.4-0.2-0.5-0.3c-0.1-0.1-0.2-0.2-0.2-0.4
	c-0.1-0.2-0.1-0.5-0.1-0.9c0-0.3,0-0.5,0-0.6c0-0.2,0-0.3,0.1-0.4c0-0.1,0.1-0.2,0.1-0.2c0.1,0,0.1,0,0.2,0c0.1,0,0.2,0.1,0.4,0.2
	c0.2,0.1,0.4,0.2,0.7,0.4s0.6,0.3,1,0.4c0.4,0.1,0.8,0.2,1.3,0.2c0.3,0,0.6,0,0.8-0.1c0.2-0.1,0.4-0.1,0.6-0.3
	c0.2-0.1,0.3-0.3,0.4-0.4s0.1-0.4,0.1-0.6c0-0.3-0.1-0.5-0.2-0.7c-0.2-0.2-0.4-0.4-0.6-0.5c-0.3-0.1-0.6-0.3-0.9-0.4
	c-0.3-0.1-0.7-0.3-1-0.4c-0.4-0.1-0.7-0.3-1-0.5c-0.3-0.2-0.6-0.4-0.9-0.7c-0.3-0.3-0.5-0.6-0.6-1c-0.2-0.4-0.2-0.9-0.2-1.4
	c0-0.6,0.1-1.1,0.3-1.5c0.2-0.5,0.5-0.9,0.9-1.2s0.9-0.6,1.5-0.8c0.6-0.2,1.3-0.3,2-0.3c0.4,0,0.7,0,1.1,0.1
	c0.3,0.1,0.7,0.1,0.9,0.2s0.5,0.2,0.7,0.3c0.2,0.1,0.3,0.2,0.4,0.2c0.1,0.1,0.1,0.1,0.2,0.2c0,0.1,0.1,0.1,0.1,0.2
	c0,0.1,0,0.2,0,0.3c0,0.1,0,0.3,0,0.5c0,0.2,0,0.4,0,0.6c0,0.1,0,0.3-0.1,0.4c0,0.1-0.1,0.1-0.1,0.2c-0.1,0-0.1,0-0.2,0
	c-0.1,0-0.2,0-0.4-0.1c-0.2-0.1-0.4-0.2-0.6-0.3c-0.3-0.1-0.5-0.2-0.9-0.3c-0.3-0.1-0.7-0.1-1.1-0.1c-0.3,0-0.6,0-0.8,0.1
	s-0.4,0.1-0.5,0.3s-0.2,0.2-0.3,0.4c-0.1,0.2-0.1,0.3-0.1,0.5c0,0.3,0.1,0.5,0.3,0.7s0.4,0.3,0.7,0.5s0.6,0.3,0.9,0.4
	c0.3,0.1,0.7,0.3,1.1,0.4c0.4,0.1,0.7,0.3,1.1,0.5c0.3,0.2,0.7,0.4,0.9,0.7c0.3,0.3,0.5,0.6,0.7,1C144.9,13.6,145,14,145,14.6z"/>
<path class="st1" d="M158.4,17.9c0,0.1,0,0.2-0.1,0.2c0,0.1-0.1,0.1-0.3,0.2c-0.1,0-0.3,0.1-0.5,0.1c-0.2,0-0.5,0-0.9,0
	c-0.4,0-0.7,0-0.9,0c-0.2,0-0.4,0-0.6-0.1c-0.1,0-0.3-0.1-0.3-0.2c-0.1-0.1-0.1-0.2-0.2-0.3l-3.9-6.2v6.2c0,0.1,0,0.2-0.1,0.2
	c-0.1,0.1-0.1,0.1-0.3,0.2c-0.1,0-0.3,0.1-0.5,0.1c-0.2,0-0.5,0-0.8,0s-0.6,0-0.8,0c-0.2,0-0.4-0.1-0.5-0.1c-0.1,0-0.2-0.1-0.3-0.2
	c-0.1-0.1-0.1-0.1-0.1-0.2V0.6c0-0.1,0-0.2,0.1-0.2s0.1-0.1,0.3-0.2c0.1,0,0.3-0.1,0.5-0.1s0.5,0,0.8,0s0.6,0,0.8,0s0.4,0.1,0.5,0.1
	c0.1,0,0.2,0.1,0.3,0.2s0.1,0.1,0.1,0.2v10.3l3.5-4.7c0.1-0.1,0.1-0.2,0.2-0.3s0.2-0.1,0.3-0.2c0.1,0,0.3-0.1,0.5-0.1
	c0.2,0,0.5,0,0.8,0c0.3,0,0.6,0,0.8,0c0.2,0,0.4,0.1,0.5,0.1c0.1,0,0.2,0.1,0.3,0.2c0.1,0.1,0.1,0.1,0.1,0.2c0,0.1,0,0.3-0.1,0.4
	c-0.1,0.1-0.2,0.3-0.3,0.5l-3.4,3.9l4,6.2c0.1,0.2,0.2,0.3,0.2,0.5C158.4,17.7,158.4,17.8,158.4,17.9z"/>
<path class="st1" d="M170.1,17.9c0,0.1,0,0.2-0.1,0.3s-0.2,0.1-0.4,0.2c-0.2,0-0.5,0-0.8,0c-0.4,0-0.7,0-0.9,0
	c-0.2,0-0.3-0.1-0.4-0.2c-0.1-0.1-0.1-0.2-0.1-0.3V17c-0.5,0.5-1,0.9-1.7,1.2c-0.6,0.3-1.3,0.4-2.1,0.4c-0.6,0-1.2-0.1-1.7-0.2
	c-0.5-0.2-1-0.4-1.4-0.7c-0.4-0.3-0.7-0.7-0.9-1.2s-0.3-1-0.3-1.7c0-0.7,0.1-1.3,0.4-1.8c0.3-0.5,0.7-0.9,1.2-1.3
	c0.5-0.3,1.2-0.6,2-0.7s1.7-0.2,2.8-0.2h1.1v-0.7c0-0.4,0-0.7-0.1-1c-0.1-0.3-0.2-0.5-0.4-0.7c-0.2-0.2-0.4-0.3-0.7-0.4
	c-0.3-0.1-0.6-0.1-1.1-0.1c-0.6,0-1,0.1-1.5,0.2c-0.4,0.1-0.8,0.3-1.2,0.4s-0.6,0.3-0.8,0.4c-0.2,0.1-0.4,0.2-0.5,0.2
	c-0.1,0-0.2,0-0.3-0.1c-0.1-0.1-0.1-0.1-0.2-0.3c0-0.1-0.1-0.3-0.1-0.4c0-0.2,0-0.4,0-0.6c0-0.3,0-0.5,0.1-0.6
	c0-0.2,0.1-0.3,0.3-0.4c0.1-0.1,0.3-0.3,0.6-0.4c0.3-0.2,0.7-0.3,1.1-0.4s0.9-0.2,1.4-0.3c0.5-0.1,1-0.1,1.5-0.1
	c0.9,0,1.7,0.1,2.4,0.3c0.7,0.2,1.2,0.5,1.6,0.8c0.4,0.4,0.7,0.9,0.9,1.4s0.3,1.3,0.3,2.1V17.9z M166.8,12.9h-1.3
	c-0.5,0-1,0-1.4,0.1s-0.7,0.2-0.9,0.4c-0.2,0.2-0.4,0.3-0.5,0.6c-0.1,0.2-0.2,0.5-0.2,0.8c0,0.5,0.2,0.9,0.5,1.2
	c0.3,0.3,0.7,0.4,1.3,0.4c0.5,0,0.9-0.1,1.3-0.4c0.4-0.2,0.8-0.6,1.2-1V12.9z"/>
<path class="st1" d="M176.7,17.9c0,0.1,0,0.2-0.1,0.2c-0.1,0.1-0.1,0.1-0.3,0.2c-0.1,0-0.3,0.1-0.5,0.1c-0.2,0-0.5,0-0.8,0
	s-0.6,0-0.8,0c-0.2,0-0.4-0.1-0.5-0.1c-0.1,0-0.2-0.1-0.3-0.2c-0.1-0.1-0.1-0.1-0.1-0.2V0.6c0-0.1,0-0.2,0.1-0.2s0.1-0.1,0.3-0.2
	c0.1,0,0.3-0.1,0.5-0.1s0.5,0,0.8,0s0.6,0,0.8,0s0.4,0.1,0.5,0.1c0.1,0,0.2,0.1,0.3,0.2s0.1,0.1,0.1,0.2V17.9z"/>
</svg>
