<?xml version="1.0" encoding="utf-8"?>
<!-- Generator: Adobe Illustrator 19.0.0, SVG Export Plug-In . SVG Version: 6.00 Build 0)  -->
<svg version="1.1" id="Layer_1" xmlns="http://www.w3.org/2000/svg" xmlns:xlink="http://www.w3.org/1999/xlink" x="0px" y="0px"
	 viewBox="0 0 188.2 188.2" style="enable-background:new 0 0 188.2 188.2;" xml:space="preserve">
<style type="text/css">
	.st0{fill:#1F144C;}
	.st1{filter:url(#Adobe_OpacityMaskFilter);}
	.st2{fill:url(#XMLID_89_);}
	.st3{mask:url(#XMLID_88_);}
	.st4{fill:#FFFFFF;}
</style>
<g id="_x30_1_1_">
	<g id="_x30_1">
		<circle id="XMLID_48_" class="st0" cx="94.1" cy="94.1" r="94.1"/>
		<defs>
			<filter id="Adobe_OpacityMaskFilter" filterUnits="userSpaceOnUse" x="11.9" y="63.3" width="132.1" height="124.9">
				<feColorMatrix  type="matrix" values="1 0 0 0 0  0 1 0 0 0  0 0 1 0 0  0 0 0 1 0"/>
			</filter>
		</defs>
		<mask maskUnits="userSpaceOnUse" x="11.9" y="63.3" width="132.1" height="124.9" id="XMLID_88_">
			<g id="XMLID_45_" class="st1">
				
					<linearGradient id="XMLID_89_" gradientUnits="userSpaceOnUse" x1="-1090.9302" y1="3837.1355" x2="-1090.9302" y2="4045.0947" gradientTransform="matrix(-1.1478 -0.6627 -0.5351 0.9269 932.0818 -4238.7852)">
					<stop  offset="0.5483" style="stop-color:#8A8A8A"/>
					<stop  offset="0.5952" style="stop-color:#828282"/>
					<stop  offset="0.6684" style="stop-color:#6C6C6C"/>
					<stop  offset="0.7586" style="stop-color:#484848"/>
					<stop  offset="0.8616" style="stop-color:#161616"/>
					<stop  offset="0.9026" style="stop-color:#000000"/>
				</linearGradient>
				<polygon id="XMLID_46_" class="st2" points="191.6,75.8 80.3,268.5 -40.8,198.6 70.5,5.9 				"/>
			</g>
		</mask>
		<path id="XMLID_47_" class="st3" d="M140.6,66.6l-18.2,2.5l-24,41.6l2.1-19.6l-7.7-17.9l-13.5-10L62.3,66L49,75.7L11.9,140
			c16.1,28.8,46.9,48.3,82.2,48.3c5.3,0,10.5-0.5,15.6-1.3l34.3-59.4l-2-31.8L140.6,66.6z"/>
		<g id="_x30_1_2_">
			<path id="XMLID_42_" class="st4" d="M73.6,60.6c-16.2,0-29.3,15-29.3,33.4s13.2,33.4,29.3,33.4c16.2,0,29.3-15,29.3-33.4
				S89.7,60.6,73.6,60.6z M96.3,94c0,14.8-10.2,26.8-22.7,26.8c-12.5,0-22.7-12-22.7-26.8S61,67.2,73.6,67.2
				C86.1,67.2,96.3,79.2,96.3,94z"/>
			<polygon id="XMLID_41_" class="st4" points="122.3,69.1 124.9,75.2 137.4,69.8 137.4,127.5 144,127.5 144,62.4 138.4,62.4 			"/>
		</g>
	</g>
</g>
</svg>
