<?xml version="1.0"?>
<svg xmlns="http://www.w3.org/2000/svg" height="512px" version="1.1" viewBox="0 0 512 512" width="512px">
<g id="surface1">
<path d="M 437.035156 437.003906 C 485.378906 388.65625 512 324.371094 512 256 C 512 187.628906 485.375 123.347656 437.03125 74.996094 C 437.027344 74.992188 437.023438 74.984375 437.019531 74.980469 C 437.015625 74.976562 437.011719 74.972656 437.007812 74.96875 C 388.65625 26.625 324.375 0 256 0 C 187.621094 0 123.332031 26.628906 74.980469 74.980469 C 26.628906 123.332031 0 187.621094 0 256 C 0 324.371094 26.625 388.652344 74.964844 437.003906 C 74.972656 437.011719 74.972656 437.015625 74.980469 437.019531 C 74.984375 437.023438 74.988281 437.027344 74.992188 437.03125 C 123.34375 485.375 187.625 512 256 512 C 324.375 512 388.65625 485.375 437.007812 437.03125 C 437.011719 437.027344 437.015625 437.023438 437.019531 437.019531 C 437.027344 437.015625 437.027344 437.011719 437.035156 437.003906 Z M 425.980469 404.765625 L 390.378906 369.164062 C 417.105469 337.535156 431.667969 297.886719 431.667969 256 C 431.667969 214.113281 417.105469 174.464844 390.378906 142.835938 L 425.980469 107.234375 C 460.839844 147.011719 482 199.078125 482 256 C 482 312.921875 460.839844 364.988281 425.980469 404.765625 Z M 404.769531 86.019531 L 369.164062 121.621094 C 337.535156 94.894531 297.886719 80.332031 256 80.332031 C 214.113281 80.332031 174.464844 94.894531 142.835938 121.621094 L 107.234375 86.019531 C 147.011719 51.160156 199.078125 30 256 30 C 312.921875 30 364.988281 51.160156 404.769531 86.019531 Z M 86.019531 107.234375 L 121.621094 142.835938 C 94.894531 174.464844 80.335938 214.113281 80.335938 256 C 80.335938 297.886719 94.894531 337.535156 121.621094 369.164062 L 86.019531 404.765625 C 51.160156 364.988281 30 312.921875 30 256 C 30 199.078125 51.160156 147.011719 86.019531 107.234375 Z M 107.230469 425.980469 L 152.996094 380.214844 C 158.855469 374.359375 158.855469 364.863281 152.996094 359.003906 C 125.484375 331.488281 110.335938 294.90625 110.335938 256 C 110.335938 217.089844 125.484375 180.511719 153 152.996094 C 180.511719 125.484375 217.09375 110.332031 256 110.332031 C 294.90625 110.332031 331.488281 125.484375 359.003906 153 C 359.007812 153.003906 359.007812 153.003906 359.011719 153.007812 C 381.671875 175.671875 395.933594 204.488281 400.261719 235.691406 C 358.152344 223.734375 275.007812 200.832031 256 200.832031 C 225.582031 200.832031 200.835938 225.582031 200.835938 256 C 200.835938 286.417969 225.582031 311.167969 256 311.167969 C 275.007812 311.167969 358.148438 288.265625 400.261719 276.308594 C 395.933594 307.515625 381.667969 336.335938 359.003906 359.003906 C 353.144531 364.859375 353.144531 374.359375 359.003906 380.214844 L 404.769531 425.980469 C 364.988281 460.839844 312.921875 482 256 482 C 199.078125 482 147.011719 460.839844 107.230469 425.980469 Z M 361.390625 256 C 314.117188 268.972656 266.039062 281.167969 256 281.167969 C 242.125 281.167969 230.835938 269.878906 230.835938 256 C 230.835938 242.121094 242.125 230.832031 256 230.832031 C 266.039062 230.832031 314.117188 243.03125 361.390625 256 Z M 361.390625 256 " style=" fill-rule:nonzero;fill-opacity:1;" stroke="#1d154b" fill="#1d154b"/>
<path d="M 289.277344 354.609375 L 222.726562 354.609375 C 214.441406 354.609375 207.726562 361.324219 207.726562 369.609375 C 207.726562 377.894531 214.441406 384.609375 222.726562 384.609375 L 289.277344 384.609375 C 297.558594 384.609375 304.277344 377.894531 304.277344 369.609375 C 304.277344 361.324219 297.558594 354.609375 289.277344 354.609375 Z M 289.277344 354.609375 " style=" fill-rule:nonzero;fill-opacity:1;" stroke="#1d154b" fill="#1d154b"/>
</g>
</svg>
