<?xml version="1.0" encoding="utf-8"?>
<!-- Generator: Adobe Illustrator 19.0.0, SVG Export Plug-In . SVG Version: 6.00 Build 0)  -->
<svg version="1.1" xmlns="http://www.w3.org/2000/svg" xmlns:xlink="http://www.w3.org/1999/xlink" x="0px" y="0px"
	 viewBox="0 0 500 500" style="enable-background:new 0 0 500 500;" xml:space="preserve">
<style type="text/css">
	.st0{fill:#FFFFFF;}
	.st1{opacity:0.15;}
	.st2{fill:#BDCEFA;}
	.st3{fill:url(#XMLID_325_);}
	.st4{fill:url(#XMLID_326_);}
	.st5{fill:url(#XMLID_337_);}
	.st6{fill:url(#XMLID_339_);}
	.st7{fill:#E8F2FE;}
	.st8{fill:url(#XMLID_342_);}
	.st9{fill:#DDDDDD;}
	.st10{fill:url(#XMLID_344_);}
	.st11{fill:#0084E9;}
	.st12{fill:#52A3F6;}
	.st13{fill:url(#XMLID_347_);}
	.st14{fill:url(#XMLID_351_);}
	.st15{fill:url(#XMLID_352_);}
	.st16{fill:url(#XMLID_355_);}
	.st17{fill:url(#XMLID_356_);}
	.st18{fill:url(#XMLID_359_);}
	.st19{fill:url(#XMLID_364_);}
	.st20{fill:#C9C9C9;}
	.st21{fill:url(#XMLID_366_);}
	.st22{fill:url(#XMLID_370_);}
	.st23{fill:url(#XMLID_372_);}
	.st24{fill:#DCDDEF;}
	.st25{fill:#D0D2E9;}
	.st26{fill:#B8BEDD;}
	.st27{fill:#769AE2;}
	.st28{fill:#3C70E8;}
	.st29{fill:#1E59D1;}
	.st30{fill:#F2F8FC;}
	.st31{fill:#D6E8F2;}
	.st32{fill:#AFD2E2;}
	.st33{fill:url(#XMLID_375_);}
	.st34{fill:#76B5CE;}
	.st35{fill:#20A8AF;}
	.st36{fill:#9CE3F0;}
	.st37{fill:#5585E5;}
	.st38{fill:#2555B7;}
	.st39{fill:#3272D8;}
	.st40{fill:url(#XMLID_377_);}
	.st41{fill:#F9AB83;}
	.st42{fill:#010400;}
	.st43{fill:#484968;}
	.st44{fill:#F1AC85;}
	.st45{fill:#E28C66;}
	.st46{fill:#54A5F8;}
	.st47{fill:#DD936F;}
	.st48{fill:#3F4893;}
	.st49{fill:url(#XMLID_379_);}
	.st50{fill:url(#XMLID_382_);}
	.st51{fill:url(#XMLID_385_);}
	.st52{fill:url(#XMLID_391_);}
	.st53{fill:#B8D0F6;}
	.st54{fill:#99B6E0;}
	.st55{fill:#E4F2FF;}
	.st56{fill:#97A2D1;}
	.st57{fill:#0382FF;}
	.st58{fill:url(#XMLID_393_);}
	.st59{fill:url(#XMLID_395_);}
	.st60{fill:url(#XMLID_398_);}
	.st61{fill:url(#XMLID_401_);}
	.st62{fill:url(#XMLID_404_);}
	.st63{fill:url(#XMLID_405_);}
	.st64{fill:url(#XMLID_411_);}
	.st65{fill:url(#XMLID_416_);}
	.st66{fill:url(#XMLID_417_);}
	.st67{fill:url(#XMLID_424_);}
	.st68{fill:url(#XMLID_426_);}
	.st69{fill:url(#XMLID_428_);}
	.st70{fill:url(#XMLID_429_);}
	.st71{fill:url(#XMLID_432_);}
	.st72{fill:url(#XMLID_433_);}
	.st73{fill:url(#XMLID_435_);}
	.st74{fill:url(#XMLID_436_);}
	.st75{fill:url(#XMLID_441_);}
	.st76{fill:url(#XMLID_458_);}
	.st77{fill:url(#XMLID_459_);}
	.st78{fill:url(#XMLID_462_);}
	.st79{fill:url(#XMLID_463_);}
	.st80{fill:url(#XMLID_464_);}
	.st81{fill:url(#XMLID_465_);}
	.st82{fill:url(#XMLID_467_);}
	.st83{fill:url(#XMLID_468_);}
	.st84{fill:#007DC9;}
	.st85{fill:#2D0D60;}
	.st86{fill:url(#XMLID_469_);}
	.st87{fill:#A29AFB;}
	.st88{fill:#FFFFEB;}
	.st89{fill:#8593C9;}
	.st90{fill:#FCC4B7;}
	.st91{fill:#293677;}
	.st92{fill:#55D1FF;}
	.st93{fill:#5258A6;}
	.st94{fill-rule:evenodd;clip-rule:evenodd;fill:#9CE3F0;}
	.st95{fill:#1C1C38;}
	.st96{fill:#FCFDFF;}
	.st97{fill:#BBBEB5;}
	.st98{fill:#EAEEF1;}
	.st99{fill:#46466C;}
	.st100{fill:#2D2D4F;}
	.st101{fill:#E5A89C;}
	.st102{fill-rule:evenodd;clip-rule:evenodd;fill:#52A3F6;}
	.st103{fill-rule:evenodd;clip-rule:evenodd;fill:#BBBEB5;}
	.st104{fill-rule:evenodd;clip-rule:evenodd;fill:#EAEEF1;}
</style>
<g id="BACKGROUND">
	<rect class="st0" width="500" height="500"/>
</g>
<g id="OBJECTS">
	<g id="XMLID_1_" class="st1">
		<path id="XMLID_836_" class="st2" d="M77.1,413.1l66.5,37.2c2.9,1.7,8.1,1.5,11.5-0.5l22.1-13.2c3.4-2,3.8-5,0.8-6.7l-66.2-38
			c-2.9-1.7-8.1-1.5-11.5,0.5l-22.4,13.9C74.5,408.4,74.1,411.4,77.1,413.1z"/>
		<path id="XMLID_835_" class="st2" d="M104.7,380.6l66.5,37.2c2.9,1.7,8.1,1.5,11.5-0.5l22.1-13.2c3.4-2,3.8-5,0.8-6.7l-66.2-38
			c-2.9-1.7-8.1-1.5-11.5,0.5l-22.4,13.9C102.2,375.9,101.8,378.9,104.7,380.6z"/>
		<path id="XMLID_834_" class="st2" d="M88.8,325.6l200.6,111.9c8.9,5.1,24.5,4.5,34.8-1.4l116.9-67.5c10.3-5.9,11.4-15,2.5-20.1
			L243,236.6c-8.9-5.1-24.5-4.5-34.8,1.4L91.3,305.5C81.1,311.5,79.9,320.5,88.8,325.6z"/>
	</g>
	<g id="XMLID_2_">
		<g id="XMLID_3_">
			
				<linearGradient id="XMLID_325_" gradientUnits="userSpaceOnUse" x1="108.685" y1="71.8194" x2="61.7478" y2="172.0584" gradientTransform="matrix(-1 0 0 1 526.8986 0)">
				<stop  offset="0" style="stop-color:#E4F2FF"/>
				<stop  offset="0.3075" style="stop-color:#D7E6FD;stop-opacity:0.6923"/>
				<stop  offset="0.9993" style="stop-color:#BDCEFA;stop-opacity:0"/>
			</linearGradient>
			<path id="XMLID_4_" class="st3" d="M475.8,175.3c1.1,0,2.4-0.9,2.4-2.4v-50.1c0-0.8-0.5-1.6-1.2-2L416.7,86
				c-0.4-0.2-0.8-0.3-1.2-0.3c-1.1,0-2.4,0.9-2.4,2.4v50.1c0,0.8,0.5,1.6,1.2,2l60.3,34.8C475,175.2,475.4,175.3,475.8,175.3z"/>
			
				<linearGradient id="XMLID_326_" gradientUnits="userSpaceOnUse" x1="140.5832" y1="71.0318" x2="176.2399" y2="215.8322" gradientTransform="matrix(-1 0 0 1 526.8986 0)">
				<stop  offset="0" style="stop-color:#E4F2FF"/>
				<stop  offset="0.3075" style="stop-color:#D7E6FD;stop-opacity:0.6923"/>
				<stop  offset="0.9993" style="stop-color:#BDCEFA;stop-opacity:0"/>
			</linearGradient>
			<path id="XMLID_5_" class="st4" d="M430.8,248.1c2.4,0,5.1-1.9,5.1-5.1V135.8c0-1.8-1-3.5-2.5-4.4L304.4,57
				c-0.8-0.5-1.6-0.7-2.5-0.7c-2.4,0-5.1,1.9-5.1,5.1v107.3c0,1.8,1,3.5,2.5,4.4l128.9,74.4C429.1,247.9,429.9,248.1,430.8,248.1z"
				/>
			
				<linearGradient id="XMLID_337_" gradientUnits="userSpaceOnUse" x1="225.6337" y1="0.1859" x2="224.0426" y2="82.1274" gradientTransform="matrix(-1 0 0 1 526.8986 0)">
				<stop  offset="0" style="stop-color:#E4F2FF"/>
				<stop  offset="0.3075" style="stop-color:#D7E6FD;stop-opacity:0.6923"/>
				<stop  offset="0.9993" style="stop-color:#BDCEFA;stop-opacity:0"/>
			</linearGradient>
			<path id="XMLID_6_" class="st5" d="M329.2,104.8c1,0,2.1-0.8,2.1-2.1V58.3c0-0.7-0.4-1.4-1-1.8l-53.4-30.8
				c-0.3-0.2-0.7-0.3-1-0.3c-1,0-2.1,0.8-2.1,2.1v44.4c0,0.7,0.4,1.4,1,1.8l53.4,30.8C328.5,104.7,328.9,104.8,329.2,104.8z"/>
			
				<linearGradient id="XMLID_339_" gradientUnits="userSpaceOnUse" x1="109.7181" y1="168.2331" x2="95.3983" y2="274.0407" gradientTransform="matrix(-1 0 0 1 526.8986 0)">
				<stop  offset="0" style="stop-color:#E4F2FF"/>
				<stop  offset="0.3075" style="stop-color:#D7E6FD;stop-opacity:0.6923"/>
				<stop  offset="0.9993" style="stop-color:#BDCEFA;stop-opacity:0"/>
			</linearGradient>
			<path id="XMLID_7_" class="st6" d="M453.8,281.4c1,0,2.1-0.8,2.1-2.1v-44.4c0-0.7-0.4-1.4-1-1.8l-53.4-30.8
				c-0.3-0.2-0.7-0.3-1-0.3c-1,0-2.1,0.8-2.1,2.1v44.4c0,0.7,0.4,1.4,1,1.8l53.4,30.8C453.1,281.3,453.5,281.4,453.8,281.4z"/>
		</g>
		<g id="XMLID_8_">
			<g id="XMLID_9_">
				<path id="XMLID_827_" class="st2" d="M305.4,111.8c0,2.1,1.5,4.8,3.4,5.8c1.9,1.1,3.4,0.2,3.4-1.9c0-2.1-1.5-4.8-3.4-5.8
					C306.9,108.8,305.4,109.6,305.4,111.8z"/>
				<path id="XMLID_826_" class="st2" d="M293.4,104.8c0,2.1,1.5,4.8,3.4,5.8c1.9,1.1,3.4,0.2,3.4-1.9c0-2.1-1.5-4.8-3.4-5.8
					C294.9,101.8,293.4,102.7,293.4,104.8z"/>
				<path id="XMLID_825_" class="st2" d="M281.3,97.9c0,2.1,1.5,4.8,3.4,5.8c1.9,1.1,3.4,0.2,3.4-1.9s-1.5-4.8-3.4-5.8
					C282.9,94.9,281.3,95.7,281.3,97.9z"/>
			</g>
			<g id="XMLID_10_">
				<path id="XMLID_11_" class="st2" d="M394,167c1.7,2,4,3.9,6.1,5.1c6.3,3.6,10.8,1.6,10.8-6.5c0-9.3-5.7-18.5-12.1-22.2
					c-6.6-3.8-10.1-0.9-10.1,5.4c0,5.6,2.3,9.6,4.1,10.6c1.2,0.6,1.5-0.5,1.1-3.6l-1.3-9.8c1.1-0.1,3.2,0.6,5,1.7
					c6.1,3.5,9.9,11.1,9.9,17.1c0,4-2,5.2-4.7,3.6c-2.2-1.3-4.1-3.7-5.5-6.9l-0.1,0c-0.2,2.5-1.7,2.8-3.6,1.7c-4.6-2.6-8-9.1-8-16.3
					c0-8.2,5.3-11,12.8-6.7c9.6,5.5,15.8,17.8,15.8,27.8c0,9.6-6.2,11.8-13.2,7.8c-3-1.7-5.2-3.4-7.7-6.2L394,167z M397.5,156.3
					c0.4,3.1,2,6.3,3.6,7.2c1.4,0.8,2.1,0,2.1-1.8c0-3.8-2.2-8.2-5-9.8c-0.5-0.3-1-0.5-1.3-0.6L397.5,156.3z"/>
			</g>
			<g id="XMLID_12_">
				<path id="XMLID_819_" class="st2" d="M374.9,107.8l-14.8,4.1c-0.5,0.1-1.2-0.3-1.6-0.9l-14.8-21.1L374.9,107.8z"/>
				<path id="XMLID_818_" class="st2" d="M364.4,112.2l10.3,17c0.2-0.2,0.3-0.5,0.3-0.9v-19L364.4,112.2z"/>
				<path id="XMLID_817_" class="st2" d="M355.1,107.7l-10.4,5.2c0.3,0.3,0.6,0.6,1,0.8l27,15.6c0.3,0.2,0.6,0.3,0.9,0.3l-10.3-17.1
					l-4.1,1.1L355.1,107.7z"/>
				<path id="XMLID_816_" class="st2" d="M343.6,91.2v19c0,0.4,0.1,0.8,0.3,1.2l10.2-5.2L343.6,91.2z"/>
			</g>
		</g>
		<g id="XMLID_13_">
			<path id="XMLID_14_" class="st2" d="M240.1,116.8c0.1,0,0.3-0.1,0.3-0.3V43.1l100.1,57.9c0.1,0.1,0.3,0,0.3-0.1
				c0.1-0.1,0-0.3-0.1-0.3L239.8,42.2v74.4C239.8,116.7,239.9,116.8,240.1,116.8z"/>
			<g id="XMLID_15_">
				<g id="XMLID_16_">
					<path id="XMLID_17_" class="st2" d="M233.4,117.1c0.3,0,0.5-0.2,0.5-0.5v-0.1c0-0.3-0.2-0.5-0.5-0.5c-0.3,0-0.5,0.2-0.5,0.5
						C232.9,116.9,233.1,117.1,233.4,117.1z"/>
					<path id="XMLID_18_" class="st2" d="M232.9,112.7c0-0.3,0.2-0.5,0.5-0.5c0.3,0,0.5,0.2,0.5,0.5v0.1c0,0.3-0.2,0.5-0.5,0.5
						C233.1,113.3,232.9,113,232.9,112.7z M232.9,108.8c0-0.3,0.2-0.5,0.5-0.5c0.3,0,0.5,0.2,0.5,0.5v0.1c0,0.3-0.2,0.5-0.5,0.5
						C233.1,109.4,232.9,109.1,232.9,108.8z M232.9,105c0-0.3,0.2-0.5,0.5-0.5c0.3,0,0.5,0.2,0.5,0.5v0.1c0,0.3-0.2,0.5-0.5,0.5
						C233.1,105.5,232.9,105.2,232.9,105z M232.9,101.1c0-0.3,0.2-0.5,0.5-0.5c0.3,0,0.5,0.2,0.5,0.5v0.1c0,0.3-0.2,0.5-0.5,0.5
						C233.1,101.6,232.9,101.4,232.9,101.1z M232.9,97.2c0-0.3,0.2-0.5,0.5-0.5c0.3,0,0.5,0.2,0.5,0.5v0.1c0,0.3-0.2,0.5-0.5,0.5
						C233.1,97.8,232.9,97.5,232.9,97.2z M232.9,93.3c0-0.3,0.2-0.5,0.5-0.5c0.3,0,0.5,0.2,0.5,0.5v0.1c0,0.3-0.2,0.5-0.5,0.5
						C233.1,93.9,232.9,93.6,232.9,93.3z M232.9,89.5c0-0.3,0.2-0.5,0.5-0.5c0.3,0,0.5,0.2,0.5,0.5v0.1c0,0.3-0.2,0.5-0.5,0.5
						C233.1,90,232.9,89.7,232.9,89.5z"/>
					<path id="XMLID_26_" class="st2" d="M233.4,86.2c0.2,0,0.3-0.1,0.4-0.2c0,0,0,0,0-0.1c0.1-0.2,0.1-0.5-0.2-0.7
						c-0.2-0.1-0.4-0.1-0.5,0c-0.2,0.1-0.3,0.2-0.3,0.4C232.9,85.9,233.1,86.2,233.4,86.2z"/>
					<path id="XMLID_27_" class="st2" d="M376.2,165.9L376.2,165.9c-0.3-0.2-0.4-0.5-0.3-0.7c0.1-0.2,0.4-0.3,0.7-0.2l0.1,0
						c0.2,0.1,0.3,0.4,0.2,0.7c-0.1,0.2-0.3,0.3-0.4,0.3C376.4,166,376.3,166,376.2,165.9z M372.6,163.9L372.6,163.9
						c-0.3-0.2-0.4-0.5-0.3-0.7c0.1-0.2,0.4-0.3,0.7-0.2l0.1,0c0.2,0.1,0.3,0.4,0.2,0.7c-0.1,0.2-0.3,0.3-0.4,0.3
						C372.8,164,372.7,164,372.6,163.9z M369.1,161.9L369.1,161.9c-0.3-0.2-0.4-0.5-0.2-0.7c0.1-0.2,0.5-0.3,0.7-0.2
						c0.2,0.1,0.3,0.4,0.2,0.7c-0.1,0.2-0.3,0.3-0.4,0.3C369.2,162,369.1,162,369.1,161.9z M365.5,159.9L365.5,159.9
						c-0.3-0.2-0.4-0.5-0.3-0.7c0.1-0.2,0.4-0.3,0.7-0.2l0.1,0c0.2,0.1,0.3,0.4,0.2,0.7c-0.1,0.2-0.3,0.3-0.4,0.3
						C365.6,160,365.6,160,365.5,159.9z M361.9,158L361.9,158c-0.3-0.2-0.4-0.5-0.3-0.7c0.1-0.2,0.4-0.3,0.7-0.2l0.1,0
						c0.2,0.1,0.3,0.4,0.2,0.7c-0.1,0.2-0.3,0.3-0.4,0.3C362.1,158,362,158,361.9,158z M358.3,156L358.3,156
						c-0.3-0.2-0.4-0.5-0.2-0.7c0.1-0.2,0.5-0.3,0.7-0.2c0.2,0.1,0.3,0.4,0.2,0.7c-0.1,0.2-0.3,0.3-0.4,0.3
						C358.5,156,358.4,156,358.3,156z M354.8,154L354.8,154c-0.3-0.2-0.4-0.5-0.2-0.7c0.1-0.2,0.5-0.3,0.7-0.2
						c0.2,0.1,0.3,0.4,0.2,0.7c-0.1,0.2-0.3,0.3-0.4,0.3C354.9,154,354.8,154,354.8,154z M351.2,152L351.2,152
						c-0.3-0.2-0.4-0.5-0.3-0.7c0.1-0.2,0.4-0.3,0.7-0.2l0.1,0c0.2,0.1,0.3,0.4,0.2,0.7c-0.1,0.2-0.3,0.3-0.4,0.3
						C351.3,152,351.3,152,351.2,152z M347.6,150L347.6,150c-0.3-0.2-0.4-0.5-0.3-0.7c0.1-0.2,0.4-0.3,0.7-0.2l0.1,0
						c0.2,0.1,0.3,0.4,0.2,0.7c-0.1,0.2-0.3,0.3-0.4,0.3C347.8,150,347.7,150,347.6,150z M344,148L344,148c-0.3-0.2-0.4-0.5-0.2-0.7
						c0.1-0.2,0.5-0.3,0.7-0.2c0.2,0.1,0.3,0.4,0.2,0.7c-0.1,0.2-0.3,0.3-0.4,0.3C344.2,148,344.1,148,344,148z M340.5,146
						L340.5,146c-0.3-0.2-0.4-0.5-0.2-0.7c0.1-0.2,0.5-0.3,0.7-0.2c0.2,0.1,0.3,0.4,0.2,0.7c-0.1,0.2-0.3,0.3-0.4,0.3
						C340.6,146,340.5,146,340.5,146z M336.9,144L336.9,144c-0.3-0.2-0.4-0.5-0.2-0.7c0.1-0.2,0.5-0.3,0.7-0.2
						c0.2,0.1,0.3,0.4,0.2,0.7c-0.1,0.2-0.3,0.3-0.4,0.3C337,144,337,144,336.9,144z M333.3,142L333.3,142c-0.3-0.2-0.4-0.5-0.2-0.7
						c0.1-0.2,0.5-0.3,0.7-0.2c0.2,0.1,0.3,0.4,0.2,0.7c-0.1,0.2-0.3,0.3-0.4,0.3C333.5,142,333.4,142,333.3,142z M329.7,140
						L329.7,140c-0.3-0.2-0.4-0.5-0.2-0.7c0.1-0.2,0.5-0.3,0.7-0.2c0.2,0.1,0.3,0.4,0.2,0.7c-0.1,0.2-0.3,0.3-0.4,0.3
						C329.9,140.1,329.8,140,329.7,140z M326.2,138L326.2,138c-0.3-0.2-0.4-0.5-0.2-0.7c0.1-0.2,0.5-0.3,0.7-0.2
						c0.2,0.1,0.3,0.4,0.2,0.7c-0.1,0.2-0.3,0.3-0.4,0.3C326.3,138.1,326.2,138,326.2,138z M322.6,136L322.6,136
						c-0.3-0.2-0.4-0.5-0.3-0.7c0.1-0.2,0.4-0.3,0.7-0.2l0.1,0c0.2,0.1,0.3,0.4,0.2,0.7c-0.1,0.2-0.3,0.3-0.4,0.3
						C322.7,136.1,322.7,136,322.6,136z M319,134L319,134c-0.3-0.2-0.4-0.5-0.2-0.7c0.1-0.2,0.5-0.3,0.7-0.2
						c0.2,0.1,0.3,0.4,0.2,0.7c-0.1,0.2-0.3,0.3-0.4,0.3C319.2,134.1,319.1,134,319,134z M315.4,132L315.4,132
						c-0.3-0.2-0.4-0.5-0.3-0.7c0.1-0.2,0.4-0.3,0.7-0.2l0.1,0c0.2,0.1,0.3,0.4,0.2,0.7c-0.1,0.2-0.3,0.3-0.4,0.3
						C315.6,132.1,315.5,132,315.4,132z M311.8,130L311.8,130c-0.3-0.2-0.4-0.5-0.3-0.7c0.1-0.2,0.4-0.3,0.7-0.2l0.1,0
						c0.2,0.1,0.3,0.4,0.2,0.7c-0.1,0.2-0.3,0.3-0.4,0.3C312,130.1,311.9,130.1,311.8,130z M308.3,128L308.3,128
						c-0.3-0.2-0.4-0.5-0.2-0.7c0.1-0.2,0.5-0.3,0.7-0.2c0.2,0.1,0.3,0.4,0.2,0.7c-0.1,0.2-0.3,0.3-0.4,0.3
						C308.4,128.1,308.3,128.1,308.3,128z M304.7,126L304.7,126c-0.3-0.2-0.4-0.5-0.2-0.7c0.1-0.2,0.5-0.3,0.7-0.2
						c0.2,0.1,0.3,0.4,0.2,0.7c-0.1,0.2-0.3,0.3-0.4,0.3C304.9,126.1,304.8,126.1,304.7,126z M301.1,124L301.1,124
						c-0.3-0.2-0.4-0.5-0.3-0.7c0.1-0.2,0.4-0.3,0.7-0.2l0.1,0c0.2,0.1,0.3,0.4,0.2,0.7c-0.1,0.2-0.3,0.3-0.4,0.3
						C301.3,124.1,301.2,124.1,301.1,124z M297.5,122L297.5,122c-0.3-0.2-0.4-0.5-0.3-0.7c0.1-0.2,0.4-0.3,0.7-0.2l0.1,0
						c0.2,0.1,0.3,0.4,0.2,0.7c-0.1,0.2-0.3,0.3-0.4,0.3C297.7,122.1,297.6,122.1,297.5,122z M294,120L294,120
						c-0.3-0.2-0.4-0.5-0.2-0.7c0.1-0.2,0.5-0.3,0.7-0.2c0.2,0.1,0.3,0.4,0.2,0.7c-0.1,0.2-0.3,0.3-0.4,0.3
						C294.1,120.1,294,120.1,294,120z M290.4,118L290.4,118c-0.3-0.2-0.4-0.5-0.2-0.7c0.1-0.2,0.5-0.3,0.7-0.2
						c0.2,0.1,0.3,0.4,0.2,0.7c-0.1,0.2-0.3,0.3-0.4,0.3C290.6,118.1,290.5,118.1,290.4,118z M286.8,116L286.8,116
						c-0.3-0.2-0.4-0.5-0.3-0.7c0.1-0.2,0.4-0.3,0.7-0.2l0.1,0c0.2,0.1,0.3,0.4,0.2,0.7c-0.1,0.2-0.3,0.3-0.4,0.3
						C287,116.1,286.9,116.1,286.8,116z M283.2,114L283.2,114c-0.3-0.2-0.4-0.5-0.3-0.7c0.1-0.2,0.4-0.3,0.7-0.2l0.1,0
						c0.2,0.1,0.3,0.4,0.2,0.7c-0.1,0.2-0.3,0.3-0.4,0.3C283.4,114.1,283.3,114.1,283.2,114z M279.7,112L279.7,112
						c-0.3-0.2-0.4-0.5-0.2-0.7c0.1-0.2,0.5-0.3,0.7-0.2c0.2,0.1,0.3,0.4,0.2,0.7c-0.1,0.2-0.3,0.3-0.4,0.3
						C279.8,112.1,279.7,112.1,279.7,112z M276.1,110L276.1,110c-0.3-0.2-0.4-0.5-0.2-0.7c0.1-0.2,0.5-0.3,0.7-0.2
						c0.2,0.1,0.3,0.4,0.2,0.7c-0.1,0.2-0.3,0.3-0.4,0.3C276.3,110.1,276.2,110.1,276.1,110z M272.5,108.1L272.5,108.1
						c-0.3-0.2-0.4-0.5-0.2-0.7c0.1-0.2,0.5-0.3,0.7-0.2c0.2,0.1,0.3,0.4,0.2,0.7c-0.1,0.2-0.3,0.3-0.4,0.3
						C272.7,108.1,272.6,108.1,272.5,108.1z M268.9,106.1L268.9,106.1c-0.3-0.2-0.4-0.5-0.3-0.7c0.1-0.2,0.4-0.3,0.7-0.2l0.1,0
						c0.2,0.1,0.3,0.4,0.2,0.7c-0.1,0.2-0.3,0.3-0.4,0.3C269.1,106.1,269,106.1,268.9,106.1z M265.4,104.1L265.4,104.1
						c-0.3-0.2-0.4-0.5-0.2-0.7c0.1-0.2,0.5-0.3,0.7-0.2c0.2,0.1,0.3,0.4,0.2,0.7c-0.1,0.2-0.3,0.3-0.4,0.3
						C265.5,104.1,265.4,104.1,265.4,104.1z M261.8,102.1L261.8,102.1c-0.3-0.2-0.4-0.5-0.2-0.7c0.1-0.2,0.5-0.3,0.7-0.2
						c0.2,0.1,0.3,0.4,0.2,0.7c-0.1,0.2-0.3,0.3-0.4,0.3C261.9,102.1,261.9,102.1,261.8,102.1z M258.2,100.1L258.2,100.1
						c-0.3-0.2-0.4-0.5-0.2-0.7c0.1-0.2,0.5-0.3,0.7-0.2c0.2,0.1,0.3,0.4,0.2,0.7c-0.1,0.2-0.3,0.3-0.4,0.3
						C258.4,100.1,258.3,100.1,258.2,100.1z M254.6,98.1L254.6,98.1c-0.3-0.2-0.4-0.5-0.2-0.7c0.1-0.2,0.5-0.3,0.7-0.2
						c0.2,0.1,0.3,0.4,0.2,0.7c-0.1,0.2-0.3,0.3-0.4,0.3C254.8,98.1,254.7,98.1,254.6,98.1z M251.1,96.1L251.1,96.1
						c-0.3-0.2-0.4-0.5-0.3-0.7c0.1-0.2,0.4-0.3,0.7-0.2l0.1,0c0.2,0.1,0.3,0.4,0.2,0.7c-0.1,0.2-0.3,0.3-0.4,0.3
						C251.2,96.1,251.1,96.1,251.1,96.1z M247.5,94.1L247.5,94.1c-0.3-0.2-0.4-0.5-0.2-0.7c0.1-0.2,0.5-0.3,0.7-0.2
						c0.2,0.1,0.3,0.4,0.2,0.7c-0.1,0.2-0.3,0.3-0.4,0.3C247.6,94.1,247.6,94.1,247.5,94.1z M243.9,92.1L243.9,92.1
						c-0.3-0.2-0.4-0.5-0.2-0.7c0.1-0.2,0.5-0.3,0.7-0.2c0.2,0.1,0.3,0.4,0.2,0.7c-0.1,0.2-0.3,0.3-0.4,0.3
						C244.1,92.1,244,92.1,243.9,92.1z M240.3,90.1L240.3,90.1c-0.3-0.2-0.4-0.5-0.3-0.7c0.1-0.2,0.4-0.3,0.7-0.2l0.1,0
						c0.2,0.1,0.3,0.4,0.2,0.7c-0.1,0.2-0.3,0.3-0.4,0.3C240.5,90.2,240.4,90.1,240.3,90.1z M236.8,88.1L236.8,88.1
						c-0.3-0.2-0.4-0.5-0.2-0.7c0.1-0.2,0.5-0.3,0.7-0.2c0.2,0.1,0.3,0.4,0.2,0.7c-0.1,0.2-0.3,0.3-0.4,0.3
						C236.9,88.2,236.8,88.1,236.8,88.1z"/>
					<path id="XMLID_68_" class="st2" d="M380,168c0.3,0,0.5-0.2,0.5-0.5c0-0.2-0.1-0.4-0.3-0.5c-0.2-0.1-0.6-0.1-0.7,0.2
						c-0.1,0.2-0.1,0.5,0.1,0.6C379.7,167.9,379.8,168,380,168z"/>
					<path id="XMLID_69_" class="st2" d="M379.5,197.3v-0.1c0-0.3,0.2-0.5,0.5-0.5c0.3,0,0.5,0.2,0.5,0.5v0.1c0,0.3-0.2,0.5-0.5,0.5
						C379.7,197.8,379.5,197.5,379.5,197.3z M379.5,193v-0.1c0-0.3,0.2-0.5,0.5-0.5c0.3,0,0.5,0.2,0.5,0.5v0.1
						c0,0.3-0.2,0.5-0.5,0.5C379.7,193.5,379.5,193.3,379.5,193z M379.5,188.8v-0.1c0-0.3,0.2-0.5,0.5-0.5c0.3,0,0.5,0.2,0.5,0.5
						v0.1c0,0.3-0.2,0.5-0.5,0.5C379.7,189.3,379.5,189,379.5,188.8z M379.5,184.5v-0.1c0-0.3,0.2-0.5,0.5-0.5
						c0.3,0,0.5,0.2,0.5,0.5v0.1c0,0.3-0.2,0.5-0.5,0.5C379.7,185,379.5,184.8,379.5,184.5z M379.5,180.3v-0.1
						c0-0.3,0.2-0.5,0.5-0.5c0.3,0,0.5,0.2,0.5,0.5v0.1c0,0.3-0.2,0.5-0.5,0.5C379.7,180.8,379.5,180.5,379.5,180.3z M379.5,176
						v-0.1c0-0.3,0.2-0.5,0.5-0.5c0.3,0,0.5,0.2,0.5,0.5v0.1c0,0.3-0.2,0.5-0.5,0.5C379.7,176.5,379.5,176.3,379.5,176z
						 M379.5,171.8v-0.1c0-0.3,0.2-0.5,0.5-0.5c0.3,0,0.5,0.2,0.5,0.5v0.1c0,0.3-0.2,0.5-0.5,0.5C379.7,172.3,379.5,172,379.5,171.8
						z"/>
					<path id="XMLID_77_" class="st2" d="M380,202c0.3,0,0.5-0.2,0.5-0.5c0-0.3-0.2-0.5-0.5-0.5c-0.3,0-0.5,0.2-0.5,0.5v0
						C379.5,201.7,379.7,202,380,202z"/>
				</g>
				<path id="XMLID_78_" class="st2" d="M442.6,221.7c0.1,0,0.3-0.1,0.3-0.3v-40l-0.1-0.1L419.3,169c-0.1-0.1-0.3,0-0.3,0.1
					c-0.1,0.1,0,0.3,0.1,0.3l23.3,12.4v39.7C442.4,221.6,442.5,221.7,442.6,221.7z"/>
				<path id="XMLID_79_" class="st2" d="M425.2,285.4c0-0.3,0.2-0.5,0.5-0.5c0.3,0,0.5,0.2,0.5,0.5v0.1c0,0.3-0.2,0.5-0.5,0.5
					C425.5,286,425.2,285.7,425.2,285.4z M425.2,281.4v-0.1c0-0.3,0.2-0.5,0.5-0.5c0.3,0,0.5,0.2,0.5,0.5v0.1c0,0.3-0.2,0.5-0.5,0.5
					C425.5,281.9,425.2,281.7,425.2,281.4z M425.2,277.2c0-0.3,0.2-0.5,0.5-0.5c0.3,0,0.5,0.2,0.5,0.5v0.1c0,0.3-0.2,0.5-0.5,0.5
					C425.5,277.8,425.2,277.5,425.2,277.2z M425.2,273.2v-0.1c0-0.3,0.2-0.5,0.5-0.5c0.3,0,0.5,0.2,0.5,0.5v0.1
					c0,0.3-0.2,0.5-0.5,0.5C425.5,273.7,425.2,273.5,425.2,273.2z M425.2,269c0-0.3,0.2-0.5,0.5-0.5c0.3,0,0.5,0.2,0.5,0.5v0.1
					c0,0.3-0.2,0.5-0.5,0.5C425.5,269.6,425.2,269.3,425.2,269z M425.2,264.9c0-0.3,0.2-0.5,0.5-0.5c0.3,0,0.5,0.2,0.5,0.5v0.1
					c0,0.3-0.2,0.5-0.5,0.5C425.5,265.5,425.2,265.2,425.2,264.9z M425.2,260.9v-0.1c0-0.3,0.2-0.5,0.5-0.5c0.3,0,0.5,0.2,0.5,0.5
					v0.1c0,0.3-0.2,0.5-0.5,0.5C425.5,261.4,425.2,261.2,425.2,260.9z M425.2,256.7c0-0.3,0.2-0.5,0.5-0.5c0.3,0,0.5,0.2,0.5,0.5
					v0.1c0,0.3-0.2,0.5-0.5,0.5C425.5,257.3,425.2,257,425.2,256.7z M425.2,252.7v-0.1c0-0.3,0.2-0.5,0.5-0.5c0.3,0,0.5,0.2,0.5,0.5
					v0.1c0,0.3-0.2,0.5-0.5,0.5C425.5,253.2,425.2,253,425.2,252.7z M425.2,248.5c0-0.3,0.2-0.5,0.5-0.5c0.3,0,0.5,0.2,0.5,0.5v0.1
					c0,0.3-0.2,0.5-0.5,0.5C425.5,249.1,425.2,248.8,425.2,248.5z M425.2,244.5v-0.1c0-0.3,0.2-0.5,0.5-0.5c0.3,0,0.5,0.2,0.5,0.5
					v0.1c0,0.3-0.2,0.5-0.5,0.5C425.5,245,425.2,244.8,425.2,244.5z M425.2,240.4v-0.1c0-0.3,0.2-0.5,0.5-0.5c0.3,0,0.5,0.2,0.5,0.5
					v0.1c0,0.3-0.2,0.5-0.5,0.5C425.5,240.9,425.2,240.7,425.2,240.4z M425.2,236.2c0-0.3,0.2-0.5,0.5-0.5c0.3,0,0.5,0.2,0.5,0.5
					v0.1c0,0.3-0.2,0.5-0.5,0.5C425.5,236.8,425.2,236.5,425.2,236.2z M425.2,232.2v-0.1c0-0.3,0.2-0.5,0.5-0.5
					c0.3,0,0.5,0.2,0.5,0.5v0.1c0,0.3-0.2,0.5-0.5,0.5C425.5,232.7,425.2,232.5,425.2,232.2z M425.2,228.1V228
					c0-0.3,0.2-0.5,0.5-0.5c0.3,0,0.5,0.2,0.5,0.5v0.1c0,0.3-0.2,0.5-0.5,0.5C425.5,228.6,425.2,228.4,425.2,228.1z M425.2,224v-0.1
					c0-0.3,0.2-0.5,0.5-0.5c0.3,0,0.5,0.2,0.5,0.5v0.1c0,0.3-0.2,0.5-0.5,0.5C425.5,224.5,425.2,224.3,425.2,224z M425.2,219.9v-0.1
					c0-0.3,0.2-0.5,0.5-0.5c0.3,0,0.5,0.2,0.5,0.5v0.1c0,0.3-0.2,0.5-0.5,0.5C425.5,220.4,425.2,220.2,425.2,219.9z M425.2,215.7
					c0-0.3,0.2-0.5,0.5-0.5c0.3,0,0.5,0.2,0.5,0.5v0.1c0,0.3-0.2,0.5-0.5,0.5C425.5,216.3,425.2,216,425.2,215.7z M425.2,211.7v-0.1
					c0-0.3,0.2-0.5,0.5-0.5c0.3,0,0.5,0.2,0.5,0.5v0.1c0,0.3-0.2,0.5-0.5,0.5C425.5,212.2,425.2,212,425.2,211.7z M425.2,207.6v-0.1
					c0-0.3,0.2-0.5,0.5-0.5c0.3,0,0.5,0.2,0.5,0.5v0.1c0,0.3-0.2,0.5-0.5,0.5C425.5,208.1,425.2,207.9,425.2,207.6z M425.2,203.5
					v-0.1c0-0.3,0.2-0.5,0.5-0.5c0.3,0,0.5,0.2,0.5,0.5v0.1c0,0.3-0.2,0.5-0.5,0.5C425.5,204,425.2,203.8,425.2,203.5z M425.2,199.4
					v-0.1c0-0.3,0.2-0.5,0.5-0.5c0.3,0,0.5,0.2,0.5,0.5v0.1c0,0.3-0.2,0.5-0.5,0.5C425.5,199.9,425.2,199.7,425.2,199.4z
					 M425.2,195.2c0-0.3,0.2-0.5,0.5-0.5c0.3,0,0.5,0.2,0.5,0.5v0.1c0,0.3-0.2,0.5-0.5,0.5C425.5,195.8,425.2,195.5,425.2,195.2z
					 M425.2,191.2v-0.1c0-0.3,0.2-0.5,0.5-0.5c0.3,0,0.5,0.2,0.5,0.5v0.1c0,0.3-0.2,0.5-0.5,0.5
					C425.5,191.7,425.2,191.5,425.2,191.2z M425.2,187.1V187c0-0.3,0.2-0.5,0.5-0.5c0.3,0,0.5,0.2,0.5,0.5v0.1
					c0,0.3-0.2,0.5-0.5,0.5C425.5,187.6,425.2,187.4,425.2,187.1z M425.2,183v-0.1c0-0.3,0.2-0.5,0.5-0.5c0.3,0,0.5,0.2,0.5,0.5v0.1
					c0,0.3-0.2,0.5-0.5,0.5C425.5,183.5,425.2,183.3,425.2,183z M425.2,178.9v-0.1c0-0.3,0.2-0.5,0.5-0.5c0.3,0,0.5,0.2,0.5,0.5v0.1
					c0,0.3-0.2,0.5-0.5,0.5C425.5,179.4,425.2,179.2,425.2,178.9z M425.2,174.7c0-0.3,0.2-0.5,0.5-0.5c0.3,0,0.5,0.2,0.5,0.5v0.1
					c0,0.3-0.2,0.5-0.5,0.5C425.5,175.3,425.2,175,425.2,174.7z M425.2,170.7v-0.1c0-0.3,0.2-0.5,0.5-0.5c0.3,0,0.5,0.2,0.5,0.5v0.1
					c0,0.3-0.2,0.5-0.5,0.5C425.5,171.2,425.2,171,425.2,170.7z M425.2,166.6v-0.1c0-0.3,0.2-0.5,0.5-0.5c0.3,0,0.5,0.2,0.5,0.5v0.1
					c0,0.3-0.2,0.5-0.5,0.5C425.5,167.1,425.2,166.9,425.2,166.6z M425.2,162.5v-0.1c0-0.3,0.2-0.5,0.5-0.5c0.3,0,0.5,0.2,0.5,0.5
					v0.1c0,0.3-0.2,0.5-0.5,0.5C425.5,163,425.2,162.8,425.2,162.5z M425.2,158.4v-0.1c0-0.3,0.2-0.5,0.5-0.5c0.3,0,0.5,0.2,0.5,0.5
					v0.1c0,0.3-0.2,0.5-0.5,0.5C425.5,158.9,425.2,158.7,425.2,158.4z M425.2,154.2c0-0.3,0.2-0.5,0.5-0.5c0.3,0,0.5,0.2,0.5,0.5
					v0.1c0,0.3-0.2,0.5-0.5,0.5C425.5,154.8,425.2,154.5,425.2,154.2z M425.2,150.2v-0.1c0-0.3,0.2-0.5,0.5-0.5
					c0.3,0,0.5,0.2,0.5,0.5v0.1c0,0.3-0.2,0.5-0.5,0.5C425.5,150.7,425.2,150.5,425.2,150.2z M425.2,146.1V146
					c0-0.3,0.2-0.5,0.5-0.5c0.3,0,0.5,0.2,0.5,0.5v0.1c0,0.3-0.2,0.5-0.5,0.5C425.5,146.6,425.2,146.4,425.2,146.1z M425.2,142v-0.1
					c0-0.3,0.2-0.5,0.5-0.5c0.3,0,0.5,0.2,0.5,0.5v0.1c0,0.3-0.2,0.5-0.5,0.5C425.5,142.5,425.2,142.3,425.2,142z M425.2,137.9v-0.1
					c0-0.3,0.2-0.5,0.5-0.5c0.3,0,0.5,0.2,0.5,0.5v0.1c0,0.3-0.2,0.5-0.5,0.5C425.5,138.4,425.2,138.2,425.2,137.9z M423.6,135.4
					L423.6,135.4c-0.3-0.2-0.4-0.5-0.3-0.7c0.1-0.2,0.4-0.3,0.7-0.2l0.1,0c0.2,0.1,0.3,0.4,0.2,0.7c-0.1,0.2-0.3,0.3-0.4,0.3
					C423.7,135.5,423.6,135.4,423.6,135.4z M419.9,133.3c-0.2-0.1-0.3-0.4-0.2-0.7c0.1-0.2,0.4-0.3,0.7-0.2l0.1,0
					c0.2,0.1,0.3,0.4,0.1,0.7c-0.1,0.2-0.3,0.2-0.4,0.2C420.1,133.4,420,133.4,419.9,133.3z M416.4,131.3c-0.2-0.1-0.3-0.4-0.2-0.7
					c0.1-0.2,0.4-0.3,0.7-0.2l0.1,0c0.2,0.1,0.3,0.4,0.1,0.7c-0.1,0.2-0.3,0.2-0.4,0.2C416.5,131.4,416.4,131.3,416.4,131.3z
					 M412.9,129.3L412.9,129.3c-0.3-0.2-0.4-0.5-0.3-0.7c0.1-0.2,0.4-0.3,0.7-0.2l0.1,0c0.2,0.1,0.3,0.4,0.2,0.7
					c-0.1,0.2-0.3,0.3-0.4,0.3C413,129.4,413,129.3,412.9,129.3z M409.2,127.2c-0.2-0.1-0.3-0.4-0.2-0.7c0.1-0.2,0.4-0.3,0.7-0.2
					l0.1,0c0.2,0.1,0.3,0.4,0.1,0.7c-0.1,0.2-0.3,0.2-0.4,0.2C409.4,127.3,409.3,127.3,409.2,127.2z M405.7,125.2
					c-0.2-0.1-0.3-0.4-0.2-0.7c0.1-0.2,0.4-0.3,0.7-0.2l0.1,0c0.2,0.1,0.3,0.4,0.1,0.7c-0.1,0.2-0.3,0.2-0.4,0.2
					C405.9,125.3,405.8,125.2,405.7,125.2z M402.2,123.2L402.2,123.2c-0.3-0.2-0.4-0.5-0.3-0.7c0.1-0.2,0.4-0.3,0.7-0.2l0.1,0
					c0.2,0.1,0.3,0.4,0.2,0.7c-0.1,0.2-0.3,0.3-0.4,0.3C402.4,123.3,402.3,123.3,402.2,123.2z M398.6,121.1
					c-0.2-0.1-0.3-0.4-0.2-0.7c0.1-0.2,0.4-0.3,0.7-0.2l0.1,0c0.2,0.1,0.3,0.4,0.1,0.7c-0.1,0.2-0.3,0.2-0.4,0.2
					C398.7,121.2,398.6,121.2,398.6,121.1z M395,119.1c-0.2-0.1-0.3-0.4-0.2-0.7c0.1-0.2,0.4-0.3,0.7-0.2l0.1,0
					c0.2,0.1,0.3,0.4,0.1,0.7c-0.1,0.2-0.3,0.2-0.4,0.2C395.2,119.2,395.1,119.1,395,119.1z M391.5,117.1L391.5,117.1
					c-0.3-0.2-0.4-0.5-0.3-0.7c0.1-0.2,0.4-0.3,0.7-0.2l0.1,0c0.2,0.1,0.3,0.4,0.2,0.7c-0.1,0.2-0.3,0.3-0.4,0.3
					C391.7,117.2,391.6,117.2,391.5,117.1z M387.9,115c-0.2-0.1-0.3-0.4-0.2-0.7c0.1-0.2,0.4-0.3,0.7-0.2l0.1,0
					c0.2,0.1,0.3,0.4,0.1,0.7c-0.1,0.2-0.3,0.2-0.4,0.2C388,115.1,388,115.1,387.9,115z M384.3,113c-0.2-0.1-0.3-0.4-0.2-0.7
					c0.1-0.2,0.4-0.3,0.7-0.2l0.1,0c0.2,0.1,0.3,0.4,0.1,0.7c-0.1,0.2-0.3,0.2-0.4,0.2C384.5,113.1,384.4,113,384.3,113z M380.8,111
					L380.8,111c-0.3-0.2-0.4-0.5-0.3-0.7c0.1-0.2,0.4-0.3,0.7-0.2l0.1,0c0.2,0.1,0.3,0.4,0.2,0.7c-0.1,0.2-0.3,0.3-0.4,0.3
					C381,111.1,380.9,111.1,380.8,111z"/>
				<path id="XMLID_130_" class="st2" d="M354.1,140.2c-0.2-0.1-0.3-0.4-0.2-0.7c0.1-0.2,0.4-0.3,0.7-0.2l0.1,0
					c0.2,0.1,0.3,0.4,0.1,0.7c-0.1,0.2-0.3,0.2-0.4,0.2C354.3,140.3,354.2,140.3,354.1,140.2z M355.6,138.6v-0.1
					c0-0.3,0.2-0.5,0.5-0.5s0.5,0.2,0.5,0.5v0.1c0,0.3-0.2,0.5-0.5,0.5S355.6,138.9,355.6,138.6z M350.6,138.2
					c-0.2-0.1-0.3-0.4-0.2-0.7c0.1-0.2,0.4-0.3,0.7-0.2l0.1,0c0.2,0.1,0.3,0.4,0.1,0.7c-0.1,0.2-0.3,0.2-0.4,0.2
					C350.8,138.2,350.7,138.2,350.6,138.2z M347,136.1c-0.2-0.1-0.3-0.4-0.2-0.7c0.1-0.2,0.4-0.3,0.7-0.2l0.1,0
					c0.2,0.1,0.3,0.4,0.1,0.7c-0.1,0.2-0.3,0.2-0.4,0.2C347.2,136.2,347.1,136.2,347,136.1z M355.6,134.5v-0.1
					c0-0.3,0.2-0.5,0.5-0.5s0.5,0.2,0.5,0.5v0.1c0,0.3-0.2,0.5-0.5,0.5S355.6,134.8,355.6,134.5z M343.5,134.1
					c-0.2-0.1-0.3-0.4-0.2-0.7c0.1-0.2,0.4-0.3,0.7-0.2l0.1,0c0.2,0.1,0.3,0.4,0.1,0.7c-0.1,0.2-0.3,0.2-0.4,0.2
					C343.7,134.1,343.6,134.1,343.5,134.1z M340,132.1L340,132.1c-0.3-0.2-0.4-0.5-0.3-0.7c0.1-0.2,0.4-0.3,0.7-0.2l0.1,0.1
					c0.2,0.1,0.3,0.4,0.2,0.7c-0.1,0.2-0.3,0.2-0.4,0.2C340.2,132.1,340.1,132.1,340,132.1z M355.6,130.4L355.6,130.4
					c0-0.4,0.2-0.5,0.5-0.5s0.5,0.3,0.5,0.5c0,0.3-0.2,0.5-0.5,0.5S355.6,130.7,355.6,130.4z M336.4,129.9c-0.2-0.1-0.3-0.4-0.2-0.7
					c0.1-0.2,0.4-0.3,0.7-0.2l0.1,0.1c0.2,0.1,0.3,0.4,0.1,0.7c-0.1,0.2-0.3,0.2-0.4,0.2C336.6,130,336.5,130,336.4,129.9z
					 M332.8,127.9c-0.2-0.1-0.3-0.4-0.2-0.7c0.1-0.2,0.4-0.3,0.7-0.2l0.1,0.1c0.2,0.1,0.3,0.4,0.1,0.7c-0.1,0.2-0.3,0.2-0.4,0.2
					C333,128,332.9,127.9,332.8,127.9z M355.6,126.3v-0.1c0-0.3,0.2-0.5,0.5-0.5s0.5,0.2,0.5,0.5v0.1c0,0.3-0.2,0.5-0.5,0.5
					S355.6,126.6,355.6,126.3z M329.4,125.9L329.4,125.9c-0.3-0.2-0.4-0.5-0.3-0.7c0.1-0.2,0.4-0.3,0.7-0.2l0.1,0.1
					c0.2,0.1,0.3,0.4,0.2,0.7c-0.1,0.2-0.3,0.2-0.4,0.2C329.5,126,329.4,125.9,329.4,125.9z M325.7,123.8c-0.2-0.1-0.3-0.4-0.2-0.7
					c0.1-0.2,0.4-0.3,0.7-0.2l0.1,0.1c0.2,0.1,0.3,0.4,0.1,0.7c-0.1,0.2-0.3,0.2-0.4,0.2C325.9,123.9,325.8,123.8,325.7,123.8z
					 M355.6,122.2v-0.1c0-0.3,0.2-0.5,0.5-0.5s0.5,0.2,0.5,0.5v0.1c0,0.3-0.2,0.5-0.5,0.5S355.6,122.5,355.6,122.2z M322.2,121.7
					c-0.2-0.1-0.3-0.4-0.2-0.7c0.1-0.2,0.4-0.3,0.7-0.2l0.1,0c0.2,0.1,0.3,0.4,0.1,0.7c-0.1,0.2-0.3,0.2-0.4,0.2
					C322.4,121.8,322.3,121.8,322.2,121.7z M318.7,119.7L318.7,119.7c-0.3-0.2-0.4-0.5-0.3-0.7c0.1-0.2,0.4-0.3,0.7-0.2l0.1,0
					c0.2,0.1,0.3,0.4,0.2,0.7c-0.1,0.2-0.3,0.3-0.4,0.3C318.9,119.8,318.8,119.8,318.7,119.7z M315.1,117.6
					c-0.2-0.1-0.3-0.4-0.2-0.7c0.1-0.2,0.4-0.3,0.7-0.2l0.1,0c0.2,0.1,0.3,0.4,0.1,0.7c-0.1,0.2-0.3,0.2-0.4,0.2
					C315.3,117.7,315.2,117.7,315.1,117.6z"/>
			</g>
		</g>
	</g>
	<g id="XMLID_148_">
		<g id="XMLID_149_">
			<path id="XMLID_677_" class="st7" d="M105.2,117.2l36.3,21c2.6,1.5,7.3,1.3,10.4-0.4l34.8-20.1c3.1-1.8,3.4-4.5,0.7-6l-36.3-21
				c-2.6-1.5-7.3-1.3-10.4,0.4l-34.8,20.1C102.8,113,102.5,115.7,105.2,117.2z"/>
			<g id="XMLID_150_">
				
					<linearGradient id="XMLID_342_" gradientUnits="userSpaceOnUse" x1="434.9393" y1="127.8716" x2="363.9391" y2="268.8716" gradientTransform="matrix(-1 0 0 1 526.8986 0)">
					<stop  offset="0" style="stop-color:#E4F2FF"/>
					<stop  offset="5.554383e-002" style="stop-color:#E1EFFF"/>
					<stop  offset="0.6478" style="stop-color:#C7D7FB"/>
					<stop  offset="0.9993" style="stop-color:#BDCEFA"/>
				</linearGradient>
				<path id="XMLID_151_" class="st8" d="M103.4,246V115.1l0,0c0,0,0,0,0,0c0.2,0.8,0.7,1.5,1.7,2.1l36.3,21c1.3,0.7,3,1.1,4.8,1
					V271c-1.8,0-3.5-0.3-4.8-1l-36.3-21C103.8,248.3,103.2,247.2,103.4,246z"/>
				<path id="XMLID_152_" class="st9" d="M151.8,137.8l34.8-20.1c1.5-0.8,2.3-1.9,2.5-2.9v130.9c0.3,1.3-0.6,2.8-2.5,3.9l-34.8,20.1
					c-1.6,0.9-3.6,1.4-5.6,1.4V139.2C148.2,139.2,150.2,138.7,151.8,137.8z"/>
				
					<linearGradient id="XMLID_344_" gradientUnits="userSpaceOnUse" x1="449.9102" y1="57.9038" x2="335.2437" y2="228.5699" gradientTransform="matrix(-1 0 0 1 526.8986 0)">
					<stop  offset="0" style="stop-color:#E4F2FF"/>
					<stop  offset="5.554383e-002" style="stop-color:#E1EFFF"/>
					<stop  offset="0.6478" style="stop-color:#C7D7FB"/>
					<stop  offset="0.9993" style="stop-color:#BDCEFA"/>
				</linearGradient>
				<path id="XMLID_153_" class="st10" d="M151.8,137.8l34.8-20.1c1.5-0.8,2.3-1.9,2.5-2.9v130.9c0.3,1.3-0.6,2.8-2.5,3.9
					l-34.8,20.1c-1.6,0.9-3.6,1.4-5.6,1.4V139.2C148.2,139.2,150.2,138.7,151.8,137.8z"/>
			</g>
		</g>
		<g id="XMLID_154_">
			<g id="XMLID_155_">
				<path id="XMLID_671_" class="st11" d="M116.1,129.5c0,7.4,3.9,11.5,9.5,11c1.3,0.1,2.7-0.2,4.3-1.1l46.4-26.8
					c0.4-0.2,0.8-0.5,1.1-0.7c7.8-5.4,13.9-16.6,13.9-25.8c0-9-5.8-13.1-13.3-10c-1.1-6.4-6.5-8.7-12.9-4.9c-2.1,1.2-4.2,3-6,5.1
					c-3.4-2.9-8.6-3-14.5,0.4c-8.8,5.1-16.1,16.3-18.1,26.9c-2.7,1.9-4.7,5.7-4.8,8.9C118.3,117.6,116.1,123.9,116.1,129.5z"/>
				<g id="XMLID_156_">
					<path id="XMLID_157_" class="st12" d="M111.8,106.6c0.1-3.2,2.1-7,4.8-8.9c2-10.6,9.3-21.9,18.1-26.9c5.1-3,9.8-3.2,13.2-1.3
						l1.4,0.8c1.8-2,3.7-3.8,5.9-5c3.6-2.1,6.9-2.3,9.3-0.9l8.4,4.8c1.4,0,2.6,0.3,3.7,0.9l9.9,5.7c-2.3-1.2-5.2-1.2-8.5,0.1
						c-1.1-6.4-6.5-8.7-12.9-4.9c-2.1,1.2-4.2,3-6,5.1c-3.4-2.9-8.6-3-14.5,0.4c-8.8,5.1-16.1,16.3-18.1,26.9
						c-2.7,1.9-4.7,5.7-4.8,8.9c-3.5,5.3-5.7,11.5-5.7,17.1c0,5.1,1.8,8.6,4.8,10.1l-9.9-5.7c-3-1.5-4.9-5.1-4.9-10.2
						C106.1,118.2,108.3,111.9,111.8,106.6z"/>
				</g>
			</g>
			<g id="XMLID_158_">
				<path id="XMLID_667_" class="st0" d="M170.2,106c0,1.8,1.3,2.6,2.9,1.7s2.9-3.1,2.9-5c0-1.8-1.3-2.6-2.9-1.7
					S170.2,104.2,170.2,106z"/>
				<path id="XMLID_666_" class="st0" d="M161.3,111.2c0,1.8,1.3,2.6,2.9,1.7c1.6-0.9,2.9-3.1,2.9-5s-1.3-2.6-2.9-1.7
					S161.3,109.3,161.3,111.2z"/>
				<path id="XMLID_665_" class="st0" d="M152.3,116.3c0,1.8,1.3,2.6,2.9,1.7c1.6-0.9,2.9-3.1,2.9-5c0-1.8-1.3-2.6-2.9-1.7
					C153.6,112.3,152.3,114.5,152.3,116.3z"/>
				<path id="XMLID_664_" class="st0" d="M143.4,121.5c0,1.8,1.3,2.6,2.9,1.7c1.6-0.9,2.9-3.1,2.9-5c0-1.8-1.3-2.6-2.9-1.7
					C144.7,117.5,143.4,119.7,143.4,121.5z"/>
				<path id="XMLID_663_" class="st0" d="M134.4,126.7c0,1.8,1.3,2.6,2.9,1.7s2.9-3.1,2.9-5c0-1.8-1.3-2.6-2.9-1.7
					C135.7,122.6,134.4,124.8,134.4,126.7z"/>
			</g>
		</g>
	</g>
	
		<linearGradient id="XMLID_347_" gradientUnits="userSpaceOnUse" x1="301.8968" y1="574.3636" x2="301.8968" y2="404.2741" gradientTransform="matrix(-1 0 0 1 526.8986 0)">
		<stop  offset="0" style="stop-color:#DEEBFE"/>
		<stop  offset="0.6004" style="stop-color:#C7D7FB"/>
		<stop  offset="0.9993" style="stop-color:#BDCEFA"/>
	</linearGradient>
	<path id="XMLID_159_" class="st13" d="M224.9,481.2c0,0,0.1,0,0.1,0L224.9,481.2C225,481.2,224.9,481.2,224.9,481.2z"/>
	<linearGradient id="XMLID_351_" gradientUnits="userSpaceOnUse" x1="130.2946" y1="519.2006" x2="130.7083" y2="519.6003">
		<stop  offset="0" style="stop-color:#FCFDFF"/>
		<stop  offset="0.2913" style="stop-color:#E7F2FF"/>
		<stop  offset="0.7355" style="stop-color:#CDE5FE"/>
		<stop  offset="0.9993" style="stop-color:#C3E0FE"/>
	</linearGradient>
	<polygon id="XMLID_160_" class="st14" points="130.5,519.4 130.5,519.4 130.5,519.4 	"/>
	<g id="XMLID_161_">
		<path id="XMLID_658_" class="st7" d="M104.7,343.3l66.5,37.2c2.9,1.7,8.1,1.5,11.5-0.5l22.1-13.2c3.4-2,3.8-5,0.8-6.7l-66.2-38
			c-2.9-1.7-8.1-1.5-11.5,0.5l-22.4,13.9C102.2,338.6,101.8,341.6,104.7,343.3z"/>
		<g id="XMLID_162_">
			
				<linearGradient id="XMLID_352_" gradientUnits="userSpaceOnUse" x1="424.04" y1="337.1526" x2="272.6514" y2="453.9059" gradientTransform="matrix(-1 0 0 1 526.8986 0)">
				<stop  offset="0" style="stop-color:#E4F2FF"/>
				<stop  offset="5.554383e-002" style="stop-color:#E1EFFF"/>
				<stop  offset="0.6478" style="stop-color:#C7D7FB"/>
				<stop  offset="0.9993" style="stop-color:#BDCEFA"/>
			</linearGradient>
			<path id="XMLID_163_" class="st15" d="M102.8,347.5v-6.5c0,0,0,0,0,0v0c0.2,0.9,0.8,1.7,1.9,2.4l66.5,37.2
				c1.4,0.8,3.4,1.2,5.4,1.1v7.6c-2,0-3.9-0.3-5.4-1.1l-66.5-37.2C103.2,350,102.6,348.7,102.8,347.5z"/>
			
				<linearGradient id="XMLID_355_" gradientUnits="userSpaceOnUse" x1="379.2111" y1="336.1799" x2="325.5827" y2="384.7806" gradientTransform="matrix(-1 0 0 1 526.8986 0)">
				<stop  offset="0" style="stop-color:#E4F2FF"/>
				<stop  offset="5.554383e-002" style="stop-color:#E1EFFF"/>
				<stop  offset="0.6478" style="stop-color:#C7D7FB"/>
				<stop  offset="0.9993" style="stop-color:#BDCEFA"/>
			</linearGradient>
			<path id="XMLID_164_" class="st16" d="M182.7,380.1l22.1-13.2c1.6-0.9,2.5-2.1,2.8-3.3v6.5c0.3,1.5-0.6,3.1-2.8,4.3l-22.1,13.2
				c-1.8,1-4,1.6-6.2,1.6v-7.6C178.7,381.6,181,381.1,182.7,380.1z"/>
		</g>
	</g>
	<g id="XMLID_165_">
		<path id="XMLID_653_" class="st7" d="M77.1,384.3l66.5,37.2c2.9,1.7,8.1,1.5,11.5-0.5l22.1-13.2c3.4-2,3.8-5,0.8-6.7l-66.2-38
			c-2.9-1.7-8.1-1.5-11.5,0.5l-22.4,13.9C74.5,379.6,74.1,382.6,77.1,384.3z"/>
		<g id="XMLID_166_">
			
				<linearGradient id="XMLID_356_" gradientUnits="userSpaceOnUse" x1="448.0615" y1="383.1402" x2="306.0397" y2="483.3909" gradientTransform="matrix(-1 0 0 1 526.8986 0)">
				<stop  offset="0" style="stop-color:#E4F2FF"/>
				<stop  offset="5.554383e-002" style="stop-color:#E1EFFF"/>
				<stop  offset="0.6478" style="stop-color:#C7D7FB"/>
				<stop  offset="0.9993" style="stop-color:#BDCEFA"/>
			</linearGradient>
			<path id="XMLID_167_" class="st17" d="M75.1,388.4v-6.5l0,0v0c0.2,0.9,0.8,1.7,1.9,2.4l66.5,37.2c1.4,0.8,3.4,1.2,5.4,1.1v7.6
				c-2,0-3.9-0.3-5.4-1.1l-66.5-37.2C75.5,390.9,74.9,389.7,75.1,388.4z"/>
			
				<linearGradient id="XMLID_359_" gradientUnits="userSpaceOnUse" x1="425.3823" y1="377.6009" x2="358.5486" y2="419.8633" gradientTransform="matrix(-1 0 0 1 526.8986 0)">
				<stop  offset="0" style="stop-color:#E4F2FF"/>
				<stop  offset="5.554383e-002" style="stop-color:#E1EFFF"/>
				<stop  offset="0.6478" style="stop-color:#C7D7FB"/>
				<stop  offset="0.9993" style="stop-color:#BDCEFA"/>
			</linearGradient>
			<path id="XMLID_168_" class="st18" d="M155.1,421l22.1-13.2c1.6-0.9,2.5-2.1,2.8-3.3v6.5c0.3,1.5-0.6,3.1-2.8,4.3l-22.1,13.2
				c-1.8,1-4,1.6-6.2,1.6v-7.6C151.1,422.6,153.3,422,155.1,421z"/>
		</g>
	</g>
	<g id="XMLID_169_">
		<g id="XMLID_170_">
			<path id="XMLID_648_" class="st7" d="M88.8,278.9L286,392.5c8.9,5.1,24.5,4.5,34.8-1.4l120.3-69.2c10.3-5.9,11.4-15,2.5-20.1
				L243,189.9c-8.9-5.1-24.5-4.5-34.8,1.4L91.3,258.8C81.1,264.7,79.9,273.8,88.8,278.9z"/>
			<g id="XMLID_171_">
				
					<linearGradient id="XMLID_364_" gradientUnits="userSpaceOnUse" x1="462.8652" y1="240.5473" x2="209.7014" y2="435.4738" gradientTransform="matrix(-1 0 0 1 526.8986 0)">
					<stop  offset="0" style="stop-color:#E4F2FF"/>
					<stop  offset="5.554383e-002" style="stop-color:#E1EFFF"/>
					<stop  offset="0.6478" style="stop-color:#C7D7FB"/>
					<stop  offset="0.9993" style="stop-color:#BDCEFA"/>
				</linearGradient>
				<path id="XMLID_172_" class="st19" d="M83,277.2v-5.4l0,0c0,0,0,0,0,0c0.5,2.7,2.5,5.2,5.8,7.1L286,392.5
					c4.3,2.5,10.1,3.6,16.2,3.4v8.6c-6,0.1-11.9-0.9-16.2-3.4L88.8,287.5C84.2,284.8,82.3,281,83,277.2z"/>
				<path id="XMLID_173_" class="st20" d="M320.8,391l120.3-69.2c4.9-2.8,7.7-6.4,8.3-9.8v5.4c0.9,4.4-1.9,9.3-8.3,13l-120.3,69.2
					c-5.3,3.1-12.1,4.7-18.6,4.9v-8.6C308.7,395.7,315.5,394.1,320.8,391z"/>
				
					<linearGradient id="XMLID_366_" gradientUnits="userSpaceOnUse" x1="317.2557" y1="381.8609" x2="216.923" y2="367.6834" gradientTransform="matrix(-1 0 0 1 526.8986 0)">
					<stop  offset="0" style="stop-color:#E4F2FF"/>
					<stop  offset="5.554383e-002" style="stop-color:#E1EFFF"/>
					<stop  offset="0.6478" style="stop-color:#C7D7FB"/>
					<stop  offset="0.9993" style="stop-color:#BDCEFA"/>
				</linearGradient>
				<path id="XMLID_174_" class="st21" d="M320.8,391l120.3-69.2c4.9-2.8,7.7-6.4,8.3-9.8v5.4c0.9,4.4-1.9,9.3-8.3,13l-120.3,69.2
					c-5.3,3.1-12.1,4.7-18.6,4.9v-8.6C308.7,395.7,315.5,394.1,320.8,391z"/>
			</g>
		</g>
		<g id="XMLID_175_">
			<g id="XMLID_176_">
				<polygon id="XMLID_642_" class="st0" points="274,341.4 315.2,365.2 419.9,304.7 378.8,280.9 				"/>
				
					<linearGradient id="XMLID_370_" gradientUnits="userSpaceOnUse" x1="251.3433" y1="343.0504" x2="127.8433" y2="465.0503" gradientTransform="matrix(-1 0 0 1 526.8986 0)">
					<stop  offset="0" style="stop-color:#E4F2FF"/>
					<stop  offset="5.554383e-002" style="stop-color:#E1EFFF"/>
					<stop  offset="0.6478" style="stop-color:#C7D7FB"/>
					<stop  offset="0.9993" style="stop-color:#BDCEFA"/>
				</linearGradient>
				<polygon id="XMLID_177_" class="st22" points="274,341.4 274,358.5 315.2,382.3 315.2,365.2 				"/>
				
					<linearGradient id="XMLID_372_" gradientUnits="userSpaceOnUse" x1="313.5993" y1="388.2859" x2="127.5995" y2="334.286" gradientTransform="matrix(-1 0 0 1 526.8986 0)">
					<stop  offset="0" style="stop-color:#E4F2FF"/>
					<stop  offset="5.554383e-002" style="stop-color:#E1EFFF"/>
					<stop  offset="0.6478" style="stop-color:#C7D7FB"/>
					<stop  offset="0.9993" style="stop-color:#BDCEFA"/>
				</linearGradient>
				<polygon id="XMLID_178_" class="st23" points="419.9,304.7 419.9,321.8 315.2,382.3 315.2,365.2 				"/>
			</g>
			<g id="XMLID_179_">
				<g id="XMLID_180_">
					<path id="XMLID_638_" class="st24" d="M359.5,299.2l18.1,10.4c1.3,0.8,3.6,0.7,5.2-0.2l17.3-10c1.5-0.9,1.7-2.2,0.4-3
						l-18.1-10.4c-1.3-0.8-3.6-0.7-5.2,0.2l-17.3,10C358.4,297.1,358.2,298.5,359.5,299.2z"/>
					<g id="XMLID_181_">
						<path id="XMLID_182_" class="st25" d="M358.7,306.1v-8v0v0c0.1,0.4,0.4,0.8,0.9,1.1l18.1,10.4c0.6,0.4,1.5,0.5,2.4,0.5v8.4
							c-0.9,0-1.8-0.1-2.4-0.5l-18.1-10.4C358.8,307.3,358.6,306.7,358.7,306.1z"/>
						<path id="XMLID_183_" class="st26" d="M382.7,309.5l17.3-10c0.7-0.4,1.1-0.9,1.2-1.5v8c0.1,0.7-0.3,1.4-1.2,1.9l-17.3,10
							c-0.8,0.5-1.8,0.7-2.8,0.7v-8.4C381,310.2,382,309.9,382.7,309.5z"/>
					</g>
				</g>
				<g id="XMLID_184_">
					<path id="XMLID_633_" class="st27" d="M327.7,317.7l18.1,10.4c1.3,0.8,3.6,0.7,5.2-0.2l17.3-10c1.5-0.9,1.7-2.2,0.4-3
						l-18.1-10.4c-1.3-0.8-3.6-0.7-5.2,0.2l-17.3,10C326.5,315.6,326.3,316.9,327.7,317.7z"/>
					<g id="XMLID_185_">
						<path id="XMLID_186_" class="st28" d="M326.8,324.6v-8v0v0c0.1,0.4,0.4,0.8,0.9,1.1l18.1,10.4c0.6,0.4,1.5,0.5,2.4,0.5v8.4
							c-0.9,0-1.8-0.1-2.4-0.5l-18.1-10.4C327,325.7,326.7,325.2,326.8,324.6z"/>
						<path id="XMLID_187_" class="st29" d="M350.9,327.9l17.3-10c0.7-0.4,1.1-0.9,1.2-1.5v8c0.1,0.7-0.3,1.4-1.2,1.9l-17.3,10
							c-0.8,0.5-1.8,0.7-2.8,0.7v-8.4C349.1,328.6,350.1,328.4,350.9,327.9z"/>
					</g>
				</g>
				<g id="XMLID_188_">
					<path id="XMLID_628_" class="st30" d="M295.1,336.4l18.1,10.4c1.3,0.8,3.6,0.7,5.2-0.2l17.3-10c1.5-0.9,1.7-2.2,0.4-3
						L318,323.2c-1.3-0.8-3.6-0.7-5.2,0.2l-17.3,10C294,334.3,293.8,335.7,295.1,336.4z"/>
					<g id="XMLID_189_">
						<path id="XMLID_190_" class="st31" d="M294.3,343.3v-8l0,0v0c0.1,0.4,0.4,0.8,0.9,1.1l18.1,10.4c0.6,0.4,1.5,0.5,2.4,0.5v8.4
							c-0.9,0-1.8-0.1-2.4-0.5l-18.1-10.4C294.4,344.4,294.2,343.9,294.3,343.3z"/>
						<path id="XMLID_191_" class="st32" d="M318.4,346.6l17.3-10c0.7-0.4,1.1-0.9,1.2-1.5v8c0.1,0.7-0.3,1.4-1.2,1.9l-17.3,10
							c-0.8,0.5-1.8,0.7-2.8,0.7v-8.4C316.6,347.3,317.6,347.1,318.4,346.6z"/>
					</g>
				</g>
			</g>
		</g>
		<g id="XMLID_192_">
			<g id="XMLID_193_">
				<path id="XMLID_621_" class="st0" d="M104.7,237.8c-10.9,6.3-10.9,16.5,0,22.7c10.9,6.3,28.5,6.3,39.4,0
					c10.9-6.3,10.9-16.5,0-22.7C133.3,231.6,115.6,231.6,104.7,237.8z"/>
				<g id="XMLID_194_">
					
						<linearGradient id="XMLID_375_" gradientUnits="userSpaceOnUse" x1="450.7581" y1="263.976" x2="375.2581" y2="266.4759" gradientTransform="matrix(-1 0 0 1 526.8986 0)">
						<stop  offset="0" style="stop-color:#E4F2FF"/>
						<stop  offset="5.554383e-002" style="stop-color:#E1EFFF"/>
						<stop  offset="0.6478" style="stop-color:#C7D7FB"/>
						<stop  offset="0.9993" style="stop-color:#BDCEFA"/>
					</linearGradient>
					<path id="XMLID_195_" class="st33" d="M104.7,260.6c10.9,6.3,28.5,6.3,39.4,0c5.4-3.1,8.1-7.2,8.2-11.3v17.3
						c0,4.1-2.7,8.3-8.2,11.5c-10.9,6.3-28.5,6.3-39.4,0c-5.5-3.2-8.2-7.3-8.2-11.5v-17.3C96.6,253.4,99.3,257.5,104.7,260.6z"/>
				</g>
			</g>
			<g id="XMLID_196_">
				<path id="XMLID_617_" class="st34" d="M124.4,237l-17,9.8c9.3,5.4,24.7,5.4,34,0c9.3-5.4,9.3-14.3,0-19.6
					c-5.2-3-12.5-4.5-19.9-4L124.4,237z"/>
				<g id="XMLID_197_">
					<path id="XMLID_198_" class="st35" d="M141.5,246.8c4.6-2.7,7-6.2,7-9.8v9.9c0,3.6-2.3,7.2-7,9.9c-9.3,5.4-24.7,5.4-34,0v-10
						C116.8,252.2,132.1,252.2,141.5,246.8z"/>
				</g>
				<path id="XMLID_614_" class="st36" d="M124.4,237l-17,9.8c9.3,5.4,24.7,5.4,34,0c9.3-5.4,9.3-14.3,0-19.6
					c-5.2-3-12.5-4.5-19.9-4L124.4,237z"/>
				<path id="XMLID_613_" class="st37" d="M124.4,226.8l-2.8-13.8c-5.4,0.4-10.3,1.8-14.2,4c-9.3,5.4-9.3,14.3,0,19.6L124.4,226.8z"
					/>
				<polygon id="XMLID_199_" class="st38" points="124.4,226.8 124.4,237 107.4,246.8 107.4,236.6 				"/>
				<path id="XMLID_200_" class="st39" d="M100.4,246.8v-20c0,3.5,2.4,7.1,7,9.7v10.2v10C102.7,254.1,100.4,250.4,100.4,246.8z"/>
			</g>
		</g>
		<g id="XMLID_201_">
			<g id="XMLID_202_">
				<g id="XMLID_203_">
					<path id="XMLID_608_" class="st0" d="M181.7,221.6l39.6-22.9c4.7-2.7,4.1-7.4-1.3-10.5v0c-5.4-3.1-13.6-3.5-18.3-0.8
						l-39.6,22.9c-4.7,2.7-4.1,7.4,1.3,10.5l0,0C168.9,223.9,177.1,224.3,181.7,221.6z"/>
				</g>
				<g id="XMLID_204_">
					
						<linearGradient id="XMLID_377_" gradientUnits="userSpaceOnUse" x1="368.3892" y1="230.8553" x2="309.8892" y2="197.6052" gradientTransform="matrix(-1 0 0 1 526.8986 0)">
						<stop  offset="0" style="stop-color:#E4F2FF"/>
						<stop  offset="5.554383e-002" style="stop-color:#E1EFFF"/>
						<stop  offset="0.6478" style="stop-color:#C7D7FB"/>
						<stop  offset="0.9993" style="stop-color:#BDCEFA"/>
					</linearGradient>
					<path id="XMLID_205_" class="st40" d="M163.5,220.8c5.4,3.1,13.6,3.5,18.3,0.8l39.6-22.9c2-1.2,3.1-2.7,3.2-4.4l0,0V206
						c0,0,0,0.1,0,0.1c0,1.7-1.1,3.3-3.2,4.5l-39.6,22.9c-4.7,2.7-12.9,2.4-18.3-0.8c-3.1-1.8-4.6-4-4.5-6.2v-11.8
						C159,216.9,160.5,219.1,163.5,220.8z"/>
				</g>
			</g>
			<g id="XMLID_206_">
				<path id="XMLID_603_" class="st2" d="M204.5,195.3c2,1.2,5.3,1.2,7.4,0c2-1.2,2-3.1,0-4.2c-2-1.2-5.3-1.2-7.4,0
					C202.4,192.2,202.4,194.1,204.5,195.3z"/>
				<path id="XMLID_602_" class="st2" d="M193,201.9c2,1.2,5.3,1.2,7.4,0c2-1.2,2-3.1,0-4.2c-2-1.2-5.3-1.2-7.4,0
					C190.9,198.8,190.9,200.7,193,201.9z"/>
				<path id="XMLID_601_" class="st2" d="M181.5,208.5c2,1.2,5.3,1.2,7.4,0c2-1.2,2-3.1,0-4.2c-2-1.2-5.3-1.2-7.4,0
					C179.5,205.5,179.5,207.4,181.5,208.5z"/>
				<path id="XMLID_600_" class="st2" d="M170,215.2c2,1.2,5.3,1.2,7.4,0c2-1.2,2-3.1,0-4.2c-2-1.2-5.3-1.2-7.4,0
					C168,212.1,168,214,170,215.2z"/>
			</g>
		</g>
	</g>
	<g id="XMLID_207_">
		<g id="XMLID_208_">
			<path id="XMLID_596_" class="st41" d="M198.3,201L198.3,201c-1.4,0.2-2.7-0.7-2.9-2.1l-2.5-14.2c-0.2-1.4,0.7-2.7,2.1-2.9h0
				c1.4-0.2,2.7,0.7,2.9,2.1l2.5,14.2C200.6,199.4,199.7,200.7,198.3,201z"/>
			<path id="XMLID_595_" class="st41" d="M209.7,201.9L209.7,201.9c-0.4,1.3-1.9,2.1-3.2,1.7l-8.8-2.6c-1.4-0.1-2.5-1.3-2.4-2.7l0,0
				c0.1-1.4,1.3-2.5,2.7-2.4l10,2.8C209.3,199.1,210.1,200.5,209.7,201.9z"/>
		</g>
		<g id="XMLID_209_">
			<g id="XMLID_210_">
				<g id="XMLID_211_">
					<path id="XMLID_593_" class="st42" d="M183.3,243.8c0,0.3,0.2,0.6,0.7,0.9c0.1,0.1,0-1.8,0.4-1.5c0.1,0.1,6.2,4.9,9.7,4
						c0.4-0.1,0.5-0.4,0.5-0.7l0-0.8c0-0.9-1.2-2.2-3.2-4.1c-2.2-2.1-3.5-3.4-6.7-1.6c-0.9,0.5-1.3,0.9-1.3,1.3L183.3,243.8z"/>
					<path id="XMLID_592_" class="st43" d="M191.4,241.6c2.6,2.5,4,4,2.7,4.8c-1.3,0.8-4-0.4-6.7-2.5c-2.4-1.8-5.9-2-2.7-3.9
						C187.9,238.2,189.3,239.5,191.4,241.6z"/>
				</g>
			</g>
			<path id="XMLID_589_" class="st44" d="M188.8,240.4l-0.2-23.4l-7.7,2.5l1.3,3.8c0,0-0.6,5.1,1,10.3c0,0,1.1,2.3,0.9,7.5
				C184.1,241.1,186.9,242.7,188.8,240.4z"/>
		</g>
		<g id="XMLID_212_">
			<g id="XMLID_213_">
				<g id="XMLID_214_">
					<path id="XMLID_587_" class="st42" d="M190.8,237.7c0,0.3,0.2,0.6,0.7,0.9c0.1,0.1,0-1.8,0.4-1.5c0.1,0.1,6.2,4.9,9.7,4
						c0.4-0.1,0.5-0.4,0.5-0.7l0-0.8c0-0.9-1.2-2.2-3.2-4.1c-2.2-2.1-3.5-3.4-6.7-1.6c-0.9,0.5-1.3,0.9-1.3,1.3L190.8,237.7z"/>
					<path id="XMLID_586_" class="st43" d="M198.9,235.5c2.6,2.5,4,4,2.7,4.8c-1.3,0.8-4-0.4-6.7-2.5c-2.4-1.8-5.9-2-2.7-3.9
						C195.4,232.1,196.7,233.4,198.9,235.5z"/>
				</g>
			</g>
			<path id="XMLID_583_" class="st45" d="M196.3,234.3l-0.2-23.4l-7.7,2.5l1.3,3.8c0,0-0.6,5.1,1,10.3c0,0,1.1,2.3,0.9,7.5
				C191.5,234.9,194.4,236.5,196.3,234.3z"/>
		</g>
		<path id="XMLID_581_" class="st36" d="M178.1,211.5v8.6c0,0,10.1,3.4,19.7-8.6v-8.4L178.1,211.5z"/>
		<path id="XMLID_580_" class="st46" d="M182.9,214.8c0.1,0.1,0.2,0.1,0.3,0.1c1.7,0.1,7.8-1.2,13.9-8.1c0.5-0.6,0.8-1.3,0.8-2
			v-19.5c0-1.5-0.5-2.5-1.4-3l-4.6-2.7c-0.8-0.5-2-0.4-3.3,0.3l-6.3,3.6c-2.5,1.5-4.6,5-4.6,8v19.7c0,0.5,0.2,0.8,0.4,0.9
			L182.9,214.8z"/>
		<path id="XMLID_579_" class="st47" d="M184.7,184.8c0,0.5,0.3,1,0.9,1.3c1.3,0.7,3.3,0.7,4.6,0c0.6-0.4,1-0.9,0.9-1.3v-4.3
			c0-0.5-0.3-1-0.9-1.3c-1.3-0.7-3.3-0.7-4.6,0c-0.6,0.4-1,0.9-0.9,1.3V184.8z"/>
		<path id="XMLID_578_" class="st41" d="M185,178.8c0,1.1-0.7,1.5-1.7,1c-0.9-0.5-1.7-1.8-1.7-2.9c0-1.1,0.7-1.5,1.7-1
			C184.2,176.4,185,177.7,185,178.8z"/>
		<path id="XMLID_577_" class="st48" d="M193.7,190.2c0,0,8.6-7.8,3.4-21.8l-4,14.5L193.7,190.2z"/>
		<circle id="XMLID_576_" class="st44" cx="187.9" cy="173.7" r="8.9"/>
		<path id="XMLID_575_" class="st48" d="M190.6,190.2c0,0-6.6-7.3-2-20.9l8.3,2.8c0,0,2.8-7-6.5-9.1c0,0-6.2-1.4-8.4,3.8
			c0,0-5,0.4-3.1,10.7C178.8,177.7,179.1,187.4,190.6,190.2z"/>
		<g id="XMLID_215_">
			<path id="XMLID_574_" class="st41" d="M184.7,206.7L184.7,206.7c-1.3,0.4-2.8-0.4-3.1-1.8l-3.9-14.6c-0.4-1.3,0.4-2.8,1.8-3.1
				l0,0c1.3-0.4,2.8,0.4,3.1,1.8l3.9,14.6C186.8,204.9,186,206.3,184.7,206.7z"/>
			<path id="XMLID_573_" class="st41" d="M198.9,207.2L198.9,207.2c-0.3,1.4-1.6,2.2-3,2l-11.8-2.4c-1.4,0-2.6-1.1-2.6-2.5l0,0
				c0-1.4,1.1-2.6,2.5-2.6l13,2.5C198.4,204.5,199.2,205.8,198.9,207.2z"/>
		</g>
	</g>
	<g id="XMLID_216_">
		<g id="XMLID_217_">
			<path id="XMLID_218_" class="st0" d="M359.3,266.9v-87.6c0-2.2-1.2-4.3-3.1-5.4l-105.2-60.8c-4.1-2.4-9.3,0.6-9.3,5.4v87.6
				c0,2.2,1.2,4.3,3.1,5.4l105.2,60.8C354.1,274.6,359.3,271.7,359.3,266.9z"/>
			
				<linearGradient id="XMLID_379_" gradientUnits="userSpaceOnUse" x1="135.1889" y1="341.9095" x2="306.0456" y2="62.6681" gradientTransform="matrix(-1 0 0 1 526.8986 0)">
				<stop  offset="0" style="stop-color:#0F123B"/>
				<stop  offset="7.442091e-002" style="stop-color:#141754"/>
				<stop  offset="0.2081" style="stop-color:#1B1F7A"/>
				<stop  offset="0.3474" style="stop-color:#212599"/>
				<stop  offset="0.4915" style="stop-color:#262AB2"/>
				<stop  offset="0.6426" style="stop-color:#292DC3"/>
				<stop  offset="0.8051" style="stop-color:#2B2FCE"/>
				<stop  offset="0.9993" style="stop-color:#2C30D1"/>
			</linearGradient>
			<path id="XMLID_219_" class="st49" d="M353,271c2,0,4.1-1.6,4.1-4.1v-87.6c0-1.5-0.8-2.8-2.1-3.6L249.9,115
				c-0.6-0.4-1.3-0.6-2.1-0.6c-2,0-4.1,1.6-4.1,4.1v87.6c0,1.5,0.8,2.8,2.1,3.6L351,270.4C351.6,270.8,352.3,271,353,271z"/>
			<g id="XMLID_220_">
				
					<linearGradient id="XMLID_382_" gradientUnits="userSpaceOnUse" x1="270.5063" y1="100.1243" x2="153.0061" y2="240.1242" gradientTransform="matrix(-1 0 0 1 526.8986 0)">
					<stop  offset="0" style="stop-color:#E4F2FF"/>
					<stop  offset="5.554383e-002" style="stop-color:#E1EFFF"/>
					<stop  offset="0.6478" style="stop-color:#C7D7FB"/>
					<stop  offset="0.9993" style="stop-color:#BDCEFA"/>
				</linearGradient>
				<path id="XMLID_221_" class="st50" d="M359.3,266.9v-87.6c0-2.2-1.2-4.3-3.1-5.4l-105.2-60.8c-1.7-1-3.7-1.1-5.3-0.4l0,0
					l2.5-1.3c1.9-1.4,4.5-1.7,6.8-0.4l105.2,60.8c1.9,1.1,3.1,3.2,3.1,5.4v87.6c0,2.1-1,3.9-2.6,5v0l-0.1,0
					c-0.4,0.3-0.9,0.5-1.3,0.7l-2.8,1.5C358.1,270.9,359.3,269.1,359.3,266.9z"/>
				
					<linearGradient id="XMLID_385_" gradientUnits="userSpaceOnUse" x1="196.8676" y1="242.4583" x2="146.2182" y2="302.8063" gradientTransform="matrix(-1 0 0 1 526.8986 0)">
					<stop  offset="0" style="stop-color:#E4F2FF"/>
					<stop  offset="5.554383e-002" style="stop-color:#E1EFFF"/>
					<stop  offset="0.6478" style="stop-color:#C7D7FB"/>
					<stop  offset="0.9993" style="stop-color:#BDCEFA"/>
				</linearGradient>
				<path id="XMLID_222_" class="st51" d="M355.4,272.6L355.4,272.6L355.4,272.6C355.4,272.6,355.4,272.6,355.4,272.6z"/>
			</g>
		</g>
		<g id="XMLID_223_">
			<path id="XMLID_224_" class="st0" d="M349.9,283l-75.8,43.8c-1.9,1.1-4.3,1.1-6.2,0L162.6,266c-4.1-2.4-4.1-8.4,0-10.8l75.8-43.8
				c1.9-1.1,4.3-1.1,6.2,0l105.2,60.8C354.1,274.6,354.1,280.6,349.9,283z"/>
			
				<linearGradient id="XMLID_391_" gradientUnits="userSpaceOnUse" x1="397.0303" y1="281.6067" x2="216.0753" y2="305.3457" gradientTransform="matrix(-1 0 0 1 526.8986 0)">
				<stop  offset="0" style="stop-color:#E4F2FF"/>
				<stop  offset="5.554383e-002" style="stop-color:#E1EFFF"/>
				<stop  offset="0.6478" style="stop-color:#C7D7FB"/>
				<stop  offset="0.9993" style="stop-color:#BDCEFA"/>
			</linearGradient>
			<path id="XMLID_561_" class="st52" d="M159.6,260.9v5.2c0,0.1,0,0.3,0,0.4v0.1l0,0c0.1,2,1.1,4,3.1,5.1l105.2,60.8
				c1.9,1.1,4.3,1.1,6.2,0l75.8-43.8c2.1-1.2,3.1-3.3,3.1-5.4v-5.7c0,2.1-1,4.2-3.1,5.4l-75.8,43.8c-1.9,1.1-4.3,1.1-6.2,0
				L162.6,266C160.6,264.9,159.6,262.9,159.6,260.9z M159.6,260.4L159.6,260.4C159.6,260.4,159.6,260.4,159.6,260.4L159.6,260.4z"/>
			<path id="XMLID_560_" class="st53" d="M201.9,248.9l90.4,52.2c3.5,2,9.7,1.8,13.8-0.6l27.2-15.7c4.1-2.4,4.5-5.9,1-7.9
				l-90.4-52.2c-3.5-2-9.7-1.8-13.8,0.6l-27.2,15.7C198.8,243.3,198.4,246.8,201.9,248.9z"/>
			<path id="XMLID_225_" class="st54" d="M334.2,278.1l-90.4-52.2c-3.5-2-9.7-1.8-13.8,0.6l-27.2,15.7c-1.9,1.1-3,2.5-3.3,3.9
				c-0.4-1.7,0.8-3.7,3.3-5.1l27.2-15.7c4.1-2.4,10.2-2.6,13.8-0.6l90.4,52.2c1.8,1.1,2.6,2.5,2.3,4.1
				C336.3,279.8,335.5,278.8,334.2,278.1z"/>
			<path id="XMLID_545_" class="st54" d="M266.1,251.3l4.8-2.8l-4.8-2.8l-4.8,2.8L266.1,251.3z M275.5,256.7l4.8-2.8l-4.8-2.8
				l-4.8,2.8L275.5,256.7z M256.6,245.8l4.8-2.8l-4.8-2.8l-4.8,2.8L256.6,245.8z M229.3,243.2l-10-5.8l-4.8,2.8l10,5.8L229.3,243.2z
				 M227.4,238.3l4.8-2.8l-4.8-2.8l-4.8,2.8L227.4,238.3z M247.2,240.4l4.8-2.8l-4.8-2.8l-4.8,2.8L247.2,240.4z M284.9,262.1
				l4.8-2.8l-4.8-2.8l-4.8,2.8L284.9,262.1z M226.1,246.9l82.6,47.7l4.8-2.8l-82.6-47.7L226.1,246.9z M294.3,267.6l4.8-2.8l-4.8-2.8
				l-4.8,2.8L294.3,267.6z M229.9,239.7l86.9,50.2l4.8-2.8L234.7,237L229.9,239.7z M206.4,244.9l94.2,54.4l4.8-2.8l-94.2-54.4
				L206.4,244.9z M313.2,278.5l4.8-2.8l-4.8-2.8l-4.8,2.8L313.2,278.5z M303.7,273l4.8-2.8l-4.8-2.8l-4.8,2.8L303.7,273z"/>
			<path id="XMLID_531_" class="st55" d="M266.1,250.4l4.8-2.8l-4.8-2.8l-4.8,2.8L266.1,250.4z M275.5,255.9l4.8-2.8l-4.8-2.8
				l-4.8,2.8L275.5,255.9z M256.6,245l4.8-2.8l-4.8-2.8l-4.8,2.8L256.6,245z M229.3,242.4l-10-5.8l-4.8,2.8l10,5.8L229.3,242.4z
				 M227.4,237.5l4.8-2.8l-4.8-2.8l-4.8,2.8L227.4,237.5z M247.2,239.6l4.8-2.8l-4.8-2.8l-4.8,2.8L247.2,239.6z M284.9,261.3
				l4.8-2.8l-4.8-2.8l-4.8,2.8L284.9,261.3z M226.1,246.1l82.6,47.7l4.8-2.8l-82.6-47.7L226.1,246.1z M294.3,266.8l4.8-2.8l-4.8-2.8
				l-4.8,2.8L294.3,266.8z M229.9,238.9l86.9,50.2l4.8-2.8l-86.9-50.2L229.9,238.9z M206.4,244l94.2,54.4l4.8-2.8l-94.2-54.4
				L206.4,244z M313.2,277.6l4.8-2.8l-4.8-2.8l-4.8,2.8L313.2,277.6z M303.7,272.2l4.8-2.8l-4.8-2.8l-4.8,2.8L303.7,272.2z"/>
			<path id="XMLID_517_" class="st0" d="M261.1,242.4l0.4-0.2l-4.8-2.8l-4.8,2.8l0.4,0.2l4.4-2.6L261.1,242.4z M251.6,237l0.4-0.2
				l-4.8-2.8l-4.8,2.8l0.4,0.2l4.4-2.6L251.6,237z M270.5,247.9l0.4-0.2l-4.8-2.8l-4.8,2.8l0.4,0.2l4.4-2.6L270.5,247.9z
				 M229.3,242.4l-10-5.8l-4.8,2.8l0.4,0.2l4.4-2.6l9.6,5.6L229.3,242.4z M279.9,253.3l0.4-0.2l-4.8-2.8l-4.8,2.8l0.4,0.2l4.4-2.6
				L279.9,253.3z M231.8,234.9l0.4-0.2l-4.8-2.8l-4.8,2.8l0.4,0.2l4.4-2.6L231.8,234.9z M206.4,244l0.4,0.2l4.4-2.6l93.9,54.2
				l0.4-0.2l-94.2-54.4L206.4,244z M234.7,236.6l86.5,50l0.4-0.2l-86.9-50.2l-4.8,2.8l0.4,0.2L234.7,236.6z M317.6,275.1l0.4-0.2
				l-4.8-2.8l-4.8,2.8l0.4,0.2l4.4-2.6L317.6,275.1z M230.9,243.7l82.2,47.5l0.4-0.2l-82.6-47.7l-4.8,2.8l0.4,0.2L230.9,243.7z
				 M308.2,269.6l0.4-0.2l-4.8-2.8l-4.8,2.8l0.4,0.2l4.4-2.6L308.2,269.6z M289.3,258.8l0.4-0.2l-4.8-2.8l-4.8,2.8l0.4,0.2l4.4-2.6
				L289.3,258.8z M298.8,264.2l0.4-0.2l-4.8-2.8l-4.8,2.8l0.4,0.2l4.4-2.6L298.8,264.2z"/>
			<path id="XMLID_516_" class="st53" d="M209.3,279.5l28.2,16.3c1.7,1,4.8,0.9,6.8-0.3l6.2-3.6c2-1.2,2.2-2.9,0.5-4l-28.2-16.3
				c-1.7-1-4.8-0.9-6.8,0.3l-6.2,3.6C207.7,276.7,207.5,278.5,209.3,279.5z"/>
			<path id="XMLID_228_" class="st54" d="M251,288.8l-28.2-16.3c-1.7-1-4.8-0.9-6.8,0.3l-6.2,3.6c-0.9,0.5-1.4,1.2-1.6,1.8
				c-0.2-0.9,0.3-1.9,1.6-2.7l6.2-3.6c2-1.2,5.1-1.3,6.8-0.3L251,288c1,0.6,1.3,1.3,1.1,2.1C251.9,289.6,251.6,289.1,251,288.8z"/>
		</g>
		<g id="XMLID_268_">
			<g id="XMLID_269_">
				<path id="XMLID_513_" class="st0" d="M258.6,145v-3.2c0-2.8,2-3.9,4.4-2.5l75,43.3c2.4,1.4,4.4,4.8,4.4,7.6v3.2L258.6,145z"/>
				<g id="XMLID_270_">
					<path id="XMLID_512_" class="st0" d="M334.5,184.8c0,1.1,0.8,2.5,1.8,3c1,0.6,1.8,0.1,1.8-1c0-1.1-0.8-2.5-1.8-3
						C335.3,183.2,334.5,183.6,334.5,184.8z"/>
					<path id="XMLID_511_" class="st0" d="M328.4,181.2c0,1.1,0.8,2.5,1.8,3c1,0.6,1.8,0.1,1.8-1c0-1.1-0.8-2.5-1.8-3
						S328.4,180.1,328.4,181.2z"/>
					<path id="XMLID_510_" class="st0" d="M322.2,177.6c0,1.1,0.8,2.5,1.8,3c1,0.6,1.8,0.1,1.8-1c0-1.1-0.8-2.5-1.8-3
						C323,176.1,322.2,176.5,322.2,177.6z"/>
				</g>
				<polygon id="XMLID_508_" class="st56" points="329,201.4 342.3,209 342.3,197 329,189.3 				"/>
				<polygon id="XMLID_507_" class="st57" points="312.5,191.8 325.7,199.5 325.7,187.4 312.5,179.8 				"/>
				<polygon id="XMLID_506_" class="st36" points="295.9,182.2 309.2,189.9 309.2,177.8 295.9,170.2 				"/>
				
					<linearGradient id="XMLID_393_" gradientUnits="userSpaceOnUse" x1="235.5595" y1="168.889" x2="268.3224" y2="168.889" gradientTransform="matrix(-1 0 0 1 526.8986 0)">
					<stop  offset="0" style="stop-color:#FCFDFF;stop-opacity:0"/>
					<stop  offset="0.1691" style="stop-color:#E6E9F5;stop-opacity:0.1692"/>
					<stop  offset="0.5389" style="stop-color:#BBC3E2;stop-opacity:0.5392"/>
					<stop  offset="0.8281" style="stop-color:#A1ABD5;stop-opacity:0.8287"/>
					<stop  offset="0.9993" style="stop-color:#97A2D1"/>
				</linearGradient>
				<polygon id="XMLID_505_" class="st58" points="291.3,179.6 258.6,160.7 258.6,158.2 291.3,177.1 				"/>
				
					<linearGradient id="XMLID_395_" gradientUnits="userSpaceOnUse" x1="235.5595" y1="164.1295" x2="268.3224" y2="164.1295" gradientTransform="matrix(-1 0 0 1 526.8986 0)">
					<stop  offset="0" style="stop-color:#FCFDFF;stop-opacity:0"/>
					<stop  offset="0.1691" style="stop-color:#E6E9F5;stop-opacity:0.1692"/>
					<stop  offset="0.5389" style="stop-color:#BBC3E2;stop-opacity:0.5392"/>
					<stop  offset="0.8281" style="stop-color:#A1ABD5;stop-opacity:0.8287"/>
					<stop  offset="0.9993" style="stop-color:#97A2D1"/>
				</linearGradient>
				<polygon id="XMLID_504_" class="st59" points="291.3,174.9 258.6,155.9 258.6,153.4 291.3,172.3 				"/>
				
					<linearGradient id="XMLID_398_" gradientUnits="userSpaceOnUse" x1="235.5595" y1="159.3701" x2="268.3224" y2="159.3701" gradientTransform="matrix(-1 0 0 1 526.8986 0)">
					<stop  offset="0" style="stop-color:#FCFDFF;stop-opacity:0"/>
					<stop  offset="0.1691" style="stop-color:#E6E9F5;stop-opacity:0.1692"/>
					<stop  offset="0.5389" style="stop-color:#BBC3E2;stop-opacity:0.5392"/>
					<stop  offset="0.8281" style="stop-color:#A1ABD5;stop-opacity:0.8287"/>
					<stop  offset="0.9993" style="stop-color:#97A2D1"/>
				</linearGradient>
				<polygon id="XMLID_503_" class="st60" points="291.3,170.1 258.6,151.2 258.6,148.6 291.3,167.6 				"/>
				<path id="XMLID_502_" class="st0" d="M261.5,188.2l77.9,45c1.6,0.9,2.9-0.1,2.9-2.2v-14.5c0-2.1-1.3-4.6-2.9-5.5l-77.9-45
					c-1.6-0.9-2.9,0.1-2.9,2.2v14.5C258.6,184.9,259.9,187.3,261.5,188.2z"/>
				<g id="XMLID_271_">
					<polygon id="XMLID_501_" class="st56" points="308.1,211.9 318.2,217.8 318.2,205.2 308.1,199.3 					"/>
					<polygon id="XMLID_500_" class="st36" points="295.3,204.6 305.5,210.4 305.5,199.9 295.3,194 					"/>
					<polygon id="XMLID_499_" class="st57" points="282.6,197.2 292.8,203.1 292.8,187.7 282.6,181.8 					"/>
				</g>
				
					<linearGradient id="XMLID_401_" gradientUnits="userSpaceOnUse" x1="246.0187" y1="194.1364" x2="270.9511" y2="178.8133" gradientTransform="matrix(-1 0 0 1 526.8986 0)">
					<stop  offset="0" style="stop-color:#FCFDFF;stop-opacity:0"/>
					<stop  offset="0.1367" style="stop-color:#EBF8FC;stop-opacity:0.1367"/>
					<stop  offset="0.5212" style="stop-color:#C0EDF6;stop-opacity:0.5212"/>
					<stop  offset="0.822" style="stop-color:#A6E6F2;stop-opacity:0.822"/>
					<stop  offset="1" style="stop-color:#9CE3F0"/>
				</linearGradient>
				<polygon id="XMLID_497_" class="st61" points="264.2,185.1 261.5,183.6 261.5,181 264.2,182.6 				"/>
				
					<linearGradient id="XMLID_404_" gradientUnits="userSpaceOnUse" x1="243.8955" y1="190.6818" x2="268.828" y2="175.3587" gradientTransform="matrix(-1 0 0 1 526.8986 0)">
					<stop  offset="0" style="stop-color:#FCFDFF;stop-opacity:0"/>
					<stop  offset="0.1367" style="stop-color:#EBF8FC;stop-opacity:0.1367"/>
					<stop  offset="0.5212" style="stop-color:#C0EDF6;stop-opacity:0.5212"/>
					<stop  offset="0.822" style="stop-color:#A6E6F2;stop-opacity:0.822"/>
					<stop  offset="1" style="stop-color:#9CE3F0"/>
				</linearGradient>
				<polygon id="XMLID_496_" class="st62" points="264.2,180.4 261.5,178.8 261.5,176.3 264.2,177.8 				"/>
				
					<linearGradient id="XMLID_405_" gradientUnits="userSpaceOnUse" x1="241.7724" y1="187.2271" x2="266.7048" y2="171.904" gradientTransform="matrix(-1 0 0 1 526.8986 0)">
					<stop  offset="0" style="stop-color:#FCFDFF;stop-opacity:0"/>
					<stop  offset="0.1367" style="stop-color:#EBF8FC;stop-opacity:0.1367"/>
					<stop  offset="0.5212" style="stop-color:#C0EDF6;stop-opacity:0.5212"/>
					<stop  offset="0.822" style="stop-color:#A6E6F2;stop-opacity:0.822"/>
					<stop  offset="1" style="stop-color:#9CE3F0"/>
				</linearGradient>
				<polygon id="XMLID_495_" class="st63" points="264.2,175.6 261.5,174 261.5,171.5 264.2,173.1 				"/>
				
					<linearGradient id="XMLID_411_" gradientUnits="userSpaceOnUse" x1="245.8564" y1="193.8724" x2="270.7889" y2="178.5493" gradientTransform="matrix(-1 0 0 1 526.8986 0)">
					<stop  offset="0" style="stop-color:#FCFDFF;stop-opacity:0"/>
					<stop  offset="0.1367" style="stop-color:#EBF8FC;stop-opacity:0.1367"/>
					<stop  offset="0.5212" style="stop-color:#C0EDF6;stop-opacity:0.5212"/>
					<stop  offset="0.822" style="stop-color:#A6E6F2;stop-opacity:0.822"/>
					<stop  offset="1" style="stop-color:#9CE3F0"/>
				</linearGradient>
				<polygon id="XMLID_494_" class="st64" points="279.7,194.1 265.6,185.9 265.6,183.4 279.7,191.5 				"/>
				
					<linearGradient id="XMLID_416_" gradientUnits="userSpaceOnUse" x1="243.7333" y1="190.4178" x2="268.6658" y2="175.0947" gradientTransform="matrix(-1 0 0 1 526.8986 0)">
					<stop  offset="0" style="stop-color:#FCFDFF;stop-opacity:0"/>
					<stop  offset="0.1367" style="stop-color:#EBF8FC;stop-opacity:0.1367"/>
					<stop  offset="0.5212" style="stop-color:#C0EDF6;stop-opacity:0.5212"/>
					<stop  offset="0.822" style="stop-color:#A6E6F2;stop-opacity:0.822"/>
					<stop  offset="1" style="stop-color:#9CE3F0"/>
				</linearGradient>
				<polygon id="XMLID_493_" class="st65" points="279.7,189.3 265.6,181.1 265.6,178.6 279.7,186.8 				"/>
				
					<linearGradient id="XMLID_417_" gradientUnits="userSpaceOnUse" x1="241.6101" y1="186.9632" x2="266.5426" y2="171.6401" gradientTransform="matrix(-1 0 0 1 526.8986 0)">
					<stop  offset="0" style="stop-color:#FCFDFF;stop-opacity:0"/>
					<stop  offset="0.1367" style="stop-color:#EBF8FC;stop-opacity:0.1367"/>
					<stop  offset="0.5212" style="stop-color:#C0EDF6;stop-opacity:0.5212"/>
					<stop  offset="0.822" style="stop-color:#A6E6F2;stop-opacity:0.822"/>
					<stop  offset="1" style="stop-color:#9CE3F0"/>
				</linearGradient>
				<polygon id="XMLID_492_" class="st66" points="279.7,184.5 265.6,176.4 265.6,173.8 279.7,182 				"/>
				
					<linearGradient id="XMLID_424_" gradientUnits="userSpaceOnUse" x1="208.6399" y1="203.555" x2="180.4385" y2="222.6745" gradientTransform="matrix(-1 0 0 1 526.8986 0)">
					<stop  offset="0" style="stop-color:#FCFDFF;stop-opacity:0"/>
					<stop  offset="0.1691" style="stop-color:#E6E9F5;stop-opacity:0.1692"/>
					<stop  offset="0.5389" style="stop-color:#BBC3E2;stop-opacity:0.5392"/>
					<stop  offset="0.8281" style="stop-color:#A1ABD5;stop-opacity:0.8287"/>
					<stop  offset="0.9993" style="stop-color:#97A2D1"/>
				</linearGradient>
				<polygon id="XMLID_491_" class="st67" points="336.5,214.8 339.2,216.4 339.2,218.9 336.5,217.3 				"/>
				
					<linearGradient id="XMLID_426_" gradientUnits="userSpaceOnUse" x1="210.8505" y1="206.8157" x2="182.6492" y2="225.9352" gradientTransform="matrix(-1 0 0 1 526.8986 0)">
					<stop  offset="0" style="stop-color:#FCFDFF;stop-opacity:0"/>
					<stop  offset="0.1691" style="stop-color:#E6E9F5;stop-opacity:0.1692"/>
					<stop  offset="0.5389" style="stop-color:#BBC3E2;stop-opacity:0.5392"/>
					<stop  offset="0.8281" style="stop-color:#A1ABD5;stop-opacity:0.8287"/>
					<stop  offset="0.9993" style="stop-color:#97A2D1"/>
				</linearGradient>
				<polygon id="XMLID_490_" class="st68" points="336.5,219.6 339.2,221.1 339.2,223.7 336.5,222.1 				"/>
				
					<linearGradient id="XMLID_428_" gradientUnits="userSpaceOnUse" x1="213.0612" y1="210.0764" x2="184.8599" y2="229.196" gradientTransform="matrix(-1 0 0 1 526.8986 0)">
					<stop  offset="0" style="stop-color:#FCFDFF;stop-opacity:0"/>
					<stop  offset="0.1691" style="stop-color:#E6E9F5;stop-opacity:0.1692"/>
					<stop  offset="0.5389" style="stop-color:#BBC3E2;stop-opacity:0.5392"/>
					<stop  offset="0.8281" style="stop-color:#A1ABD5;stop-opacity:0.8287"/>
					<stop  offset="0.9993" style="stop-color:#97A2D1"/>
				</linearGradient>
				<polygon id="XMLID_489_" class="st69" points="336.5,224.3 339.2,225.9 339.2,228.4 336.5,226.8 				"/>
				
					<linearGradient id="XMLID_429_" gradientUnits="userSpaceOnUse" x1="209.0963" y1="204.2282" x2="180.895" y2="223.3477" gradientTransform="matrix(-1 0 0 1 526.8986 0)">
					<stop  offset="0" style="stop-color:#FCFDFF;stop-opacity:0"/>
					<stop  offset="0.1691" style="stop-color:#E6E9F5;stop-opacity:0.1692"/>
					<stop  offset="0.5389" style="stop-color:#BBC3E2;stop-opacity:0.5392"/>
					<stop  offset="0.8281" style="stop-color:#A1ABD5;stop-opacity:0.8287"/>
					<stop  offset="0.9993" style="stop-color:#97A2D1"/>
				</linearGradient>
				<polygon id="XMLID_488_" class="st70" points="321,205.9 335.2,214 335.2,216.6 321,208.4 				"/>
				
					<linearGradient id="XMLID_432_" gradientUnits="userSpaceOnUse" x1="211.307" y1="207.489" x2="183.1057" y2="226.6085" gradientTransform="matrix(-1 0 0 1 526.8986 0)">
					<stop  offset="0" style="stop-color:#FCFDFF;stop-opacity:0"/>
					<stop  offset="0.1691" style="stop-color:#E6E9F5;stop-opacity:0.1692"/>
					<stop  offset="0.5389" style="stop-color:#BBC3E2;stop-opacity:0.5392"/>
					<stop  offset="0.8281" style="stop-color:#A1ABD5;stop-opacity:0.8287"/>
					<stop  offset="0.9993" style="stop-color:#97A2D1"/>
				</linearGradient>
				<polygon id="XMLID_487_" class="st71" points="321,210.6 335.2,218.8 335.2,221.3 321,213.1 				"/>
				
					<linearGradient id="XMLID_433_" gradientUnits="userSpaceOnUse" x1="213.5177" y1="210.7497" x2="185.3163" y2="229.8692" gradientTransform="matrix(-1 0 0 1 526.8986 0)">
					<stop  offset="0" style="stop-color:#FCFDFF;stop-opacity:0"/>
					<stop  offset="0.1691" style="stop-color:#E6E9F5;stop-opacity:0.1692"/>
					<stop  offset="0.5389" style="stop-color:#BBC3E2;stop-opacity:0.5392"/>
					<stop  offset="0.8281" style="stop-color:#A1ABD5;stop-opacity:0.8287"/>
					<stop  offset="0.9993" style="stop-color:#97A2D1"/>
				</linearGradient>
				<polygon id="XMLID_486_" class="st72" points="321,215.4 335.2,223.5 335.2,226.1 321,217.9 				"/>
			</g>
			<path id="XMLID_484_" class="st0" d="M264.2,202.1l71.3,41.2c1.5,0.9,2.7-0.1,2.7-2l0,0c0-2-1.2-4.3-2.7-5.1l-71.3-41.2
				c-1.5-0.9-2.7,0.1-2.7,2l0,0C261.5,198.9,262.7,201.3,264.2,202.1z"/>
		</g>
	</g>
	<g id="XMLID_272_">
		<g id="XMLID_273_">
			
				<linearGradient id="XMLID_435_" gradientUnits="userSpaceOnUse" x1="195.1891" y1="166.3411" x2="119.1003" y2="300.1711" gradientTransform="matrix(-1 0 0 1 526.8986 0)">
				<stop  offset="0" style="stop-color:#E4F2FF"/>
				<stop  offset="0.3075" style="stop-color:#D7E6FD;stop-opacity:0.6923"/>
				<stop  offset="0.9993" style="stop-color:#BDCEFA;stop-opacity:0"/>
			</linearGradient>
			<path id="XMLID_481_" class="st73" d="M338.4,255.1l67.6,39c2.1,1.2,3.8-0.1,3.8-2.9v-63.9c0-2.8-1.7-6.1-3.8-7.3l-67.6-39
				c-2.1-1.2-3.8,0.1-3.8,2.9v63.9C334.6,250.7,336.3,253.9,338.4,255.1z"/>
			<g id="XMLID_274_">
				
					<linearGradient id="XMLID_436_" gradientUnits="userSpaceOnUse" x1="201.062" y1="184.8929" x2="147.2034" y2="277.3213" gradientTransform="matrix(-1 0 0 1 526.8986 0)">
					<stop  offset="0" style="stop-color:#E4F2FF"/>
					<stop  offset="5.554383e-002" style="stop-color:#E1EFFF"/>
					<stop  offset="0.6478" style="stop-color:#C7D7FB"/>
					<stop  offset="0.9993" style="stop-color:#BDCEFA"/>
				</linearGradient>
				<polygon id="XMLID_480_" class="st74" points="340.5,248.6 404,285.2 404,280.5 340.5,243.8 				"/>
				
					<linearGradient id="XMLID_441_" gradientUnits="userSpaceOnUse" x1="186.4814" y1="176.3967" x2="132.6228" y2="268.8251" gradientTransform="matrix(-1 0 0 1 526.8986 0)">
					<stop  offset="0" style="stop-color:#E4F2FF"/>
					<stop  offset="5.554383e-002" style="stop-color:#E1EFFF"/>
					<stop  offset="0.6478" style="stop-color:#C7D7FB"/>
					<stop  offset="0.9993" style="stop-color:#BDCEFA"/>
				</linearGradient>
				<path id="XMLID_479_" class="st75" d="M352.6,219.7c0,12.5,8.8,27.7,19.6,34c10.8,6.3,19.6,1.2,19.6-11.3
					c0-12.5-8.8-27.7-19.6-34C361.4,202.1,352.6,207.2,352.6,219.7z"/>
			</g>
		</g>
		<g id="XMLID_275_">
			
				<linearGradient id="XMLID_458_" gradientUnits="userSpaceOnUse" x1="328.7641" y1="73.3028" x2="266.974" y2="201.8658" gradientTransform="matrix(-1 0 0 1 526.8986 0)">
				<stop  offset="0" style="stop-color:#E4F2FF"/>
				<stop  offset="0.3075" style="stop-color:#D7E6FD;stop-opacity:0.6923"/>
				<stop  offset="0.9993" style="stop-color:#BDCEFA;stop-opacity:0"/>
			</linearGradient>
			<path id="XMLID_476_" class="st76" d="M199.6,157.1l67.6,39c2.1,1.2,3.8-0.1,3.8-2.9v-49.9c0-2.8-1.7-6.1-3.8-7.3l-67.6-39
				c-2.1-1.2-3.8,0.1-3.8,2.9v49.9C195.8,152.7,197.5,155.9,199.6,157.1z"/>
			<g id="XMLID_276_">
				
					<linearGradient id="XMLID_459_" gradientUnits="userSpaceOnUse" x1="341.1238" y1="122.615" x2="258.7181" y2="195.3775" gradientTransform="matrix(-1 0 0 1 526.8986 0)">
					<stop  offset="0" style="stop-color:#E4F2FF"/>
					<stop  offset="5.554383e-002" style="stop-color:#E1EFFF"/>
					<stop  offset="0.6478" style="stop-color:#C7D7FB"/>
					<stop  offset="0.9993" style="stop-color:#BDCEFA"/>
				</linearGradient>
				<polygon id="XMLID_475_" class="st77" points="201.7,148.7 265.1,185.4 265.1,180.6 201.7,144 				"/>
				
					<linearGradient id="XMLID_462_" gradientUnits="userSpaceOnUse" x1="336.2868" y1="117.137" x2="253.8811" y2="189.8995" gradientTransform="matrix(-1 0 0 1 526.8986 0)">
					<stop  offset="0" style="stop-color:#E4F2FF"/>
					<stop  offset="5.554383e-002" style="stop-color:#E1EFFF"/>
					<stop  offset="0.6478" style="stop-color:#C7D7FB"/>
					<stop  offset="0.9993" style="stop-color:#BDCEFA"/>
				</linearGradient>
				<polygon id="XMLID_474_" class="st78" points="201.7,139 265.1,175.6 265.1,170.8 201.7,134.2 				"/>
				<g id="XMLID_277_">
					
						<linearGradient id="XMLID_463_" gradientUnits="userSpaceOnUse" x1="323.6131" y1="102.7836" x2="241.2076" y2="175.5459" gradientTransform="matrix(-1 0 0 1 526.8986 0)">
						<stop  offset="0" style="stop-color:#E4F2FF"/>
						<stop  offset="5.554383e-002" style="stop-color:#E1EFFF"/>
						<stop  offset="0.6478" style="stop-color:#C7D7FB"/>
						<stop  offset="0.9993" style="stop-color:#BDCEFA"/>
					</linearGradient>
					<polygon id="XMLID_473_" class="st79" points="246.8,153.6 263.8,163.5 263.8,143.8 246.8,134 					"/>
					
						<linearGradient id="XMLID_464_" gradientUnits="userSpaceOnUse" x1="326.9376" y1="106.5487" x2="244.5321" y2="179.3109" gradientTransform="matrix(-1 0 0 1 526.8986 0)">
						<stop  offset="0" style="stop-color:#E4F2FF"/>
						<stop  offset="5.554383e-002" style="stop-color:#E1EFFF"/>
						<stop  offset="0.6478" style="stop-color:#C7D7FB"/>
						<stop  offset="0.9993" style="stop-color:#BDCEFA"/>
					</linearGradient>
					<polygon id="XMLID_472_" class="st80" points="224.9,141 241.9,150.8 241.9,131.1 224.9,121.3 					"/>
					
						<linearGradient id="XMLID_465_" gradientUnits="userSpaceOnUse" x1="330.2621" y1="110.3137" x2="247.8564" y2="183.0761" gradientTransform="matrix(-1 0 0 1 526.8986 0)">
						<stop  offset="0" style="stop-color:#E4F2FF"/>
						<stop  offset="5.554383e-002" style="stop-color:#E1EFFF"/>
						<stop  offset="0.6478" style="stop-color:#C7D7FB"/>
						<stop  offset="0.9993" style="stop-color:#BDCEFA"/>
					</linearGradient>
					<polygon id="XMLID_471_" class="st81" points="202.9,128.3 220,138.2 220,118.5 202.9,108.6 					"/>
				</g>
			</g>
		</g>
	</g>
	<g id="XMLID_439_">
		<g id="XMLID_279_">
			<path id="XMLID_466_" class="st7" d="M389.8,375.3l36.3,21c2.6,1.5,7.3,1.3,10.4-0.4l34.8-20.1c3.1-1.8,3.4-4.5,0.7-6l-36.3-21
				c-2.6-1.5-7.3-1.3-10.4,0.4l-34.8,20.1C387.5,371.1,387.1,373.8,389.8,375.3z"/>
			<g id="XMLID_280_">
				
					<linearGradient id="XMLID_467_" gradientUnits="userSpaceOnUse" x1="140.9032" y1="371.5236" x2="57.4985" y2="539.6465" gradientTransform="matrix(-1 0 0 1 526.8986 0)">
					<stop  offset="0" style="stop-color:#E4F2FF"/>
					<stop  offset="5.554383e-002" style="stop-color:#E1EFFF"/>
					<stop  offset="0.6478" style="stop-color:#C7D7FB"/>
					<stop  offset="0.9993" style="stop-color:#BDCEFA"/>
				</linearGradient>
				<path id="XMLID_281_" class="st82" d="M388,439.3v-66.1l0,0v0c0.2,0.8,0.7,1.5,1.7,2.1l36.3,21c1.3,0.7,3,1.1,4.8,1v67
					c-1.8,0-3.5-0.3-4.8-1l-36.3-21C388.4,441.5,387.8,440.4,388,439.3z"/>
				
					<linearGradient id="XMLID_468_" gradientUnits="userSpaceOnUse" x1="130.7607" y1="338.9843" x2="55.2026" y2="446.0251" gradientTransform="matrix(-1 0 0 1 526.8986 0)">
					<stop  offset="0" style="stop-color:#E4F2FF"/>
					<stop  offset="5.554383e-002" style="stop-color:#E1EFFF"/>
					<stop  offset="0.6478" style="stop-color:#C7D7FB"/>
					<stop  offset="0.9993" style="stop-color:#BDCEFA"/>
				</linearGradient>
				<path id="XMLID_282_" class="st83" d="M436.4,395.9l34.8-20.1c1.5-0.8,2.3-1.9,2.5-2.9v66.1c0.3,1.3-0.6,2.8-2.5,3.9l-34.8,20.1
					c-1.6,0.9-3.6,1.4-5.6,1.4v-67C432.8,397.3,434.9,396.8,436.4,395.9z"/>
			</g>
		</g>
		<g id="XMLID_440_">
			<path id="XMLID_461_" class="st84" d="M416.3,366.9c0,15.5,10.9,21.8,24.4,14.1c13.5-7.8,24.4-26.7,24.4-42.2
				c0-15.5-10.9-21.8-24.4-14.1C427.2,332.4,416.3,351.3,416.3,366.9z"/>
			<path id="XMLID_460_" class="st11" d="M418.7,365.5c0,14,9.8,19.7,21.9,12.7c12.1-7,21.9-24,21.9-38c0-14-9.8-19.7-21.9-12.7
				C428.5,334.5,418.7,351.5,418.7,365.5z"/>
			<g id="XMLID_284_">
				<path id="XMLID_285_" class="st12" d="M428,317.3c6.8-3.9,12.9-4.3,17.3-1.7l12.5,7.2l0,0c-4.4-2.5-10.5-2.1-17.2,1.7
					c-13.5,7.8-24.4,26.7-24.4,42.2c0,7.7,2.7,13.2,7.1,15.7l0,0l-12.5-7.2c-4.4-2.5-7.2-8-7.2-15.8
					C403.6,344,414.5,325.1,428,317.3z"/>
			</g>
			<g id="XMLID_286_">
				<path id="XMLID_457_" class="st0" d="M446.8,357.6c-1,0-2.1,0.3-3.2,0.6c-0.1,0-0.2,0.1-0.3,0.1c-0.7,0.2-1.3,0.5-2,0.9v-6.1
					l6.6-3.8C447.7,352.1,447.4,354.9,446.8,357.6z"/>
				<path id="XMLID_456_" class="st0" d="M433.9,347c-0.1,0-0.3,0-0.4,0c-0.1,0-0.2,0-0.3,0c-0.8-0.1-1.5-0.2-2.2-0.5
					c1.7-2.8,3.6-5.2,5.8-7.1c-0.7,1.2-1.3,2.6-1.9,4.2C434.5,344.7,434.2,345.9,433.9,347z"/>
				<path id="XMLID_455_" class="st0" d="M442.4,335.6c1.2,0,2.3,0.8,3.2,2.4c0.3,0.5,0.6,1.2,0.9,1.9c-1,1.1-2,2.1-3.1,3
					c-0.1,0.1-0.2,0.2-0.3,0.2c-0.6,0.5-1.2,0.9-1.9,1.4v-8.3c0.1-0.1,0.1,0,0.1-0.1C441.7,336,442,335.8,442.4,335.6z"/>
				<path id="XMLID_454_" class="st0" d="M443.4,359.5c1.1-0.4,2.1-0.5,3.1-0.6c-0.3,1-0.5,1.9-0.9,2.8c-0.9,2.6-2,4.8-3.2,6.2
					c-0.4,0.3-0.7,0.5-1.1,0.7c0,0,0,0-0.1,0.1v-8.3c0.7-0.3,1.3-0.6,1.9-0.8C443.2,359.5,443.3,359.5,443.4,359.5z"/>
				<path id="XMLID_453_" class="st0" d="M443.6,344c1.1-0.9,2.2-2,3.2-3.1c0.6,2,0.9,4.5,1,7.2l-6.6,3.8v-6.1
					c0.8-0.5,1.4-0.9,2-1.5C443.3,344.2,443.4,344.1,443.6,344z"/>
				<path id="XMLID_452_" class="st0" d="M447.6,340c0.2-0.2,0.4-0.4,0.5-0.6c0.1-0.1,0.2-0.2,0.3-0.4c0.8-1.1,1.6-2.2,2.3-3.3
					c2.5,1.5,3.9,4.4,4,8.4l-6.1,3.5C448.6,344.6,448.2,342.1,447.6,340z"/>
				<path id="XMLID_451_" class="st0" d="M447.3,358.9c0.1,0,0.2,0,0.4,0c0.1,0,0.2,0,0.3,0c0.7,0.1,1.4,0.3,2.1,0.6
					c-1.6,2.5-3.4,4.8-5.5,6.6c0.7-1.2,1.3-2.6,1.9-4.2C446.7,361,447,360,447.3,358.9z"/>
				<path id="XMLID_450_" class="st0" d="M448.1,357.6c-0.2,0-0.3,0-0.5,0c0.6-2.8,1-5.8,1-8.8l6.1-3.5c-0.1,4.3-1.6,8.9-4,13
					c-0.7-0.3-1.5-0.6-2.3-0.7C448.3,357.6,448.2,357.6,448.1,357.6z"/>
				<path id="XMLID_449_" class="st0" d="M447.6,338.5c-0.1,0.2-0.2,0.3-0.4,0.4c-0.3-0.7-0.6-1.4-0.9-2c-0.6-0.9-1.2-1.6-1.9-2.1
					c2-0.5,3.9-0.4,5.5,0.3c-0.6,1-1.3,2-2.1,3C447.8,338.3,447.7,338.4,447.6,338.5z"/>
				<path id="XMLID_448_" class="st0" d="M433.6,365.3c-0.2,0.2-0.4,0.4-0.5,0.7c-0.1,0.1-0.2,0.2-0.3,0.4c-0.9,1.1-1.7,2.2-2.5,3.5
					c-2.2-1.5-3.6-4.3-3.7-8.2l6.1-3.5C432.7,360.8,433,363.3,433.6,365.3z"/>
				<path id="XMLID_447_" class="st0" d="M437.9,346.2c-1.1,0.4-2.2,0.7-3.2,0.8c0.3-1.1,0.6-2.2,0.9-3.2c0.9-2.6,2-4.8,3.3-6.2
					c0.4-0.3,0.7-0.5,1.1-0.7c0,0,0.1-0.1,0.1-0.1v8.4c-0.7,0.4-1.3,0.7-1.9,0.9C438.1,346.2,438,346.2,437.9,346.2z"/>
				<path id="XMLID_446_" class="st0" d="M433.5,366.8c0.1-0.2,0.3-0.3,0.4-0.5c0.3,0.8,0.6,1.6,1,2.3c0.6,0.9,1.2,1.6,1.9,2.1
					c-2.2,0.6-4.2,0.4-5.8-0.4c0.7-1.1,1.5-2.1,2.2-3.1C433.3,367,433.4,366.9,433.5,366.8z"/>
				<path id="XMLID_445_" class="st0" d="M432.8,348.3c0.1,0,0.2,0,0.3,0c0.2,0,0.4,0,0.5,0c-0.6,2.7-0.9,5.7-0.9,8.4l-6.1,3.5
					c0.1-3.9,1.4-8.4,3.7-12.6C431,348.1,431.9,348.3,432.8,348.3z"/>
				<path id="XMLID_444_" class="st0" d="M434.4,348.3c1.1-0.1,2.2-0.4,3.3-0.8c0.1,0,0.2-0.1,0.3-0.1c0.7-0.3,1.4-0.6,2.1-1v6.1
					l-6.6,3.8C433.5,353.6,433.9,350.9,434.4,348.3z"/>
				<path id="XMLID_443_" class="st0" d="M437.7,361.4c-1.1,0.9-2.3,1.9-3.3,3c-0.5-1.9-0.8-4.3-0.9-6.9l6.6-3.8v6.1
					c-0.7,0.4-1.4,0.9-2.1,1.4C437.9,361.3,437.8,361.3,437.7,361.4z"/>
				<path id="XMLID_442_" class="st0" d="M434.7,365.4c1-1.1,2.1-2.1,3.2-2.9c0.1-0.1,0.2-0.2,0.3-0.2c0.6-0.5,1.3-0.9,1.9-1.3v8.4
					c0,0-0.1,0.1-0.1,0.1c-0.4,0.2-0.7,0.4-1.1,0.5c-1.2,0-2.3-0.8-3.3-2.4C435.3,366.9,435,366.2,434.7,365.4z"/>
			</g>
		</g>
	</g>
	<g id="XMLID_278_">
		<g id="XMLID_283_">
			<g id="XMLID_287_">
				<g id="XMLID_288_">
					<g id="XMLID_289_">
						<path id="XMLID_438_" class="st42" d="M165.9,337.2c0.3,0.1,0.4,0.5,0.5,1c0,0.2-1.6-0.9-1.5-0.4c0,0.2,1.2,7.8-1.3,10.3
							c-0.3,0.3-0.6,0.2-0.9,0.1l-0.7-0.4c-0.8-0.4-1.3-2.1-2-4.8c-0.8-2.9-1.2-4.7,2-6.6c0.9-0.5,1.4-0.7,1.7-0.5L165.9,337.2z"/>
						<path id="XMLID_437_" class="st43" d="M160,343.1c0.9,3.5,1.5,5.5,2.9,4.7c1.3-0.8,1.6-3.7,1.2-7.1c-0.4-3,1.1-6.1-2.1-4.2
							C158.8,338.4,159.2,340.2,160,343.1z"/>
					</g>
				</g>
				<path id="XMLID_434_" class="st45" d="M139.4,320.7l6.6,2.4l2.7,3c0,0,4.7,2,8.4,5.9c0,0,1.4,2.1,6.1,4.4c0,0,0,3.3-2.9,3.8
					l-18.7-10.8c-1.3-0.8-2.2-2.1-2.3-3.6C139.1,324.7,139.1,323,139.4,320.7z"/>
			</g>
		</g>
		<g id="XMLID_290_">
			<g id="XMLID_291_">
				<g id="XMLID_292_">
					<path id="XMLID_431_" class="st85" d="M153.2,353.7c0,0.3-0.2,0.6-0.7,0.9c-0.1,0.1,0-1.8-0.4-1.5c-0.1,0.1-6.2,4.8-9.6,4
						c-0.4-0.1-0.5-0.4-0.5-0.7l0-0.8c0-0.9,1.2-2.2,3.2-4.1c2.1-2.1,3.5-3.4,6.7-1.5c0.9,0.5,1.3,0.9,1.3,1.3L153.2,353.7z"/>
					<path id="XMLID_430_" class="st43" d="M145.1,351.5c-2.6,2.5-4,4-2.7,4.8c1.3,0.8,4-0.4,6.7-2.5c2.4-1.8,5.9-2,2.7-3.9
						C148.7,348.1,147.3,349.4,145.1,351.5z"/>
				</g>
			</g>
			<path id="XMLID_427_" class="st44" d="M147.7,350.3l0.2-23.3l6.3,2.1l0.1,4.3c0,0,0.6,5.1-1,10.2c0,0-1.1,2.2-0.9,7.5
				C152.5,351,149.6,352.6,147.7,350.3z"/>
		</g>
		<g id="XMLID_293_">
			<path id="XMLID_425_" class="st45" d="M130.5,317.6L130.5,317.6c1.3,0.6,2.8,0,3.3-1.3l10-22.1c0.6-1.3,0-2.8-1.3-3.3l0,0
				c-1.3-0.6-2.8,0-3.3,1.3l-10,22.1C128.6,315.5,129.2,317.1,130.5,317.6z"/>
		</g>
		<g id="XMLID_294_">
			
				<linearGradient id="XMLID_469_" gradientUnits="userSpaceOnUse" x1="399.4011" y1="308.1033" x2="380.1291" y2="300.5825" gradientTransform="matrix(-1 0 0 1 526.8986 0)">
				<stop  offset="0" style="stop-color:#E8E9FF"/>
				<stop  offset="0.9996" style="stop-color:#C0C0F6"/>
			</linearGradient>
			<polygon id="XMLID_423_" class="st86" points="129.5,315.1 145.2,306.1 145.2,293.4 129.5,302.5 			"/>
			<g id="XMLID_295_">
				<polygon id="XMLID_422_" class="st87" points="133.4,311.7 133.4,302.1 133,302.3 133,311.9 				"/>
				<polygon id="XMLID_421_" class="st87" points="134.1,308.4 134.1,301.7 133.8,301.9 133.8,308.6 				"/>
				<polygon id="XMLID_420_" class="st87" points="134.9,310.1 134.9,301.2 134.5,301.4 134.5,310.3 				"/>
				<polygon id="XMLID_419_" class="st87" points="135.6,310.4 135.6,300.8 135.3,301 135.3,310.6 				"/>
				<polygon id="XMLID_418_" class="st87" points="136.4,303.9 136.4,300.3 136.1,300.5 136.1,304.1 				"/>
			</g>
		</g>
		<path id="XMLID_415_" class="st26" d="M158.4,321.5v8.6c0,0-10.1,3.4-19.6-8.6v-8.3L158.4,321.5z"/>
		<path id="XMLID_414_" class="st88" d="M153.8,324.2c-0.1,0.1-0.2,0.1-0.3,0.1c-1.7,0.1-7.8-1.2-13.9-8.1c-0.5-0.6-0.8-1.3-0.8-2
			v-19.5c0-1.5,0.5-2.5,1.4-3l4.6-2.7c0.8-0.5,2-0.4,3.3,0.3l6.2,3.6c2.5,1.5,4.6,5,4.6,7.9v19.6c0,0.5-0.2,0.8-0.4,0.9L153.8,324.2
			z"/>
		<path id="XMLID_413_" class="st47" d="M152,294.3c0,0.5-0.3,1-0.9,1.3c-1.3,0.7-3.3,0.7-4.6,0c-0.6-0.4-1-0.9-0.9-1.3V290
			c0-0.5,0.3-1,0.9-1.3c1.3-0.7,3.3-0.7,4.6,0c0.6,0.4,1,0.9,0.9,1.3V294.3z"/>
		<g id="XMLID_296_">
			<path id="XMLID_412_" class="st41" d="M169.3,322.1L169.3,322.1c1.2-0.6,1.7-2.2,1.1-3.4l-11-21.8c-0.6-1.2-2.2-1.7-3.4-1.1l0,0
				c-1.2,0.6-1.7,2.2-1.1,3.4l11,21.8C166.5,322.3,168,322.8,169.3,322.1z"/>
		</g>
		<g id="XMLID_297_">
			<path id="XMLID_410_" class="st89" d="M140.6,280.9l-3.2,12.4c-0.3,1.2,0.9,2.2,2,1.7l7.3-3.1c0.6-0.3,1-0.9,0.9-1.6l-2.4-12.2
				c-0.3-1.3-2-1.6-2.7-0.5l-1.7,2.9C140.7,280.6,140.6,280.7,140.6,280.9z"/>
			<path id="XMLID_409_" class="st41" d="M151.8,288.3c0,1.1,0.7,1.5,1.7,1c0.9-0.5,1.7-1.8,1.7-2.9c0-1.1-0.7-1.5-1.7-1
				C152.5,285.9,151.8,287.2,151.8,288.3z"/>
			<circle id="XMLID_408_" class="st41" cx="148.8" cy="283.2" r="8.9"/>
			<path id="XMLID_407_" class="st89" d="M157.5,284.4c0,0-7.5,4.1-11.2-6.6c0,0-2,4.5-6.8,3.5c0,0,0-7,7.3-8.4
				C146.7,272.9,159.6,271.6,157.5,284.4z"/>
			<path id="XMLID_406_" class="st89" d="M153.3,284.8l-3.2,12.4c-0.3,1.2,0.9,2.2,2,1.7l7.3-3.1c0.6-0.3,1-0.9,0.9-1.6l-2.4-12.2
				c-0.3-1.3-2-1.6-2.7-0.5l-1.7,2.9C153.4,284.5,153.4,284.6,153.3,284.8z"/>
		</g>
	</g>
	<g id="XMLID_298_">
		<g id="XMLID_299_">
			<path id="XMLID_403_" d="M224.3,322.8c0.1,1-1.5,2.5-3.9,3.9c-3.2,1.8-4.3,4.1-8.2,1.9c-1.1-0.6-1.6-1.2-1.6-1.6v-2.4
				c-0.1-1.1,2.6-1.8,4.9-3.2c3.2-1.8,6.6-2.8,8.2-1.9c0.4,0.2,0.6,0.5,0.6,0.9V322.8z"/>
			<path id="XMLID_402_" class="st85" d="M220.4,324.2c3.2-1.8,4.9-3.8,3.3-4.7s-5,0.1-8.2,1.9c-3.2,1.8-7.2,2.5-3.3,4.7
				C216.1,328.3,217.3,326,220.4,324.2z"/>
		</g>
		<g id="XMLID_300_">
			<path id="XMLID_400_" d="M215.5,316.7c0.1,1-1.5,2.5-3.9,3.9c-3.2,1.8-4.3,4.1-8.2,1.9c-1.1-0.6-1.6-1.2-1.6-1.6v-2.4
				c-0.1-1.1,2.6-1.8,4.9-3.2c3.2-1.8,6.6-2.8,8.2-1.9c0.4,0.2,0.6,0.5,0.6,0.9V316.7z"/>
			<path id="XMLID_399_" class="st85" d="M211.6,318.1c3.2-1.8,4.9-3.8,3.3-4.7c-1.6-0.9-5,0.1-8.2,1.9c-3.2,1.8-7.2,2.5-3.3,4.7
				C207.3,322.3,208.5,319.9,211.6,318.1z"/>
		</g>
		<g id="XMLID_301_">
			<path id="XMLID_397_" class="st90" d="M219,244L219,244c-1.2-0.8-2.8-0.4-3.6,0.8L204.6,262c-0.8,1.2-0.4,2.8,0.8,3.6l0,0
				c1.2,0.8,2.8,0.4,3.6-0.8l10.8-17.2C220.6,246.4,220.2,244.7,219,244z"/>
			<path id="XMLID_396_" class="st91" d="M211.9,262.8l-3.5,5.5c-1.2,1.9-3.7,2.4-5.5,1.3l0,0c-1.9-1.2-2.4-3.7-1.3-5.5l3.5-5.5
				C205.1,258.5,209.5,256.9,211.9,262.8z"/>
		</g>
		<g id="XMLID_302_">
			<path id="XMLID_394_" class="st92" d="M210.7,323.4c-0.1-0.2-0.2-0.5-0.2-0.8v-27.2c0-1.7,1.8-3.1,3.9-3.1l0,0
				c2.2,0,3.9,1.4,3.9,3.1V325c0,0.4-0.3,0.8-0.7,0.9C216.2,326.4,212.6,327,210.7,323.4z"/>
		</g>
		<g id="XMLID_303_">
			<path id="XMLID_392_" class="st92" d="M201.9,317c-0.1-0.2-0.2-0.5-0.2-0.8l0.6-27.2c0-1.7,1.8-3.1,4-3l0,0
				c2.2,0,3.9,1.5,3.9,3.2l-0.6,29.5c0,0.4-0.3,0.8-0.7,0.9C207.3,320.1,203.7,320.7,201.9,317z"/>
		</g>
		<path id="XMLID_390_" class="st93" d="M217.1,300.3c-0.1,0.1-0.2,0.1-0.3,0.1c-1.7,0.1-8-1.2-14.3-8.3c-0.5-0.6-0.8-1.4-0.8-2v-20
			c0-1.5,0.5-2.6,1.4-3.1l4.7-2.7c0.9-0.5,2-0.4,3.4,0.3l6.4,3.7c2.6,1.5,4.7,5.2,4.7,8.2v20.1c0,0.5-0.2,0.8-0.5,1L217.1,300.3z"/>
		<path id="XMLID_389_" class="st44" d="M215.3,269.5c0,0.5-0.3,1-1,1.4c-1.3,0.7-3.4,0.7-4.7,0c-0.7-0.4-1-0.9-1-1.4v-4.4
			c0-0.5,0.3-1,1-1.4c1.3-0.7,3.4-0.7,4.7,0c0.7,0.4,1,0.9,1,1.4V269.5z"/>
		<circle id="XMLID_388_" class="st90" cx="212" cy="258.2" r="9.1"/>
		<g id="XMLID_304_">
			<path id="XMLID_387_" class="st90" d="M227.8,298.6L227.8,298.6c1.4-0.5,2.1-1.9,1.6-3.3l-6.9-18.6c-0.5-1.4-1.9-2.1-3.3-1.6l0,0
				c-1.4,0.5-2.1,1.9-1.6,3.3l6.9,18.6C225,298.4,226.4,299.1,227.8,298.6z"/>
			<path id="XMLID_386_" class="st91" d="M217.3,281.9l-2.1-6.2c-0.7-2.1,0.4-4.4,2.5-5.1l0,0c2.1-0.7,4.4,0.4,5.1,2.5l2.1,6.2
				C224.9,279.3,223.4,283.7,217.3,281.9z"/>
		</g>
		<path id="XMLID_384_" class="st94" d="M206.8,266.5c2.9,1.7,5.1,0.4,5.9-0.8c2-3.1,2.3-1,3.5-2.5c1.5-2.5,1.2-6,3.3-7.6
			c3.1-2.3,2.2-6.8-5.8-8.9c-10.7-2.7-15,10.8-8.3,18.6C205.9,266,206.2,266.2,206.8,266.5z"/>
		<path id="XMLID_383_" class="st90" d="M215.2,263.7c0.8,0.8,1.6,0.5,1.9-0.5c0.3-1.1-0.1-2.5-0.9-3.3s-1.6-0.5-1.9,0.5
			C214,261.4,214.4,262.9,215.2,263.7z"/>
	</g>
	<g id="XMLID_305_">
		<g id="XMLID_306_">
			<g id="XMLID_307_">
				<g id="XMLID_308_">
					<path id="XMLID_381_" class="st90" d="M261.7,371.5L261.7,371.5c1,0.7,2.5,0.5,3.2-0.6l10.4-14.7c0.7-1,0.5-2.5-0.6-3.2l0,0
						c-1-0.7-2.5-0.5-3.2,0.6l-10.4,14.7C260.4,369.3,260.7,370.7,261.7,371.5z"/>
					<path id="XMLID_380_" class="st2" d="M268.9,355.1l3.4-4.7c1.1-1.6,3.4-2,5-0.9l0,0c1.6,1.1,2,3.4,0.9,5l-3.3,4.7
						C274.7,359.3,270.8,360.5,268.9,355.1z"/>
				</g>
				<g id="XMLID_309_">
					<path id="XMLID_378_" class="st93" d="M280.6,374c-0.1,0.2-0.3,0.4-0.5,0.5l-12.1,6.9c-1.3,0.8-3.2,0-4.1-1.6l0,0
						c-1-1.7-0.7-3.6,0.7-4.4l14-8c0.3-0.2,0.8-0.1,1,0.1C280.5,368.5,282.5,370.9,280.6,374z"/>
				</g>
				<g id="XMLID_310_">
					<path id="XMLID_376_" class="st93" d="M288.6,378.1c-0.1,0.2-0.3,0.4-0.5,0.5l-12.1,6.9c-1.3,0.8-3.2,0-4.1-1.6l0,0
						c-1-1.7-0.7-3.6,0.7-4.4l14-8c0.3-0.2,0.8-0.1,1,0.1C288.5,372.6,290.6,375,288.6,378.1z"/>
				</g>
				<g id="XMLID_311_">
					<g id="XMLID_312_">
						<path id="XMLID_374_" class="st42" d="M269.6,399c0.1,1-2.3,1.6-4.3,2.8c-2.8,1.6-5.8,2.5-7.3,1.7c-0.4-0.2-0.5-0.5-0.5-0.8
							l0-1.6c-0.1-0.9,1.3-2.4,3.4-4.4c2.3-2.3,3.8-3.7,7.3-1.7c1,0.6,1.4,1,1.4,1.4L269.6,399z"/>
						<path id="XMLID_373_" class="st95" d="M260.9,396.6c-2.8,2.7-4.3,4.3-2.9,5.2c1.4,0.8,4.3-0.4,7.3-2.7c2.6-2,6.4-2.2,2.9-4.2
							C264.7,392.9,263.3,394.3,260.9,396.6z"/>
					</g>
					<path id="XMLID_371_" class="st93" d="M263.2,394.6c-0.1-0.2-0.2-0.5-0.2-0.7v-16.2c0-1.5,1.6-2.8,3.5-2.8l0,0
						c1.9,0,3.5,1.2,3.5,2.8V396c0,0.4-0.3,0.7-0.6,0.8C268,397.3,264.9,397.8,263.2,394.6z"/>
				</g>
				<path id="XMLID_369_" class="st96" d="M287.4,379.5c-0.1,0.1-0.2,0.1-0.3,0.1c-1.5,0.1-7.1-1.1-12.6-7.3
					c-0.5-0.5-0.8-1.2-0.8-1.8v-17.7c0-1.3,0.5-2.3,1.2-2.7l4.2-2.4c0.8-0.5,1.8-0.4,3,0.3l5.7,3.3c2.3,1.3,4.2,4.6,4.2,7.2v17.8
					c0,0.4-0.1,0.7-0.4,0.9L287.4,379.5z"/>
				<g id="XMLID_313_">
					<g id="XMLID_314_">
						<path id="XMLID_368_" class="st42" d="M278,402.6c0.1,1-2.3,1.6-4.3,2.8c-2.8,1.6-5.8,2.5-7.3,1.7c-0.4-0.2-0.5-0.5-0.5-0.8
							l0-1.6c-0.1-0.9,1.3-2.4,3.4-4.4c2.3-2.3,3.8-3.7,7.3-1.7c1,0.6,1.4,1,1.4,1.4L278,402.6z"/>
						<path id="XMLID_367_" class="st95" d="M269.3,400.3c-2.8,2.7-4.3,4.3-2.9,5.2c1.4,0.8,4.3-0.4,7.3-2.7c2.6-2,6.4-2.2,2.9-4.2
							C273.1,396.6,271.6,398,269.3,400.3z"/>
					</g>
					<path id="XMLID_365_" class="st93" d="M271.5,398.3c-0.1-0.2-0.2-0.5-0.2-0.7v-16.2c0-1.5,1.6-2.8,3.5-2.8l0,0
						c1.9,0,3.5,1.2,3.5,2.8v18.3c0,0.4-0.3,0.7-0.6,0.8C276.4,400.9,273.2,401.5,271.5,398.3z"/>
				</g>
				<path id="XMLID_363_" class="st44" d="M286.8,352.2c0,0.4-0.3,0.9-0.9,1.2c-1.1,0.7-3,0.7-4.2,0c-0.6-0.3-0.9-0.8-0.9-1.2v-3.9
					c0-0.4,0.3-0.9,0.9-1.2c1.1-0.7,3-0.7,4.2,0c0.6,0.3,0.9,0.8,0.9,1.2V352.2z"/>
				<circle id="XMLID_362_" class="st90" cx="283.8" cy="342.2" r="8.1"/>
				<path id="XMLID_361_" class="st57" d="M288.2,348.6c-0.5-0.5-1.3-1.5-1.7-2.7c0-0.1,0-0.1,0-0.2v-3.9c0-0.8-0.2-1.5-0.6-2.2
					c-0.3-0.6-0.9-1-1.6-1c0,0-6.5,2.8-8.9-2.5c-0.2-0.4,0-0.9,0.5-1c0.5-0.1,1.1-0.5,1.8-1.6c0.2-0.3,0.5-0.4,0.8-0.3
					c0.6,0.2,1.8,0.2,2.9-1.1c0.1-0.2,0.3-0.2,0.5-0.2c1.2,0,5.5,0.2,7.8,1.9c0,0,0,0,0,0c0.5,0.4,8.5,7.3-0.6,14.8
					C288.9,348.8,288.4,348.8,288.2,348.6z"/>
				<path id="XMLID_360_" class="st90" d="M286.5,346.8c0,1,0.7,1.4,1.5,0.9c0.8-0.5,1.5-1.7,1.5-2.6c0-1-0.7-1.4-1.5-0.9
					C287.2,344.6,286.5,345.8,286.5,346.8z"/>
			</g>
			<g id="XMLID_315_">
				<polygon id="XMLID_358_" class="st97" points="263.5,374.5 278,382.8 289.1,376.7 274.3,368.3 				"/>
				<polygon id="XMLID_357_" class="st98" points="263.5,374.5 261.3,360 277.3,369.2 278,382.8 				"/>
			</g>
		</g>
		<g id="XMLID_316_">
			<path id="XMLID_354_" class="st90" d="M276.2,376.9L276.2,376.9c1,0.7,2.5,0.5,3.2-0.5l10.4-14.7c0.7-1,0.5-2.5-0.5-3.2l0,0
				c-1-0.7-2.5-0.5-3.2,0.5l-10.4,14.7C274.9,374.7,275.2,376.2,276.2,376.9z"/>
			<path id="XMLID_353_" class="st2" d="M283.9,361.3l2.9-5c1-1.7,3.2-2.3,4.9-1.3l0,0c1.7,1,2.3,3.2,1.3,4.9l-2.9,5
				C290,364.8,286.2,366.4,283.9,361.3z"/>
		</g>
	</g>
	<g id="XMLID_317_">
		<g id="XMLID_318_">
			<path id="XMLID_350_" class="st41" d="M70,326.1L70,326.1c-1.3,0.2-2.6-0.7-2.8-2l-1.8-9.9c-0.2-1.3,0.7-2.6,2-2.8l0,0
				c1.3-0.2,2.6,0.7,2.8,2l1.8,9.9C72.2,324.6,71.3,325.9,70,326.1z"/>
			<path id="XMLID_349_" class="st89" d="M72,316.1l-1.1-6c-0.4-2-2.3-3.4-4.4-3l0,0c-2,0.4-3.4,2.3-3,4.4l1.1,6
				C64.6,317.4,67.8,320.3,72,316.1z"/>
			<path id="XMLID_348_" class="st41" d="M80.9,327L80.9,327c-0.4,1.3-1.8,2-3.1,1.6l-8.4-2.5c-1.3-0.1-2.4-1.3-2.3-2.6l0,0
				c0.1-1.3,1.3-2.4,2.6-2.3l9.6,2.7C80.5,324.3,81.3,325.7,80.9,327z"/>
		</g>
		<g id="XMLID_319_">
			<g id="XMLID_320_">
				<path id="XMLID_346_" class="st42" d="M54.7,365.7c-0.1,1.1,2.4,1.7,4.6,3c3,1.7,6.2,2.6,7.7,1.8c0.4-0.2,0.6-0.5,0.6-0.8l0-1.7
					c0.1-1-1.4-2.5-3.6-4.7c-2.5-2.4-4-3.9-7.7-1.8c-1,0.6-1.5,1.1-1.5,1.4L54.7,365.7z"/>
				<path id="XMLID_345_" class="st95" d="M63.9,363.2c3,2.9,4.6,4.6,3.1,5.5c-1.5,0.9-4.6-0.4-7.7-2.8c-2.7-2.1-6.7-2.3-3.1-4.4
					C59.8,359.3,61.4,360.8,63.9,363.2z"/>
			</g>
			<path id="XMLID_343_" class="st99" d="M61.5,361.1c0.1-0.2,0.2-0.5,0.2-0.7v-25.5c0-1.6-1.7-2.9-3.7-2.9l0,0
				c-2,0-3.7,1.3-3.7,2.9v27.7c0,0.4,0.3,0.8,0.7,0.9C56.4,363.9,59.7,364.5,61.5,361.1z"/>
		</g>
		<g id="XMLID_321_">
			<g id="XMLID_322_">
				<path id="XMLID_341_" class="st42" d="M62.6,359.8c-0.1,1.1,2.4,1.7,4.6,3c3,1.7,6.2,2.6,7.7,1.8c0.4-0.2,0.6-0.5,0.6-0.8l0-1.7
					c0.1-1-1.4-2.5-3.6-4.7c-2.5-2.4-4-3.9-7.7-1.8c-1,0.6-1.5,1.1-1.5,1.4L62.6,359.8z"/>
				<path id="XMLID_340_" class="st95" d="M71.9,357.3c3,2.9,4.6,4.6,3.1,5.5c-1.5,0.9-4.6-0.4-7.7-2.8c-2.7-2.1-6.7-2.3-3.1-4.4
					C67.8,353.4,69.4,354.9,71.9,357.3z"/>
			</g>
			<path id="XMLID_338_" class="st100" d="M69.5,355.2c0.1-0.2,0.2-0.5,0.2-0.7V329c0-1.6-1.7-2.9-3.7-2.9l0,0c-2,0-3.7,1.3-3.7,2.9
				v27.7c0,0.4,0.3,0.8,0.7,0.9C64.3,358,67.7,358.6,69.5,355.2z"/>
		</g>
		<path id="XMLID_336_" class="st26" d="M55.5,339.4c0.1,0.1,0.2,0.1,0.3,0.1c1.6,0.1,7.5-1.2,13.4-7.8c0.5-0.5,0.8-1.3,0.8-1.9
			v-18.8c0-1.4-0.5-2.4-1.3-2.9l-4.4-2.6c-0.8-0.5-1.9-0.4-3.1,0.3l-6,3.5c-2.4,1.4-4.4,4.8-4.4,7.7v18.9c0,0.4,0.2,0.8,0.4,0.9
			L55.5,339.4z"/>
		<path id="XMLID_335_" class="st101" d="M57.2,310.6c0,0.5,0.3,0.9,0.9,1.3c1.2,0.7,3.2,0.7,4.4,0c0.6-0.4,0.9-0.8,0.9-1.3v-4.1
			c0-0.5-0.3-0.9-0.9-1.3c-1.2-0.7-3.2-0.7-4.4,0c-0.6,0.4-0.9,0.8-0.9,1.3V310.6z"/>
		<circle id="XMLID_334_" class="st90" cx="60.3" cy="300" r="8.6"/>
		<path id="XMLID_333_" class="st102" d="M53.2,289.8c-7.3,2.5-3.7,13.2,1.6,17.1c2.6-1.4-0.6-4,3-2.2c0.7-3.4-0.9-2.4,0.1-6.7
			c3.7,1.9,11-0.4,12.1-4c-1.3-0.6-2.7-4.3-5.7-5.6C60.4,286.6,55.4,287.4,53.2,289.8z"/>
		<path id="XMLID_332_" class="st90" d="M57.5,304.8c0,1-0.7,1.4-1.6,0.9s-1.6-1.8-1.6-2.8c0-1,0.7-1.4,1.6-0.9
			C56.7,302.5,57.5,303.8,57.5,304.8z"/>
		<polygon id="XMLID_331_" class="st103" points="54.3,327 67.7,334.7 81.1,327 81.1,321.1 67.7,313.3 54.3,321.1 		"/>
		<polygon id="XMLID_330_" class="st104" points="67.7,313.3 54.3,321.1 67.7,328.7 81.1,321.1 		"/>
		<g id="XMLID_323_">
			<path id="XMLID_329_" class="st41" d="M54.7,332.1L54.7,332.1c-1.3,0.2-2.6-0.7-2.8-2.1l-1.4-10c-0.2-1.3,0.7-2.6,2.1-2.8l0,0
				c1.3-0.2,2.6,0.7,2.8,2.1l1.4,10C57,330.6,56,331.9,54.7,332.1z"/>
			<path id="XMLID_328_" class="st89" d="M57.1,322.1l-0.9-6.1c-0.3-2.1-2.2-3.5-4.3-3.2l0,0c-2.1,0.3-3.5,2.2-3.2,4.3l0.9,6.1
				C49.6,323.2,52.7,326.2,57.1,322.1z"/>
			<path id="XMLID_327_" class="st41" d="M68.2,334.3L68.2,334.3c-0.4,1.3-1.8,1.9-3.1,1.5l-11-3.8c-1.3-0.1-2.3-1.3-2.2-2.7l0,0
				c0.1-1.3,1.3-2.3,2.7-2.2l12.1,4C68,331.6,68.6,333,68.2,334.3z"/>
		</g>
	</g>
</g>
<g id="DESIGNED_BY_FREEPIK">
</g>
</svg>
