<?xml version="1.0" encoding="utf-8"?>
<!-- Generator: Adobe Illustrator 19.0.0, SVG Export Plug-In . SVG Version: 6.00 Build 0)  -->
<svg version="1.1" id="Capa_1" xmlns="http://www.w3.org/2000/svg" xmlns:xlink="http://www.w3.org/1999/xlink" x="0px" y="0px"
	 viewBox="306 -343 762.5 720" style="enable-background:new 306 -343 762.5 720;" xml:space="preserve">
<style type="text/css">
	.st0{fill:#E9F4FA;fill-opacity:8.000000e-002;}
	.st1{fill:#376DEB;}
	.st2{fill:none;}
	.st3{font-family:'MyriadPro-Regular';}
	.st4{font-size:50.05px;}
	.st5{font-size:55px;}
</style>
<path class="st0" d="M819.3,307c-42.4,7.1-101.2-5.7-138.5-24c-53.2-26.4-69.6-82-110-119.8c-29.8-27.8-70.5-42-107.5-60.1
	c-37.3-18.3-74.5-43.8-85.7-81.8c-7.6-31.7-1.1-64.9,18-92.4c17.7-27.8,42.2-50.7,65.1-74.7c21.1-21.9,41.1-45.3,66.4-62.3
	c51.6-34.1,121.2-38.4,181.8-21.3c60.4,16.8,112.9,52.6,159.3,93c70.5,61.5,132,143.1,128.1,233.4
	C992.3,180.6,912.4,291.6,819.3,307z"/>
<path class="st0" d="M482.6,132c39.3,11.8,37.5,66.4-2.9,74.7h-0.4c-41.1,8.3-107-29.2-63.5-69c13.5-12.2,42.2-13.2,66.9-5.9
	L482.6,132L482.6,132z"/>
<g>
	<g>
		<g>
			<path class="st1" d="M732.9-247.5h-92.8c-3.5,0-6.3,2.9-6.3,6.4v84c0,3.5,2.8,6.4,6.3,6.4h92.8c3.5,0,6.3-2.9,6.3-6.4v-84
				C739.3-244.6,736.4-247.5,732.9-247.5z M713.8-236.7c0-1.3,1-2.4,2.3-2.4h2.3c1.3,0,2.3,1.1,2.3,2.4v2.7c0,1.3-1,2.4-2.3,2.4
				h-2.3c-1.3,0-2.3-1.1-2.3-2.4V-236.7z M702.9-236.7c0-1.3,1-2.4,2.3-2.4h2.3c1.3,0,2.3,1.1,2.3,2.4v2.7c0,1.3-1,2.4-2.3,2.4h-2.3
				c-1.3,0-2.3-1.1-2.3-2.4V-236.7z M731.7-158.3h-90.2v-66.3h90.2L731.7-158.3L731.7-158.3z M731.7-234.1c0,1.3-1,2.4-2.3,2.4H727
				c-1.3,0-2.3-1.1-2.3-2.4v-2.7c0-1.3,1-2.4,2.3-2.4h2.3c1.3,0,2.3,1.1,2.3,2.4V-234.1z"/>
			<path class="st1" d="M656.5-189l17,8c0.4,0.2,0.9,0.3,1.4,0.3c0.6,0,1.2-0.2,1.8-0.5c1-0.6,1.5-1.7,1.5-2.8v-0.1
				c0-1.3-0.7-2.5-1.9-3l-10.6-5l10.6-5c1.2-0.5,1.9-1.7,1.9-3v-0.1c0-1.1-0.6-2.2-1.5-2.8c-0.5-0.3-1.1-0.5-1.8-0.5
				c-0.5,0-1,0.1-1.4,0.3l-17,8c-1.2,0.5-1.9,1.7-1.9,3v0.2C654.6-190.7,655.3-189.5,656.5-189z"/>
			<path class="st1" d="M678.3-172.7c0.6,0.9,1.6,1.4,2.7,1.4h0.1c1.4,0,2.7-0.9,3.1-2.3l11.2-35c0.3-1,0.1-2.1-0.5-3
				c-0.6-0.9-1.6-1.4-2.7-1.4h-0.1c-1.4,0-2.7,0.9-3.1,2.3l-11.2,35C677.5-174.7,677.6-173.6,678.3-172.7z"/>
			<path class="st1" d="M695-200.1c0,1.3,0.7,2.5,1.9,3l10.6,5l-10.6,5c-1.2,0.5-1.9,1.7-1.9,3v0.1c0,1.1,0.6,2.2,1.5,2.8
				c0.5,0.3,1.1,0.5,1.8,0.5c0.5,0,0.9-0.1,1.4-0.3l17-8c1.2-0.5,1.9-1.7,1.9-3v-0.2c0-1.3-0.7-2.5-1.9-3l-17-8
				c-0.4-0.2-0.9-0.3-1.4-0.3c-0.6,0-1.2,0.2-1.8,0.5C695.6-202.4,695-201.3,695-200.1L695-200.1L695-200.1L695-200.1z"/>
		</g>
	</g>
</g>
<rect x="513.7" y="-123.6" class="st2" width="370" height="74.7"/>
<text transform="matrix(1.0989 0 0 1 520.127 -84.5546)" class="st3 st4">I WORK CLEAN</text>
<rect x="334.5" y="-46.5" class="st2" width="702" height="252"/>
<rect x="306" y="-48" class="st2" width="762.5" height="326"/>
<text transform="matrix(1 0 0 1 395.4521 -8.9507)"><tspan x="0" y="0" class="st3 st5">I keep the code clean and</tspan><tspan x="-2.9" y="66" class="st3 st5">professional. That is how I</tspan><tspan x="-24.4" y="132" class="st3 st5">can deliver quality websites</tspan><tspan x="69.6" y="198" class="st3 st5">with blazing speed.</tspan></text>
</svg>
